<?xml version="1.0"?>
<svg xmlns="http://www.w3.org/2000/svg" xmlns:lc="http://www.librecad.org" xmlns:xlink="http://www.w3.org/1999/xlink" width="300mm" height="420mm" viewBox="0 0 300 420">
    <g lc:layername="0" lc:is_locked="false" lc:is_construction="false" fill="none" stroke="black" stroke-width="1">
        <path d="M0,420 L300,420 L300,0 L0,0 L0,420 Z "/>
        <g lc:blockname="Lateral_Base_Motor">
            <g lc:layername="0" lc:is_locked="false" lc:is_construction="false" fill="none" stroke="black" stroke-width="1">
                <g lc:blockname="FILLET">
                    <g lc:layername="0" lc:is_locked="false" lc:is_construction="false" fill="none" stroke="black" stroke-width="1">
                        <line x1="290.07533623" y1="415.96791087" x2="205.07533623" y2="415.96791087"/>
                        <path d="M290.07533623,415.96791087 A5,5 0 0,0 295.07533623,410.96791087 "/>
                        <line x1="205.07533623" y1="415.96791087" x2="205.07533623" y2="295.96791087"/>
                        <line x1="295.07533623" y1="300.96791087" x2="295.07533623" y2="410.96791087"/>
                        <line x1="205.07533623" y1="295.96791087" x2="290.07533623" y2="295.96791087"/>
                        <path d="M295.07533623,300.96791087 A5,5 0 0,0 290.07533623,295.96791087 "/>
                        <circle cx="220.07533623" cy="411.96791087" r="2.1"/>
                        <circle cx="250.07533623" cy="411.96791087" r="2.1"/>
                        <circle cx="280.07533623" cy="411.96791087" r="2.1"/>
                        <circle cx="286.87533623" cy="321.16791087" r="2.6"/>
                        <circle cx="286.87533623" cy="390.76791087" r="2.6"/>
                        <circle cx="252.07533623" cy="355.96791087" r="36.6"/>
                        <circle cx="217.27533623" cy="321.16791087" r="2.6"/>
                        <circle cx="217.27533623" cy="390.76791087" r="2.6"/>
                        <circle cx="250.07533623" cy="299.96791087" r="2.1"/>
                        <circle cx="280.07533623" cy="299.96791087" r="2.1"/>
                        <circle cx="220.07533623" cy="299.96791087" r="2.1"/>
                        <circle cx="252.07533623" cy="355.96791087" r="10"/>
                    </g>
                </g>
            </g>
        </g>
        <g lc:blockname="Angulo_Fijacion">
            <g lc:layername="0" lc:is_locked="false" lc:is_construction="false" fill="none" stroke="black" stroke-width="1">
                <g lc:blockname="POCKET001">
                    <g lc:layername="0" lc:is_locked="false" lc:is_construction="false" fill="none" stroke="black" stroke-width="1">
                        <line x1="199.70661779" y1="415.74698042" x2="199.70661779" y2="315.74698042"/>
                        <line x1="114.70661779" y1="415.74698042" x2="199.70661779" y2="415.74698042"/>
                        <line x1="199.70661779" y1="315.74698042" x2="179.70661779" y2="315.74698042"/>
                        <line x1="179.70661779" y1="315.74698042" x2="114.70661779" y2="395.74698042"/>
                        <line x1="114.70661779" y1="395.74698042" x2="114.70661779" y2="415.74698042"/>
                    </g>
                </g>
            </g>
        </g>
        <g lc:blockname="Angulo_Fijacion-0">
            <g lc:layername="0" lc:is_locked="false" lc:is_construction="false" fill="none" stroke="black" stroke-width="1">
                <g lc:blockname="POCKET001-0">
                    <g lc:layername="0" lc:is_locked="false" lc:is_construction="false" fill="none" stroke="black" stroke-width="1">
                        <line x1="87.08603319" y1="295.92199883" x2="87.08603319" y2="195.92199883"/>
                        <line x1="2.08603319" y1="295.92199883" x2="87.08603319" y2="295.92199883"/>
                        <line x1="87.08603319" y1="195.92199883" x2="67.08603319" y2="195.92199883"/>
                        <line x1="67.08603319" y1="195.92199883" x2="2.08603319" y2="275.92199883"/>
                        <line x1="2.08603319" y1="275.92199883" x2="2.08603319" y2="295.92199883"/>
                    </g>
                </g>
            </g>
        </g>
        <g lc:blockname="Soporte_rodillos">
            <g lc:layername="0" lc:is_locked="false" lc:is_construction="false" fill="none" stroke="black" stroke-width="1">
                <g lc:blockname="POLARPATTERN">
                    <g lc:layername="0" lc:is_locked="false" lc:is_construction="false" fill="none" stroke="black" stroke-width="1">
                        <path d="M79.93422583,307.275197 A12,12 0 0,0 67.93422583,295.275197 "/>
                        <line x1="79.93422583" y1="307.275197" x2="79.93422583" y2="317.275197"/>
                        <line x1="67.93422583" y1="295.275197" x2="17.93422583" y2="295.275197"/>
                        <path d="M79.70698458,319.59944991 A12,12 0 0,0 79.93422583,317.275197 "/>
                        <path d="M17.93422583,295.275197 A12,12 0 0,0 5.93422583,307.275197 "/>
                        <line x1="79.70698458" y1="319.59944991" x2="64.51761686" y2="396.53632734"/>
                        <line x1="5.93422583" y1="307.275197" x2="5.93422583" y2="317.275197"/>
                        <path d="M21.35083481,396.53632734 A22,22 0 0,0 64.51761686,396.53632734 "/>
                        <path d="M5.93422583,317.275197 A12,12 0 0,0 6.16146709,319.59944991 "/>
                        <line x1="6.16146709" y1="319.59944991" x2="21.35083481" y2="396.53632734"/>
                        <circle cx="42.93422583" cy="392.275197" r="14.05"/>
                        <circle cx="26.91275586" cy="383.025197" r="1.65"/>
                        <circle cx="42.93422583" cy="410.775197" r="1.65"/>
                        <line x1="12.83422583" y1="307.275197" x2="12.83422583" y2="317.275197"/>
                        <path d="M23.03422583,307.275197 A5.1,5.1 0 0,0 12.83422583,307.275197 "/>
                        <path d="M12.83422583,317.275197 A5.1,5.1 0 0,0 23.03422583,317.275197 "/>
                        <line x1="23.03422583" y1="307.275197" x2="23.03422583" y2="317.275197"/>
                        <line x1="62.83422583" y1="307.275197" x2="62.83422583" y2="317.275197"/>
                        <path d="M73.03422583,307.275197 A5.1,5.1 0 1,0 62.83422583,307.275197 "/>
                        <path d="M62.83422583,317.275197 A5.1,5.1 0 0,0 73.03422583,317.275197 "/>
                        <line x1="73.03422583" y1="307.275197" x2="73.03422583" y2="317.275197"/>
                        <circle cx="58.9556958" cy="383.025197" r="1.65"/>
                        <circle cx="42.93422583" cy="392.275197" r="12"/>
                    </g>
                </g>
            </g>
        </g>
        <g lc:blockname="Base_Motor">
            <g lc:layername="0" lc:is_locked="false" lc:is_construction="false" fill="none" stroke="black" stroke-width="1">
                <g lc:blockname="POCKET">
                    <g lc:layername="0" lc:is_locked="false" lc:is_construction="false" fill="none" stroke="black" stroke-width="1">
                        <line x1="43.47387659" y1="138.55530172" x2="293.47387659" y2="138.55530172"/>
                        <line x1="43.47387659" y1="288.55530172" x2="43.47387659" y2="138.55530172"/>
                        <line x1="293.47387659" y1="138.55530172" x2="293.47387659" y2="288.55530172"/>
                        <line x1="293.47387659" y1="288.55530172" x2="43.47387659" y2="288.55530172"/>
                        <circle cx="286.47387659" cy="281.55530172" r="2.75"/>
                        <circle cx="286.47387659" cy="251.55530172" r="2.75"/>
                        <circle cx="286.47387659" cy="145.55530172" r="2.75"/>
                        <circle cx="286.47387659" cy="175.55530172" r="2.75"/>
                        <circle cx="250.47387659" cy="251.55530172" r="2.75"/>
                        <circle cx="250.47387659" cy="145.55530172" r="2.75"/>
                        <circle cx="250.47387659" cy="175.55530172" r="2.75"/>
                        <circle cx="250.47387659" cy="281.55530172" r="2.75"/>
                        <circle cx="47.47387659" cy="206.55530172" r="2.1"/>
                        <circle cx="47.47387659" cy="241.55530172" r="2.1"/>
                        <circle cx="103.47387659" cy="142.55530172" r="2.1"/>
                        <circle cx="58.47387659" cy="142.55530172" r="2.1"/>
                        <circle cx="47.47387659" cy="171.55530172" r="2.1"/>
                        <circle cx="159.47387659" cy="171.55530172" r="2.1"/>
                        <circle cx="159.47387659" cy="206.55530172" r="2.1"/>
                        <circle cx="159.47387659" cy="241.55530172" r="2.1"/>
                        <circle cx="148.47387659" cy="142.55530172" r="2.1"/>
                    </g>
                </g>
            </g>
        </g>
    </g>
</svg>
