G04 #@! TF.GenerationSoftware,KiCad,Pcbnew,(5.1.5)-3*
G04 #@! TF.CreationDate,2020-04-24T15:39:01+02:00*
G04 #@! TF.ProjectId,PlacaIOAzimut,506c6163-6149-44f4-917a-696d75742e6b,rev?*
G04 #@! TF.SameCoordinates,Original*
G04 #@! TF.FileFunction,Other,User*
%FSLAX46Y46*%
G04 Gerber Fmt 4.6, Leading zero omitted, Abs format (unit mm)*
G04 Created by KiCad (PCBNEW (5.1.5)-3) date 2020-04-24 15:39:01*
%MOMM*%
%LPD*%
G04 APERTURE LIST*
%ADD10C,0.050000*%
G04 APERTURE END LIST*
D10*
X125170000Y-111760000D02*
G75*
G03X125170000Y-111760000I-3250000J0D01*
G01*
X125170000Y-47244000D02*
G75*
G03X125170000Y-47244000I-3250000J0D01*
G01*
X46504000Y-97998000D02*
X46504000Y-113998000D01*
X55604000Y-97998000D02*
X46504000Y-97998000D01*
X55604000Y-113998000D02*
X55604000Y-97998000D01*
X46504000Y-113998000D02*
X55604000Y-113998000D01*
X85886000Y-62204000D02*
X76086000Y-62204000D01*
X85886000Y-67854000D02*
X85886000Y-62204000D01*
X76086000Y-67854000D02*
X85886000Y-67854000D01*
X76086000Y-62204000D02*
X76086000Y-67854000D01*
X85886000Y-76936000D02*
X76086000Y-76936000D01*
X85886000Y-82586000D02*
X85886000Y-76936000D01*
X76086000Y-82586000D02*
X85886000Y-82586000D01*
X76086000Y-76936000D02*
X76086000Y-82586000D01*
X71154000Y-76936000D02*
X61354000Y-76936000D01*
X71154000Y-82586000D02*
X71154000Y-76936000D01*
X61354000Y-82586000D02*
X71154000Y-82586000D01*
X61354000Y-76936000D02*
X61354000Y-82586000D01*
X73626000Y-88622000D02*
X85886000Y-88622000D01*
X73626000Y-85622000D02*
X73626000Y-88622000D01*
X85886000Y-85622000D02*
X73626000Y-85622000D01*
X85886000Y-88622000D02*
X85886000Y-85622000D01*
X58894000Y-88622000D02*
X71154000Y-88622000D01*
X58894000Y-85622000D02*
X58894000Y-88622000D01*
X71154000Y-85622000D02*
X58894000Y-85622000D01*
X71154000Y-88622000D02*
X71154000Y-85622000D01*
X73626000Y-73890000D02*
X85886000Y-73890000D01*
X73626000Y-70890000D02*
X73626000Y-73890000D01*
X85886000Y-70890000D02*
X73626000Y-70890000D01*
X85886000Y-73890000D02*
X85886000Y-70890000D01*
X46504000Y-65980000D02*
X46504000Y-96980000D01*
X55604000Y-65980000D02*
X46504000Y-65980000D01*
X55604000Y-96980000D02*
X55604000Y-65980000D01*
X46504000Y-96980000D02*
X55604000Y-96980000D01*
X58186000Y-115040000D02*
X94186000Y-115040000D01*
X58186000Y-105940000D02*
X58186000Y-115040000D01*
X94186000Y-105940000D02*
X58186000Y-105940000D01*
X94186000Y-115040000D02*
X94186000Y-105940000D01*
X46504000Y-43976000D02*
X46504000Y-64976000D01*
X55604000Y-43976000D02*
X46504000Y-43976000D01*
X55604000Y-64976000D02*
X55604000Y-43976000D01*
X46504000Y-64976000D02*
X55604000Y-64976000D01*
X71154000Y-58904000D02*
X71154000Y-55904000D01*
X71154000Y-55904000D02*
X58894000Y-55904000D01*
X58894000Y-55904000D02*
X58894000Y-58904000D01*
X58894000Y-58904000D02*
X71154000Y-58904000D01*
X73626000Y-58904000D02*
X85886000Y-58904000D01*
X73626000Y-55904000D02*
X73626000Y-58904000D01*
X85886000Y-55904000D02*
X73626000Y-55904000D01*
X85886000Y-58904000D02*
X85886000Y-55904000D01*
X71154000Y-74144000D02*
X71154000Y-71144000D01*
X71154000Y-71144000D02*
X58894000Y-71144000D01*
X58894000Y-71144000D02*
X58894000Y-74144000D01*
X58894000Y-74144000D02*
X71154000Y-74144000D01*
X61354000Y-46964000D02*
X61354000Y-52614000D01*
X61354000Y-52614000D02*
X71154000Y-52614000D01*
X71154000Y-52614000D02*
X71154000Y-46964000D01*
X71154000Y-46964000D02*
X61354000Y-46964000D01*
X85886000Y-46964000D02*
X76086000Y-46964000D01*
X85886000Y-52614000D02*
X85886000Y-46964000D01*
X76086000Y-52614000D02*
X85886000Y-52614000D01*
X76086000Y-46964000D02*
X76086000Y-52614000D01*
X61354000Y-62204000D02*
X61354000Y-67854000D01*
X61354000Y-67854000D02*
X71154000Y-67854000D01*
X71154000Y-67854000D02*
X71154000Y-62204000D01*
X71154000Y-62204000D02*
X61354000Y-62204000D01*
X81814000Y-94562000D02*
X60964000Y-94562000D01*
X60964000Y-94562000D02*
X60964000Y-105112000D01*
X60964000Y-105112000D02*
X81814000Y-105112000D01*
X81814000Y-105112000D02*
X81814000Y-94562000D01*
X109720000Y-98548000D02*
X119610000Y-98548000D01*
X109720000Y-99418000D02*
X109720000Y-98548000D01*
X101090000Y-99418000D02*
X109720000Y-99418000D01*
X101090000Y-98548000D02*
X101090000Y-99418000D01*
X91210000Y-98548000D02*
X101090000Y-98548000D01*
X114660000Y-43618000D02*
X114660000Y-49788000D01*
X96160000Y-43618000D02*
X114660000Y-43618000D01*
X96160000Y-49788000D02*
X96160000Y-43618000D01*
X96160000Y-49788000D02*
X91210000Y-49788000D01*
X119610000Y-49788000D02*
X114660000Y-49788000D01*
X119610000Y-98548000D02*
X119610000Y-49788000D01*
X91210000Y-49788000D02*
X91210000Y-98548000D01*
M02*
