G04 #@! TF.GenerationSoftware,KiCad,Pcbnew,(6.0.4)*
G04 #@! TF.CreationDate,2022-04-21T17:37:51+02:00*
G04 #@! TF.ProjectId,PlacaIOAzimut,506c6163-6149-44f4-917a-696d75742e6b,rev?*
G04 #@! TF.SameCoordinates,Original*
G04 #@! TF.FileFunction,Legend,Top*
G04 #@! TF.FilePolarity,Positive*
%FSLAX46Y46*%
G04 Gerber Fmt 4.6, Leading zero omitted, Abs format (unit mm)*
G04 Created by KiCad (PCBNEW (6.0.4)) date 2022-04-21 17:37:51*
%MOMM*%
%LPD*%
G01*
G04 APERTURE LIST*
%ADD10C,0.150000*%
%ADD11C,0.120000*%
%ADD12C,0.127000*%
%ADD13C,0.200000*%
%ADD14C,0.010000*%
G04 APERTURE END LIST*
D10*
X95822095Y-107808380D02*
X95822095Y-106808380D01*
X96060190Y-106808380D01*
X96203047Y-106856000D01*
X96298285Y-106951238D01*
X96345904Y-107046476D01*
X96393523Y-107236952D01*
X96393523Y-107379809D01*
X96345904Y-107570285D01*
X96298285Y-107665523D01*
X96203047Y-107760761D01*
X96060190Y-107808380D01*
X95822095Y-107808380D01*
X97012571Y-106808380D02*
X97203047Y-106808380D01*
X97298285Y-106856000D01*
X97393523Y-106951238D01*
X97441142Y-107141714D01*
X97441142Y-107475047D01*
X97393523Y-107665523D01*
X97298285Y-107760761D01*
X97203047Y-107808380D01*
X97012571Y-107808380D01*
X96917333Y-107760761D01*
X96822095Y-107665523D01*
X96774476Y-107475047D01*
X96774476Y-107141714D01*
X96822095Y-106951238D01*
X96917333Y-106856000D01*
X97012571Y-106808380D01*
X97869714Y-107808380D02*
X97869714Y-106808380D01*
X98203047Y-107522666D01*
X98536380Y-106808380D01*
X98536380Y-107808380D01*
X99203047Y-106808380D02*
X99393523Y-106808380D01*
X99488761Y-106856000D01*
X99584000Y-106951238D01*
X99631619Y-107141714D01*
X99631619Y-107475047D01*
X99584000Y-107665523D01*
X99488761Y-107760761D01*
X99393523Y-107808380D01*
X99203047Y-107808380D01*
X99107809Y-107760761D01*
X99012571Y-107665523D01*
X98964952Y-107475047D01*
X98964952Y-107141714D01*
X99012571Y-106951238D01*
X99107809Y-106856000D01*
X99203047Y-106808380D01*
X100774476Y-107522666D02*
X101250666Y-107522666D01*
X100679238Y-107808380D02*
X101012571Y-106808380D01*
X101345904Y-107808380D01*
X101631619Y-107760761D02*
X101774476Y-107808380D01*
X102012571Y-107808380D01*
X102107809Y-107760761D01*
X102155428Y-107713142D01*
X102203047Y-107617904D01*
X102203047Y-107522666D01*
X102155428Y-107427428D01*
X102107809Y-107379809D01*
X102012571Y-107332190D01*
X101822095Y-107284571D01*
X101726857Y-107236952D01*
X101679238Y-107189333D01*
X101631619Y-107094095D01*
X101631619Y-106998857D01*
X101679238Y-106903619D01*
X101726857Y-106856000D01*
X101822095Y-106808380D01*
X102060190Y-106808380D01*
X102203047Y-106856000D01*
X103203047Y-107713142D02*
X103155428Y-107760761D01*
X103012571Y-107808380D01*
X102917333Y-107808380D01*
X102774476Y-107760761D01*
X102679238Y-107665523D01*
X102631619Y-107570285D01*
X102584000Y-107379809D01*
X102584000Y-107236952D01*
X102631619Y-107046476D01*
X102679238Y-106951238D01*
X102774476Y-106856000D01*
X102917333Y-106808380D01*
X103012571Y-106808380D01*
X103155428Y-106856000D01*
X103203047Y-106903619D01*
X103822095Y-106808380D02*
X104012571Y-106808380D01*
X104107809Y-106856000D01*
X104203047Y-106951238D01*
X104250666Y-107141714D01*
X104250666Y-107475047D01*
X104203047Y-107665523D01*
X104107809Y-107760761D01*
X104012571Y-107808380D01*
X103822095Y-107808380D01*
X103726857Y-107760761D01*
X103631619Y-107665523D01*
X103584000Y-107475047D01*
X103584000Y-107141714D01*
X103631619Y-106951238D01*
X103726857Y-106856000D01*
X103822095Y-106808380D01*
X104679238Y-107808380D02*
X104679238Y-106808380D01*
X105012571Y-107522666D01*
X105345904Y-106808380D01*
X105345904Y-107808380D01*
X96084000Y-109323142D02*
X96036380Y-109370761D01*
X95893523Y-109418380D01*
X95798285Y-109418380D01*
X95655428Y-109370761D01*
X95560190Y-109275523D01*
X95512571Y-109180285D01*
X95464952Y-108989809D01*
X95464952Y-108846952D01*
X95512571Y-108656476D01*
X95560190Y-108561238D01*
X95655428Y-108466000D01*
X95798285Y-108418380D01*
X95893523Y-108418380D01*
X96036380Y-108466000D01*
X96084000Y-108513619D01*
X96703047Y-108418380D02*
X96893523Y-108418380D01*
X96988761Y-108466000D01*
X97084000Y-108561238D01*
X97131619Y-108751714D01*
X97131619Y-109085047D01*
X97084000Y-109275523D01*
X96988761Y-109370761D01*
X96893523Y-109418380D01*
X96703047Y-109418380D01*
X96607809Y-109370761D01*
X96512571Y-109275523D01*
X96464952Y-109085047D01*
X96464952Y-108751714D01*
X96512571Y-108561238D01*
X96607809Y-108466000D01*
X96703047Y-108418380D01*
X97560190Y-109418380D02*
X97560190Y-108418380D01*
X98131619Y-109418380D01*
X98131619Y-108418380D01*
X98464952Y-108418380D02*
X99036380Y-108418380D01*
X98750666Y-109418380D02*
X98750666Y-108418380D01*
X99941142Y-109418380D02*
X99607809Y-108942190D01*
X99369714Y-109418380D02*
X99369714Y-108418380D01*
X99750666Y-108418380D01*
X99845904Y-108466000D01*
X99893523Y-108513619D01*
X99941142Y-108608857D01*
X99941142Y-108751714D01*
X99893523Y-108846952D01*
X99845904Y-108894571D01*
X99750666Y-108942190D01*
X99369714Y-108942190D01*
X100560190Y-108418380D02*
X100750666Y-108418380D01*
X100845904Y-108466000D01*
X100941142Y-108561238D01*
X100988761Y-108751714D01*
X100988761Y-109085047D01*
X100941142Y-109275523D01*
X100845904Y-109370761D01*
X100750666Y-109418380D01*
X100560190Y-109418380D01*
X100464952Y-109370761D01*
X100369714Y-109275523D01*
X100322095Y-109085047D01*
X100322095Y-108751714D01*
X100369714Y-108561238D01*
X100464952Y-108466000D01*
X100560190Y-108418380D01*
X101893523Y-109418380D02*
X101417333Y-109418380D01*
X101417333Y-108418380D01*
X102179238Y-109132666D02*
X102655428Y-109132666D01*
X102084000Y-109418380D02*
X102417333Y-108418380D01*
X102750666Y-109418380D01*
X103084000Y-109418380D02*
X103084000Y-108418380D01*
X103322095Y-108418380D01*
X103464952Y-108466000D01*
X103560190Y-108561238D01*
X103607809Y-108656476D01*
X103655428Y-108846952D01*
X103655428Y-108989809D01*
X103607809Y-109180285D01*
X103560190Y-109275523D01*
X103464952Y-109370761D01*
X103322095Y-109418380D01*
X103084000Y-109418380D01*
X104274476Y-108418380D02*
X104464952Y-108418380D01*
X104560190Y-108466000D01*
X104655428Y-108561238D01*
X104703047Y-108751714D01*
X104703047Y-109085047D01*
X104655428Y-109275523D01*
X104560190Y-109370761D01*
X104464952Y-109418380D01*
X104274476Y-109418380D01*
X104179238Y-109370761D01*
X104084000Y-109275523D01*
X104036380Y-109085047D01*
X104036380Y-108751714D01*
X104084000Y-108561238D01*
X104179238Y-108466000D01*
X104274476Y-108418380D01*
X105703047Y-109418380D02*
X105369714Y-108942190D01*
X105131619Y-109418380D02*
X105131619Y-108418380D01*
X105512571Y-108418380D01*
X105607809Y-108466000D01*
X105655428Y-108513619D01*
X105703047Y-108608857D01*
X105703047Y-108751714D01*
X105655428Y-108846952D01*
X105607809Y-108894571D01*
X105512571Y-108942190D01*
X105131619Y-108942190D01*
X98155428Y-110742666D02*
X98631619Y-110742666D01*
X98060190Y-111028380D02*
X98393523Y-110028380D01*
X98726857Y-111028380D01*
X98964952Y-110028380D02*
X99631619Y-110028380D01*
X98964952Y-111028380D01*
X99631619Y-111028380D01*
X100012571Y-111028380D02*
X100012571Y-110028380D01*
X100488761Y-111028380D02*
X100488761Y-110028380D01*
X100822095Y-110742666D01*
X101155428Y-110028380D01*
X101155428Y-111028380D01*
X101631619Y-110028380D02*
X101631619Y-110837904D01*
X101679238Y-110933142D01*
X101726857Y-110980761D01*
X101822095Y-111028380D01*
X102012571Y-111028380D01*
X102107809Y-110980761D01*
X102155428Y-110933142D01*
X102203047Y-110837904D01*
X102203047Y-110028380D01*
X102536380Y-110028380D02*
X103107809Y-110028380D01*
X102822095Y-111028380D02*
X102822095Y-110028380D01*
X56348380Y-113617333D02*
X57062666Y-113617333D01*
X57205523Y-113664952D01*
X57300761Y-113760190D01*
X57348380Y-113903047D01*
X57348380Y-113998285D01*
X56348380Y-113236380D02*
X56348380Y-112617333D01*
X56729333Y-112950666D01*
X56729333Y-112807809D01*
X56776952Y-112712571D01*
X56824571Y-112664952D01*
X56919809Y-112617333D01*
X57157904Y-112617333D01*
X57253142Y-112664952D01*
X57300761Y-112712571D01*
X57348380Y-112807809D01*
X57348380Y-113093523D01*
X57300761Y-113188761D01*
X57253142Y-113236380D01*
X56348380Y-96345333D02*
X57062666Y-96345333D01*
X57205523Y-96392952D01*
X57300761Y-96488190D01*
X57348380Y-96631047D01*
X57348380Y-96726285D01*
X56681714Y-95440571D02*
X57348380Y-95440571D01*
X56300761Y-95678666D02*
X57015047Y-95916761D01*
X57015047Y-95297714D01*
X62825333Y-70556380D02*
X62492000Y-70080190D01*
X62253904Y-70556380D02*
X62253904Y-69556380D01*
X62634857Y-69556380D01*
X62730095Y-69604000D01*
X62777714Y-69651619D01*
X62825333Y-69746857D01*
X62825333Y-69889714D01*
X62777714Y-69984952D01*
X62730095Y-70032571D01*
X62634857Y-70080190D01*
X62253904Y-70080190D01*
X63158666Y-69556380D02*
X63777714Y-69556380D01*
X63444380Y-69937333D01*
X63587238Y-69937333D01*
X63682476Y-69984952D01*
X63730095Y-70032571D01*
X63777714Y-70127809D01*
X63777714Y-70365904D01*
X63730095Y-70461142D01*
X63682476Y-70508761D01*
X63587238Y-70556380D01*
X63301523Y-70556380D01*
X63206285Y-70508761D01*
X63158666Y-70461142D01*
X76962095Y-45172380D02*
X76962095Y-45981904D01*
X77009714Y-46077142D01*
X77057333Y-46124761D01*
X77152571Y-46172380D01*
X77343047Y-46172380D01*
X77438285Y-46124761D01*
X77485904Y-46077142D01*
X77533523Y-45981904D01*
X77533523Y-45172380D01*
X77962095Y-45267619D02*
X78009714Y-45220000D01*
X78104952Y-45172380D01*
X78343047Y-45172380D01*
X78438285Y-45220000D01*
X78485904Y-45267619D01*
X78533523Y-45362857D01*
X78533523Y-45458095D01*
X78485904Y-45600952D01*
X77914476Y-46172380D01*
X78533523Y-46172380D01*
X62484095Y-60666380D02*
X62484095Y-61475904D01*
X62531714Y-61571142D01*
X62579333Y-61618761D01*
X62674571Y-61666380D01*
X62865047Y-61666380D01*
X62960285Y-61618761D01*
X63007904Y-61571142D01*
X63055523Y-61475904D01*
X63055523Y-60666380D01*
X63436476Y-60666380D02*
X64055523Y-60666380D01*
X63722190Y-61047333D01*
X63865047Y-61047333D01*
X63960285Y-61094952D01*
X64007904Y-61142571D01*
X64055523Y-61237809D01*
X64055523Y-61475904D01*
X64007904Y-61571142D01*
X63960285Y-61618761D01*
X63865047Y-61666380D01*
X63579333Y-61666380D01*
X63484095Y-61618761D01*
X63436476Y-61571142D01*
X92202095Y-45934380D02*
X92202095Y-46743904D01*
X92249714Y-46839142D01*
X92297333Y-46886761D01*
X92392571Y-46934380D01*
X92583047Y-46934380D01*
X92678285Y-46886761D01*
X92725904Y-46839142D01*
X92773523Y-46743904D01*
X92773523Y-45934380D01*
X93154476Y-45934380D02*
X93821142Y-45934380D01*
X93392571Y-46934380D01*
X77303333Y-70302380D02*
X76970000Y-69826190D01*
X76731904Y-70302380D02*
X76731904Y-69302380D01*
X77112857Y-69302380D01*
X77208095Y-69350000D01*
X77255714Y-69397619D01*
X77303333Y-69492857D01*
X77303333Y-69635714D01*
X77255714Y-69730952D01*
X77208095Y-69778571D01*
X77112857Y-69826190D01*
X76731904Y-69826190D01*
X78160476Y-69635714D02*
X78160476Y-70302380D01*
X77922380Y-69254761D02*
X77684285Y-69969047D01*
X78303333Y-69969047D01*
X77557333Y-85288380D02*
X77224000Y-84812190D01*
X76985904Y-85288380D02*
X76985904Y-84288380D01*
X77366857Y-84288380D01*
X77462095Y-84336000D01*
X77509714Y-84383619D01*
X77557333Y-84478857D01*
X77557333Y-84621714D01*
X77509714Y-84716952D01*
X77462095Y-84764571D01*
X77366857Y-84812190D01*
X76985904Y-84812190D01*
X78414476Y-84288380D02*
X78224000Y-84288380D01*
X78128761Y-84336000D01*
X78081142Y-84383619D01*
X77985904Y-84526476D01*
X77938285Y-84716952D01*
X77938285Y-85097904D01*
X77985904Y-85193142D01*
X78033523Y-85240761D01*
X78128761Y-85288380D01*
X78319238Y-85288380D01*
X78414476Y-85240761D01*
X78462095Y-85193142D01*
X78509714Y-85097904D01*
X78509714Y-84859809D01*
X78462095Y-84764571D01*
X78414476Y-84716952D01*
X78319238Y-84669333D01*
X78128761Y-84669333D01*
X78033523Y-84716952D01*
X77985904Y-84764571D01*
X77938285Y-84859809D01*
X77216095Y-60666380D02*
X77216095Y-61475904D01*
X77263714Y-61571142D01*
X77311333Y-61618761D01*
X77406571Y-61666380D01*
X77597047Y-61666380D01*
X77692285Y-61618761D01*
X77739904Y-61571142D01*
X77787523Y-61475904D01*
X77787523Y-60666380D01*
X78692285Y-60999714D02*
X78692285Y-61666380D01*
X78454190Y-60618761D02*
X78216095Y-61333047D01*
X78835142Y-61333047D01*
X62738095Y-75398380D02*
X62738095Y-76207904D01*
X62785714Y-76303142D01*
X62833333Y-76350761D01*
X62928571Y-76398380D01*
X63119047Y-76398380D01*
X63214285Y-76350761D01*
X63261904Y-76303142D01*
X63309523Y-76207904D01*
X63309523Y-75398380D01*
X64261904Y-75398380D02*
X63785714Y-75398380D01*
X63738095Y-75874571D01*
X63785714Y-75826952D01*
X63880952Y-75779333D01*
X64119047Y-75779333D01*
X64214285Y-75826952D01*
X64261904Y-75874571D01*
X64309523Y-75969809D01*
X64309523Y-76207904D01*
X64261904Y-76303142D01*
X64214285Y-76350761D01*
X64119047Y-76398380D01*
X63880952Y-76398380D01*
X63785714Y-76350761D01*
X63738095Y-76303142D01*
X77216095Y-75398380D02*
X77216095Y-76207904D01*
X77263714Y-76303142D01*
X77311333Y-76350761D01*
X77406571Y-76398380D01*
X77597047Y-76398380D01*
X77692285Y-76350761D01*
X77739904Y-76303142D01*
X77787523Y-76207904D01*
X77787523Y-75398380D01*
X78692285Y-75398380D02*
X78501809Y-75398380D01*
X78406571Y-75446000D01*
X78358952Y-75493619D01*
X78263714Y-75636476D01*
X78216095Y-75826952D01*
X78216095Y-76207904D01*
X78263714Y-76303142D01*
X78311333Y-76350761D01*
X78406571Y-76398380D01*
X78597047Y-76398380D01*
X78692285Y-76350761D01*
X78739904Y-76303142D01*
X78787523Y-76207904D01*
X78787523Y-75969809D01*
X78739904Y-75874571D01*
X78692285Y-75826952D01*
X78597047Y-75779333D01*
X78406571Y-75779333D01*
X78311333Y-75826952D01*
X78263714Y-75874571D01*
X78216095Y-75969809D01*
X77811333Y-55316380D02*
X77478000Y-54840190D01*
X77239904Y-55316380D02*
X77239904Y-54316380D01*
X77620857Y-54316380D01*
X77716095Y-54364000D01*
X77763714Y-54411619D01*
X77811333Y-54506857D01*
X77811333Y-54649714D01*
X77763714Y-54744952D01*
X77716095Y-54792571D01*
X77620857Y-54840190D01*
X77239904Y-54840190D01*
X78192285Y-54411619D02*
X78239904Y-54364000D01*
X78335142Y-54316380D01*
X78573238Y-54316380D01*
X78668476Y-54364000D01*
X78716095Y-54411619D01*
X78763714Y-54506857D01*
X78763714Y-54602095D01*
X78716095Y-54744952D01*
X78144666Y-55316380D01*
X78763714Y-55316380D01*
X82046380Y-100583904D02*
X82855904Y-100583904D01*
X82951142Y-100536285D01*
X82998761Y-100488666D01*
X83046380Y-100393428D01*
X83046380Y-100202952D01*
X82998761Y-100107714D01*
X82951142Y-100060095D01*
X82855904Y-100012476D01*
X82046380Y-100012476D01*
X82474952Y-99393428D02*
X82427333Y-99488666D01*
X82379714Y-99536285D01*
X82284476Y-99583904D01*
X82236857Y-99583904D01*
X82141619Y-99536285D01*
X82094000Y-99488666D01*
X82046380Y-99393428D01*
X82046380Y-99202952D01*
X82094000Y-99107714D01*
X82141619Y-99060095D01*
X82236857Y-99012476D01*
X82284476Y-99012476D01*
X82379714Y-99060095D01*
X82427333Y-99107714D01*
X82474952Y-99202952D01*
X82474952Y-99393428D01*
X82522571Y-99488666D01*
X82570190Y-99536285D01*
X82665428Y-99583904D01*
X82855904Y-99583904D01*
X82951142Y-99536285D01*
X82998761Y-99488666D01*
X83046380Y-99393428D01*
X83046380Y-99202952D01*
X82998761Y-99107714D01*
X82951142Y-99060095D01*
X82855904Y-99012476D01*
X82665428Y-99012476D01*
X82570190Y-99060095D01*
X82522571Y-99107714D01*
X82474952Y-99202952D01*
X120586666Y-108212380D02*
X120586666Y-107212380D01*
X120920000Y-107926666D01*
X121253333Y-107212380D01*
X121253333Y-108212380D01*
X121729523Y-108212380D02*
X121729523Y-107212380D01*
X121729523Y-107688571D02*
X122300952Y-107688571D01*
X122300952Y-108212380D02*
X122300952Y-107212380D01*
X122729523Y-107307619D02*
X122777142Y-107260000D01*
X122872380Y-107212380D01*
X123110476Y-107212380D01*
X123205714Y-107260000D01*
X123253333Y-107307619D01*
X123300952Y-107402857D01*
X123300952Y-107498095D01*
X123253333Y-107640952D01*
X122681904Y-108212380D01*
X123300952Y-108212380D01*
X120586666Y-51760380D02*
X120586666Y-50760380D01*
X120920000Y-51474666D01*
X121253333Y-50760380D01*
X121253333Y-51760380D01*
X121729523Y-51760380D02*
X121729523Y-50760380D01*
X121729523Y-51236571D02*
X122300952Y-51236571D01*
X122300952Y-51760380D02*
X122300952Y-50760380D01*
X123300952Y-51760380D02*
X122729523Y-51760380D01*
X123015238Y-51760380D02*
X123015238Y-50760380D01*
X122920000Y-50903238D01*
X122824761Y-50998476D01*
X122729523Y-51046095D01*
X58848666Y-104608380D02*
X58848666Y-105322666D01*
X58801047Y-105465523D01*
X58705809Y-105560761D01*
X58562952Y-105608380D01*
X58467714Y-105608380D01*
X59277238Y-104703619D02*
X59324857Y-104656000D01*
X59420095Y-104608380D01*
X59658190Y-104608380D01*
X59753428Y-104656000D01*
X59801047Y-104703619D01*
X59848666Y-104798857D01*
X59848666Y-104894095D01*
X59801047Y-105036952D01*
X59229619Y-105608380D01*
X59848666Y-105608380D01*
X62571333Y-85034380D02*
X62238000Y-84558190D01*
X61999904Y-85034380D02*
X61999904Y-84034380D01*
X62380857Y-84034380D01*
X62476095Y-84082000D01*
X62523714Y-84129619D01*
X62571333Y-84224857D01*
X62571333Y-84367714D01*
X62523714Y-84462952D01*
X62476095Y-84510571D01*
X62380857Y-84558190D01*
X61999904Y-84558190D01*
X63476095Y-84034380D02*
X62999904Y-84034380D01*
X62952285Y-84510571D01*
X62999904Y-84462952D01*
X63095142Y-84415333D01*
X63333238Y-84415333D01*
X63428476Y-84462952D01*
X63476095Y-84510571D01*
X63523714Y-84605809D01*
X63523714Y-84843904D01*
X63476095Y-84939142D01*
X63428476Y-84986761D01*
X63333238Y-85034380D01*
X63095142Y-85034380D01*
X62999904Y-84986761D01*
X62952285Y-84939142D01*
X63079333Y-55316380D02*
X62746000Y-54840190D01*
X62507904Y-55316380D02*
X62507904Y-54316380D01*
X62888857Y-54316380D01*
X62984095Y-54364000D01*
X63031714Y-54411619D01*
X63079333Y-54506857D01*
X63079333Y-54649714D01*
X63031714Y-54744952D01*
X62984095Y-54792571D01*
X62888857Y-54840190D01*
X62507904Y-54840190D01*
X64031714Y-55316380D02*
X63460285Y-55316380D01*
X63746000Y-55316380D02*
X63746000Y-54316380D01*
X63650761Y-54459238D01*
X63555523Y-54554476D01*
X63460285Y-54602095D01*
X62484095Y-45426380D02*
X62484095Y-46235904D01*
X62531714Y-46331142D01*
X62579333Y-46378761D01*
X62674571Y-46426380D01*
X62865047Y-46426380D01*
X62960285Y-46378761D01*
X63007904Y-46331142D01*
X63055523Y-46235904D01*
X63055523Y-45426380D01*
X64055523Y-46426380D02*
X63484095Y-46426380D01*
X63769809Y-46426380D02*
X63769809Y-45426380D01*
X63674571Y-45569238D01*
X63579333Y-45664476D01*
X63484095Y-45712095D01*
X56602380Y-64595333D02*
X57316666Y-64595333D01*
X57459523Y-64642952D01*
X57554761Y-64738190D01*
X57602380Y-64881047D01*
X57602380Y-64976285D01*
X57602380Y-63595333D02*
X57602380Y-64166761D01*
X57602380Y-63881047D02*
X56602380Y-63881047D01*
X56745238Y-63976285D01*
X56840476Y-64071523D01*
X56888095Y-64166761D01*
D11*
X48004000Y-107248000D02*
X48004000Y-104748000D01*
X47004000Y-109748000D02*
X48004000Y-109748000D01*
X47004000Y-102248000D02*
X47004000Y-99748000D01*
X48004000Y-112248000D02*
X48004000Y-109748000D01*
X46944000Y-98438000D02*
X55164000Y-98438000D01*
X47004000Y-112248000D02*
X48004000Y-112248000D01*
X51877000Y-107026000D02*
X52123000Y-107272000D01*
X51877000Y-102026000D02*
X52123000Y-102272000D01*
X49779000Y-99928000D02*
X49990000Y-100139000D01*
X47004000Y-104748000D02*
X48004000Y-104748000D01*
X55164000Y-113558000D02*
X55164000Y-98438000D01*
X54564000Y-113798000D02*
X55404000Y-113798000D01*
X47004000Y-107248000D02*
X47004000Y-104748000D01*
X52129000Y-101868000D02*
X52328000Y-102067000D01*
X49779000Y-104928000D02*
X49990000Y-105139000D01*
X48004000Y-102248000D02*
X48004000Y-99748000D01*
X47004000Y-102248000D02*
X48004000Y-102248000D01*
X46944000Y-113558000D02*
X55164000Y-113558000D01*
X55404000Y-113798000D02*
X55404000Y-113198000D01*
X49985000Y-104723000D02*
X50231000Y-104969000D01*
X53904000Y-113558000D02*
X53904000Y-98438000D01*
X52129000Y-106868000D02*
X52328000Y-107067000D01*
X47004000Y-99748000D02*
X48004000Y-99748000D01*
X47004000Y-107248000D02*
X48004000Y-107248000D01*
X54504000Y-113558000D02*
X54504000Y-98438000D01*
X49004000Y-113558000D02*
X49004000Y-98438000D01*
X49985000Y-99723000D02*
X50231000Y-99969000D01*
X47004000Y-112248000D02*
X47004000Y-109748000D01*
X46944000Y-113558000D02*
X46944000Y-98438000D01*
X52341000Y-112079000D02*
G75*
G03*
X52734511Y-110969493I-1287000J1081000D01*
G01*
X52734000Y-110998000D02*
G75*
G03*
X52340955Y-109918117I-1679994J2D01*
G01*
X49973000Y-112285000D02*
G75*
G03*
X52133734Y-112286062I1081000J1287000D01*
G01*
X49767000Y-109918000D02*
G75*
G03*
X49766922Y-112077908I1287001J-1080000D01*
G01*
X52134000Y-109711000D02*
G75*
G03*
X49974092Y-109710922I-1080000J-1287001D01*
G01*
X52734000Y-100998000D02*
G75*
G03*
X52734000Y-100998000I-1680000J0D01*
G01*
X52734000Y-105998000D02*
G75*
G03*
X52734000Y-105998000I-1680000J0D01*
G01*
X52129000Y-89850000D02*
X52328000Y-90049000D01*
X52129000Y-69850000D02*
X52328000Y-70049000D01*
X46944000Y-96540000D02*
X55164000Y-96540000D01*
X49985000Y-72705000D02*
X50231000Y-72951000D01*
X47004000Y-92730000D02*
X48004000Y-92730000D01*
X47004000Y-95230000D02*
X48004000Y-95230000D01*
X48004000Y-75230000D02*
X48004000Y-72730000D01*
X51877000Y-85008000D02*
X52123000Y-85254000D01*
X53904000Y-96540000D02*
X53904000Y-66420000D01*
X49779000Y-82910000D02*
X49990000Y-83121000D01*
X49985000Y-87705000D02*
X50231000Y-87951000D01*
X48004000Y-90230000D02*
X48004000Y-87730000D01*
X48004000Y-95230000D02*
X48004000Y-92730000D01*
X47004000Y-82730000D02*
X48004000Y-82730000D01*
X46944000Y-96540000D02*
X46944000Y-66420000D01*
X54504000Y-96540000D02*
X54504000Y-66420000D01*
X49985000Y-67705000D02*
X50231000Y-67951000D01*
X49779000Y-67910000D02*
X49990000Y-68121000D01*
X47004000Y-87730000D02*
X48004000Y-87730000D01*
X47004000Y-85230000D02*
X47004000Y-82730000D01*
X47004000Y-90230000D02*
X48004000Y-90230000D01*
X47004000Y-80230000D02*
X48004000Y-80230000D01*
X47004000Y-67730000D02*
X48004000Y-67730000D01*
X47004000Y-85230000D02*
X48004000Y-85230000D01*
X47004000Y-90230000D02*
X47004000Y-87730000D01*
X49779000Y-72910000D02*
X49990000Y-73121000D01*
X51877000Y-70008000D02*
X52123000Y-70254000D01*
X47004000Y-80230000D02*
X47004000Y-77730000D01*
X47004000Y-95230000D02*
X47004000Y-92730000D01*
X47004000Y-75230000D02*
X48004000Y-75230000D01*
X55164000Y-96540000D02*
X55164000Y-66420000D01*
X51877000Y-75008000D02*
X52123000Y-75254000D01*
X51877000Y-90008000D02*
X52123000Y-90254000D01*
X47004000Y-70230000D02*
X47004000Y-67730000D01*
X49985000Y-82705000D02*
X50231000Y-82951000D01*
X48004000Y-70230000D02*
X48004000Y-67730000D01*
X46944000Y-66420000D02*
X55164000Y-66420000D01*
X52129000Y-79850000D02*
X52328000Y-80049000D01*
X47004000Y-75230000D02*
X47004000Y-72730000D01*
X52129000Y-74850000D02*
X52328000Y-75049000D01*
X48004000Y-80230000D02*
X48004000Y-77730000D01*
X47004000Y-70230000D02*
X48004000Y-70230000D01*
X54564000Y-96780000D02*
X55404000Y-96780000D01*
X47004000Y-72730000D02*
X48004000Y-72730000D01*
X52129000Y-84850000D02*
X52328000Y-85049000D01*
X48004000Y-85230000D02*
X48004000Y-82730000D01*
X49779000Y-77910000D02*
X49990000Y-78121000D01*
X49004000Y-96540000D02*
X49004000Y-66420000D01*
X55404000Y-96780000D02*
X55404000Y-96180000D01*
X49779000Y-87910000D02*
X49990000Y-88121000D01*
X51877000Y-80008000D02*
X52123000Y-80254000D01*
X49985000Y-77705000D02*
X50231000Y-77951000D01*
X47004000Y-77730000D02*
X48004000Y-77730000D01*
X52341000Y-95061000D02*
G75*
G03*
X52734511Y-93951493I-1287000J1081000D01*
G01*
X49973000Y-95267000D02*
G75*
G03*
X52133734Y-95268062I1081000J1287000D01*
G01*
X52134000Y-92693000D02*
G75*
G03*
X49974092Y-92692922I-1080000J-1287001D01*
G01*
X52734000Y-93980000D02*
G75*
G03*
X52340955Y-92900117I-1679994J2D01*
G01*
X49767000Y-92900000D02*
G75*
G03*
X49766922Y-95059908I1287001J-1080000D01*
G01*
X52734000Y-73980000D02*
G75*
G03*
X52734000Y-73980000I-1680000J0D01*
G01*
X52734000Y-83980000D02*
G75*
G03*
X52734000Y-83980000I-1680000J0D01*
G01*
X52734000Y-78980000D02*
G75*
G03*
X52734000Y-78980000I-1680000J0D01*
G01*
X52734000Y-68980000D02*
G75*
G03*
X52734000Y-68980000I-1680000J0D01*
G01*
X52734000Y-88980000D02*
G75*
G03*
X52734000Y-88980000I-1680000J0D01*
G01*
X69064000Y-72644000D02*
X68294000Y-72644000D01*
X61754000Y-71274000D02*
X61754000Y-74014000D01*
X68294000Y-74014000D02*
X68294000Y-71274000D01*
X60984000Y-72644000D02*
X61754000Y-72644000D01*
X68294000Y-71274000D02*
X61754000Y-71274000D01*
X61754000Y-74014000D02*
X68294000Y-74014000D01*
X78346000Y-47184000D02*
X78346000Y-52384000D01*
X83646000Y-52384000D02*
X83646000Y-47184000D01*
X78346000Y-52384000D02*
X83646000Y-52384000D01*
X83646000Y-47184000D02*
X81996000Y-47184000D01*
X79996000Y-47184000D02*
X78346000Y-47184000D01*
X79996000Y-47184000D02*
G75*
G03*
X81996000Y-47184000I1000000J0D01*
G01*
X63614000Y-67624000D02*
X68914000Y-67624000D01*
X63614000Y-62424000D02*
X63614000Y-67624000D01*
X68914000Y-62424000D02*
X67264000Y-62424000D01*
X65264000Y-62424000D02*
X63614000Y-62424000D01*
X68914000Y-67624000D02*
X68914000Y-62424000D01*
X65264000Y-62424000D02*
G75*
G03*
X67264000Y-62424000I1000000J0D01*
G01*
D12*
X91460000Y-50068000D02*
X91460000Y-98268000D01*
X119360000Y-98268000D02*
X119360000Y-50068000D01*
X109470000Y-98268000D02*
X119360000Y-98268000D01*
X96410000Y-43868000D02*
X114410000Y-43868000D01*
X91460000Y-98268000D02*
X101340000Y-98268000D01*
X109470000Y-99168000D02*
X109470000Y-98268000D01*
X101340000Y-99168000D02*
X109470000Y-99168000D01*
X114410000Y-43868000D02*
X114410000Y-50068000D01*
X96410000Y-50068000D02*
X91460000Y-50068000D01*
X119360000Y-50068000D02*
X114410000Y-50068000D01*
X101340000Y-98268000D02*
X101340000Y-99168000D01*
X96410000Y-50068000D02*
X96410000Y-43868000D01*
D13*
X90940000Y-51198000D02*
G75*
G03*
X90940000Y-51198000I-100000J0D01*
G01*
D11*
X76486000Y-71020000D02*
X76486000Y-73760000D01*
X75716000Y-72390000D02*
X76486000Y-72390000D01*
X83026000Y-71020000D02*
X76486000Y-71020000D01*
X83026000Y-73760000D02*
X83026000Y-71020000D01*
X76486000Y-73760000D02*
X83026000Y-73760000D01*
X83796000Y-72390000D02*
X83026000Y-72390000D01*
X76486000Y-85752000D02*
X76486000Y-88492000D01*
X83026000Y-85752000D02*
X76486000Y-85752000D01*
X76486000Y-88492000D02*
X83026000Y-88492000D01*
X83796000Y-87122000D02*
X83026000Y-87122000D01*
X75716000Y-87122000D02*
X76486000Y-87122000D01*
X83026000Y-88492000D02*
X83026000Y-85752000D01*
X79996000Y-62424000D02*
X78346000Y-62424000D01*
X83646000Y-67624000D02*
X83646000Y-62424000D01*
X78346000Y-62424000D02*
X78346000Y-67624000D01*
X78346000Y-67624000D02*
X83646000Y-67624000D01*
X83646000Y-62424000D02*
X81996000Y-62424000D01*
X79996000Y-62424000D02*
G75*
G03*
X81996000Y-62424000I1000000J0D01*
G01*
X63614000Y-77156000D02*
X63614000Y-82356000D01*
X63614000Y-82356000D02*
X68914000Y-82356000D01*
X68914000Y-82356000D02*
X68914000Y-77156000D01*
X68914000Y-77156000D02*
X67264000Y-77156000D01*
X65264000Y-77156000D02*
X63614000Y-77156000D01*
X65264000Y-77156000D02*
G75*
G03*
X67264000Y-77156000I1000000J0D01*
G01*
X83646000Y-82356000D02*
X83646000Y-77156000D01*
X78346000Y-77156000D02*
X78346000Y-82356000D01*
X79996000Y-77156000D02*
X78346000Y-77156000D01*
X83646000Y-77156000D02*
X81996000Y-77156000D01*
X78346000Y-82356000D02*
X83646000Y-82356000D01*
X79996000Y-77156000D02*
G75*
G03*
X81996000Y-77156000I1000000J0D01*
G01*
X83026000Y-56034000D02*
X76486000Y-56034000D01*
X83796000Y-57404000D02*
X83026000Y-57404000D01*
X76486000Y-58774000D02*
X83026000Y-58774000D01*
X83026000Y-58774000D02*
X83026000Y-56034000D01*
X75716000Y-57404000D02*
X76486000Y-57404000D01*
X76486000Y-56034000D02*
X76486000Y-58774000D01*
X81594000Y-102072000D02*
X81594000Y-100822000D01*
X81594000Y-98822000D02*
X81594000Y-97572000D01*
X61154000Y-97572000D02*
X61154000Y-102072000D01*
X61154000Y-102072000D02*
X81594000Y-102072000D01*
X81594000Y-97572000D02*
X61154000Y-97572000D01*
X81594000Y-98822000D02*
G75*
G03*
X81594000Y-100822000I0J-1000000D01*
G01*
G36*
X117380044Y-110884809D02*
G01*
X117597633Y-110925235D01*
X117696518Y-111020034D01*
X117719144Y-111109851D01*
X117722449Y-111248755D01*
X117643596Y-111250567D01*
X117569481Y-111213744D01*
X117337579Y-111166084D01*
X117151372Y-111261566D01*
X117054631Y-111472300D01*
X117049529Y-111545040D01*
X117102841Y-111760762D01*
X117282984Y-111964162D01*
X117348945Y-112016822D01*
X117610706Y-112268083D01*
X117806904Y-112553922D01*
X117901259Y-112818729D01*
X117904748Y-112868755D01*
X117839260Y-113041300D01*
X117680235Y-113237184D01*
X117483832Y-113397000D01*
X117348855Y-113456811D01*
X117120909Y-113471492D01*
X116985387Y-113457775D01*
X116828901Y-113369975D01*
X116792963Y-113271483D01*
X116827599Y-113170267D01*
X116960858Y-113149207D01*
X117063463Y-113160900D01*
X117303414Y-113154085D01*
X117448312Y-113044221D01*
X117525459Y-112925327D01*
X117544134Y-112821875D01*
X117489475Y-112697570D01*
X117346623Y-112516116D01*
X117135051Y-112279118D01*
X116859285Y-111933108D01*
X116724868Y-111645474D01*
X116725869Y-111387614D01*
X116856358Y-111130923D01*
X116888293Y-111088767D01*
X117055496Y-110928192D01*
X117255755Y-110879742D01*
X117380044Y-110884809D01*
G37*
D14*
X117380044Y-110884809D02*
X117597633Y-110925235D01*
X117696518Y-111020034D01*
X117719144Y-111109851D01*
X117722449Y-111248755D01*
X117643596Y-111250567D01*
X117569481Y-111213744D01*
X117337579Y-111166084D01*
X117151372Y-111261566D01*
X117054631Y-111472300D01*
X117049529Y-111545040D01*
X117102841Y-111760762D01*
X117282984Y-111964162D01*
X117348945Y-112016822D01*
X117610706Y-112268083D01*
X117806904Y-112553922D01*
X117901259Y-112818729D01*
X117904748Y-112868755D01*
X117839260Y-113041300D01*
X117680235Y-113237184D01*
X117483832Y-113397000D01*
X117348855Y-113456811D01*
X117120909Y-113471492D01*
X116985387Y-113457775D01*
X116828901Y-113369975D01*
X116792963Y-113271483D01*
X116827599Y-113170267D01*
X116960858Y-113149207D01*
X117063463Y-113160900D01*
X117303414Y-113154085D01*
X117448312Y-113044221D01*
X117525459Y-112925327D01*
X117544134Y-112821875D01*
X117489475Y-112697570D01*
X117346623Y-112516116D01*
X117135051Y-112279118D01*
X116859285Y-111933108D01*
X116724868Y-111645474D01*
X116725869Y-111387614D01*
X116856358Y-111130923D01*
X116888293Y-111088767D01*
X117055496Y-110928192D01*
X117255755Y-110879742D01*
X117380044Y-110884809D01*
G36*
X114599423Y-110874247D02*
G01*
X114754283Y-110901663D01*
X114816526Y-110963292D01*
X114825960Y-111039050D01*
X114797273Y-111150953D01*
X114681324Y-111200410D01*
X114483872Y-111210094D01*
X114141785Y-111210094D01*
X114141785Y-111594943D01*
X114148174Y-111831410D01*
X114191481Y-111943385D01*
X114307910Y-111977417D01*
X114441111Y-111979791D01*
X114662498Y-112007609D01*
X114739897Y-112096390D01*
X114740438Y-112108074D01*
X114675529Y-112202954D01*
X114468373Y-112236125D01*
X114441111Y-112236357D01*
X114141785Y-112236357D01*
X114141785Y-113177097D01*
X114483872Y-113177097D01*
X114721736Y-113198280D01*
X114819751Y-113268500D01*
X114825960Y-113305380D01*
X114786552Y-113379868D01*
X114646854Y-113419861D01*
X114374655Y-113433410D01*
X114312828Y-113433663D01*
X113799697Y-113433663D01*
X113799697Y-110868007D01*
X114312828Y-110868007D01*
X114599423Y-110874247D01*
G37*
X114599423Y-110874247D02*
X114754283Y-110901663D01*
X114816526Y-110963292D01*
X114825960Y-111039050D01*
X114797273Y-111150953D01*
X114681324Y-111200410D01*
X114483872Y-111210094D01*
X114141785Y-111210094D01*
X114141785Y-111594943D01*
X114148174Y-111831410D01*
X114191481Y-111943385D01*
X114307910Y-111977417D01*
X114441111Y-111979791D01*
X114662498Y-112007609D01*
X114739897Y-112096390D01*
X114740438Y-112108074D01*
X114675529Y-112202954D01*
X114468373Y-112236125D01*
X114441111Y-112236357D01*
X114141785Y-112236357D01*
X114141785Y-113177097D01*
X114483872Y-113177097D01*
X114721736Y-113198280D01*
X114819751Y-113268500D01*
X114825960Y-113305380D01*
X114786552Y-113379868D01*
X114646854Y-113419861D01*
X114374655Y-113433410D01*
X114312828Y-113433663D01*
X113799697Y-113433663D01*
X113799697Y-110868007D01*
X114312828Y-110868007D01*
X114599423Y-110874247D01*
G36*
X109036887Y-107532653D02*
G01*
X109324134Y-107552187D01*
X109556566Y-107602066D01*
X109637493Y-107639836D01*
X109777196Y-107834208D01*
X109841786Y-108114176D01*
X109823252Y-108408001D01*
X109744966Y-108602143D01*
X109653482Y-108771834D01*
X109667039Y-108899605D01*
X109734045Y-109007677D01*
X109835040Y-109268934D01*
X109859872Y-109599857D01*
X109808656Y-109917020D01*
X109732558Y-110079280D01*
X109627728Y-110189452D01*
X109476865Y-110247226D01*
X109228085Y-110267976D01*
X109091144Y-110269353D01*
X108582862Y-110269353D01*
X108582862Y-109499656D01*
X108924950Y-109499656D01*
X108930064Y-109784544D01*
X108955613Y-109938401D01*
X109016906Y-110001164D01*
X109121650Y-110012788D01*
X109322695Y-109970542D01*
X109420976Y-109910161D01*
X109496382Y-109741333D01*
X109520533Y-109492107D01*
X109493427Y-109245267D01*
X109420976Y-109089151D01*
X109257154Y-109006300D01*
X109121650Y-108986525D01*
X109012443Y-108999867D01*
X108953464Y-109066517D01*
X108929405Y-109226411D01*
X108924950Y-109499656D01*
X108582862Y-109499656D01*
X108582862Y-108265270D01*
X108924950Y-108265270D01*
X108929087Y-108535673D01*
X108955165Y-108674439D01*
X109023684Y-108720966D01*
X109155144Y-108714655D01*
X109158561Y-108714259D01*
X109371465Y-108625374D01*
X109473185Y-108455459D01*
X109507145Y-108180466D01*
X109427595Y-107949899D01*
X109257794Y-107810348D01*
X109140588Y-107789219D01*
X109017663Y-107800997D01*
X108953328Y-107864091D01*
X108928720Y-108020145D01*
X108924950Y-108265270D01*
X108582862Y-108265270D01*
X108582862Y-107532653D01*
X109036887Y-107532653D01*
G37*
X109036887Y-107532653D02*
X109324134Y-107552187D01*
X109556566Y-107602066D01*
X109637493Y-107639836D01*
X109777196Y-107834208D01*
X109841786Y-108114176D01*
X109823252Y-108408001D01*
X109744966Y-108602143D01*
X109653482Y-108771834D01*
X109667039Y-108899605D01*
X109734045Y-109007677D01*
X109835040Y-109268934D01*
X109859872Y-109599857D01*
X109808656Y-109917020D01*
X109732558Y-110079280D01*
X109627728Y-110189452D01*
X109476865Y-110247226D01*
X109228085Y-110267976D01*
X109091144Y-110269353D01*
X108582862Y-110269353D01*
X108582862Y-109499656D01*
X108924950Y-109499656D01*
X108930064Y-109784544D01*
X108955613Y-109938401D01*
X109016906Y-110001164D01*
X109121650Y-110012788D01*
X109322695Y-109970542D01*
X109420976Y-109910161D01*
X109496382Y-109741333D01*
X109520533Y-109492107D01*
X109493427Y-109245267D01*
X109420976Y-109089151D01*
X109257154Y-109006300D01*
X109121650Y-108986525D01*
X109012443Y-108999867D01*
X108953464Y-109066517D01*
X108929405Y-109226411D01*
X108924950Y-109499656D01*
X108582862Y-109499656D01*
X108582862Y-108265270D01*
X108924950Y-108265270D01*
X108929087Y-108535673D01*
X108955165Y-108674439D01*
X109023684Y-108720966D01*
X109155144Y-108714655D01*
X109158561Y-108714259D01*
X109371465Y-108625374D01*
X109473185Y-108455459D01*
X109507145Y-108180466D01*
X109427595Y-107949899D01*
X109257794Y-107810348D01*
X109140588Y-107789219D01*
X109017663Y-107800997D01*
X108953328Y-107864091D01*
X108928720Y-108020145D01*
X108924950Y-108265270D01*
X108582862Y-108265270D01*
X108582862Y-107532653D01*
X109036887Y-107532653D01*
G36*
X112602391Y-101605944D02*
G01*
X112605580Y-102117704D01*
X112614462Y-102568363D01*
X112628007Y-102930945D01*
X112645184Y-103178476D01*
X112664962Y-103283981D01*
X112666532Y-103285423D01*
X112750309Y-103248963D01*
X112959264Y-103127717D01*
X113276604Y-102932296D01*
X113685538Y-102673309D01*
X114169274Y-102361368D01*
X114711018Y-102007082D01*
X115168047Y-101704846D01*
X115749111Y-101319162D01*
X116289313Y-100961383D01*
X116771006Y-100643137D01*
X117176542Y-100376050D01*
X117488274Y-100171753D01*
X117688553Y-100041873D01*
X117755084Y-100000249D01*
X117792662Y-99986752D01*
X117823379Y-100003257D01*
X117847923Y-100064945D01*
X117866982Y-100186999D01*
X117881247Y-100384600D01*
X117891403Y-100672929D01*
X117898141Y-101067168D01*
X117902148Y-101582499D01*
X117904114Y-102234104D01*
X117904725Y-103037164D01*
X117904748Y-103300780D01*
X117904748Y-106686373D01*
X117006768Y-106634673D01*
X116954619Y-105779454D01*
X116911829Y-105261008D01*
X116848417Y-104874222D01*
X116752552Y-104579937D01*
X116612400Y-104338995D01*
X116466815Y-104165135D01*
X116068050Y-103856397D01*
X115585908Y-103666370D01*
X115062108Y-103597116D01*
X114538372Y-103650700D01*
X114056422Y-103829185D01*
X113764096Y-104031441D01*
X113521389Y-104282782D01*
X113349692Y-104565275D01*
X113235746Y-104916083D01*
X113166296Y-105372372D01*
X113136162Y-105791733D01*
X113090958Y-106677434D01*
X112193241Y-106677434D01*
X112162202Y-105699629D01*
X112135981Y-105190589D01*
X112084474Y-104817303D01*
X111992365Y-104544772D01*
X111844335Y-104337999D01*
X111625068Y-104161984D01*
X111439805Y-104049043D01*
X110989174Y-103886110D01*
X110505550Y-103884704D01*
X110073007Y-104017285D01*
X109816497Y-104170610D01*
X109629157Y-104380693D01*
X109500175Y-104674233D01*
X109418739Y-105077928D01*
X109374037Y-105618479D01*
X109368071Y-105758074D01*
X109333637Y-106677434D01*
X108388726Y-106677434D01*
X108430172Y-105629791D01*
X108447777Y-105225286D01*
X108473355Y-104886071D01*
X108518695Y-104592675D01*
X108595591Y-104325628D01*
X108715833Y-104065460D01*
X108891213Y-103792699D01*
X109133523Y-103487876D01*
X109454554Y-103131521D01*
X109866099Y-102704162D01*
X110379949Y-102186329D01*
X110723799Y-101842560D01*
X112602391Y-99965424D01*
X112602391Y-101605944D01*
G37*
X112602391Y-101605944D02*
X112605580Y-102117704D01*
X112614462Y-102568363D01*
X112628007Y-102930945D01*
X112645184Y-103178476D01*
X112664962Y-103283981D01*
X112666532Y-103285423D01*
X112750309Y-103248963D01*
X112959264Y-103127717D01*
X113276604Y-102932296D01*
X113685538Y-102673309D01*
X114169274Y-102361368D01*
X114711018Y-102007082D01*
X115168047Y-101704846D01*
X115749111Y-101319162D01*
X116289313Y-100961383D01*
X116771006Y-100643137D01*
X117176542Y-100376050D01*
X117488274Y-100171753D01*
X117688553Y-100041873D01*
X117755084Y-100000249D01*
X117792662Y-99986752D01*
X117823379Y-100003257D01*
X117847923Y-100064945D01*
X117866982Y-100186999D01*
X117881247Y-100384600D01*
X117891403Y-100672929D01*
X117898141Y-101067168D01*
X117902148Y-101582499D01*
X117904114Y-102234104D01*
X117904725Y-103037164D01*
X117904748Y-103300780D01*
X117904748Y-106686373D01*
X117006768Y-106634673D01*
X116954619Y-105779454D01*
X116911829Y-105261008D01*
X116848417Y-104874222D01*
X116752552Y-104579937D01*
X116612400Y-104338995D01*
X116466815Y-104165135D01*
X116068050Y-103856397D01*
X115585908Y-103666370D01*
X115062108Y-103597116D01*
X114538372Y-103650700D01*
X114056422Y-103829185D01*
X113764096Y-104031441D01*
X113521389Y-104282782D01*
X113349692Y-104565275D01*
X113235746Y-104916083D01*
X113166296Y-105372372D01*
X113136162Y-105791733D01*
X113090958Y-106677434D01*
X112193241Y-106677434D01*
X112162202Y-105699629D01*
X112135981Y-105190589D01*
X112084474Y-104817303D01*
X111992365Y-104544772D01*
X111844335Y-104337999D01*
X111625068Y-104161984D01*
X111439805Y-104049043D01*
X110989174Y-103886110D01*
X110505550Y-103884704D01*
X110073007Y-104017285D01*
X109816497Y-104170610D01*
X109629157Y-104380693D01*
X109500175Y-104674233D01*
X109418739Y-105077928D01*
X109374037Y-105618479D01*
X109368071Y-105758074D01*
X109333637Y-106677434D01*
X108388726Y-106677434D01*
X108430172Y-105629791D01*
X108447777Y-105225286D01*
X108473355Y-104886071D01*
X108518695Y-104592675D01*
X108595591Y-104325628D01*
X108715833Y-104065460D01*
X108891213Y-103792699D01*
X109133523Y-103487876D01*
X109454554Y-103131521D01*
X109866099Y-102704162D01*
X110379949Y-102186329D01*
X110723799Y-101842560D01*
X112602391Y-99965424D01*
X112602391Y-101605944D01*
G36*
X111471773Y-107541289D02*
G01*
X111518433Y-107584422D01*
X111548629Y-107687886D01*
X111565924Y-107877520D01*
X111573882Y-108179158D01*
X111576066Y-108618637D01*
X111576128Y-108772720D01*
X111576128Y-110012788D01*
X112003737Y-110012788D01*
X112272645Y-110026521D01*
X112403984Y-110074069D01*
X112431347Y-110141070D01*
X112396140Y-110210769D01*
X112269549Y-110250659D01*
X112020114Y-110267483D01*
X111832694Y-110269353D01*
X111234040Y-110269353D01*
X111234040Y-108901003D01*
X111235039Y-108389352D01*
X111240086Y-108024130D01*
X111252259Y-107780721D01*
X111274633Y-107634515D01*
X111310285Y-107560897D01*
X111362292Y-107535254D01*
X111405084Y-107532653D01*
X111471773Y-107541289D01*
G37*
X111471773Y-107541289D02*
X111518433Y-107584422D01*
X111548629Y-107687886D01*
X111565924Y-107877520D01*
X111573882Y-108179158D01*
X111576066Y-108618637D01*
X111576128Y-108772720D01*
X111576128Y-110012788D01*
X112003737Y-110012788D01*
X112272645Y-110026521D01*
X112403984Y-110074069D01*
X112431347Y-110141070D01*
X112396140Y-110210769D01*
X112269549Y-110250659D01*
X112020114Y-110267483D01*
X111832694Y-110269353D01*
X111234040Y-110269353D01*
X111234040Y-108901003D01*
X111235039Y-108389352D01*
X111240086Y-108024130D01*
X111252259Y-107780721D01*
X111274633Y-107634515D01*
X111310285Y-107560897D01*
X111362292Y-107535254D01*
X111405084Y-107532653D01*
X111471773Y-107541289D01*
G36*
X108821777Y-110885006D02*
G01*
X108888802Y-110912264D01*
X108944672Y-110983466D01*
X108998788Y-111126516D01*
X109060552Y-111369312D01*
X109139365Y-111739757D01*
X109183473Y-111958411D01*
X109246486Y-112233529D01*
X109305901Y-112426467D01*
X109345921Y-112492922D01*
X109385916Y-112415043D01*
X109447010Y-112206196D01*
X109519006Y-111903573D01*
X109557133Y-111722653D01*
X109655663Y-111286845D01*
X109744736Y-111010207D01*
X109829392Y-110881477D01*
X109914670Y-110889396D01*
X109925579Y-110899388D01*
X109954002Y-111000627D01*
X109989948Y-111231875D01*
X110027625Y-111552613D01*
X110046021Y-111741790D01*
X110085356Y-112158324D01*
X110126917Y-112570209D01*
X110163408Y-112905881D01*
X110172720Y-112984673D01*
X110196465Y-113252467D01*
X110179518Y-113389624D01*
X110115994Y-113432972D01*
X110100974Y-113433663D01*
X110009625Y-113352509D01*
X109936768Y-113125436D01*
X109887302Y-112777028D01*
X109866126Y-112331868D01*
X109865690Y-112252928D01*
X109853832Y-112011695D01*
X109820258Y-111934581D01*
X109767972Y-112016456D01*
X109699977Y-112252190D01*
X109619275Y-112636653D01*
X109609125Y-112691208D01*
X109516876Y-113108544D01*
X109425282Y-113355300D01*
X109334730Y-113431380D01*
X109245607Y-113336687D01*
X109158302Y-113071124D01*
X109104517Y-112816635D01*
X109020492Y-112386812D01*
X108955534Y-112123798D01*
X108905083Y-112024997D01*
X108864579Y-112087815D01*
X108829463Y-112309655D01*
X108798740Y-112642586D01*
X108761704Y-113030846D01*
X108721094Y-113274492D01*
X108670531Y-113399932D01*
X108607643Y-113433663D01*
X108545625Y-113408668D01*
X108514128Y-113312608D01*
X108509821Y-113113872D01*
X108529376Y-112780849D01*
X108533340Y-112728108D01*
X108580353Y-112117878D01*
X108617999Y-111657558D01*
X108649513Y-111326479D01*
X108678129Y-111103973D01*
X108707082Y-110969370D01*
X108739606Y-110902002D01*
X108778937Y-110881200D01*
X108821777Y-110885006D01*
G37*
X108821777Y-110885006D02*
X108888802Y-110912264D01*
X108944672Y-110983466D01*
X108998788Y-111126516D01*
X109060552Y-111369312D01*
X109139365Y-111739757D01*
X109183473Y-111958411D01*
X109246486Y-112233529D01*
X109305901Y-112426467D01*
X109345921Y-112492922D01*
X109385916Y-112415043D01*
X109447010Y-112206196D01*
X109519006Y-111903573D01*
X109557133Y-111722653D01*
X109655663Y-111286845D01*
X109744736Y-111010207D01*
X109829392Y-110881477D01*
X109914670Y-110889396D01*
X109925579Y-110899388D01*
X109954002Y-111000627D01*
X109989948Y-111231875D01*
X110027625Y-111552613D01*
X110046021Y-111741790D01*
X110085356Y-112158324D01*
X110126917Y-112570209D01*
X110163408Y-112905881D01*
X110172720Y-112984673D01*
X110196465Y-113252467D01*
X110179518Y-113389624D01*
X110115994Y-113432972D01*
X110100974Y-113433663D01*
X110009625Y-113352509D01*
X109936768Y-113125436D01*
X109887302Y-112777028D01*
X109866126Y-112331868D01*
X109865690Y-112252928D01*
X109853832Y-112011695D01*
X109820258Y-111934581D01*
X109767972Y-112016456D01*
X109699977Y-112252190D01*
X109619275Y-112636653D01*
X109609125Y-112691208D01*
X109516876Y-113108544D01*
X109425282Y-113355300D01*
X109334730Y-113431380D01*
X109245607Y-113336687D01*
X109158302Y-113071124D01*
X109104517Y-112816635D01*
X109020492Y-112386812D01*
X108955534Y-112123798D01*
X108905083Y-112024997D01*
X108864579Y-112087815D01*
X108829463Y-112309655D01*
X108798740Y-112642586D01*
X108761704Y-113030846D01*
X108721094Y-113274492D01*
X108670531Y-113399932D01*
X108607643Y-113433663D01*
X108545625Y-113408668D01*
X108514128Y-113312608D01*
X108509821Y-113113872D01*
X108529376Y-112780849D01*
X108533340Y-112728108D01*
X108580353Y-112117878D01*
X108617999Y-111657558D01*
X108649513Y-111326479D01*
X108678129Y-111103973D01*
X108707082Y-110969370D01*
X108739606Y-110902002D01*
X108778937Y-110881200D01*
X108821777Y-110885006D01*
G36*
X114651730Y-108827495D02*
G01*
X114750552Y-108404322D01*
X114839409Y-108040463D01*
X114909965Y-107768868D01*
X114953884Y-107622488D01*
X114960032Y-107608808D01*
X115055372Y-107555884D01*
X115204441Y-107531360D01*
X115320522Y-107544535D01*
X115339091Y-107568160D01*
X115356719Y-107662995D01*
X115404285Y-107888711D01*
X115473810Y-108209402D01*
X115557316Y-108589161D01*
X115646824Y-108992081D01*
X115734358Y-109382255D01*
X115811937Y-109723777D01*
X115871585Y-109980739D01*
X115905322Y-110117234D01*
X115906023Y-110119690D01*
X115893482Y-110241023D01*
X115779259Y-110269353D01*
X115634132Y-110206041D01*
X115551899Y-110008251D01*
X115501480Y-109843219D01*
X115410813Y-109773820D01*
X115223415Y-109767625D01*
X115142283Y-109773066D01*
X114907440Y-109807525D01*
X114789287Y-109886550D01*
X114740340Y-110012788D01*
X114625524Y-110202388D01*
X114493764Y-110254967D01*
X114352001Y-110250384D01*
X114335969Y-110155170D01*
X114343678Y-110126684D01*
X114379389Y-109988217D01*
X114444352Y-109718870D01*
X114530047Y-109354581D01*
X114554232Y-109250017D01*
X114924690Y-109250017D01*
X114954901Y-109363659D01*
X115049294Y-109407706D01*
X115169677Y-109414134D01*
X115347049Y-109398637D01*
X115397076Y-109319233D01*
X115374905Y-109178949D01*
X115316896Y-108937947D01*
X115242712Y-108649310D01*
X115230002Y-108601677D01*
X115138065Y-108259589D01*
X115032983Y-108687198D01*
X114952704Y-109035092D01*
X114924690Y-109250017D01*
X114554232Y-109250017D01*
X114627952Y-108931292D01*
X114651730Y-108827495D01*
G37*
X114651730Y-108827495D02*
X114750552Y-108404322D01*
X114839409Y-108040463D01*
X114909965Y-107768868D01*
X114953884Y-107622488D01*
X114960032Y-107608808D01*
X115055372Y-107555884D01*
X115204441Y-107531360D01*
X115320522Y-107544535D01*
X115339091Y-107568160D01*
X115356719Y-107662995D01*
X115404285Y-107888711D01*
X115473810Y-108209402D01*
X115557316Y-108589161D01*
X115646824Y-108992081D01*
X115734358Y-109382255D01*
X115811937Y-109723777D01*
X115871585Y-109980739D01*
X115905322Y-110117234D01*
X115906023Y-110119690D01*
X115893482Y-110241023D01*
X115779259Y-110269353D01*
X115634132Y-110206041D01*
X115551899Y-110008251D01*
X115501480Y-109843219D01*
X115410813Y-109773820D01*
X115223415Y-109767625D01*
X115142283Y-109773066D01*
X114907440Y-109807525D01*
X114789287Y-109886550D01*
X114740340Y-110012788D01*
X114625524Y-110202388D01*
X114493764Y-110254967D01*
X114352001Y-110250384D01*
X114335969Y-110155170D01*
X114343678Y-110126684D01*
X114379389Y-109988217D01*
X114444352Y-109718870D01*
X114530047Y-109354581D01*
X114554232Y-109250017D01*
X114924690Y-109250017D01*
X114954901Y-109363659D01*
X115049294Y-109407706D01*
X115169677Y-109414134D01*
X115347049Y-109398637D01*
X115397076Y-109319233D01*
X115374905Y-109178949D01*
X115316896Y-108937947D01*
X115242712Y-108649310D01*
X115230002Y-108601677D01*
X115138065Y-108259589D01*
X115032983Y-108687198D01*
X114952704Y-109035092D01*
X114924690Y-109250017D01*
X114554232Y-109250017D01*
X114627952Y-108931292D01*
X114651730Y-108827495D01*
G36*
X113424026Y-110891438D02*
G01*
X113409385Y-110983127D01*
X113330610Y-111186328D01*
X113203542Y-111461355D01*
X113167905Y-111533074D01*
X112867223Y-112130149D01*
X113162416Y-112746114D01*
X113300268Y-113037932D01*
X113403730Y-113264892D01*
X113455016Y-113387721D01*
X113457609Y-113397871D01*
X113386043Y-113427545D01*
X113295903Y-113433663D01*
X113178408Y-113379327D01*
X113049371Y-113202115D01*
X112893309Y-112880719D01*
X112892024Y-112877771D01*
X112764146Y-112604138D01*
X112654863Y-112405675D01*
X112586379Y-112322370D01*
X112583360Y-112321879D01*
X112549498Y-112399889D01*
X112525549Y-112603998D01*
X112516869Y-112877771D01*
X112511538Y-113178611D01*
X112487792Y-113346336D01*
X112434003Y-113418742D01*
X112345825Y-113433663D01*
X112280088Y-113425257D01*
X112233768Y-113383098D01*
X112203478Y-113281779D01*
X112185830Y-113095890D01*
X112177436Y-112800023D01*
X112174909Y-112368769D01*
X112174781Y-112150835D01*
X112175902Y-111657806D01*
X112181523Y-111310409D01*
X112195032Y-111083235D01*
X112219818Y-110950875D01*
X112259267Y-110887920D01*
X112316767Y-110868962D01*
X112345825Y-110868007D01*
X112438391Y-110885332D01*
X112489999Y-110962505D01*
X112512278Y-111137320D01*
X112516869Y-111423899D01*
X112527231Y-111706990D01*
X112554342Y-111907209D01*
X112590711Y-111979791D01*
X112660484Y-111907732D01*
X112771734Y-111719038D01*
X112897287Y-111461194D01*
X113075947Y-111118212D01*
X113237959Y-110915025D01*
X113373444Y-110862320D01*
X113424026Y-110891438D01*
G37*
X113424026Y-110891438D02*
X113409385Y-110983127D01*
X113330610Y-111186328D01*
X113203542Y-111461355D01*
X113167905Y-111533074D01*
X112867223Y-112130149D01*
X113162416Y-112746114D01*
X113300268Y-113037932D01*
X113403730Y-113264892D01*
X113455016Y-113387721D01*
X113457609Y-113397871D01*
X113386043Y-113427545D01*
X113295903Y-113433663D01*
X113178408Y-113379327D01*
X113049371Y-113202115D01*
X112893309Y-112880719D01*
X112892024Y-112877771D01*
X112764146Y-112604138D01*
X112654863Y-112405675D01*
X112586379Y-112322370D01*
X112583360Y-112321879D01*
X112549498Y-112399889D01*
X112525549Y-112603998D01*
X112516869Y-112877771D01*
X112511538Y-113178611D01*
X112487792Y-113346336D01*
X112434003Y-113418742D01*
X112345825Y-113433663D01*
X112280088Y-113425257D01*
X112233768Y-113383098D01*
X112203478Y-113281779D01*
X112185830Y-113095890D01*
X112177436Y-112800023D01*
X112174909Y-112368769D01*
X112174781Y-112150835D01*
X112175902Y-111657806D01*
X112181523Y-111310409D01*
X112195032Y-111083235D01*
X112219818Y-110950875D01*
X112259267Y-110887920D01*
X112316767Y-110868962D01*
X112345825Y-110868007D01*
X112438391Y-110885332D01*
X112489999Y-110962505D01*
X112512278Y-111137320D01*
X112516869Y-111423899D01*
X112527231Y-111706990D01*
X112554342Y-111907209D01*
X112590711Y-111979791D01*
X112660484Y-111907732D01*
X112771734Y-111719038D01*
X112897287Y-111461194D01*
X113075947Y-111118212D01*
X113237959Y-110915025D01*
X113373444Y-110862320D01*
X113424026Y-110891438D01*
G36*
X113243805Y-107532653D02*
G01*
X113567682Y-107552362D01*
X113778443Y-107621159D01*
X113885219Y-107703697D01*
X114015758Y-107938134D01*
X114054016Y-108237519D01*
X113997577Y-108523580D01*
X113914725Y-108659084D01*
X113820129Y-108789404D01*
X113850163Y-108895623D01*
X113914725Y-108971879D01*
X114015545Y-109185335D01*
X114053538Y-109485448D01*
X114028154Y-109799569D01*
X113938842Y-110055051D01*
X113923130Y-110079280D01*
X113818301Y-110189452D01*
X113667438Y-110247226D01*
X113418658Y-110267976D01*
X113281716Y-110269353D01*
X112773434Y-110269353D01*
X112773434Y-109499656D01*
X113115522Y-109499656D01*
X113131630Y-109817289D01*
X113192363Y-109984109D01*
X113316333Y-110018358D01*
X113522153Y-109938279D01*
X113548754Y-109924257D01*
X113672666Y-109789580D01*
X113713947Y-109540982D01*
X113714175Y-109513752D01*
X113670111Y-109206603D01*
X113531454Y-109035221D01*
X113312222Y-108986525D01*
X113203015Y-108999867D01*
X113144037Y-109066517D01*
X113119977Y-109226411D01*
X113115522Y-109499656D01*
X112773434Y-109499656D01*
X112773434Y-108259589D01*
X113115522Y-108259589D01*
X113123319Y-108532160D01*
X113156085Y-108674136D01*
X113227881Y-108725617D01*
X113280457Y-108729959D01*
X113474129Y-108671866D01*
X113579784Y-108595568D01*
X113697723Y-108379025D01*
X113691409Y-108138882D01*
X113580883Y-107929127D01*
X113386186Y-107803747D01*
X113280457Y-107789219D01*
X113184880Y-107811455D01*
X113135096Y-107904899D01*
X113117044Y-108109651D01*
X113115522Y-108259589D01*
X112773434Y-108259589D01*
X112773434Y-107532653D01*
X113243805Y-107532653D01*
G37*
X113243805Y-107532653D02*
X113567682Y-107552362D01*
X113778443Y-107621159D01*
X113885219Y-107703697D01*
X114015758Y-107938134D01*
X114054016Y-108237519D01*
X113997577Y-108523580D01*
X113914725Y-108659084D01*
X113820129Y-108789404D01*
X113850163Y-108895623D01*
X113914725Y-108971879D01*
X114015545Y-109185335D01*
X114053538Y-109485448D01*
X114028154Y-109799569D01*
X113938842Y-110055051D01*
X113923130Y-110079280D01*
X113818301Y-110189452D01*
X113667438Y-110247226D01*
X113418658Y-110267976D01*
X113281716Y-110269353D01*
X112773434Y-110269353D01*
X112773434Y-109499656D01*
X113115522Y-109499656D01*
X113131630Y-109817289D01*
X113192363Y-109984109D01*
X113316333Y-110018358D01*
X113522153Y-109938279D01*
X113548754Y-109924257D01*
X113672666Y-109789580D01*
X113713947Y-109540982D01*
X113714175Y-109513752D01*
X113670111Y-109206603D01*
X113531454Y-109035221D01*
X113312222Y-108986525D01*
X113203015Y-108999867D01*
X113144037Y-109066517D01*
X113119977Y-109226411D01*
X113115522Y-109499656D01*
X112773434Y-109499656D01*
X112773434Y-108259589D01*
X113115522Y-108259589D01*
X113123319Y-108532160D01*
X113156085Y-108674136D01*
X113227881Y-108725617D01*
X113280457Y-108729959D01*
X113474129Y-108671866D01*
X113579784Y-108595568D01*
X113697723Y-108379025D01*
X113691409Y-108138882D01*
X113580883Y-107929127D01*
X113386186Y-107803747D01*
X113280457Y-107789219D01*
X113184880Y-107811455D01*
X113135096Y-107904899D01*
X113117044Y-108109651D01*
X113115522Y-108259589D01*
X112773434Y-108259589D01*
X112773434Y-107532653D01*
X113243805Y-107532653D01*
G36*
X110613822Y-107540642D02*
G01*
X110659475Y-107581020D01*
X110689901Y-107678398D01*
X110708176Y-107857390D01*
X110717379Y-108142609D01*
X110720584Y-108558669D01*
X110720909Y-108901003D01*
X110720909Y-110269353D01*
X110300304Y-110269353D01*
X110330717Y-108965145D01*
X110341825Y-108508485D01*
X110352313Y-108113004D01*
X110361284Y-107809963D01*
X110367841Y-107630626D01*
X110369976Y-107596794D01*
X110449750Y-107544433D01*
X110549865Y-107532653D01*
X110613822Y-107540642D01*
G37*
X110613822Y-107540642D02*
X110659475Y-107581020D01*
X110689901Y-107678398D01*
X110708176Y-107857390D01*
X110717379Y-108142609D01*
X110720584Y-108558669D01*
X110720909Y-108901003D01*
X110720909Y-110269353D01*
X110300304Y-110269353D01*
X110330717Y-108965145D01*
X110341825Y-108508485D01*
X110352313Y-108113004D01*
X110361284Y-107809963D01*
X110367841Y-107630626D01*
X110369976Y-107596794D01*
X110449750Y-107544433D01*
X110549865Y-107532653D01*
X110613822Y-107540642D01*
G36*
X116255097Y-108295799D02*
G01*
X116385532Y-107900090D01*
X116584959Y-107621862D01*
X116844882Y-107474548D01*
X117156805Y-107471582D01*
X117391616Y-107557524D01*
X117564911Y-107711179D01*
X117699458Y-107940465D01*
X117707496Y-107962492D01*
X117771955Y-108266906D01*
X117805761Y-108672482D01*
X117808084Y-109111959D01*
X117778091Y-109518076D01*
X117729903Y-109775081D01*
X117569652Y-110100363D01*
X117326729Y-110296475D01*
X117035779Y-110353603D01*
X116731445Y-110261929D01*
X116537791Y-110112860D01*
X116371677Y-109896442D01*
X116274273Y-109621654D01*
X116235188Y-109385924D01*
X116211075Y-108955036D01*
X116625142Y-108955036D01*
X116641089Y-109328623D01*
X116677525Y-109635641D01*
X116721169Y-109794959D01*
X116877049Y-109969743D01*
X117086127Y-110007813D01*
X117289464Y-109901613D01*
X117317003Y-109871361D01*
X117381113Y-109715914D01*
X117419494Y-109425818D01*
X117434112Y-108984826D01*
X117434377Y-108901003D01*
X117422721Y-108434980D01*
X117381417Y-108114803D01*
X117300958Y-107916464D01*
X117171840Y-107815954D01*
X116994179Y-107789219D01*
X116800329Y-107856997D01*
X116705324Y-108008591D01*
X116656751Y-108237646D01*
X116630194Y-108572252D01*
X116625142Y-108955036D01*
X116211075Y-108955036D01*
X116202150Y-108795555D01*
X116255097Y-108295799D01*
G37*
X116255097Y-108295799D02*
X116385532Y-107900090D01*
X116584959Y-107621862D01*
X116844882Y-107474548D01*
X117156805Y-107471582D01*
X117391616Y-107557524D01*
X117564911Y-107711179D01*
X117699458Y-107940465D01*
X117707496Y-107962492D01*
X117771955Y-108266906D01*
X117805761Y-108672482D01*
X117808084Y-109111959D01*
X117778091Y-109518076D01*
X117729903Y-109775081D01*
X117569652Y-110100363D01*
X117326729Y-110296475D01*
X117035779Y-110353603D01*
X116731445Y-110261929D01*
X116537791Y-110112860D01*
X116371677Y-109896442D01*
X116274273Y-109621654D01*
X116235188Y-109385924D01*
X116211075Y-108955036D01*
X116625142Y-108955036D01*
X116641089Y-109328623D01*
X116677525Y-109635641D01*
X116721169Y-109794959D01*
X116877049Y-109969743D01*
X117086127Y-110007813D01*
X117289464Y-109901613D01*
X117317003Y-109871361D01*
X117381113Y-109715914D01*
X117419494Y-109425818D01*
X117434112Y-108984826D01*
X117434377Y-108901003D01*
X117422721Y-108434980D01*
X117381417Y-108114803D01*
X117300958Y-107916464D01*
X117171840Y-107815954D01*
X116994179Y-107789219D01*
X116800329Y-107856997D01*
X116705324Y-108008591D01*
X116656751Y-108237646D01*
X116630194Y-108572252D01*
X116625142Y-108955036D01*
X116211075Y-108955036D01*
X116202150Y-108795555D01*
X116255097Y-108295799D01*
G36*
X110795708Y-111872353D02*
G01*
X110882191Y-111495139D01*
X110944056Y-111204387D01*
X110973480Y-111035631D01*
X110974839Y-111017670D01*
X111047221Y-110890779D01*
X111137857Y-110868007D01*
X111209032Y-110891333D01*
X111275013Y-110977621D01*
X111345109Y-111151337D01*
X111428632Y-111436946D01*
X111534892Y-111858913D01*
X111569113Y-112001171D01*
X111672292Y-112430103D01*
X111764357Y-112807840D01*
X111836511Y-113098643D01*
X111879957Y-113266773D01*
X111884864Y-113284000D01*
X111874154Y-113405526D01*
X111762206Y-113433663D01*
X111604908Y-113356507D01*
X111539756Y-113214868D01*
X111481133Y-113071018D01*
X111366137Y-113017879D01*
X111167017Y-113022443D01*
X110945696Y-113062602D01*
X110844583Y-113154599D01*
X110821863Y-113241239D01*
X110740649Y-113399189D01*
X110603594Y-113433663D01*
X110412653Y-113433663D01*
X110632255Y-112544211D01*
X110986371Y-112544211D01*
X111053595Y-112640063D01*
X111191279Y-112663966D01*
X111360367Y-112622087D01*
X111398512Y-112514303D01*
X111369387Y-112339346D01*
X111305209Y-112090861D01*
X111284506Y-112022552D01*
X111177072Y-111680464D01*
X111077750Y-112022552D01*
X110996102Y-112347863D01*
X110986371Y-112544211D01*
X110632255Y-112544211D01*
X110692428Y-112300498D01*
X110795708Y-111872353D01*
G37*
X110795708Y-111872353D02*
X110882191Y-111495139D01*
X110944056Y-111204387D01*
X110973480Y-111035631D01*
X110974839Y-111017670D01*
X111047221Y-110890779D01*
X111137857Y-110868007D01*
X111209032Y-110891333D01*
X111275013Y-110977621D01*
X111345109Y-111151337D01*
X111428632Y-111436946D01*
X111534892Y-111858913D01*
X111569113Y-112001171D01*
X111672292Y-112430103D01*
X111764357Y-112807840D01*
X111836511Y-113098643D01*
X111879957Y-113266773D01*
X111884864Y-113284000D01*
X111874154Y-113405526D01*
X111762206Y-113433663D01*
X111604908Y-113356507D01*
X111539756Y-113214868D01*
X111481133Y-113071018D01*
X111366137Y-113017879D01*
X111167017Y-113022443D01*
X110945696Y-113062602D01*
X110844583Y-113154599D01*
X110821863Y-113241239D01*
X110740649Y-113399189D01*
X110603594Y-113433663D01*
X110412653Y-113433663D01*
X110632255Y-112544211D01*
X110986371Y-112544211D01*
X111053595Y-112640063D01*
X111191279Y-112663966D01*
X111360367Y-112622087D01*
X111398512Y-112514303D01*
X111369387Y-112339346D01*
X111305209Y-112090861D01*
X111284506Y-112022552D01*
X111177072Y-111680464D01*
X111077750Y-112022552D01*
X110996102Y-112347863D01*
X110986371Y-112544211D01*
X110632255Y-112544211D01*
X110692428Y-112300498D01*
X110795708Y-111872353D01*
G36*
X115574276Y-110869267D02*
G01*
X115971932Y-110927644D01*
X116249763Y-111094941D01*
X116389973Y-111339462D01*
X116414868Y-111624252D01*
X116345972Y-111889867D01*
X116204154Y-112078121D01*
X116107758Y-112126324D01*
X115970053Y-112178986D01*
X115937744Y-112210879D01*
X115972918Y-112301240D01*
X116066123Y-112504554D01*
X116198881Y-112780796D01*
X116231647Y-112847556D01*
X116376123Y-113145805D01*
X116449136Y-113321332D01*
X116456306Y-113404104D01*
X116403255Y-113424089D01*
X116338549Y-113417520D01*
X116190435Y-113336716D01*
X116033642Y-113123071D01*
X115917201Y-112899151D01*
X115783450Y-112644794D01*
X115666083Y-112467129D01*
X115596494Y-112407400D01*
X115549960Y-112485560D01*
X115518905Y-112690977D01*
X115510135Y-112920532D01*
X115500283Y-113218484D01*
X115465358Y-113378453D01*
X115397309Y-113432651D01*
X115381852Y-113433663D01*
X115331644Y-113410394D01*
X115296159Y-113324738D01*
X115273020Y-113152920D01*
X115259848Y-112871166D01*
X115254266Y-112455701D01*
X115253569Y-112150835D01*
X115253569Y-111594943D01*
X115510135Y-111594943D01*
X115519120Y-111832534D01*
X115562784Y-111945102D01*
X115666184Y-111978399D01*
X115720930Y-111979791D01*
X115938547Y-111904384D01*
X116029056Y-111797929D01*
X116079866Y-111562480D01*
X116004372Y-111353687D01*
X115830817Y-111226291D01*
X115725773Y-111210094D01*
X115592742Y-111225778D01*
X115529713Y-111303413D01*
X115510984Y-111488871D01*
X115510135Y-111594943D01*
X115253569Y-111594943D01*
X115253569Y-110868007D01*
X115574276Y-110869267D01*
G37*
X115574276Y-110869267D02*
X115971932Y-110927644D01*
X116249763Y-111094941D01*
X116389973Y-111339462D01*
X116414868Y-111624252D01*
X116345972Y-111889867D01*
X116204154Y-112078121D01*
X116107758Y-112126324D01*
X115970053Y-112178986D01*
X115937744Y-112210879D01*
X115972918Y-112301240D01*
X116066123Y-112504554D01*
X116198881Y-112780796D01*
X116231647Y-112847556D01*
X116376123Y-113145805D01*
X116449136Y-113321332D01*
X116456306Y-113404104D01*
X116403255Y-113424089D01*
X116338549Y-113417520D01*
X116190435Y-113336716D01*
X116033642Y-113123071D01*
X115917201Y-112899151D01*
X115783450Y-112644794D01*
X115666083Y-112467129D01*
X115596494Y-112407400D01*
X115549960Y-112485560D01*
X115518905Y-112690977D01*
X115510135Y-112920532D01*
X115500283Y-113218484D01*
X115465358Y-113378453D01*
X115397309Y-113432651D01*
X115381852Y-113433663D01*
X115331644Y-113410394D01*
X115296159Y-113324738D01*
X115273020Y-113152920D01*
X115259848Y-112871166D01*
X115254266Y-112455701D01*
X115253569Y-112150835D01*
X115253569Y-111594943D01*
X115510135Y-111594943D01*
X115519120Y-111832534D01*
X115562784Y-111945102D01*
X115666184Y-111978399D01*
X115720930Y-111979791D01*
X115938547Y-111904384D01*
X116029056Y-111797929D01*
X116079866Y-111562480D01*
X116004372Y-111353687D01*
X115830817Y-111226291D01*
X115725773Y-111210094D01*
X115592742Y-111225778D01*
X115529713Y-111303413D01*
X115510984Y-111488871D01*
X115510135Y-111594943D01*
X115253569Y-111594943D01*
X115253569Y-110868007D01*
X115574276Y-110869267D01*
D11*
X67436000Y-114540000D02*
X67436000Y-113540000D01*
X87436000Y-114540000D02*
X84936000Y-114540000D01*
X93746000Y-114600000D02*
X93746000Y-106380000D01*
X93986000Y-106140000D02*
X93386000Y-106140000D01*
X62056000Y-109415000D02*
X62255000Y-109216000D01*
X70116000Y-111765000D02*
X70327000Y-111554000D01*
X84936000Y-114540000D02*
X84936000Y-113540000D01*
X93986000Y-106980000D02*
X93986000Y-106140000D01*
X60116000Y-111765000D02*
X60327000Y-111554000D01*
X82436000Y-113540000D02*
X79936000Y-113540000D01*
X72436000Y-113540000D02*
X69936000Y-113540000D01*
X59911000Y-111559000D02*
X60157000Y-111313000D01*
X93746000Y-114600000D02*
X58626000Y-114600000D01*
X72056000Y-109415000D02*
X72255000Y-109216000D01*
X67436000Y-114540000D02*
X64936000Y-114540000D01*
X77436000Y-114540000D02*
X77436000Y-113540000D01*
X65116000Y-111765000D02*
X65327000Y-111554000D01*
X84911000Y-111559000D02*
X85157000Y-111313000D01*
X82056000Y-109415000D02*
X82255000Y-109216000D01*
X72436000Y-114540000D02*
X72436000Y-113540000D01*
X77436000Y-114540000D02*
X74936000Y-114540000D01*
X93746000Y-106380000D02*
X58626000Y-106380000D01*
X69936000Y-114540000D02*
X69936000Y-113540000D01*
X93746000Y-107640000D02*
X58626000Y-107640000D01*
X82214000Y-109667000D02*
X82460000Y-109421000D01*
X67214000Y-109667000D02*
X67460000Y-109421000D01*
X93746000Y-107040000D02*
X58626000Y-107040000D01*
X80116000Y-111765000D02*
X80327000Y-111554000D01*
X67436000Y-113540000D02*
X64936000Y-113540000D01*
X92436000Y-114540000D02*
X89936000Y-114540000D01*
X64911000Y-111559000D02*
X65157000Y-111313000D01*
X82436000Y-114540000D02*
X82436000Y-113540000D01*
X75116000Y-111765000D02*
X75327000Y-111554000D01*
X62214000Y-109667000D02*
X62460000Y-109421000D01*
X82436000Y-114540000D02*
X79936000Y-114540000D01*
X74936000Y-114540000D02*
X74936000Y-113540000D01*
X64936000Y-114540000D02*
X64936000Y-113540000D01*
X89936000Y-114540000D02*
X89936000Y-113540000D01*
X77214000Y-109667000D02*
X77460000Y-109421000D01*
X87436000Y-114540000D02*
X87436000Y-113540000D01*
X69911000Y-111559000D02*
X70157000Y-111313000D01*
X87056000Y-109415000D02*
X87255000Y-109216000D01*
X87436000Y-113540000D02*
X84936000Y-113540000D01*
X77056000Y-109415000D02*
X77255000Y-109216000D01*
X72436000Y-114540000D02*
X69936000Y-114540000D01*
X79936000Y-114540000D02*
X79936000Y-113540000D01*
X62436000Y-114540000D02*
X59936000Y-114540000D01*
X72214000Y-109667000D02*
X72460000Y-109421000D01*
X62436000Y-114540000D02*
X62436000Y-113540000D01*
X59936000Y-114540000D02*
X59936000Y-113540000D01*
X77436000Y-113540000D02*
X74936000Y-113540000D01*
X62436000Y-113540000D02*
X59936000Y-113540000D01*
X87214000Y-109667000D02*
X87460000Y-109421000D01*
X92436000Y-114540000D02*
X92436000Y-113540000D01*
X92436000Y-113540000D02*
X89936000Y-113540000D01*
X93746000Y-112540000D02*
X58626000Y-112540000D01*
X79911000Y-111559000D02*
X80157000Y-111313000D01*
X67056000Y-109415000D02*
X67255000Y-109216000D01*
X74911000Y-111559000D02*
X75157000Y-111313000D01*
X58626000Y-114600000D02*
X58626000Y-106380000D01*
X85116000Y-111765000D02*
X85327000Y-111554000D01*
X92473000Y-111571000D02*
G75*
G03*
X92474062Y-109410266I-1287000J1081000D01*
G01*
X91186000Y-108810000D02*
G75*
G03*
X90106117Y-109203045I-2J-1679994D01*
G01*
X92267000Y-109203000D02*
G75*
G03*
X91157493Y-108809489I-1081000J-1287000D01*
G01*
X89899000Y-109410000D02*
G75*
G03*
X89898922Y-111569908I1287001J-1080000D01*
G01*
X90106000Y-111777000D02*
G75*
G03*
X92265908Y-111777078I1080000J1287001D01*
G01*
X67866000Y-110490000D02*
G75*
G03*
X67866000Y-110490000I-1680000J0D01*
G01*
X82866000Y-110490000D02*
G75*
G03*
X82866000Y-110490000I-1680000J0D01*
G01*
X62866000Y-110490000D02*
G75*
G03*
X62866000Y-110490000I-1680000J0D01*
G01*
X72866000Y-110490000D02*
G75*
G03*
X72866000Y-110490000I-1680000J0D01*
G01*
X87866000Y-110490000D02*
G75*
G03*
X87866000Y-110490000I-1680000J0D01*
G01*
X77866000Y-110490000D02*
G75*
G03*
X77866000Y-110490000I-1680000J0D01*
G01*
X61754000Y-85752000D02*
X61754000Y-88492000D01*
X61754000Y-88492000D02*
X68294000Y-88492000D01*
X60984000Y-87122000D02*
X61754000Y-87122000D01*
X68294000Y-85752000D02*
X61754000Y-85752000D01*
X69064000Y-87122000D02*
X68294000Y-87122000D01*
X68294000Y-88492000D02*
X68294000Y-85752000D01*
X60984000Y-57404000D02*
X61754000Y-57404000D01*
X61754000Y-56034000D02*
X61754000Y-58774000D01*
X69064000Y-57404000D02*
X68294000Y-57404000D01*
X68294000Y-58774000D02*
X68294000Y-56034000D01*
X61754000Y-58774000D02*
X68294000Y-58774000D01*
X68294000Y-56034000D02*
X61754000Y-56034000D01*
X68914000Y-47184000D02*
X67264000Y-47184000D01*
X65264000Y-47184000D02*
X63614000Y-47184000D01*
X63614000Y-47184000D02*
X63614000Y-52384000D01*
X68914000Y-52384000D02*
X68914000Y-47184000D01*
X63614000Y-52384000D02*
X68914000Y-52384000D01*
X65264000Y-47184000D02*
G75*
G03*
X67264000Y-47184000I1000000J0D01*
G01*
X49779000Y-55906000D02*
X49990000Y-56117000D01*
X51877000Y-58004000D02*
X52123000Y-58250000D01*
X54564000Y-64776000D02*
X55404000Y-64776000D01*
X47004000Y-58226000D02*
X48004000Y-58226000D01*
X52129000Y-47846000D02*
X52328000Y-48045000D01*
X49779000Y-45906000D02*
X49990000Y-46117000D01*
X52129000Y-57846000D02*
X52328000Y-58045000D01*
X47004000Y-53226000D02*
X48004000Y-53226000D01*
X49985000Y-45701000D02*
X50231000Y-45947000D01*
X49004000Y-64536000D02*
X49004000Y-44415000D01*
X47004000Y-63226000D02*
X47004000Y-60726000D01*
X51877000Y-48004000D02*
X52123000Y-48250000D01*
X47004000Y-48226000D02*
X47004000Y-45726000D01*
X47004000Y-50726000D02*
X48004000Y-50726000D01*
X47004000Y-45726000D02*
X48004000Y-45726000D01*
X47004000Y-55726000D02*
X48004000Y-55726000D01*
X48004000Y-58226000D02*
X48004000Y-55726000D01*
X47004000Y-58226000D02*
X47004000Y-55726000D01*
X54504000Y-64536000D02*
X54504000Y-44415000D01*
X48004000Y-63226000D02*
X48004000Y-60726000D01*
X55164000Y-64536000D02*
X55164000Y-44415000D01*
X47004000Y-48226000D02*
X48004000Y-48226000D01*
X49985000Y-50701000D02*
X50231000Y-50947000D01*
X46944000Y-64536000D02*
X46944000Y-44415000D01*
X47004000Y-63226000D02*
X48004000Y-63226000D01*
X49779000Y-50906000D02*
X49990000Y-51117000D01*
X46944000Y-44415000D02*
X55164000Y-44415000D01*
X49985000Y-55701000D02*
X50231000Y-55947000D01*
X51877000Y-53004000D02*
X52123000Y-53250000D01*
X48004000Y-53226000D02*
X48004000Y-50726000D01*
X46944000Y-64536000D02*
X55164000Y-64536000D01*
X47004000Y-60726000D02*
X48004000Y-60726000D01*
X52129000Y-52846000D02*
X52328000Y-53045000D01*
X48004000Y-48226000D02*
X48004000Y-45726000D01*
X53904000Y-64536000D02*
X53904000Y-44415000D01*
X55404000Y-64776000D02*
X55404000Y-64176000D01*
X47004000Y-53226000D02*
X47004000Y-50726000D01*
X52734000Y-61976000D02*
G75*
G03*
X52340955Y-60896117I-1679994J2D01*
G01*
X49767000Y-60896000D02*
G75*
G03*
X49766922Y-63055908I1287001J-1080000D01*
G01*
X52341000Y-63057000D02*
G75*
G03*
X52734511Y-61947493I-1287000J1081000D01*
G01*
X52134000Y-60689000D02*
G75*
G03*
X49974092Y-60688922I-1080000J-1287001D01*
G01*
X49973000Y-63263000D02*
G75*
G03*
X52133734Y-63264062I1081000J1287000D01*
G01*
X52734000Y-46976000D02*
G75*
G03*
X52734000Y-46976000I-1680000J0D01*
G01*
X52734000Y-56976000D02*
G75*
G03*
X52734000Y-56976000I-1680000J0D01*
G01*
X52734000Y-51976000D02*
G75*
G03*
X52734000Y-51976000I-1680000J0D01*
G01*
M02*
