M48
INCH,TZ
T1C0.0315
T2C0.0402
T3C0.0433
%
G90
G05
T1
X23600Y-22600
X23600Y-28600
X23600Y-34300
X24588Y-19100
X24588Y-20100
X24588Y-25100
X24588Y-26100
X24588Y-30900
X24588Y-31900
X24600Y-37800
X24600Y-40800
X25600Y-37800
X25600Y-40800
X26600Y-37800
X26600Y-40800
X27588Y-19100
X27588Y-20100
X27588Y-25100
X27588Y-26100
X27588Y-30900
X27588Y-31900
X27600Y-22600
X27600Y-28600
X27600Y-34300
X27600Y-37800
X27600Y-40800
X28600Y-37800
X28600Y-40800
X29400Y-22600
X29400Y-28500
X29400Y-34300
X29600Y-37800
X29600Y-40800
X30388Y-19100
X30388Y-20100
X30388Y-25100
X30388Y-26100
X30388Y-30900
X30388Y-31900
X30600Y-37800
X30600Y-40800
X31600Y-37800
X31600Y-40800
X33388Y-19100
X33388Y-20100
X33388Y-25100
X33388Y-26100
X33388Y-30900
X33388Y-31900
X33400Y-22600
X33400Y-28500
X33400Y-34300
T2
X36500Y-20204
X36500Y-21204
X36500Y-22204
X36500Y-23204
X36500Y-24204
X36500Y-25204
X36500Y-26204
X36500Y-27204
X36500Y-28204
X36500Y-29204
X36500Y-30204
X36500Y-31204
X36500Y-32204
X36500Y-33204
X36500Y-34204
X36500Y-35204
X36500Y-36204
X36500Y-37204
X36500Y-38204
X46500Y-20204
X46500Y-21204
X46500Y-22204
X46500Y-23204
X46500Y-24204
X46500Y-25204
X46500Y-26204
X46500Y-27204
X46500Y-28204
X46500Y-29204
X46500Y-30204
X46500Y-31204
X46500Y-32204
X46500Y-33204
X46500Y-34204
X46500Y-35204
X46500Y-36204
X46500Y-37204
X46500Y-38204
T3
X20100Y-18494
X20100Y-20463
X20100Y-22431
X20100Y-24400
X20100Y-27157
X20100Y-29126
X20100Y-31094
X20100Y-33063
X20100Y-35031
X20100Y-37000
X20100Y-39763
X20100Y-41731
X20100Y-43700
X24089Y-43500
X26057Y-43500
X28026Y-43500
X29994Y-43500
X31963Y-43500
X33931Y-43500
X35900Y-43500
T0
M30
