M48
; DRILL file {KiCad (5.1.5)-3} date 24/04/2020 15:36:03
; FORMAT={-:-/ absolute / inch / decimal}
; #@! TF.CreationDate,2020-04-24T15:36:03+02:00
; #@! TF.GenerationSoftware,Kicad,Pcbnew,(5.1.5)-3
; #@! TF.FileFunction,Plated,1,2,PTH
FMAT,2
INCH
T1C0.0315
T2C0.0402
T3C0.0433
%
G90
G05
T1
X3.0388Y-1.91
X3.0388Y-2.01
X3.3388Y-1.91
X3.3388Y-2.01
X3.0388Y-3.09
X3.0388Y-3.19
X3.3388Y-3.09
X3.3388Y-3.19
X3.0388Y-2.51
X3.0388Y-2.61
X3.3388Y-2.51
X3.3388Y-2.61
X2.4588Y-2.51
X2.4588Y-2.61
X2.7588Y-2.51
X2.7588Y-2.61
X2.4588Y-1.91
X2.4588Y-2.01
X2.7588Y-1.91
X2.7588Y-2.01
X2.36Y-2.26
X2.76Y-2.26
X2.94Y-2.26
X3.34Y-2.26
X2.46Y-3.78
X2.46Y-4.08
X2.56Y-3.78
X2.56Y-4.08
X2.66Y-3.78
X2.66Y-4.08
X2.76Y-3.78
X2.76Y-4.08
X2.86Y-3.78
X2.86Y-4.08
X2.96Y-3.78
X2.96Y-4.08
X3.06Y-3.78
X3.06Y-4.08
X3.16Y-3.78
X3.16Y-4.08
X2.36Y-2.86
X2.76Y-2.86
X2.94Y-2.85
X3.34Y-2.85
X2.4588Y-3.09
X2.4588Y-3.19
X2.7588Y-3.09
X2.7588Y-3.19
X2.36Y-3.43
X2.76Y-3.43
X2.94Y-3.43
X3.34Y-3.43
T2
X3.65Y-2.0204
X3.65Y-2.1204
X3.65Y-2.2204
X3.65Y-2.3204
X3.65Y-2.4204
X3.65Y-2.5204
X3.65Y-2.6204
X3.65Y-2.7204
X3.65Y-2.8204
X3.65Y-2.9204
X3.65Y-3.0204
X3.65Y-3.1204
X3.65Y-3.2204
X3.65Y-3.3204
X3.65Y-3.4204
X3.65Y-3.5204
X3.65Y-3.6204
X3.65Y-3.7204
X3.65Y-3.8204
X4.65Y-2.0204
X4.65Y-2.1204
X4.65Y-2.2204
X4.65Y-2.3204
X4.65Y-2.4204
X4.65Y-2.5204
X4.65Y-2.6204
X4.65Y-2.7204
X4.65Y-2.8204
X4.65Y-2.9204
X4.65Y-3.0204
X4.65Y-3.1204
X4.65Y-3.2204
X4.65Y-3.3204
X4.65Y-3.4204
X4.65Y-3.5204
X4.65Y-3.6204
X4.65Y-3.7204
X4.65Y-3.8204
T3
X2.01Y-3.9763
X2.01Y-4.1731
X2.01Y-4.37
X2.4089Y-4.35
X2.6057Y-4.35
X2.8026Y-4.35
X2.9994Y-4.35
X3.1963Y-4.35
X3.3931Y-4.35
X3.59Y-4.35
X2.01Y-2.7157
X2.01Y-2.9126
X2.01Y-3.1094
X2.01Y-3.3063
X2.01Y-3.5031
X2.01Y-3.7
X2.01Y-1.8494
X2.01Y-2.0463
X2.01Y-2.2431
X2.01Y-2.44
T0
M30
