G04 #@! TF.GenerationSoftware,KiCad,Pcbnew,(6.0.4)*
G04 #@! TF.CreationDate,2022-04-21T17:37:51+02:00*
G04 #@! TF.ProjectId,PlacaIOAzimut,506c6163-6149-44f4-917a-696d75742e6b,rev?*
G04 #@! TF.SameCoordinates,Original*
G04 #@! TF.FileFunction,Soldermask,Top*
G04 #@! TF.FilePolarity,Negative*
%FSLAX46Y46*%
G04 Gerber Fmt 4.6, Leading zero omitted, Abs format (unit mm)*
G04 Created by KiCad (PCBNEW (6.0.4)) date 2022-04-21 17:37:51*
%MOMM*%
%LPD*%
G01*
G04 APERTURE LIST*
G04 Aperture macros list*
%AMRoundRect*
0 Rectangle with rounded corners*
0 $1 Rounding radius*
0 $2 $3 $4 $5 $6 $7 $8 $9 X,Y pos of 4 corners*
0 Add a 4 corners polygon primitive as box body*
4,1,4,$2,$3,$4,$5,$6,$7,$8,$9,$2,$3,0*
0 Add four circle primitives for the rounded corners*
1,1,$1+$1,$2,$3*
1,1,$1+$1,$4,$5*
1,1,$1+$1,$6,$7*
1,1,$1+$1,$8,$9*
0 Add four rect primitives between the rounded corners*
20,1,$1+$1,$2,$3,$4,$5,0*
20,1,$1+$1,$4,$5,$6,$7,0*
20,1,$1+$1,$6,$7,$8,$9,0*
20,1,$1+$1,$8,$9,$2,$3,0*%
G04 Aperture macros list end*
%ADD10RoundRect,0.051000X1.050000X-1.050000X1.050000X1.050000X-1.050000X1.050000X-1.050000X-1.050000X0*%
%ADD11C,2.202000*%
%ADD12C,1.702000*%
%ADD13O,1.702000X1.702000*%
%ADD14RoundRect,0.051000X-0.800000X-0.800000X0.800000X-0.800000X0.800000X0.800000X-0.800000X0.800000X0*%
%ADD15RoundRect,0.051000X-0.765000X-0.765000X0.765000X-0.765000X0.765000X0.765000X-0.765000X0.765000X0*%
%ADD16C,1.632000*%
%ADD17RoundRect,0.051000X-0.800000X1.200000X-0.800000X-1.200000X0.800000X-1.200000X0.800000X1.200000X0*%
%ADD18O,1.702000X2.502000*%
%ADD19C,3.102000*%
%ADD20RoundRect,0.051000X1.050000X1.050000X-1.050000X1.050000X-1.050000X-1.050000X1.050000X-1.050000X0*%
G04 APERTURE END LIST*
D10*
X51054000Y-110998000D03*
D11*
X51054000Y-105998000D03*
X51054000Y-100998000D03*
D10*
X51054000Y-93980000D03*
D11*
X51054000Y-88980000D03*
X51054000Y-83980000D03*
X51054000Y-78980000D03*
X51054000Y-73980000D03*
X51054000Y-68980000D03*
D12*
X70104000Y-72644000D03*
D13*
X59944000Y-72644000D03*
D14*
X77186000Y-48514000D03*
D13*
X77186000Y-51054000D03*
X84806000Y-51054000D03*
X84806000Y-48514000D03*
D14*
X62454000Y-63754000D03*
D13*
X62454000Y-66294000D03*
X70074000Y-66294000D03*
X70074000Y-63754000D03*
D15*
X92710000Y-51318000D03*
D16*
X92710000Y-53858000D03*
X92710000Y-56398000D03*
X92710000Y-58938000D03*
X92710000Y-61478000D03*
X92710000Y-64018000D03*
X92710000Y-66558000D03*
X92710000Y-69098000D03*
X92710000Y-71638000D03*
X92710000Y-74178000D03*
X92710000Y-76718000D03*
X92710000Y-79258000D03*
X92710000Y-81798000D03*
X92710000Y-84338000D03*
X92710000Y-86878000D03*
X92710000Y-89418000D03*
X92710000Y-91958000D03*
X92710000Y-94498000D03*
X92710000Y-97038000D03*
X118110000Y-97038000D03*
X118110000Y-94498000D03*
X118110000Y-91958000D03*
X118110000Y-89418000D03*
X118110000Y-86878000D03*
X118110000Y-84338000D03*
X118110000Y-81798000D03*
X118110000Y-79258000D03*
X118110000Y-76718000D03*
X118110000Y-74178000D03*
X118110000Y-71638000D03*
X118110000Y-69098000D03*
X118110000Y-66558000D03*
X118110000Y-64018000D03*
X118110000Y-61478000D03*
X118110000Y-58938000D03*
X118110000Y-56398000D03*
X118110000Y-53858000D03*
X118110000Y-51318000D03*
D12*
X84836000Y-72390000D03*
D13*
X74676000Y-72390000D03*
D12*
X84836000Y-87122000D03*
D13*
X74676000Y-87122000D03*
D14*
X77186000Y-63754000D03*
D13*
X77186000Y-66294000D03*
X84806000Y-66294000D03*
X84806000Y-63754000D03*
D14*
X62454000Y-78486000D03*
D13*
X62454000Y-81026000D03*
X70074000Y-81026000D03*
X70074000Y-78486000D03*
D14*
X77186000Y-78486000D03*
D13*
X77186000Y-81026000D03*
X84806000Y-81026000D03*
X84806000Y-78486000D03*
D12*
X84836000Y-57404000D03*
D13*
X74676000Y-57404000D03*
D17*
X80264000Y-96012000D03*
D18*
X77724000Y-96012000D03*
X75184000Y-96012000D03*
X72644000Y-96012000D03*
X70104000Y-96012000D03*
X67564000Y-96012000D03*
X65024000Y-96012000D03*
X62484000Y-96012000D03*
X62484000Y-103632000D03*
X65024000Y-103632000D03*
X67564000Y-103632000D03*
X70104000Y-103632000D03*
X72644000Y-103632000D03*
X75184000Y-103632000D03*
X77724000Y-103632000D03*
X80264000Y-103632000D03*
D19*
X121920000Y-111760000D03*
X121920000Y-47244000D03*
D20*
X91186000Y-110490000D03*
D11*
X86186000Y-110490000D03*
X81186000Y-110490000D03*
X76186000Y-110490000D03*
X71186000Y-110490000D03*
X66186000Y-110490000D03*
X61186000Y-110490000D03*
D12*
X70104000Y-87122000D03*
D13*
X59944000Y-87122000D03*
D12*
X70104000Y-57404000D03*
D13*
X59944000Y-57404000D03*
D14*
X62454000Y-48514000D03*
D13*
X62454000Y-51054000D03*
X70074000Y-51054000D03*
X70074000Y-48514000D03*
D10*
X51054000Y-61976000D03*
D11*
X51054000Y-56976000D03*
X51054000Y-51976000D03*
X51054000Y-46976000D03*
M02*
