G04 #@! TF.GenerationSoftware,KiCad,Pcbnew,(5.1.5)-3*
G04 #@! TF.CreationDate,2020-04-24T15:39:01+02:00*
G04 #@! TF.ProjectId,PlacaIOAzimut,506c6163-6149-44f4-917a-696d75742e6b,rev?*
G04 #@! TF.SameCoordinates,Original*
G04 #@! TF.FileFunction,Soldermask,Top*
G04 #@! TF.FilePolarity,Negative*
%FSLAX46Y46*%
G04 Gerber Fmt 4.6, Leading zero omitted, Abs format (unit mm)*
G04 Created by KiCad (PCBNEW (5.1.5)-3) date 2020-04-24 15:39:01*
%MOMM*%
%LPD*%
G04 APERTURE LIST*
%ADD10C,0.100000*%
G04 APERTURE END LIST*
D10*
G36*
X122222585Y-110238802D02*
G01*
X122372410Y-110268604D01*
X122654674Y-110385521D01*
X122908705Y-110555259D01*
X123124741Y-110771295D01*
X123294479Y-111025326D01*
X123411396Y-111307590D01*
X123411396Y-111307591D01*
X123459354Y-111548689D01*
X123471000Y-111607240D01*
X123471000Y-111912760D01*
X123411396Y-112212410D01*
X123294479Y-112494674D01*
X123124741Y-112748705D01*
X122908705Y-112964741D01*
X122654674Y-113134479D01*
X122372410Y-113251396D01*
X122222585Y-113281198D01*
X122072761Y-113311000D01*
X121767239Y-113311000D01*
X121617415Y-113281198D01*
X121467590Y-113251396D01*
X121185326Y-113134479D01*
X120931295Y-112964741D01*
X120715259Y-112748705D01*
X120545521Y-112494674D01*
X120428604Y-112212410D01*
X120369000Y-111912760D01*
X120369000Y-111607240D01*
X120380647Y-111548689D01*
X120428604Y-111307591D01*
X120428604Y-111307590D01*
X120545521Y-111025326D01*
X120715259Y-110771295D01*
X120931295Y-110555259D01*
X121185326Y-110385521D01*
X121467590Y-110268604D01*
X121617415Y-110238802D01*
X121767239Y-110209000D01*
X122072761Y-110209000D01*
X122222585Y-110238802D01*
G37*
G36*
X52155000Y-112099000D02*
G01*
X49953000Y-112099000D01*
X49953000Y-109897000D01*
X52155000Y-109897000D01*
X52155000Y-112099000D01*
G37*
G36*
X86400795Y-109410156D02*
G01*
X86507150Y-109431311D01*
X86707520Y-109514307D01*
X86887844Y-109634795D01*
X87041205Y-109788156D01*
X87161693Y-109968480D01*
X87244689Y-110168851D01*
X87287000Y-110381560D01*
X87287000Y-110598440D01*
X87244689Y-110811149D01*
X87161693Y-111011520D01*
X87041205Y-111191844D01*
X86887844Y-111345205D01*
X86707520Y-111465693D01*
X86607334Y-111507191D01*
X86507150Y-111548689D01*
X86400794Y-111569845D01*
X86294440Y-111591000D01*
X86077560Y-111591000D01*
X85971206Y-111569845D01*
X85864850Y-111548689D01*
X85764666Y-111507191D01*
X85664480Y-111465693D01*
X85484156Y-111345205D01*
X85330795Y-111191844D01*
X85210307Y-111011520D01*
X85127311Y-110811149D01*
X85085000Y-110598440D01*
X85085000Y-110381560D01*
X85127311Y-110168851D01*
X85210307Y-109968480D01*
X85330795Y-109788156D01*
X85484156Y-109634795D01*
X85664480Y-109514307D01*
X85864850Y-109431311D01*
X85971205Y-109410156D01*
X86077560Y-109389000D01*
X86294440Y-109389000D01*
X86400795Y-109410156D01*
G37*
G36*
X76400795Y-109410156D02*
G01*
X76507150Y-109431311D01*
X76707520Y-109514307D01*
X76887844Y-109634795D01*
X77041205Y-109788156D01*
X77161693Y-109968480D01*
X77244689Y-110168851D01*
X77287000Y-110381560D01*
X77287000Y-110598440D01*
X77244689Y-110811149D01*
X77161693Y-111011520D01*
X77041205Y-111191844D01*
X76887844Y-111345205D01*
X76707520Y-111465693D01*
X76607334Y-111507191D01*
X76507150Y-111548689D01*
X76400794Y-111569845D01*
X76294440Y-111591000D01*
X76077560Y-111591000D01*
X75971206Y-111569845D01*
X75864850Y-111548689D01*
X75764666Y-111507191D01*
X75664480Y-111465693D01*
X75484156Y-111345205D01*
X75330795Y-111191844D01*
X75210307Y-111011520D01*
X75127311Y-110811149D01*
X75085000Y-110598440D01*
X75085000Y-110381560D01*
X75127311Y-110168851D01*
X75210307Y-109968480D01*
X75330795Y-109788156D01*
X75484156Y-109634795D01*
X75664480Y-109514307D01*
X75864850Y-109431311D01*
X75971205Y-109410156D01*
X76077560Y-109389000D01*
X76294440Y-109389000D01*
X76400795Y-109410156D01*
G37*
G36*
X71400795Y-109410156D02*
G01*
X71507150Y-109431311D01*
X71707520Y-109514307D01*
X71887844Y-109634795D01*
X72041205Y-109788156D01*
X72161693Y-109968480D01*
X72244689Y-110168851D01*
X72287000Y-110381560D01*
X72287000Y-110598440D01*
X72244689Y-110811149D01*
X72161693Y-111011520D01*
X72041205Y-111191844D01*
X71887844Y-111345205D01*
X71707520Y-111465693D01*
X71607334Y-111507191D01*
X71507150Y-111548689D01*
X71400794Y-111569845D01*
X71294440Y-111591000D01*
X71077560Y-111591000D01*
X70971206Y-111569845D01*
X70864850Y-111548689D01*
X70764666Y-111507191D01*
X70664480Y-111465693D01*
X70484156Y-111345205D01*
X70330795Y-111191844D01*
X70210307Y-111011520D01*
X70127311Y-110811149D01*
X70085000Y-110598440D01*
X70085000Y-110381560D01*
X70127311Y-110168851D01*
X70210307Y-109968480D01*
X70330795Y-109788156D01*
X70484156Y-109634795D01*
X70664480Y-109514307D01*
X70864850Y-109431311D01*
X70971205Y-109410156D01*
X71077560Y-109389000D01*
X71294440Y-109389000D01*
X71400795Y-109410156D01*
G37*
G36*
X66400795Y-109410156D02*
G01*
X66507150Y-109431311D01*
X66707520Y-109514307D01*
X66887844Y-109634795D01*
X67041205Y-109788156D01*
X67161693Y-109968480D01*
X67244689Y-110168851D01*
X67287000Y-110381560D01*
X67287000Y-110598440D01*
X67244689Y-110811149D01*
X67161693Y-111011520D01*
X67041205Y-111191844D01*
X66887844Y-111345205D01*
X66707520Y-111465693D01*
X66607334Y-111507191D01*
X66507150Y-111548689D01*
X66400794Y-111569845D01*
X66294440Y-111591000D01*
X66077560Y-111591000D01*
X65971206Y-111569845D01*
X65864850Y-111548689D01*
X65764666Y-111507191D01*
X65664480Y-111465693D01*
X65484156Y-111345205D01*
X65330795Y-111191844D01*
X65210307Y-111011520D01*
X65127311Y-110811149D01*
X65085000Y-110598440D01*
X65085000Y-110381560D01*
X65127311Y-110168851D01*
X65210307Y-109968480D01*
X65330795Y-109788156D01*
X65484156Y-109634795D01*
X65664480Y-109514307D01*
X65864850Y-109431311D01*
X65971205Y-109410156D01*
X66077560Y-109389000D01*
X66294440Y-109389000D01*
X66400795Y-109410156D01*
G37*
G36*
X92287000Y-111591000D02*
G01*
X90085000Y-111591000D01*
X90085000Y-109389000D01*
X92287000Y-109389000D01*
X92287000Y-111591000D01*
G37*
G36*
X81400795Y-109410156D02*
G01*
X81507150Y-109431311D01*
X81707520Y-109514307D01*
X81887844Y-109634795D01*
X82041205Y-109788156D01*
X82161693Y-109968480D01*
X82244689Y-110168851D01*
X82287000Y-110381560D01*
X82287000Y-110598440D01*
X82244689Y-110811149D01*
X82161693Y-111011520D01*
X82041205Y-111191844D01*
X81887844Y-111345205D01*
X81707520Y-111465693D01*
X81607334Y-111507191D01*
X81507150Y-111548689D01*
X81400794Y-111569845D01*
X81294440Y-111591000D01*
X81077560Y-111591000D01*
X80971206Y-111569845D01*
X80864850Y-111548689D01*
X80764666Y-111507191D01*
X80664480Y-111465693D01*
X80484156Y-111345205D01*
X80330795Y-111191844D01*
X80210307Y-111011520D01*
X80127311Y-110811149D01*
X80085000Y-110598440D01*
X80085000Y-110381560D01*
X80127311Y-110168851D01*
X80210307Y-109968480D01*
X80330795Y-109788156D01*
X80484156Y-109634795D01*
X80664480Y-109514307D01*
X80864850Y-109431311D01*
X80971205Y-109410156D01*
X81077560Y-109389000D01*
X81294440Y-109389000D01*
X81400795Y-109410156D01*
G37*
G36*
X61400795Y-109410156D02*
G01*
X61507150Y-109431311D01*
X61707520Y-109514307D01*
X61887844Y-109634795D01*
X62041205Y-109788156D01*
X62161693Y-109968480D01*
X62244689Y-110168851D01*
X62287000Y-110381560D01*
X62287000Y-110598440D01*
X62244689Y-110811149D01*
X62161693Y-111011520D01*
X62041205Y-111191844D01*
X61887844Y-111345205D01*
X61707520Y-111465693D01*
X61607334Y-111507191D01*
X61507150Y-111548689D01*
X61400794Y-111569845D01*
X61294440Y-111591000D01*
X61077560Y-111591000D01*
X60971206Y-111569845D01*
X60864850Y-111548689D01*
X60764666Y-111507191D01*
X60664480Y-111465693D01*
X60484156Y-111345205D01*
X60330795Y-111191844D01*
X60210307Y-111011520D01*
X60127311Y-110811149D01*
X60085000Y-110598440D01*
X60085000Y-110381560D01*
X60127311Y-110168851D01*
X60210307Y-109968480D01*
X60330795Y-109788156D01*
X60484156Y-109634795D01*
X60664480Y-109514307D01*
X60864850Y-109431311D01*
X60971205Y-109410156D01*
X61077560Y-109389000D01*
X61294440Y-109389000D01*
X61400795Y-109410156D01*
G37*
G36*
X51268795Y-104918156D02*
G01*
X51375150Y-104939311D01*
X51575520Y-105022307D01*
X51755844Y-105142795D01*
X51909205Y-105296156D01*
X52029693Y-105476480D01*
X52112689Y-105676851D01*
X52155000Y-105889560D01*
X52155000Y-106106440D01*
X52112689Y-106319149D01*
X52029693Y-106519520D01*
X51909205Y-106699844D01*
X51755844Y-106853205D01*
X51575520Y-106973693D01*
X51475334Y-107015191D01*
X51375150Y-107056689D01*
X51268795Y-107077844D01*
X51162440Y-107099000D01*
X50945560Y-107099000D01*
X50839205Y-107077844D01*
X50732850Y-107056689D01*
X50632666Y-107015191D01*
X50532480Y-106973693D01*
X50352156Y-106853205D01*
X50198795Y-106699844D01*
X50078307Y-106519520D01*
X49995311Y-106319149D01*
X49953000Y-106106440D01*
X49953000Y-105889560D01*
X49995311Y-105676851D01*
X50078307Y-105476480D01*
X50198795Y-105296156D01*
X50352156Y-105142795D01*
X50532480Y-105022307D01*
X50732850Y-104939311D01*
X50839206Y-104918155D01*
X50945560Y-104897000D01*
X51162440Y-104897000D01*
X51268795Y-104918156D01*
G37*
G36*
X77890823Y-102393313D02*
G01*
X78051242Y-102441976D01*
X78183906Y-102512886D01*
X78199078Y-102520996D01*
X78328659Y-102627341D01*
X78435004Y-102756922D01*
X78435005Y-102756924D01*
X78514024Y-102904758D01*
X78562687Y-103065178D01*
X78575000Y-103190197D01*
X78575000Y-104073804D01*
X78562687Y-104198823D01*
X78514024Y-104359242D01*
X78443114Y-104491906D01*
X78435004Y-104507078D01*
X78328659Y-104636659D01*
X78199077Y-104743005D01*
X78051241Y-104822024D01*
X77890822Y-104870687D01*
X77724000Y-104887117D01*
X77557177Y-104870687D01*
X77396758Y-104822024D01*
X77248924Y-104743005D01*
X77248922Y-104743004D01*
X77119341Y-104636659D01*
X77012995Y-104507077D01*
X76933976Y-104359241D01*
X76885313Y-104198822D01*
X76873000Y-104073803D01*
X76873000Y-103190197D01*
X76885314Y-103065177D01*
X76933977Y-102904758D01*
X77012996Y-102756924D01*
X77012997Y-102756922D01*
X77119342Y-102627341D01*
X77248923Y-102520996D01*
X77264095Y-102512886D01*
X77396759Y-102441976D01*
X77557178Y-102393313D01*
X77724000Y-102376883D01*
X77890823Y-102393313D01*
G37*
G36*
X62650823Y-102393313D02*
G01*
X62811242Y-102441976D01*
X62943906Y-102512886D01*
X62959078Y-102520996D01*
X63088659Y-102627341D01*
X63195004Y-102756922D01*
X63195005Y-102756924D01*
X63274024Y-102904758D01*
X63322687Y-103065178D01*
X63335000Y-103190197D01*
X63335000Y-104073804D01*
X63322687Y-104198823D01*
X63274024Y-104359242D01*
X63203114Y-104491906D01*
X63195004Y-104507078D01*
X63088659Y-104636659D01*
X62959077Y-104743005D01*
X62811241Y-104822024D01*
X62650822Y-104870687D01*
X62484000Y-104887117D01*
X62317177Y-104870687D01*
X62156758Y-104822024D01*
X62008924Y-104743005D01*
X62008922Y-104743004D01*
X61879341Y-104636659D01*
X61772995Y-104507077D01*
X61693976Y-104359241D01*
X61645313Y-104198822D01*
X61633000Y-104073803D01*
X61633000Y-103190197D01*
X61645314Y-103065177D01*
X61693977Y-102904758D01*
X61772996Y-102756924D01*
X61772997Y-102756922D01*
X61879342Y-102627341D01*
X62008923Y-102520996D01*
X62024095Y-102512886D01*
X62156759Y-102441976D01*
X62317178Y-102393313D01*
X62484000Y-102376883D01*
X62650823Y-102393313D01*
G37*
G36*
X65190823Y-102393313D02*
G01*
X65351242Y-102441976D01*
X65483906Y-102512886D01*
X65499078Y-102520996D01*
X65628659Y-102627341D01*
X65735004Y-102756922D01*
X65735005Y-102756924D01*
X65814024Y-102904758D01*
X65862687Y-103065178D01*
X65875000Y-103190197D01*
X65875000Y-104073804D01*
X65862687Y-104198823D01*
X65814024Y-104359242D01*
X65743114Y-104491906D01*
X65735004Y-104507078D01*
X65628659Y-104636659D01*
X65499077Y-104743005D01*
X65351241Y-104822024D01*
X65190822Y-104870687D01*
X65024000Y-104887117D01*
X64857177Y-104870687D01*
X64696758Y-104822024D01*
X64548924Y-104743005D01*
X64548922Y-104743004D01*
X64419341Y-104636659D01*
X64312995Y-104507077D01*
X64233976Y-104359241D01*
X64185313Y-104198822D01*
X64173000Y-104073803D01*
X64173000Y-103190197D01*
X64185314Y-103065177D01*
X64233977Y-102904758D01*
X64312996Y-102756924D01*
X64312997Y-102756922D01*
X64419342Y-102627341D01*
X64548923Y-102520996D01*
X64564095Y-102512886D01*
X64696759Y-102441976D01*
X64857178Y-102393313D01*
X65024000Y-102376883D01*
X65190823Y-102393313D01*
G37*
G36*
X67730823Y-102393313D02*
G01*
X67891242Y-102441976D01*
X68023906Y-102512886D01*
X68039078Y-102520996D01*
X68168659Y-102627341D01*
X68275004Y-102756922D01*
X68275005Y-102756924D01*
X68354024Y-102904758D01*
X68402687Y-103065178D01*
X68415000Y-103190197D01*
X68415000Y-104073804D01*
X68402687Y-104198823D01*
X68354024Y-104359242D01*
X68283114Y-104491906D01*
X68275004Y-104507078D01*
X68168659Y-104636659D01*
X68039077Y-104743005D01*
X67891241Y-104822024D01*
X67730822Y-104870687D01*
X67564000Y-104887117D01*
X67397177Y-104870687D01*
X67236758Y-104822024D01*
X67088924Y-104743005D01*
X67088922Y-104743004D01*
X66959341Y-104636659D01*
X66852995Y-104507077D01*
X66773976Y-104359241D01*
X66725313Y-104198822D01*
X66713000Y-104073803D01*
X66713000Y-103190197D01*
X66725314Y-103065177D01*
X66773977Y-102904758D01*
X66852996Y-102756924D01*
X66852997Y-102756922D01*
X66959342Y-102627341D01*
X67088923Y-102520996D01*
X67104095Y-102512886D01*
X67236759Y-102441976D01*
X67397178Y-102393313D01*
X67564000Y-102376883D01*
X67730823Y-102393313D01*
G37*
G36*
X70270823Y-102393313D02*
G01*
X70431242Y-102441976D01*
X70563906Y-102512886D01*
X70579078Y-102520996D01*
X70708659Y-102627341D01*
X70815004Y-102756922D01*
X70815005Y-102756924D01*
X70894024Y-102904758D01*
X70942687Y-103065178D01*
X70955000Y-103190197D01*
X70955000Y-104073804D01*
X70942687Y-104198823D01*
X70894024Y-104359242D01*
X70823114Y-104491906D01*
X70815004Y-104507078D01*
X70708659Y-104636659D01*
X70579077Y-104743005D01*
X70431241Y-104822024D01*
X70270822Y-104870687D01*
X70104000Y-104887117D01*
X69937177Y-104870687D01*
X69776758Y-104822024D01*
X69628924Y-104743005D01*
X69628922Y-104743004D01*
X69499341Y-104636659D01*
X69392995Y-104507077D01*
X69313976Y-104359241D01*
X69265313Y-104198822D01*
X69253000Y-104073803D01*
X69253000Y-103190197D01*
X69265314Y-103065177D01*
X69313977Y-102904758D01*
X69392996Y-102756924D01*
X69392997Y-102756922D01*
X69499342Y-102627341D01*
X69628923Y-102520996D01*
X69644095Y-102512886D01*
X69776759Y-102441976D01*
X69937178Y-102393313D01*
X70104000Y-102376883D01*
X70270823Y-102393313D01*
G37*
G36*
X72810823Y-102393313D02*
G01*
X72971242Y-102441976D01*
X73103906Y-102512886D01*
X73119078Y-102520996D01*
X73248659Y-102627341D01*
X73355004Y-102756922D01*
X73355005Y-102756924D01*
X73434024Y-102904758D01*
X73482687Y-103065178D01*
X73495000Y-103190197D01*
X73495000Y-104073804D01*
X73482687Y-104198823D01*
X73434024Y-104359242D01*
X73363114Y-104491906D01*
X73355004Y-104507078D01*
X73248659Y-104636659D01*
X73119077Y-104743005D01*
X72971241Y-104822024D01*
X72810822Y-104870687D01*
X72644000Y-104887117D01*
X72477177Y-104870687D01*
X72316758Y-104822024D01*
X72168924Y-104743005D01*
X72168922Y-104743004D01*
X72039341Y-104636659D01*
X71932995Y-104507077D01*
X71853976Y-104359241D01*
X71805313Y-104198822D01*
X71793000Y-104073803D01*
X71793000Y-103190197D01*
X71805314Y-103065177D01*
X71853977Y-102904758D01*
X71932996Y-102756924D01*
X71932997Y-102756922D01*
X72039342Y-102627341D01*
X72168923Y-102520996D01*
X72184095Y-102512886D01*
X72316759Y-102441976D01*
X72477178Y-102393313D01*
X72644000Y-102376883D01*
X72810823Y-102393313D01*
G37*
G36*
X75350823Y-102393313D02*
G01*
X75511242Y-102441976D01*
X75643906Y-102512886D01*
X75659078Y-102520996D01*
X75788659Y-102627341D01*
X75895004Y-102756922D01*
X75895005Y-102756924D01*
X75974024Y-102904758D01*
X76022687Y-103065178D01*
X76035000Y-103190197D01*
X76035000Y-104073804D01*
X76022687Y-104198823D01*
X75974024Y-104359242D01*
X75903114Y-104491906D01*
X75895004Y-104507078D01*
X75788659Y-104636659D01*
X75659077Y-104743005D01*
X75511241Y-104822024D01*
X75350822Y-104870687D01*
X75184000Y-104887117D01*
X75017177Y-104870687D01*
X74856758Y-104822024D01*
X74708924Y-104743005D01*
X74708922Y-104743004D01*
X74579341Y-104636659D01*
X74472995Y-104507077D01*
X74393976Y-104359241D01*
X74345313Y-104198822D01*
X74333000Y-104073803D01*
X74333000Y-103190197D01*
X74345314Y-103065177D01*
X74393977Y-102904758D01*
X74472996Y-102756924D01*
X74472997Y-102756922D01*
X74579342Y-102627341D01*
X74708923Y-102520996D01*
X74724095Y-102512886D01*
X74856759Y-102441976D01*
X75017178Y-102393313D01*
X75184000Y-102376883D01*
X75350823Y-102393313D01*
G37*
G36*
X80430823Y-102393313D02*
G01*
X80591242Y-102441976D01*
X80723906Y-102512886D01*
X80739078Y-102520996D01*
X80868659Y-102627341D01*
X80975004Y-102756922D01*
X80975005Y-102756924D01*
X81054024Y-102904758D01*
X81102687Y-103065178D01*
X81115000Y-103190197D01*
X81115000Y-104073804D01*
X81102687Y-104198823D01*
X81054024Y-104359242D01*
X80983114Y-104491906D01*
X80975004Y-104507078D01*
X80868659Y-104636659D01*
X80739077Y-104743005D01*
X80591241Y-104822024D01*
X80430822Y-104870687D01*
X80264000Y-104887117D01*
X80097177Y-104870687D01*
X79936758Y-104822024D01*
X79788924Y-104743005D01*
X79788922Y-104743004D01*
X79659341Y-104636659D01*
X79552995Y-104507077D01*
X79473976Y-104359241D01*
X79425313Y-104198822D01*
X79413000Y-104073803D01*
X79413000Y-103190197D01*
X79425314Y-103065177D01*
X79473977Y-102904758D01*
X79552996Y-102756924D01*
X79552997Y-102756922D01*
X79659342Y-102627341D01*
X79788923Y-102520996D01*
X79804095Y-102512886D01*
X79936759Y-102441976D01*
X80097178Y-102393313D01*
X80264000Y-102376883D01*
X80430823Y-102393313D01*
G37*
G36*
X51268795Y-99918156D02*
G01*
X51375150Y-99939311D01*
X51475334Y-99980809D01*
X51575520Y-100022307D01*
X51755844Y-100142795D01*
X51909205Y-100296156D01*
X52029693Y-100476480D01*
X52112689Y-100676851D01*
X52155000Y-100889560D01*
X52155000Y-101106440D01*
X52112689Y-101319149D01*
X52029693Y-101519520D01*
X51909205Y-101699844D01*
X51755844Y-101853205D01*
X51575520Y-101973693D01*
X51375150Y-102056689D01*
X51268794Y-102077845D01*
X51162440Y-102099000D01*
X50945560Y-102099000D01*
X50839206Y-102077845D01*
X50732850Y-102056689D01*
X50532480Y-101973693D01*
X50352156Y-101853205D01*
X50198795Y-101699844D01*
X50078307Y-101519520D01*
X49995311Y-101319149D01*
X49953000Y-101106440D01*
X49953000Y-100889560D01*
X49995311Y-100676851D01*
X50078307Y-100476480D01*
X50198795Y-100296156D01*
X50352156Y-100142795D01*
X50532480Y-100022307D01*
X50632666Y-99980809D01*
X50732850Y-99939311D01*
X50839206Y-99918155D01*
X50945560Y-99897000D01*
X51162440Y-99897000D01*
X51268795Y-99918156D01*
G37*
G36*
X92948017Y-96253358D02*
G01*
X93022270Y-96284115D01*
X93096521Y-96314870D01*
X93096522Y-96314871D01*
X93230167Y-96404169D01*
X93343831Y-96517833D01*
X93384584Y-96578825D01*
X93433130Y-96651479D01*
X93494642Y-96799983D01*
X93526000Y-96957630D01*
X93526000Y-97118370D01*
X93494642Y-97276017D01*
X93463885Y-97350270D01*
X93433130Y-97424521D01*
X93433129Y-97424522D01*
X93343831Y-97558167D01*
X93230167Y-97671831D01*
X93129933Y-97738804D01*
X93096521Y-97761130D01*
X92948017Y-97822642D01*
X92790370Y-97854000D01*
X92629630Y-97854000D01*
X92471983Y-97822642D01*
X92323479Y-97761130D01*
X92290067Y-97738804D01*
X92189833Y-97671831D01*
X92076169Y-97558167D01*
X91986871Y-97424522D01*
X91986870Y-97424521D01*
X91956115Y-97350270D01*
X91925358Y-97276017D01*
X91894000Y-97118370D01*
X91894000Y-96957630D01*
X91925358Y-96799983D01*
X91956115Y-96725730D01*
X91986870Y-96651479D01*
X92035416Y-96578825D01*
X92076169Y-96517833D01*
X92189833Y-96404169D01*
X92323478Y-96314871D01*
X92323479Y-96314870D01*
X92397730Y-96284115D01*
X92471983Y-96253358D01*
X92629630Y-96222000D01*
X92790370Y-96222000D01*
X92948017Y-96253358D01*
G37*
G36*
X118348017Y-96253358D02*
G01*
X118422270Y-96284115D01*
X118496521Y-96314870D01*
X118496522Y-96314871D01*
X118630167Y-96404169D01*
X118743831Y-96517833D01*
X118784584Y-96578825D01*
X118833130Y-96651479D01*
X118863885Y-96725730D01*
X118894642Y-96799983D01*
X118926000Y-96957630D01*
X118926000Y-97118370D01*
X118894642Y-97276017D01*
X118833130Y-97424521D01*
X118833129Y-97424522D01*
X118743831Y-97558167D01*
X118630167Y-97671831D01*
X118529933Y-97738804D01*
X118496521Y-97761130D01*
X118348017Y-97822642D01*
X118190370Y-97854000D01*
X118029630Y-97854000D01*
X117871983Y-97822642D01*
X117723479Y-97761130D01*
X117690067Y-97738804D01*
X117589833Y-97671831D01*
X117476169Y-97558167D01*
X117386871Y-97424522D01*
X117386870Y-97424521D01*
X117356115Y-97350270D01*
X117325358Y-97276017D01*
X117294000Y-97118370D01*
X117294000Y-96957630D01*
X117325358Y-96799983D01*
X117356115Y-96725730D01*
X117386870Y-96651479D01*
X117435416Y-96578825D01*
X117476169Y-96517833D01*
X117589833Y-96404169D01*
X117723478Y-96314871D01*
X117723479Y-96314870D01*
X117797730Y-96284115D01*
X117871983Y-96253358D01*
X118029630Y-96222000D01*
X118190370Y-96222000D01*
X118348017Y-96253358D01*
G37*
G36*
X70270823Y-94773313D02*
G01*
X70431242Y-94821976D01*
X70548255Y-94884521D01*
X70579078Y-94900996D01*
X70708659Y-95007341D01*
X70815004Y-95136922D01*
X70815005Y-95136924D01*
X70894024Y-95284758D01*
X70894025Y-95284761D01*
X70918356Y-95364968D01*
X70942687Y-95445178D01*
X70955000Y-95570197D01*
X70955000Y-96453804D01*
X70942687Y-96578823D01*
X70894024Y-96739242D01*
X70861557Y-96799983D01*
X70815004Y-96887078D01*
X70757103Y-96957630D01*
X70708659Y-97016659D01*
X70579077Y-97123005D01*
X70431241Y-97202024D01*
X70270822Y-97250687D01*
X70104000Y-97267117D01*
X69937177Y-97250687D01*
X69776758Y-97202024D01*
X69628924Y-97123005D01*
X69628922Y-97123004D01*
X69499341Y-97016659D01*
X69450897Y-96957630D01*
X69392995Y-96887077D01*
X69313976Y-96739241D01*
X69265313Y-96578822D01*
X69253000Y-96453803D01*
X69253000Y-95570197D01*
X69265314Y-95445177D01*
X69313977Y-95284758D01*
X69392996Y-95136924D01*
X69392997Y-95136922D01*
X69499342Y-95007341D01*
X69628923Y-94900996D01*
X69659746Y-94884521D01*
X69776759Y-94821976D01*
X69937178Y-94773313D01*
X70104000Y-94756883D01*
X70270823Y-94773313D01*
G37*
G36*
X75350823Y-94773313D02*
G01*
X75511242Y-94821976D01*
X75628255Y-94884521D01*
X75659078Y-94900996D01*
X75788659Y-95007341D01*
X75895004Y-95136922D01*
X75895005Y-95136924D01*
X75974024Y-95284758D01*
X75974025Y-95284761D01*
X75998356Y-95364968D01*
X76022687Y-95445178D01*
X76035000Y-95570197D01*
X76035000Y-96453804D01*
X76022687Y-96578823D01*
X75974024Y-96739242D01*
X75941557Y-96799983D01*
X75895004Y-96887078D01*
X75837103Y-96957630D01*
X75788659Y-97016659D01*
X75659077Y-97123005D01*
X75511241Y-97202024D01*
X75350822Y-97250687D01*
X75184000Y-97267117D01*
X75017177Y-97250687D01*
X74856758Y-97202024D01*
X74708924Y-97123005D01*
X74708922Y-97123004D01*
X74579341Y-97016659D01*
X74530897Y-96957630D01*
X74472995Y-96887077D01*
X74393976Y-96739241D01*
X74345313Y-96578822D01*
X74333000Y-96453803D01*
X74333000Y-95570197D01*
X74345314Y-95445177D01*
X74393977Y-95284758D01*
X74472996Y-95136924D01*
X74472997Y-95136922D01*
X74579342Y-95007341D01*
X74708923Y-94900996D01*
X74739746Y-94884521D01*
X74856759Y-94821976D01*
X75017178Y-94773313D01*
X75184000Y-94756883D01*
X75350823Y-94773313D01*
G37*
G36*
X67730823Y-94773313D02*
G01*
X67891242Y-94821976D01*
X68008255Y-94884521D01*
X68039078Y-94900996D01*
X68168659Y-95007341D01*
X68275004Y-95136922D01*
X68275005Y-95136924D01*
X68354024Y-95284758D01*
X68354025Y-95284761D01*
X68378356Y-95364968D01*
X68402687Y-95445178D01*
X68415000Y-95570197D01*
X68415000Y-96453804D01*
X68402687Y-96578823D01*
X68354024Y-96739242D01*
X68321557Y-96799983D01*
X68275004Y-96887078D01*
X68217103Y-96957630D01*
X68168659Y-97016659D01*
X68039077Y-97123005D01*
X67891241Y-97202024D01*
X67730822Y-97250687D01*
X67564000Y-97267117D01*
X67397177Y-97250687D01*
X67236758Y-97202024D01*
X67088924Y-97123005D01*
X67088922Y-97123004D01*
X66959341Y-97016659D01*
X66910897Y-96957630D01*
X66852995Y-96887077D01*
X66773976Y-96739241D01*
X66725313Y-96578822D01*
X66713000Y-96453803D01*
X66713000Y-95570197D01*
X66725314Y-95445177D01*
X66773977Y-95284758D01*
X66852996Y-95136924D01*
X66852997Y-95136922D01*
X66959342Y-95007341D01*
X67088923Y-94900996D01*
X67119746Y-94884521D01*
X67236759Y-94821976D01*
X67397178Y-94773313D01*
X67564000Y-94756883D01*
X67730823Y-94773313D01*
G37*
G36*
X72810823Y-94773313D02*
G01*
X72971242Y-94821976D01*
X73088255Y-94884521D01*
X73119078Y-94900996D01*
X73248659Y-95007341D01*
X73355004Y-95136922D01*
X73355005Y-95136924D01*
X73434024Y-95284758D01*
X73434025Y-95284761D01*
X73458356Y-95364968D01*
X73482687Y-95445178D01*
X73495000Y-95570197D01*
X73495000Y-96453804D01*
X73482687Y-96578823D01*
X73434024Y-96739242D01*
X73401557Y-96799983D01*
X73355004Y-96887078D01*
X73297103Y-96957630D01*
X73248659Y-97016659D01*
X73119077Y-97123005D01*
X72971241Y-97202024D01*
X72810822Y-97250687D01*
X72644000Y-97267117D01*
X72477177Y-97250687D01*
X72316758Y-97202024D01*
X72168924Y-97123005D01*
X72168922Y-97123004D01*
X72039341Y-97016659D01*
X71990897Y-96957630D01*
X71932995Y-96887077D01*
X71853976Y-96739241D01*
X71805313Y-96578822D01*
X71793000Y-96453803D01*
X71793000Y-95570197D01*
X71805314Y-95445177D01*
X71853977Y-95284758D01*
X71932996Y-95136924D01*
X71932997Y-95136922D01*
X72039342Y-95007341D01*
X72168923Y-94900996D01*
X72199746Y-94884521D01*
X72316759Y-94821976D01*
X72477178Y-94773313D01*
X72644000Y-94756883D01*
X72810823Y-94773313D01*
G37*
G36*
X65190823Y-94773313D02*
G01*
X65351242Y-94821976D01*
X65468255Y-94884521D01*
X65499078Y-94900996D01*
X65628659Y-95007341D01*
X65735004Y-95136922D01*
X65735005Y-95136924D01*
X65814024Y-95284758D01*
X65814025Y-95284761D01*
X65838356Y-95364968D01*
X65862687Y-95445178D01*
X65875000Y-95570197D01*
X65875000Y-96453804D01*
X65862687Y-96578823D01*
X65814024Y-96739242D01*
X65781557Y-96799983D01*
X65735004Y-96887078D01*
X65677103Y-96957630D01*
X65628659Y-97016659D01*
X65499077Y-97123005D01*
X65351241Y-97202024D01*
X65190822Y-97250687D01*
X65024000Y-97267117D01*
X64857177Y-97250687D01*
X64696758Y-97202024D01*
X64548924Y-97123005D01*
X64548922Y-97123004D01*
X64419341Y-97016659D01*
X64370897Y-96957630D01*
X64312995Y-96887077D01*
X64233976Y-96739241D01*
X64185313Y-96578822D01*
X64173000Y-96453803D01*
X64173000Y-95570197D01*
X64185314Y-95445177D01*
X64233977Y-95284758D01*
X64312996Y-95136924D01*
X64312997Y-95136922D01*
X64419342Y-95007341D01*
X64548923Y-94900996D01*
X64579746Y-94884521D01*
X64696759Y-94821976D01*
X64857178Y-94773313D01*
X65024000Y-94756883D01*
X65190823Y-94773313D01*
G37*
G36*
X62650823Y-94773313D02*
G01*
X62811242Y-94821976D01*
X62928255Y-94884521D01*
X62959078Y-94900996D01*
X63088659Y-95007341D01*
X63195004Y-95136922D01*
X63195005Y-95136924D01*
X63274024Y-95284758D01*
X63274025Y-95284761D01*
X63298356Y-95364968D01*
X63322687Y-95445178D01*
X63335000Y-95570197D01*
X63335000Y-96453804D01*
X63322687Y-96578823D01*
X63274024Y-96739242D01*
X63241557Y-96799983D01*
X63195004Y-96887078D01*
X63137103Y-96957630D01*
X63088659Y-97016659D01*
X62959077Y-97123005D01*
X62811241Y-97202024D01*
X62650822Y-97250687D01*
X62484000Y-97267117D01*
X62317177Y-97250687D01*
X62156758Y-97202024D01*
X62008924Y-97123005D01*
X62008922Y-97123004D01*
X61879341Y-97016659D01*
X61830897Y-96957630D01*
X61772995Y-96887077D01*
X61693976Y-96739241D01*
X61645313Y-96578822D01*
X61633000Y-96453803D01*
X61633000Y-95570197D01*
X61645314Y-95445177D01*
X61693977Y-95284758D01*
X61772996Y-95136924D01*
X61772997Y-95136922D01*
X61879342Y-95007341D01*
X62008923Y-94900996D01*
X62039746Y-94884521D01*
X62156759Y-94821976D01*
X62317178Y-94773313D01*
X62484000Y-94756883D01*
X62650823Y-94773313D01*
G37*
G36*
X77890823Y-94773313D02*
G01*
X78051242Y-94821976D01*
X78168255Y-94884521D01*
X78199078Y-94900996D01*
X78328659Y-95007341D01*
X78435004Y-95136922D01*
X78435005Y-95136924D01*
X78514024Y-95284758D01*
X78514025Y-95284761D01*
X78538356Y-95364968D01*
X78562687Y-95445178D01*
X78575000Y-95570197D01*
X78575000Y-96453804D01*
X78562687Y-96578823D01*
X78514024Y-96739242D01*
X78481557Y-96799983D01*
X78435004Y-96887078D01*
X78377103Y-96957630D01*
X78328659Y-97016659D01*
X78199077Y-97123005D01*
X78051241Y-97202024D01*
X77890822Y-97250687D01*
X77724000Y-97267117D01*
X77557177Y-97250687D01*
X77396758Y-97202024D01*
X77248924Y-97123005D01*
X77248922Y-97123004D01*
X77119341Y-97016659D01*
X77070897Y-96957630D01*
X77012995Y-96887077D01*
X76933976Y-96739241D01*
X76885313Y-96578822D01*
X76873000Y-96453803D01*
X76873000Y-95570197D01*
X76885314Y-95445177D01*
X76933977Y-95284758D01*
X77012996Y-95136924D01*
X77012997Y-95136922D01*
X77119342Y-95007341D01*
X77248923Y-94900996D01*
X77279746Y-94884521D01*
X77396759Y-94821976D01*
X77557178Y-94773313D01*
X77724000Y-94756883D01*
X77890823Y-94773313D01*
G37*
G36*
X81115000Y-97263000D02*
G01*
X79413000Y-97263000D01*
X79413000Y-94761000D01*
X81115000Y-94761000D01*
X81115000Y-97263000D01*
G37*
G36*
X118348017Y-93713358D02*
G01*
X118422270Y-93744115D01*
X118496521Y-93774870D01*
X118496522Y-93774871D01*
X118630167Y-93864169D01*
X118743831Y-93977833D01*
X118810804Y-94078067D01*
X118833130Y-94111479D01*
X118894642Y-94259983D01*
X118926000Y-94417630D01*
X118926000Y-94578370D01*
X118894642Y-94736017D01*
X118879193Y-94773313D01*
X118833130Y-94884521D01*
X118833129Y-94884522D01*
X118743831Y-95018167D01*
X118630167Y-95131831D01*
X118529933Y-95198805D01*
X118496521Y-95221130D01*
X118348017Y-95282642D01*
X118190370Y-95314000D01*
X118029630Y-95314000D01*
X117871983Y-95282642D01*
X117723479Y-95221130D01*
X117690067Y-95198805D01*
X117589833Y-95131831D01*
X117476169Y-95018167D01*
X117386871Y-94884522D01*
X117386870Y-94884521D01*
X117340807Y-94773313D01*
X117325358Y-94736017D01*
X117294000Y-94578370D01*
X117294000Y-94417630D01*
X117325358Y-94259983D01*
X117386870Y-94111479D01*
X117409196Y-94078067D01*
X117476169Y-93977833D01*
X117589833Y-93864169D01*
X117723478Y-93774871D01*
X117723479Y-93774870D01*
X117797730Y-93744115D01*
X117871983Y-93713358D01*
X118029630Y-93682000D01*
X118190370Y-93682000D01*
X118348017Y-93713358D01*
G37*
G36*
X92948017Y-93713358D02*
G01*
X93022270Y-93744115D01*
X93096521Y-93774870D01*
X93096522Y-93774871D01*
X93230167Y-93864169D01*
X93343831Y-93977833D01*
X93410804Y-94078067D01*
X93433130Y-94111479D01*
X93494642Y-94259983D01*
X93526000Y-94417630D01*
X93526000Y-94578370D01*
X93494642Y-94736017D01*
X93479193Y-94773313D01*
X93433130Y-94884521D01*
X93433129Y-94884522D01*
X93343831Y-95018167D01*
X93230167Y-95131831D01*
X93129933Y-95198805D01*
X93096521Y-95221130D01*
X92948017Y-95282642D01*
X92790370Y-95314000D01*
X92629630Y-95314000D01*
X92471983Y-95282642D01*
X92323479Y-95221130D01*
X92290067Y-95198805D01*
X92189833Y-95131831D01*
X92076169Y-95018167D01*
X91986871Y-94884522D01*
X91986870Y-94884521D01*
X91940807Y-94773313D01*
X91925358Y-94736017D01*
X91894000Y-94578370D01*
X91894000Y-94417630D01*
X91925358Y-94259983D01*
X91986870Y-94111479D01*
X92009196Y-94078067D01*
X92076169Y-93977833D01*
X92189833Y-93864169D01*
X92323478Y-93774871D01*
X92323479Y-93774870D01*
X92397730Y-93744115D01*
X92471983Y-93713358D01*
X92629630Y-93682000D01*
X92790370Y-93682000D01*
X92948017Y-93713358D01*
G37*
G36*
X52155000Y-95081000D02*
G01*
X49953000Y-95081000D01*
X49953000Y-92879000D01*
X52155000Y-92879000D01*
X52155000Y-95081000D01*
G37*
G36*
X118348017Y-91173358D02*
G01*
X118422270Y-91204115D01*
X118496521Y-91234870D01*
X118496522Y-91234871D01*
X118630167Y-91324169D01*
X118743831Y-91437833D01*
X118810804Y-91538067D01*
X118833130Y-91571479D01*
X118863885Y-91645730D01*
X118894642Y-91719983D01*
X118926000Y-91877630D01*
X118926000Y-92038370D01*
X118894642Y-92196017D01*
X118833130Y-92344521D01*
X118833129Y-92344522D01*
X118743831Y-92478167D01*
X118630167Y-92591831D01*
X118529933Y-92658804D01*
X118496521Y-92681130D01*
X118422270Y-92711885D01*
X118348017Y-92742642D01*
X118190370Y-92774000D01*
X118029630Y-92774000D01*
X117871983Y-92742642D01*
X117797730Y-92711885D01*
X117723479Y-92681130D01*
X117690067Y-92658804D01*
X117589833Y-92591831D01*
X117476169Y-92478167D01*
X117386871Y-92344522D01*
X117386870Y-92344521D01*
X117325358Y-92196017D01*
X117294000Y-92038370D01*
X117294000Y-91877630D01*
X117325358Y-91719983D01*
X117356115Y-91645730D01*
X117386870Y-91571479D01*
X117409195Y-91538067D01*
X117476169Y-91437833D01*
X117589833Y-91324169D01*
X117723478Y-91234871D01*
X117723479Y-91234870D01*
X117797730Y-91204115D01*
X117871983Y-91173358D01*
X118029630Y-91142000D01*
X118190370Y-91142000D01*
X118348017Y-91173358D01*
G37*
G36*
X92948017Y-91173358D02*
G01*
X93022270Y-91204115D01*
X93096521Y-91234870D01*
X93096522Y-91234871D01*
X93230167Y-91324169D01*
X93343831Y-91437833D01*
X93410804Y-91538067D01*
X93433130Y-91571479D01*
X93494642Y-91719983D01*
X93526000Y-91877630D01*
X93526000Y-92038370D01*
X93494642Y-92196017D01*
X93433130Y-92344521D01*
X93433129Y-92344522D01*
X93343831Y-92478167D01*
X93230167Y-92591831D01*
X93129933Y-92658804D01*
X93096521Y-92681130D01*
X93022270Y-92711885D01*
X92948017Y-92742642D01*
X92790370Y-92774000D01*
X92629630Y-92774000D01*
X92471983Y-92742642D01*
X92397730Y-92711885D01*
X92323479Y-92681130D01*
X92290067Y-92658804D01*
X92189833Y-92591831D01*
X92076169Y-92478167D01*
X91986871Y-92344522D01*
X91986870Y-92344521D01*
X91925358Y-92196017D01*
X91894000Y-92038370D01*
X91894000Y-91877630D01*
X91925358Y-91719983D01*
X91956115Y-91645730D01*
X91986870Y-91571479D01*
X92009195Y-91538067D01*
X92076169Y-91437833D01*
X92189833Y-91324169D01*
X92323478Y-91234871D01*
X92323479Y-91234870D01*
X92397730Y-91204115D01*
X92471983Y-91173358D01*
X92629630Y-91142000D01*
X92790370Y-91142000D01*
X92948017Y-91173358D01*
G37*
G36*
X118348017Y-88633358D02*
G01*
X118409560Y-88658850D01*
X118496521Y-88694870D01*
X118496522Y-88694871D01*
X118630167Y-88784169D01*
X118743831Y-88897833D01*
X118810804Y-88998067D01*
X118833130Y-89031479D01*
X118856723Y-89088439D01*
X118894642Y-89179983D01*
X118926000Y-89337630D01*
X118926000Y-89498370D01*
X118894642Y-89656017D01*
X118883944Y-89681844D01*
X118833130Y-89804521D01*
X118833129Y-89804522D01*
X118743831Y-89938167D01*
X118630167Y-90051831D01*
X118529933Y-90118804D01*
X118496521Y-90141130D01*
X118348017Y-90202642D01*
X118190370Y-90234000D01*
X118029630Y-90234000D01*
X117871983Y-90202642D01*
X117797730Y-90171885D01*
X117723479Y-90141130D01*
X117690067Y-90118804D01*
X117589833Y-90051831D01*
X117476169Y-89938167D01*
X117386871Y-89804522D01*
X117386870Y-89804521D01*
X117336056Y-89681844D01*
X117325358Y-89656017D01*
X117294000Y-89498370D01*
X117294000Y-89337630D01*
X117325358Y-89179983D01*
X117363277Y-89088439D01*
X117386870Y-89031479D01*
X117409195Y-88998067D01*
X117476169Y-88897833D01*
X117589833Y-88784169D01*
X117723478Y-88694871D01*
X117723479Y-88694870D01*
X117810440Y-88658850D01*
X117871983Y-88633358D01*
X118029630Y-88602000D01*
X118190370Y-88602000D01*
X118348017Y-88633358D01*
G37*
G36*
X92948017Y-88633358D02*
G01*
X93009560Y-88658850D01*
X93096521Y-88694870D01*
X93096522Y-88694871D01*
X93230167Y-88784169D01*
X93343831Y-88897833D01*
X93410804Y-88998067D01*
X93433130Y-89031479D01*
X93456723Y-89088439D01*
X93494642Y-89179983D01*
X93526000Y-89337630D01*
X93526000Y-89498370D01*
X93494642Y-89656017D01*
X93483944Y-89681844D01*
X93433130Y-89804521D01*
X93433129Y-89804522D01*
X93343831Y-89938167D01*
X93230167Y-90051831D01*
X93129933Y-90118804D01*
X93096521Y-90141130D01*
X92948017Y-90202642D01*
X92790370Y-90234000D01*
X92629630Y-90234000D01*
X92471983Y-90202642D01*
X92397730Y-90171885D01*
X92323479Y-90141130D01*
X92290067Y-90118804D01*
X92189833Y-90051831D01*
X92076169Y-89938167D01*
X91986871Y-89804522D01*
X91986870Y-89804521D01*
X91936056Y-89681844D01*
X91925358Y-89656017D01*
X91894000Y-89498370D01*
X91894000Y-89337630D01*
X91925358Y-89179983D01*
X91963277Y-89088439D01*
X91986870Y-89031479D01*
X92009195Y-88998067D01*
X92076169Y-88897833D01*
X92189833Y-88784169D01*
X92323478Y-88694871D01*
X92323479Y-88694870D01*
X92410440Y-88658850D01*
X92471983Y-88633358D01*
X92629630Y-88602000D01*
X92790370Y-88602000D01*
X92948017Y-88633358D01*
G37*
G36*
X51268795Y-87900156D02*
G01*
X51375150Y-87921311D01*
X51475334Y-87962809D01*
X51575520Y-88004307D01*
X51755844Y-88124795D01*
X51909205Y-88278156D01*
X52029693Y-88458480D01*
X52112689Y-88658851D01*
X52155000Y-88871560D01*
X52155000Y-89088440D01*
X52112689Y-89301149D01*
X52029693Y-89501520D01*
X51909205Y-89681844D01*
X51755844Y-89835205D01*
X51575520Y-89955693D01*
X51375150Y-90038689D01*
X51309096Y-90051828D01*
X51162440Y-90081000D01*
X50945560Y-90081000D01*
X50798904Y-90051828D01*
X50732850Y-90038689D01*
X50532480Y-89955693D01*
X50352156Y-89835205D01*
X50198795Y-89681844D01*
X50078307Y-89501520D01*
X49995311Y-89301149D01*
X49953000Y-89088440D01*
X49953000Y-88871560D01*
X49995311Y-88658851D01*
X50078307Y-88458480D01*
X50198795Y-88278156D01*
X50352156Y-88124795D01*
X50532480Y-88004307D01*
X50632666Y-87962809D01*
X50732850Y-87921311D01*
X50839205Y-87900156D01*
X50945560Y-87879000D01*
X51162440Y-87879000D01*
X51268795Y-87900156D01*
G37*
G36*
X70352228Y-86303703D02*
G01*
X70507100Y-86367853D01*
X70646481Y-86460985D01*
X70765015Y-86579519D01*
X70858147Y-86718900D01*
X70922297Y-86873772D01*
X70955000Y-87038184D01*
X70955000Y-87205816D01*
X70922297Y-87370228D01*
X70858147Y-87525100D01*
X70765015Y-87664481D01*
X70646481Y-87783015D01*
X70507100Y-87876147D01*
X70352228Y-87940297D01*
X70187816Y-87973000D01*
X70020184Y-87973000D01*
X69855772Y-87940297D01*
X69700900Y-87876147D01*
X69561519Y-87783015D01*
X69442985Y-87664481D01*
X69349853Y-87525100D01*
X69285703Y-87370228D01*
X69253000Y-87205816D01*
X69253000Y-87038184D01*
X69285703Y-86873772D01*
X69349853Y-86718900D01*
X69442985Y-86579519D01*
X69561519Y-86460985D01*
X69700900Y-86367853D01*
X69855772Y-86303703D01*
X70020184Y-86271000D01*
X70187816Y-86271000D01*
X70352228Y-86303703D01*
G37*
G36*
X60192228Y-86303703D02*
G01*
X60347100Y-86367853D01*
X60486481Y-86460985D01*
X60605015Y-86579519D01*
X60698147Y-86718900D01*
X60762297Y-86873772D01*
X60795000Y-87038184D01*
X60795000Y-87205816D01*
X60762297Y-87370228D01*
X60698147Y-87525100D01*
X60605015Y-87664481D01*
X60486481Y-87783015D01*
X60347100Y-87876147D01*
X60192228Y-87940297D01*
X60027816Y-87973000D01*
X59860184Y-87973000D01*
X59695772Y-87940297D01*
X59540900Y-87876147D01*
X59401519Y-87783015D01*
X59282985Y-87664481D01*
X59189853Y-87525100D01*
X59125703Y-87370228D01*
X59093000Y-87205816D01*
X59093000Y-87038184D01*
X59125703Y-86873772D01*
X59189853Y-86718900D01*
X59282985Y-86579519D01*
X59401519Y-86460985D01*
X59540900Y-86367853D01*
X59695772Y-86303703D01*
X59860184Y-86271000D01*
X60027816Y-86271000D01*
X60192228Y-86303703D01*
G37*
G36*
X85084228Y-86303703D02*
G01*
X85239100Y-86367853D01*
X85378481Y-86460985D01*
X85497015Y-86579519D01*
X85590147Y-86718900D01*
X85654297Y-86873772D01*
X85687000Y-87038184D01*
X85687000Y-87205816D01*
X85654297Y-87370228D01*
X85590147Y-87525100D01*
X85497015Y-87664481D01*
X85378481Y-87783015D01*
X85239100Y-87876147D01*
X85084228Y-87940297D01*
X84919816Y-87973000D01*
X84752184Y-87973000D01*
X84587772Y-87940297D01*
X84432900Y-87876147D01*
X84293519Y-87783015D01*
X84174985Y-87664481D01*
X84081853Y-87525100D01*
X84017703Y-87370228D01*
X83985000Y-87205816D01*
X83985000Y-87038184D01*
X84017703Y-86873772D01*
X84081853Y-86718900D01*
X84174985Y-86579519D01*
X84293519Y-86460985D01*
X84432900Y-86367853D01*
X84587772Y-86303703D01*
X84752184Y-86271000D01*
X84919816Y-86271000D01*
X85084228Y-86303703D01*
G37*
G36*
X74924228Y-86303703D02*
G01*
X75079100Y-86367853D01*
X75218481Y-86460985D01*
X75337015Y-86579519D01*
X75430147Y-86718900D01*
X75494297Y-86873772D01*
X75527000Y-87038184D01*
X75527000Y-87205816D01*
X75494297Y-87370228D01*
X75430147Y-87525100D01*
X75337015Y-87664481D01*
X75218481Y-87783015D01*
X75079100Y-87876147D01*
X74924228Y-87940297D01*
X74759816Y-87973000D01*
X74592184Y-87973000D01*
X74427772Y-87940297D01*
X74272900Y-87876147D01*
X74133519Y-87783015D01*
X74014985Y-87664481D01*
X73921853Y-87525100D01*
X73857703Y-87370228D01*
X73825000Y-87205816D01*
X73825000Y-87038184D01*
X73857703Y-86873772D01*
X73921853Y-86718900D01*
X74014985Y-86579519D01*
X74133519Y-86460985D01*
X74272900Y-86367853D01*
X74427772Y-86303703D01*
X74592184Y-86271000D01*
X74759816Y-86271000D01*
X74924228Y-86303703D01*
G37*
G36*
X92948017Y-86093358D02*
G01*
X93022270Y-86124115D01*
X93096521Y-86154870D01*
X93096522Y-86154871D01*
X93230167Y-86244169D01*
X93343831Y-86357833D01*
X93410805Y-86458067D01*
X93433130Y-86491479D01*
X93494642Y-86639983D01*
X93526000Y-86797630D01*
X93526000Y-86958370D01*
X93494642Y-87116017D01*
X93433130Y-87264521D01*
X93433129Y-87264522D01*
X93343831Y-87398167D01*
X93230167Y-87511831D01*
X93129933Y-87578805D01*
X93096521Y-87601130D01*
X92948017Y-87662642D01*
X92790370Y-87694000D01*
X92629630Y-87694000D01*
X92471983Y-87662642D01*
X92397730Y-87631885D01*
X92323479Y-87601130D01*
X92290067Y-87578805D01*
X92189833Y-87511831D01*
X92076169Y-87398167D01*
X91986871Y-87264522D01*
X91986870Y-87264521D01*
X91956115Y-87190270D01*
X91925358Y-87116017D01*
X91894000Y-86958370D01*
X91894000Y-86797630D01*
X91925358Y-86639983D01*
X91986870Y-86491479D01*
X92009195Y-86458067D01*
X92076169Y-86357833D01*
X92189833Y-86244169D01*
X92323478Y-86154871D01*
X92323479Y-86154870D01*
X92397730Y-86124115D01*
X92471983Y-86093358D01*
X92629630Y-86062000D01*
X92790370Y-86062000D01*
X92948017Y-86093358D01*
G37*
G36*
X118348017Y-86093358D02*
G01*
X118422270Y-86124115D01*
X118496521Y-86154870D01*
X118496522Y-86154871D01*
X118630167Y-86244169D01*
X118743831Y-86357833D01*
X118810805Y-86458067D01*
X118833130Y-86491479D01*
X118894642Y-86639983D01*
X118926000Y-86797630D01*
X118926000Y-86958370D01*
X118894642Y-87116017D01*
X118863885Y-87190270D01*
X118833130Y-87264521D01*
X118833129Y-87264522D01*
X118743831Y-87398167D01*
X118630167Y-87511831D01*
X118529933Y-87578805D01*
X118496521Y-87601130D01*
X118348017Y-87662642D01*
X118190370Y-87694000D01*
X118029630Y-87694000D01*
X117871983Y-87662642D01*
X117797730Y-87631885D01*
X117723479Y-87601130D01*
X117690067Y-87578805D01*
X117589833Y-87511831D01*
X117476169Y-87398167D01*
X117386871Y-87264522D01*
X117386870Y-87264521D01*
X117325358Y-87116017D01*
X117294000Y-86958370D01*
X117294000Y-86797630D01*
X117325358Y-86639983D01*
X117386870Y-86491479D01*
X117409195Y-86458067D01*
X117476169Y-86357833D01*
X117589833Y-86244169D01*
X117723478Y-86154871D01*
X117723479Y-86154870D01*
X117797730Y-86124115D01*
X117871983Y-86093358D01*
X118029630Y-86062000D01*
X118190370Y-86062000D01*
X118348017Y-86093358D01*
G37*
G36*
X92948017Y-83553358D02*
G01*
X93096521Y-83614870D01*
X93096522Y-83614871D01*
X93230167Y-83704169D01*
X93343831Y-83817833D01*
X93410804Y-83918067D01*
X93433130Y-83951479D01*
X93494642Y-84099983D01*
X93526000Y-84257630D01*
X93526000Y-84418370D01*
X93494642Y-84576017D01*
X93463885Y-84650270D01*
X93433130Y-84724521D01*
X93433129Y-84724522D01*
X93343831Y-84858167D01*
X93230167Y-84971831D01*
X93130106Y-85038689D01*
X93096521Y-85061130D01*
X92948017Y-85122642D01*
X92790370Y-85154000D01*
X92629630Y-85154000D01*
X92471983Y-85122642D01*
X92397730Y-85091885D01*
X92323479Y-85061130D01*
X92289894Y-85038689D01*
X92189833Y-84971831D01*
X92076169Y-84858167D01*
X91986871Y-84724522D01*
X91986870Y-84724521D01*
X91925358Y-84576017D01*
X91894000Y-84418370D01*
X91894000Y-84257630D01*
X91925358Y-84099983D01*
X91956115Y-84025730D01*
X91986870Y-83951479D01*
X92009196Y-83918067D01*
X92076169Y-83817833D01*
X92189833Y-83704169D01*
X92323478Y-83614871D01*
X92323479Y-83614870D01*
X92397730Y-83584115D01*
X92471983Y-83553358D01*
X92629630Y-83522000D01*
X92790370Y-83522000D01*
X92948017Y-83553358D01*
G37*
G36*
X118348017Y-83553358D02*
G01*
X118496521Y-83614870D01*
X118496522Y-83614871D01*
X118630167Y-83704169D01*
X118743831Y-83817833D01*
X118810804Y-83918067D01*
X118833130Y-83951479D01*
X118863885Y-84025730D01*
X118894642Y-84099983D01*
X118926000Y-84257630D01*
X118926000Y-84418370D01*
X118894642Y-84576017D01*
X118863885Y-84650270D01*
X118833130Y-84724521D01*
X118833129Y-84724522D01*
X118743831Y-84858167D01*
X118630167Y-84971831D01*
X118530106Y-85038689D01*
X118496521Y-85061130D01*
X118348017Y-85122642D01*
X118190370Y-85154000D01*
X118029630Y-85154000D01*
X117871983Y-85122642D01*
X117797730Y-85091885D01*
X117723479Y-85061130D01*
X117689894Y-85038689D01*
X117589833Y-84971831D01*
X117476169Y-84858167D01*
X117386871Y-84724522D01*
X117386870Y-84724521D01*
X117356115Y-84650270D01*
X117325358Y-84576017D01*
X117294000Y-84418370D01*
X117294000Y-84257630D01*
X117325358Y-84099983D01*
X117386870Y-83951479D01*
X117409196Y-83918067D01*
X117476169Y-83817833D01*
X117589833Y-83704169D01*
X117723478Y-83614871D01*
X117723479Y-83614870D01*
X117797730Y-83584115D01*
X117871983Y-83553358D01*
X118029630Y-83522000D01*
X118190370Y-83522000D01*
X118348017Y-83553358D01*
G37*
G36*
X51268795Y-82900156D02*
G01*
X51375150Y-82921311D01*
X51475334Y-82962809D01*
X51575520Y-83004307D01*
X51755844Y-83124795D01*
X51909205Y-83278156D01*
X52029693Y-83458480D01*
X52029693Y-83458481D01*
X52112689Y-83658850D01*
X52121704Y-83704172D01*
X52155000Y-83871560D01*
X52155000Y-84088440D01*
X52112689Y-84301149D01*
X52029693Y-84501520D01*
X51909205Y-84681844D01*
X51755844Y-84835205D01*
X51575520Y-84955693D01*
X51536566Y-84971828D01*
X51375150Y-85038689D01*
X51268794Y-85059845D01*
X51162440Y-85081000D01*
X50945560Y-85081000D01*
X50839206Y-85059845D01*
X50732850Y-85038689D01*
X50571434Y-84971828D01*
X50532480Y-84955693D01*
X50352156Y-84835205D01*
X50198795Y-84681844D01*
X50078307Y-84501520D01*
X49995311Y-84301149D01*
X49953000Y-84088440D01*
X49953000Y-83871560D01*
X49986296Y-83704172D01*
X49995311Y-83658850D01*
X50078307Y-83458481D01*
X50078307Y-83458480D01*
X50198795Y-83278156D01*
X50352156Y-83124795D01*
X50532480Y-83004307D01*
X50632666Y-82962809D01*
X50732850Y-82921311D01*
X50839205Y-82900156D01*
X50945560Y-82879000D01*
X51162440Y-82879000D01*
X51268795Y-82900156D01*
G37*
G36*
X118348017Y-81013358D02*
G01*
X118496521Y-81074870D01*
X118496522Y-81074871D01*
X118630167Y-81164169D01*
X118743831Y-81277833D01*
X118810805Y-81378067D01*
X118833130Y-81411479D01*
X118894642Y-81559983D01*
X118926000Y-81717630D01*
X118926000Y-81878370D01*
X118894642Y-82036017D01*
X118833130Y-82184521D01*
X118833129Y-82184522D01*
X118743831Y-82318167D01*
X118630167Y-82431831D01*
X118529933Y-82498804D01*
X118496521Y-82521130D01*
X118348017Y-82582642D01*
X118190370Y-82614000D01*
X118029630Y-82614000D01*
X117871983Y-82582642D01*
X117723479Y-82521130D01*
X117690067Y-82498805D01*
X117589833Y-82431831D01*
X117476169Y-82318167D01*
X117386871Y-82184522D01*
X117386870Y-82184521D01*
X117325358Y-82036017D01*
X117294000Y-81878370D01*
X117294000Y-81717630D01*
X117325358Y-81559983D01*
X117386870Y-81411479D01*
X117409195Y-81378067D01*
X117476169Y-81277833D01*
X117589833Y-81164169D01*
X117723478Y-81074871D01*
X117723479Y-81074870D01*
X117797730Y-81044115D01*
X117871983Y-81013358D01*
X118029630Y-80982000D01*
X118190370Y-80982000D01*
X118348017Y-81013358D01*
G37*
G36*
X92948017Y-81013358D02*
G01*
X93096521Y-81074870D01*
X93096522Y-81074871D01*
X93230167Y-81164169D01*
X93343831Y-81277833D01*
X93410805Y-81378067D01*
X93433130Y-81411479D01*
X93463885Y-81485730D01*
X93494642Y-81559983D01*
X93526000Y-81717630D01*
X93526000Y-81878370D01*
X93494642Y-82036017D01*
X93433130Y-82184521D01*
X93433129Y-82184522D01*
X93343831Y-82318167D01*
X93230167Y-82431831D01*
X93129933Y-82498804D01*
X93096521Y-82521130D01*
X92948017Y-82582642D01*
X92790370Y-82614000D01*
X92629630Y-82614000D01*
X92471983Y-82582642D01*
X92323479Y-82521130D01*
X92290067Y-82498805D01*
X92189833Y-82431831D01*
X92076169Y-82318167D01*
X91986871Y-82184522D01*
X91986870Y-82184521D01*
X91925358Y-82036017D01*
X91894000Y-81878370D01*
X91894000Y-81717630D01*
X91925358Y-81559983D01*
X91986870Y-81411479D01*
X92009195Y-81378067D01*
X92076169Y-81277833D01*
X92189833Y-81164169D01*
X92323478Y-81074871D01*
X92323479Y-81074870D01*
X92397730Y-81044115D01*
X92471983Y-81013358D01*
X92629630Y-80982000D01*
X92790370Y-80982000D01*
X92948017Y-81013358D01*
G37*
G36*
X70322228Y-80207703D02*
G01*
X70477100Y-80271853D01*
X70616481Y-80364985D01*
X70735015Y-80483519D01*
X70828147Y-80622900D01*
X70892297Y-80777772D01*
X70925000Y-80942184D01*
X70925000Y-81109816D01*
X70892297Y-81274228D01*
X70828147Y-81429100D01*
X70735015Y-81568481D01*
X70616481Y-81687015D01*
X70477100Y-81780147D01*
X70322228Y-81844297D01*
X70157816Y-81877000D01*
X69990184Y-81877000D01*
X69825772Y-81844297D01*
X69670900Y-81780147D01*
X69531519Y-81687015D01*
X69412985Y-81568481D01*
X69319853Y-81429100D01*
X69255703Y-81274228D01*
X69223000Y-81109816D01*
X69223000Y-80942184D01*
X69255703Y-80777772D01*
X69319853Y-80622900D01*
X69412985Y-80483519D01*
X69531519Y-80364985D01*
X69670900Y-80271853D01*
X69825772Y-80207703D01*
X69990184Y-80175000D01*
X70157816Y-80175000D01*
X70322228Y-80207703D01*
G37*
G36*
X77434228Y-80207703D02*
G01*
X77589100Y-80271853D01*
X77728481Y-80364985D01*
X77847015Y-80483519D01*
X77940147Y-80622900D01*
X78004297Y-80777772D01*
X78037000Y-80942184D01*
X78037000Y-81109816D01*
X78004297Y-81274228D01*
X77940147Y-81429100D01*
X77847015Y-81568481D01*
X77728481Y-81687015D01*
X77589100Y-81780147D01*
X77434228Y-81844297D01*
X77269816Y-81877000D01*
X77102184Y-81877000D01*
X76937772Y-81844297D01*
X76782900Y-81780147D01*
X76643519Y-81687015D01*
X76524985Y-81568481D01*
X76431853Y-81429100D01*
X76367703Y-81274228D01*
X76335000Y-81109816D01*
X76335000Y-80942184D01*
X76367703Y-80777772D01*
X76431853Y-80622900D01*
X76524985Y-80483519D01*
X76643519Y-80364985D01*
X76782900Y-80271853D01*
X76937772Y-80207703D01*
X77102184Y-80175000D01*
X77269816Y-80175000D01*
X77434228Y-80207703D01*
G37*
G36*
X85054228Y-80207703D02*
G01*
X85209100Y-80271853D01*
X85348481Y-80364985D01*
X85467015Y-80483519D01*
X85560147Y-80622900D01*
X85624297Y-80777772D01*
X85657000Y-80942184D01*
X85657000Y-81109816D01*
X85624297Y-81274228D01*
X85560147Y-81429100D01*
X85467015Y-81568481D01*
X85348481Y-81687015D01*
X85209100Y-81780147D01*
X85054228Y-81844297D01*
X84889816Y-81877000D01*
X84722184Y-81877000D01*
X84557772Y-81844297D01*
X84402900Y-81780147D01*
X84263519Y-81687015D01*
X84144985Y-81568481D01*
X84051853Y-81429100D01*
X83987703Y-81274228D01*
X83955000Y-81109816D01*
X83955000Y-80942184D01*
X83987703Y-80777772D01*
X84051853Y-80622900D01*
X84144985Y-80483519D01*
X84263519Y-80364985D01*
X84402900Y-80271853D01*
X84557772Y-80207703D01*
X84722184Y-80175000D01*
X84889816Y-80175000D01*
X85054228Y-80207703D01*
G37*
G36*
X62702228Y-80207703D02*
G01*
X62857100Y-80271853D01*
X62996481Y-80364985D01*
X63115015Y-80483519D01*
X63208147Y-80622900D01*
X63272297Y-80777772D01*
X63305000Y-80942184D01*
X63305000Y-81109816D01*
X63272297Y-81274228D01*
X63208147Y-81429100D01*
X63115015Y-81568481D01*
X62996481Y-81687015D01*
X62857100Y-81780147D01*
X62702228Y-81844297D01*
X62537816Y-81877000D01*
X62370184Y-81877000D01*
X62205772Y-81844297D01*
X62050900Y-81780147D01*
X61911519Y-81687015D01*
X61792985Y-81568481D01*
X61699853Y-81429100D01*
X61635703Y-81274228D01*
X61603000Y-81109816D01*
X61603000Y-80942184D01*
X61635703Y-80777772D01*
X61699853Y-80622900D01*
X61792985Y-80483519D01*
X61911519Y-80364985D01*
X62050900Y-80271853D01*
X62205772Y-80207703D01*
X62370184Y-80175000D01*
X62537816Y-80175000D01*
X62702228Y-80207703D01*
G37*
G36*
X51268795Y-77900156D02*
G01*
X51375150Y-77921311D01*
X51428767Y-77943520D01*
X51575520Y-78004307D01*
X51755844Y-78124795D01*
X51909205Y-78278156D01*
X52029693Y-78458480D01*
X52035856Y-78473359D01*
X52098324Y-78624169D01*
X52112689Y-78658851D01*
X52155000Y-78871560D01*
X52155000Y-79088440D01*
X52112689Y-79301149D01*
X52029693Y-79501520D01*
X51909205Y-79681844D01*
X51755844Y-79835205D01*
X51575520Y-79955693D01*
X51514109Y-79981130D01*
X51375150Y-80038689D01*
X51268794Y-80059845D01*
X51162440Y-80081000D01*
X50945560Y-80081000D01*
X50839206Y-80059845D01*
X50732850Y-80038689D01*
X50593891Y-79981130D01*
X50532480Y-79955693D01*
X50352156Y-79835205D01*
X50198795Y-79681844D01*
X50078307Y-79501520D01*
X49995311Y-79301149D01*
X49953000Y-79088440D01*
X49953000Y-78871560D01*
X49995311Y-78658851D01*
X50009677Y-78624169D01*
X50072144Y-78473359D01*
X50078307Y-78458480D01*
X50198795Y-78278156D01*
X50352156Y-78124795D01*
X50532480Y-78004307D01*
X50679233Y-77943520D01*
X50732850Y-77921311D01*
X50839205Y-77900156D01*
X50945560Y-77879000D01*
X51162440Y-77879000D01*
X51268795Y-77900156D01*
G37*
G36*
X92948017Y-78473358D02*
G01*
X93096521Y-78534870D01*
X93096522Y-78534871D01*
X93230167Y-78624169D01*
X93343831Y-78737833D01*
X93410804Y-78838067D01*
X93433130Y-78871479D01*
X93494642Y-79019983D01*
X93526000Y-79177630D01*
X93526000Y-79338370D01*
X93494642Y-79496017D01*
X93463885Y-79570270D01*
X93433130Y-79644521D01*
X93433129Y-79644522D01*
X93343831Y-79778167D01*
X93230167Y-79891831D01*
X93134590Y-79955693D01*
X93096521Y-79981130D01*
X92948017Y-80042642D01*
X92790370Y-80074000D01*
X92629630Y-80074000D01*
X92471983Y-80042642D01*
X92323479Y-79981130D01*
X92285410Y-79955693D01*
X92189833Y-79891831D01*
X92076169Y-79778167D01*
X91986871Y-79644522D01*
X91986870Y-79644521D01*
X91956115Y-79570270D01*
X91925358Y-79496017D01*
X91894000Y-79338370D01*
X91894000Y-79177630D01*
X91925358Y-79019983D01*
X91956115Y-78945730D01*
X91986870Y-78871479D01*
X92009195Y-78838067D01*
X92076169Y-78737833D01*
X92189833Y-78624169D01*
X92323478Y-78534871D01*
X92323479Y-78534870D01*
X92471983Y-78473358D01*
X92629630Y-78442000D01*
X92790370Y-78442000D01*
X92948017Y-78473358D01*
G37*
G36*
X118348017Y-78473358D02*
G01*
X118496521Y-78534870D01*
X118496522Y-78534871D01*
X118630167Y-78624169D01*
X118743831Y-78737833D01*
X118810804Y-78838067D01*
X118833130Y-78871479D01*
X118863885Y-78945730D01*
X118894642Y-79019983D01*
X118926000Y-79177630D01*
X118926000Y-79338370D01*
X118894642Y-79496017D01*
X118833130Y-79644521D01*
X118833129Y-79644522D01*
X118743831Y-79778167D01*
X118630167Y-79891831D01*
X118534590Y-79955693D01*
X118496521Y-79981130D01*
X118348017Y-80042642D01*
X118190370Y-80074000D01*
X118029630Y-80074000D01*
X117871983Y-80042642D01*
X117723479Y-79981130D01*
X117685410Y-79955693D01*
X117589833Y-79891831D01*
X117476169Y-79778167D01*
X117386871Y-79644522D01*
X117386870Y-79644521D01*
X117356115Y-79570270D01*
X117325358Y-79496017D01*
X117294000Y-79338370D01*
X117294000Y-79177630D01*
X117325358Y-79019983D01*
X117356115Y-78945730D01*
X117386870Y-78871479D01*
X117409195Y-78838067D01*
X117476169Y-78737833D01*
X117589833Y-78624169D01*
X117723478Y-78534871D01*
X117723479Y-78534870D01*
X117871983Y-78473358D01*
X118029630Y-78442000D01*
X118190370Y-78442000D01*
X118348017Y-78473358D01*
G37*
G36*
X85054228Y-77667703D02*
G01*
X85209100Y-77731853D01*
X85348481Y-77824985D01*
X85467015Y-77943519D01*
X85560147Y-78082900D01*
X85624297Y-78237772D01*
X85657000Y-78402184D01*
X85657000Y-78569816D01*
X85624297Y-78734228D01*
X85560147Y-78889100D01*
X85467015Y-79028481D01*
X85348481Y-79147015D01*
X85209100Y-79240147D01*
X85054228Y-79304297D01*
X84889816Y-79337000D01*
X84722184Y-79337000D01*
X84557772Y-79304297D01*
X84402900Y-79240147D01*
X84263519Y-79147015D01*
X84144985Y-79028481D01*
X84051853Y-78889100D01*
X83987703Y-78734228D01*
X83955000Y-78569816D01*
X83955000Y-78402184D01*
X83987703Y-78237772D01*
X84051853Y-78082900D01*
X84144985Y-77943519D01*
X84263519Y-77824985D01*
X84402900Y-77731853D01*
X84557772Y-77667703D01*
X84722184Y-77635000D01*
X84889816Y-77635000D01*
X85054228Y-77667703D01*
G37*
G36*
X78037000Y-79337000D02*
G01*
X76335000Y-79337000D01*
X76335000Y-77635000D01*
X78037000Y-77635000D01*
X78037000Y-79337000D01*
G37*
G36*
X70322228Y-77667703D02*
G01*
X70477100Y-77731853D01*
X70616481Y-77824985D01*
X70735015Y-77943519D01*
X70828147Y-78082900D01*
X70892297Y-78237772D01*
X70925000Y-78402184D01*
X70925000Y-78569816D01*
X70892297Y-78734228D01*
X70828147Y-78889100D01*
X70735015Y-79028481D01*
X70616481Y-79147015D01*
X70477100Y-79240147D01*
X70322228Y-79304297D01*
X70157816Y-79337000D01*
X69990184Y-79337000D01*
X69825772Y-79304297D01*
X69670900Y-79240147D01*
X69531519Y-79147015D01*
X69412985Y-79028481D01*
X69319853Y-78889100D01*
X69255703Y-78734228D01*
X69223000Y-78569816D01*
X69223000Y-78402184D01*
X69255703Y-78237772D01*
X69319853Y-78082900D01*
X69412985Y-77943519D01*
X69531519Y-77824985D01*
X69670900Y-77731853D01*
X69825772Y-77667703D01*
X69990184Y-77635000D01*
X70157816Y-77635000D01*
X70322228Y-77667703D01*
G37*
G36*
X63305000Y-79337000D02*
G01*
X61603000Y-79337000D01*
X61603000Y-77635000D01*
X63305000Y-77635000D01*
X63305000Y-79337000D01*
G37*
G36*
X92948017Y-75933358D02*
G01*
X93096521Y-75994870D01*
X93096522Y-75994871D01*
X93230167Y-76084169D01*
X93343831Y-76197833D01*
X93410804Y-76298067D01*
X93433130Y-76331479D01*
X93463885Y-76405730D01*
X93494642Y-76479983D01*
X93526000Y-76637630D01*
X93526000Y-76798370D01*
X93494642Y-76956017D01*
X93433130Y-77104521D01*
X93433129Y-77104522D01*
X93343831Y-77238167D01*
X93230167Y-77351831D01*
X93129933Y-77418805D01*
X93096521Y-77441130D01*
X92948017Y-77502642D01*
X92790370Y-77534000D01*
X92629630Y-77534000D01*
X92471983Y-77502642D01*
X92323479Y-77441130D01*
X92290067Y-77418805D01*
X92189833Y-77351831D01*
X92076169Y-77238167D01*
X91986871Y-77104522D01*
X91986870Y-77104521D01*
X91925358Y-76956017D01*
X91894000Y-76798370D01*
X91894000Y-76637630D01*
X91925358Y-76479983D01*
X91986870Y-76331479D01*
X92009196Y-76298067D01*
X92076169Y-76197833D01*
X92189833Y-76084169D01*
X92323478Y-75994871D01*
X92323479Y-75994870D01*
X92397730Y-75964115D01*
X92471983Y-75933358D01*
X92629630Y-75902000D01*
X92790370Y-75902000D01*
X92948017Y-75933358D01*
G37*
G36*
X118348017Y-75933358D02*
G01*
X118496521Y-75994870D01*
X118496522Y-75994871D01*
X118630167Y-76084169D01*
X118743831Y-76197833D01*
X118810804Y-76298067D01*
X118833130Y-76331479D01*
X118894642Y-76479983D01*
X118926000Y-76637630D01*
X118926000Y-76798370D01*
X118894642Y-76956017D01*
X118863885Y-77030270D01*
X118833130Y-77104521D01*
X118833129Y-77104522D01*
X118743831Y-77238167D01*
X118630167Y-77351831D01*
X118529933Y-77418805D01*
X118496521Y-77441130D01*
X118348017Y-77502642D01*
X118190370Y-77534000D01*
X118029630Y-77534000D01*
X117871983Y-77502642D01*
X117723479Y-77441130D01*
X117690067Y-77418805D01*
X117589833Y-77351831D01*
X117476169Y-77238167D01*
X117386871Y-77104522D01*
X117386870Y-77104521D01*
X117325358Y-76956017D01*
X117294000Y-76798370D01*
X117294000Y-76637630D01*
X117325358Y-76479983D01*
X117386870Y-76331479D01*
X117409196Y-76298067D01*
X117476169Y-76197833D01*
X117589833Y-76084169D01*
X117723478Y-75994871D01*
X117723479Y-75994870D01*
X117797730Y-75964115D01*
X117871983Y-75933358D01*
X118029630Y-75902000D01*
X118190370Y-75902000D01*
X118348017Y-75933358D01*
G37*
G36*
X51268794Y-72900155D02*
G01*
X51375150Y-72921311D01*
X51475334Y-72962809D01*
X51575520Y-73004307D01*
X51755844Y-73124795D01*
X51909205Y-73278156D01*
X52029693Y-73458480D01*
X52029693Y-73458481D01*
X52112689Y-73658850D01*
X52155000Y-73871561D01*
X52155000Y-74088439D01*
X52121199Y-74258370D01*
X52112689Y-74301149D01*
X52029693Y-74501520D01*
X51909205Y-74681844D01*
X51755844Y-74835205D01*
X51575520Y-74955693D01*
X51483038Y-74994000D01*
X51375150Y-75038689D01*
X51268794Y-75059845D01*
X51162440Y-75081000D01*
X50945560Y-75081000D01*
X50839206Y-75059845D01*
X50732850Y-75038689D01*
X50624962Y-74994000D01*
X50532480Y-74955693D01*
X50352156Y-74835205D01*
X50198795Y-74681844D01*
X50078307Y-74501520D01*
X49995311Y-74301149D01*
X49986802Y-74258370D01*
X49953000Y-74088439D01*
X49953000Y-73871561D01*
X49995311Y-73658850D01*
X50078307Y-73458481D01*
X50078307Y-73458480D01*
X50198795Y-73278156D01*
X50352156Y-73124795D01*
X50532480Y-73004307D01*
X50632666Y-72962809D01*
X50732850Y-72921311D01*
X50839206Y-72900155D01*
X50945560Y-72879000D01*
X51162440Y-72879000D01*
X51268794Y-72900155D01*
G37*
G36*
X118348017Y-73393358D02*
G01*
X118422270Y-73424115D01*
X118496521Y-73454870D01*
X118501925Y-73458481D01*
X118630167Y-73544169D01*
X118743831Y-73657833D01*
X118810804Y-73758067D01*
X118833130Y-73791479D01*
X118894642Y-73939983D01*
X118926000Y-74097630D01*
X118926000Y-74258370D01*
X118894642Y-74416017D01*
X118833130Y-74564521D01*
X118833129Y-74564522D01*
X118743831Y-74698167D01*
X118630167Y-74811831D01*
X118529933Y-74878805D01*
X118496521Y-74901130D01*
X118348017Y-74962642D01*
X118190370Y-74994000D01*
X118029630Y-74994000D01*
X117871983Y-74962642D01*
X117723479Y-74901130D01*
X117690067Y-74878805D01*
X117589833Y-74811831D01*
X117476169Y-74698167D01*
X117386871Y-74564522D01*
X117386870Y-74564521D01*
X117325358Y-74416017D01*
X117294000Y-74258370D01*
X117294000Y-74097630D01*
X117325358Y-73939983D01*
X117356115Y-73865730D01*
X117386870Y-73791479D01*
X117409196Y-73758067D01*
X117476169Y-73657833D01*
X117589833Y-73544169D01*
X117718075Y-73458481D01*
X117723479Y-73454870D01*
X117797730Y-73424115D01*
X117871983Y-73393358D01*
X118029630Y-73362000D01*
X118190370Y-73362000D01*
X118348017Y-73393358D01*
G37*
G36*
X92948017Y-73393358D02*
G01*
X93022270Y-73424115D01*
X93096521Y-73454870D01*
X93101925Y-73458481D01*
X93230167Y-73544169D01*
X93343831Y-73657833D01*
X93410804Y-73758067D01*
X93433130Y-73791479D01*
X93494642Y-73939983D01*
X93526000Y-74097630D01*
X93526000Y-74258370D01*
X93494642Y-74416017D01*
X93433130Y-74564521D01*
X93433129Y-74564522D01*
X93343831Y-74698167D01*
X93230167Y-74811831D01*
X93129933Y-74878805D01*
X93096521Y-74901130D01*
X92948017Y-74962642D01*
X92790370Y-74994000D01*
X92629630Y-74994000D01*
X92471983Y-74962642D01*
X92323479Y-74901130D01*
X92290067Y-74878805D01*
X92189833Y-74811831D01*
X92076169Y-74698167D01*
X91986871Y-74564522D01*
X91986870Y-74564521D01*
X91956115Y-74490270D01*
X91925358Y-74416017D01*
X91894000Y-74258370D01*
X91894000Y-74097630D01*
X91925358Y-73939983D01*
X91986870Y-73791479D01*
X92009196Y-73758067D01*
X92076169Y-73657833D01*
X92189833Y-73544169D01*
X92318075Y-73458481D01*
X92323479Y-73454870D01*
X92397730Y-73424115D01*
X92471983Y-73393358D01*
X92629630Y-73362000D01*
X92790370Y-73362000D01*
X92948017Y-73393358D01*
G37*
G36*
X70352228Y-71825703D02*
G01*
X70507100Y-71889853D01*
X70646481Y-71982985D01*
X70765015Y-72101519D01*
X70858147Y-72240900D01*
X70922297Y-72395772D01*
X70955000Y-72560184D01*
X70955000Y-72727816D01*
X70922297Y-72892228D01*
X70858147Y-73047100D01*
X70765015Y-73186481D01*
X70646481Y-73305015D01*
X70507100Y-73398147D01*
X70352228Y-73462297D01*
X70187816Y-73495000D01*
X70020184Y-73495000D01*
X69855772Y-73462297D01*
X69700900Y-73398147D01*
X69561519Y-73305015D01*
X69442985Y-73186481D01*
X69349853Y-73047100D01*
X69285703Y-72892228D01*
X69253000Y-72727816D01*
X69253000Y-72560184D01*
X69285703Y-72395772D01*
X69349853Y-72240900D01*
X69442985Y-72101519D01*
X69561519Y-71982985D01*
X69700900Y-71889853D01*
X69855772Y-71825703D01*
X70020184Y-71793000D01*
X70187816Y-71793000D01*
X70352228Y-71825703D01*
G37*
G36*
X60192228Y-71825703D02*
G01*
X60347100Y-71889853D01*
X60486481Y-71982985D01*
X60605015Y-72101519D01*
X60698147Y-72240900D01*
X60762297Y-72395772D01*
X60795000Y-72560184D01*
X60795000Y-72727816D01*
X60762297Y-72892228D01*
X60698147Y-73047100D01*
X60605015Y-73186481D01*
X60486481Y-73305015D01*
X60347100Y-73398147D01*
X60192228Y-73462297D01*
X60027816Y-73495000D01*
X59860184Y-73495000D01*
X59695772Y-73462297D01*
X59540900Y-73398147D01*
X59401519Y-73305015D01*
X59282985Y-73186481D01*
X59189853Y-73047100D01*
X59125703Y-72892228D01*
X59093000Y-72727816D01*
X59093000Y-72560184D01*
X59125703Y-72395772D01*
X59189853Y-72240900D01*
X59282985Y-72101519D01*
X59401519Y-71982985D01*
X59540900Y-71889853D01*
X59695772Y-71825703D01*
X59860184Y-71793000D01*
X60027816Y-71793000D01*
X60192228Y-71825703D01*
G37*
G36*
X85084228Y-71571703D02*
G01*
X85239100Y-71635853D01*
X85378481Y-71728985D01*
X85497015Y-71847519D01*
X85590147Y-71986900D01*
X85654297Y-72141772D01*
X85687000Y-72306184D01*
X85687000Y-72473816D01*
X85654297Y-72638228D01*
X85590147Y-72793100D01*
X85497015Y-72932481D01*
X85378481Y-73051015D01*
X85239100Y-73144147D01*
X85084228Y-73208297D01*
X84919816Y-73241000D01*
X84752184Y-73241000D01*
X84587772Y-73208297D01*
X84432900Y-73144147D01*
X84293519Y-73051015D01*
X84174985Y-72932481D01*
X84081853Y-72793100D01*
X84017703Y-72638228D01*
X83985000Y-72473816D01*
X83985000Y-72306184D01*
X84017703Y-72141772D01*
X84081853Y-71986900D01*
X84174985Y-71847519D01*
X84293519Y-71728985D01*
X84432900Y-71635853D01*
X84587772Y-71571703D01*
X84752184Y-71539000D01*
X84919816Y-71539000D01*
X85084228Y-71571703D01*
G37*
G36*
X74924228Y-71571703D02*
G01*
X75079100Y-71635853D01*
X75218481Y-71728985D01*
X75337015Y-71847519D01*
X75430147Y-71986900D01*
X75494297Y-72141772D01*
X75527000Y-72306184D01*
X75527000Y-72473816D01*
X75494297Y-72638228D01*
X75430147Y-72793100D01*
X75337015Y-72932481D01*
X75218481Y-73051015D01*
X75079100Y-73144147D01*
X74924228Y-73208297D01*
X74759816Y-73241000D01*
X74592184Y-73241000D01*
X74427772Y-73208297D01*
X74272900Y-73144147D01*
X74133519Y-73051015D01*
X74014985Y-72932481D01*
X73921853Y-72793100D01*
X73857703Y-72638228D01*
X73825000Y-72473816D01*
X73825000Y-72306184D01*
X73857703Y-72141772D01*
X73921853Y-71986900D01*
X74014985Y-71847519D01*
X74133519Y-71728985D01*
X74272900Y-71635853D01*
X74427772Y-71571703D01*
X74592184Y-71539000D01*
X74759816Y-71539000D01*
X74924228Y-71571703D01*
G37*
G36*
X92948017Y-70853358D02*
G01*
X93022270Y-70884115D01*
X93096521Y-70914870D01*
X93096522Y-70914871D01*
X93230167Y-71004169D01*
X93343831Y-71117833D01*
X93410805Y-71218067D01*
X93433130Y-71251479D01*
X93463885Y-71325730D01*
X93494642Y-71399983D01*
X93526000Y-71557630D01*
X93526000Y-71718370D01*
X93494642Y-71876017D01*
X93463885Y-71950270D01*
X93433130Y-72024521D01*
X93433129Y-72024522D01*
X93343831Y-72158167D01*
X93230167Y-72271831D01*
X93129933Y-72338804D01*
X93096521Y-72361130D01*
X92948017Y-72422642D01*
X92790370Y-72454000D01*
X92629630Y-72454000D01*
X92471983Y-72422642D01*
X92323479Y-72361130D01*
X92290067Y-72338804D01*
X92189833Y-72271831D01*
X92076169Y-72158167D01*
X91986871Y-72024522D01*
X91986870Y-72024521D01*
X91925358Y-71876017D01*
X91894000Y-71718370D01*
X91894000Y-71557630D01*
X91925358Y-71399983D01*
X91956115Y-71325730D01*
X91986870Y-71251479D01*
X92009196Y-71218067D01*
X92076169Y-71117833D01*
X92189833Y-71004169D01*
X92323478Y-70914871D01*
X92323479Y-70914870D01*
X92397730Y-70884115D01*
X92471983Y-70853358D01*
X92629630Y-70822000D01*
X92790370Y-70822000D01*
X92948017Y-70853358D01*
G37*
G36*
X118348017Y-70853358D02*
G01*
X118422270Y-70884115D01*
X118496521Y-70914870D01*
X118496522Y-70914871D01*
X118630167Y-71004169D01*
X118743831Y-71117833D01*
X118810805Y-71218067D01*
X118833130Y-71251479D01*
X118863885Y-71325730D01*
X118894642Y-71399983D01*
X118926000Y-71557630D01*
X118926000Y-71718370D01*
X118894642Y-71876017D01*
X118863885Y-71950270D01*
X118833130Y-72024521D01*
X118833129Y-72024522D01*
X118743831Y-72158167D01*
X118630167Y-72271831D01*
X118529933Y-72338804D01*
X118496521Y-72361130D01*
X118348017Y-72422642D01*
X118190370Y-72454000D01*
X118029630Y-72454000D01*
X117871983Y-72422642D01*
X117723479Y-72361130D01*
X117690067Y-72338804D01*
X117589833Y-72271831D01*
X117476169Y-72158167D01*
X117386871Y-72024522D01*
X117386870Y-72024521D01*
X117356115Y-71950270D01*
X117325358Y-71876017D01*
X117294000Y-71718370D01*
X117294000Y-71557630D01*
X117325358Y-71399983D01*
X117356115Y-71325730D01*
X117386870Y-71251479D01*
X117409196Y-71218067D01*
X117476169Y-71117833D01*
X117589833Y-71004169D01*
X117723478Y-70914871D01*
X117723479Y-70914870D01*
X117797730Y-70884115D01*
X117871983Y-70853358D01*
X118029630Y-70822000D01*
X118190370Y-70822000D01*
X118348017Y-70853358D01*
G37*
G36*
X51268794Y-67900155D02*
G01*
X51375150Y-67921311D01*
X51475334Y-67962809D01*
X51575520Y-68004307D01*
X51755844Y-68124795D01*
X51909205Y-68278156D01*
X52029693Y-68458480D01*
X52112689Y-68658850D01*
X52155000Y-68871561D01*
X52155000Y-69088439D01*
X52112689Y-69301150D01*
X52098246Y-69336018D01*
X52029693Y-69501520D01*
X51909205Y-69681844D01*
X51755844Y-69835205D01*
X51575520Y-69955693D01*
X51375150Y-70038689D01*
X51268794Y-70059845D01*
X51162440Y-70081000D01*
X50945560Y-70081000D01*
X50839206Y-70059845D01*
X50732850Y-70038689D01*
X50532480Y-69955693D01*
X50352156Y-69835205D01*
X50198795Y-69681844D01*
X50078307Y-69501520D01*
X50009754Y-69336018D01*
X49995311Y-69301150D01*
X49953000Y-69088439D01*
X49953000Y-68871561D01*
X49995311Y-68658850D01*
X50078307Y-68458480D01*
X50198795Y-68278156D01*
X50352156Y-68124795D01*
X50532480Y-68004307D01*
X50632666Y-67962809D01*
X50732850Y-67921311D01*
X50839206Y-67900155D01*
X50945560Y-67879000D01*
X51162440Y-67879000D01*
X51268794Y-67900155D01*
G37*
G36*
X118348017Y-68313358D02*
G01*
X118422270Y-68344115D01*
X118496521Y-68374870D01*
X118496522Y-68374871D01*
X118630167Y-68464169D01*
X118743831Y-68577833D01*
X118797964Y-68658850D01*
X118833130Y-68711479D01*
X118894642Y-68859983D01*
X118926000Y-69017630D01*
X118926000Y-69178370D01*
X118894642Y-69336017D01*
X118833130Y-69484521D01*
X118810804Y-69517933D01*
X118743831Y-69618167D01*
X118630167Y-69731831D01*
X118529933Y-69798805D01*
X118496521Y-69821130D01*
X118462540Y-69835205D01*
X118348017Y-69882642D01*
X118190370Y-69914000D01*
X118029630Y-69914000D01*
X117871983Y-69882642D01*
X117757460Y-69835205D01*
X117723479Y-69821130D01*
X117690067Y-69798805D01*
X117589833Y-69731831D01*
X117476169Y-69618167D01*
X117409195Y-69517933D01*
X117386870Y-69484521D01*
X117325358Y-69336017D01*
X117294000Y-69178370D01*
X117294000Y-69017630D01*
X117325358Y-68859983D01*
X117386870Y-68711479D01*
X117422036Y-68658850D01*
X117476169Y-68577833D01*
X117589833Y-68464169D01*
X117723478Y-68374871D01*
X117723479Y-68374870D01*
X117797730Y-68344115D01*
X117871983Y-68313358D01*
X118029630Y-68282000D01*
X118190370Y-68282000D01*
X118348017Y-68313358D01*
G37*
G36*
X92948017Y-68313358D02*
G01*
X93022270Y-68344115D01*
X93096521Y-68374870D01*
X93096522Y-68374871D01*
X93230167Y-68464169D01*
X93343831Y-68577833D01*
X93397964Y-68658850D01*
X93433130Y-68711479D01*
X93494642Y-68859983D01*
X93526000Y-69017630D01*
X93526000Y-69178370D01*
X93494642Y-69336017D01*
X93433130Y-69484521D01*
X93410804Y-69517933D01*
X93343831Y-69618167D01*
X93230167Y-69731831D01*
X93129933Y-69798805D01*
X93096521Y-69821130D01*
X93062540Y-69835205D01*
X92948017Y-69882642D01*
X92790370Y-69914000D01*
X92629630Y-69914000D01*
X92471983Y-69882642D01*
X92357460Y-69835205D01*
X92323479Y-69821130D01*
X92290067Y-69798805D01*
X92189833Y-69731831D01*
X92076169Y-69618167D01*
X92009195Y-69517933D01*
X91986870Y-69484521D01*
X91925358Y-69336017D01*
X91894000Y-69178370D01*
X91894000Y-69017630D01*
X91925358Y-68859983D01*
X91986870Y-68711479D01*
X92022036Y-68658850D01*
X92076169Y-68577833D01*
X92189833Y-68464169D01*
X92323478Y-68374871D01*
X92323479Y-68374870D01*
X92397730Y-68344115D01*
X92471983Y-68313358D01*
X92629630Y-68282000D01*
X92790370Y-68282000D01*
X92948017Y-68313358D01*
G37*
G36*
X118348017Y-65773358D02*
G01*
X118422270Y-65804115D01*
X118496521Y-65834870D01*
X118496522Y-65834871D01*
X118630167Y-65924169D01*
X118743831Y-66037833D01*
X118810805Y-66138067D01*
X118833130Y-66171479D01*
X118849162Y-66210184D01*
X118894642Y-66319983D01*
X118926000Y-66477630D01*
X118926000Y-66638370D01*
X118894642Y-66796017D01*
X118877881Y-66836481D01*
X118833130Y-66944521D01*
X118833129Y-66944522D01*
X118743831Y-67078167D01*
X118630167Y-67191831D01*
X118529933Y-67258805D01*
X118496521Y-67281130D01*
X118348017Y-67342642D01*
X118190370Y-67374000D01*
X118029630Y-67374000D01*
X117871983Y-67342642D01*
X117723479Y-67281130D01*
X117690067Y-67258804D01*
X117589833Y-67191831D01*
X117476169Y-67078167D01*
X117386871Y-66944522D01*
X117386870Y-66944521D01*
X117342119Y-66836481D01*
X117325358Y-66796017D01*
X117294000Y-66638370D01*
X117294000Y-66477630D01*
X117325358Y-66319983D01*
X117370838Y-66210184D01*
X117386870Y-66171479D01*
X117409195Y-66138067D01*
X117476169Y-66037833D01*
X117589833Y-65924169D01*
X117723478Y-65834871D01*
X117723479Y-65834870D01*
X117797730Y-65804115D01*
X117871983Y-65773358D01*
X118029630Y-65742000D01*
X118190370Y-65742000D01*
X118348017Y-65773358D01*
G37*
G36*
X92948017Y-65773358D02*
G01*
X93022270Y-65804115D01*
X93096521Y-65834870D01*
X93096522Y-65834871D01*
X93230167Y-65924169D01*
X93343831Y-66037833D01*
X93410805Y-66138067D01*
X93433130Y-66171479D01*
X93449162Y-66210184D01*
X93494642Y-66319983D01*
X93526000Y-66477630D01*
X93526000Y-66638370D01*
X93494642Y-66796017D01*
X93477881Y-66836481D01*
X93433130Y-66944521D01*
X93433129Y-66944522D01*
X93343831Y-67078167D01*
X93230167Y-67191831D01*
X93129933Y-67258805D01*
X93096521Y-67281130D01*
X92948017Y-67342642D01*
X92790370Y-67374000D01*
X92629630Y-67374000D01*
X92471983Y-67342642D01*
X92323479Y-67281130D01*
X92290067Y-67258804D01*
X92189833Y-67191831D01*
X92076169Y-67078167D01*
X91986871Y-66944522D01*
X91986870Y-66944521D01*
X91942119Y-66836481D01*
X91925358Y-66796017D01*
X91894000Y-66638370D01*
X91894000Y-66477630D01*
X91925358Y-66319983D01*
X91970838Y-66210184D01*
X91986870Y-66171479D01*
X92009195Y-66138067D01*
X92076169Y-66037833D01*
X92189833Y-65924169D01*
X92323478Y-65834871D01*
X92323479Y-65834870D01*
X92397730Y-65804115D01*
X92471983Y-65773358D01*
X92629630Y-65742000D01*
X92790370Y-65742000D01*
X92948017Y-65773358D01*
G37*
G36*
X85054228Y-65475703D02*
G01*
X85209100Y-65539853D01*
X85348481Y-65632985D01*
X85467015Y-65751519D01*
X85560147Y-65890900D01*
X85624297Y-66045772D01*
X85657000Y-66210184D01*
X85657000Y-66377816D01*
X85624297Y-66542228D01*
X85560147Y-66697100D01*
X85467015Y-66836481D01*
X85348481Y-66955015D01*
X85209100Y-67048147D01*
X85054228Y-67112297D01*
X84889816Y-67145000D01*
X84722184Y-67145000D01*
X84557772Y-67112297D01*
X84402900Y-67048147D01*
X84263519Y-66955015D01*
X84144985Y-66836481D01*
X84051853Y-66697100D01*
X83987703Y-66542228D01*
X83955000Y-66377816D01*
X83955000Y-66210184D01*
X83987703Y-66045772D01*
X84051853Y-65890900D01*
X84144985Y-65751519D01*
X84263519Y-65632985D01*
X84402900Y-65539853D01*
X84557772Y-65475703D01*
X84722184Y-65443000D01*
X84889816Y-65443000D01*
X85054228Y-65475703D01*
G37*
G36*
X70322228Y-65475703D02*
G01*
X70477100Y-65539853D01*
X70616481Y-65632985D01*
X70735015Y-65751519D01*
X70828147Y-65890900D01*
X70892297Y-66045772D01*
X70925000Y-66210184D01*
X70925000Y-66377816D01*
X70892297Y-66542228D01*
X70828147Y-66697100D01*
X70735015Y-66836481D01*
X70616481Y-66955015D01*
X70477100Y-67048147D01*
X70322228Y-67112297D01*
X70157816Y-67145000D01*
X69990184Y-67145000D01*
X69825772Y-67112297D01*
X69670900Y-67048147D01*
X69531519Y-66955015D01*
X69412985Y-66836481D01*
X69319853Y-66697100D01*
X69255703Y-66542228D01*
X69223000Y-66377816D01*
X69223000Y-66210184D01*
X69255703Y-66045772D01*
X69319853Y-65890900D01*
X69412985Y-65751519D01*
X69531519Y-65632985D01*
X69670900Y-65539853D01*
X69825772Y-65475703D01*
X69990184Y-65443000D01*
X70157816Y-65443000D01*
X70322228Y-65475703D01*
G37*
G36*
X62702228Y-65475703D02*
G01*
X62857100Y-65539853D01*
X62996481Y-65632985D01*
X63115015Y-65751519D01*
X63208147Y-65890900D01*
X63272297Y-66045772D01*
X63305000Y-66210184D01*
X63305000Y-66377816D01*
X63272297Y-66542228D01*
X63208147Y-66697100D01*
X63115015Y-66836481D01*
X62996481Y-66955015D01*
X62857100Y-67048147D01*
X62702228Y-67112297D01*
X62537816Y-67145000D01*
X62370184Y-67145000D01*
X62205772Y-67112297D01*
X62050900Y-67048147D01*
X61911519Y-66955015D01*
X61792985Y-66836481D01*
X61699853Y-66697100D01*
X61635703Y-66542228D01*
X61603000Y-66377816D01*
X61603000Y-66210184D01*
X61635703Y-66045772D01*
X61699853Y-65890900D01*
X61792985Y-65751519D01*
X61911519Y-65632985D01*
X62050900Y-65539853D01*
X62205772Y-65475703D01*
X62370184Y-65443000D01*
X62537816Y-65443000D01*
X62702228Y-65475703D01*
G37*
G36*
X77434228Y-65475703D02*
G01*
X77589100Y-65539853D01*
X77728481Y-65632985D01*
X77847015Y-65751519D01*
X77940147Y-65890900D01*
X78004297Y-66045772D01*
X78037000Y-66210184D01*
X78037000Y-66377816D01*
X78004297Y-66542228D01*
X77940147Y-66697100D01*
X77847015Y-66836481D01*
X77728481Y-66955015D01*
X77589100Y-67048147D01*
X77434228Y-67112297D01*
X77269816Y-67145000D01*
X77102184Y-67145000D01*
X76937772Y-67112297D01*
X76782900Y-67048147D01*
X76643519Y-66955015D01*
X76524985Y-66836481D01*
X76431853Y-66697100D01*
X76367703Y-66542228D01*
X76335000Y-66377816D01*
X76335000Y-66210184D01*
X76367703Y-66045772D01*
X76431853Y-65890900D01*
X76524985Y-65751519D01*
X76643519Y-65632985D01*
X76782900Y-65539853D01*
X76937772Y-65475703D01*
X77102184Y-65443000D01*
X77269816Y-65443000D01*
X77434228Y-65475703D01*
G37*
G36*
X118348017Y-63233358D02*
G01*
X118422270Y-63264115D01*
X118496521Y-63294870D01*
X118496522Y-63294871D01*
X118630167Y-63384169D01*
X118743831Y-63497833D01*
X118810804Y-63598067D01*
X118833130Y-63631479D01*
X118849162Y-63670184D01*
X118894642Y-63779983D01*
X118926000Y-63937630D01*
X118926000Y-64098370D01*
X118894642Y-64256017D01*
X118877881Y-64296481D01*
X118833130Y-64404521D01*
X118833129Y-64404522D01*
X118743831Y-64538167D01*
X118630167Y-64651831D01*
X118529933Y-64718805D01*
X118496521Y-64741130D01*
X118348017Y-64802642D01*
X118190370Y-64834000D01*
X118029630Y-64834000D01*
X117871983Y-64802642D01*
X117723479Y-64741130D01*
X117690067Y-64718805D01*
X117589833Y-64651831D01*
X117476169Y-64538167D01*
X117386871Y-64404522D01*
X117386870Y-64404521D01*
X117342119Y-64296481D01*
X117325358Y-64256017D01*
X117294000Y-64098370D01*
X117294000Y-63937630D01*
X117325358Y-63779983D01*
X117370838Y-63670184D01*
X117386870Y-63631479D01*
X117409196Y-63598067D01*
X117476169Y-63497833D01*
X117589833Y-63384169D01*
X117723478Y-63294871D01*
X117723479Y-63294870D01*
X117797730Y-63264115D01*
X117871983Y-63233358D01*
X118029630Y-63202000D01*
X118190370Y-63202000D01*
X118348017Y-63233358D01*
G37*
G36*
X92948017Y-63233358D02*
G01*
X93022270Y-63264115D01*
X93096521Y-63294870D01*
X93096522Y-63294871D01*
X93230167Y-63384169D01*
X93343831Y-63497833D01*
X93410804Y-63598067D01*
X93433130Y-63631479D01*
X93449162Y-63670184D01*
X93494642Y-63779983D01*
X93526000Y-63937630D01*
X93526000Y-64098370D01*
X93494642Y-64256017D01*
X93477881Y-64296481D01*
X93433130Y-64404521D01*
X93433129Y-64404522D01*
X93343831Y-64538167D01*
X93230167Y-64651831D01*
X93129933Y-64718805D01*
X93096521Y-64741130D01*
X92948017Y-64802642D01*
X92790370Y-64834000D01*
X92629630Y-64834000D01*
X92471983Y-64802642D01*
X92323479Y-64741130D01*
X92290067Y-64718805D01*
X92189833Y-64651831D01*
X92076169Y-64538167D01*
X91986871Y-64404522D01*
X91986870Y-64404521D01*
X91942119Y-64296481D01*
X91925358Y-64256017D01*
X91894000Y-64098370D01*
X91894000Y-63937630D01*
X91925358Y-63779983D01*
X91970838Y-63670184D01*
X91986870Y-63631479D01*
X92009196Y-63598067D01*
X92076169Y-63497833D01*
X92189833Y-63384169D01*
X92323478Y-63294871D01*
X92323479Y-63294870D01*
X92397730Y-63264115D01*
X92471983Y-63233358D01*
X92629630Y-63202000D01*
X92790370Y-63202000D01*
X92948017Y-63233358D01*
G37*
G36*
X85054228Y-62935703D02*
G01*
X85209100Y-62999853D01*
X85348481Y-63092985D01*
X85467015Y-63211519D01*
X85560147Y-63350900D01*
X85624297Y-63505772D01*
X85657000Y-63670184D01*
X85657000Y-63837816D01*
X85624297Y-64002228D01*
X85560147Y-64157100D01*
X85467015Y-64296481D01*
X85348481Y-64415015D01*
X85209100Y-64508147D01*
X85054228Y-64572297D01*
X84889816Y-64605000D01*
X84722184Y-64605000D01*
X84557772Y-64572297D01*
X84402900Y-64508147D01*
X84263519Y-64415015D01*
X84144985Y-64296481D01*
X84051853Y-64157100D01*
X83987703Y-64002228D01*
X83955000Y-63837816D01*
X83955000Y-63670184D01*
X83987703Y-63505772D01*
X84051853Y-63350900D01*
X84144985Y-63211519D01*
X84263519Y-63092985D01*
X84402900Y-62999853D01*
X84557772Y-62935703D01*
X84722184Y-62903000D01*
X84889816Y-62903000D01*
X85054228Y-62935703D01*
G37*
G36*
X63305000Y-64605000D02*
G01*
X61603000Y-64605000D01*
X61603000Y-62903000D01*
X63305000Y-62903000D01*
X63305000Y-64605000D01*
G37*
G36*
X70322228Y-62935703D02*
G01*
X70477100Y-62999853D01*
X70616481Y-63092985D01*
X70735015Y-63211519D01*
X70828147Y-63350900D01*
X70892297Y-63505772D01*
X70925000Y-63670184D01*
X70925000Y-63837816D01*
X70892297Y-64002228D01*
X70828147Y-64157100D01*
X70735015Y-64296481D01*
X70616481Y-64415015D01*
X70477100Y-64508147D01*
X70322228Y-64572297D01*
X70157816Y-64605000D01*
X69990184Y-64605000D01*
X69825772Y-64572297D01*
X69670900Y-64508147D01*
X69531519Y-64415015D01*
X69412985Y-64296481D01*
X69319853Y-64157100D01*
X69255703Y-64002228D01*
X69223000Y-63837816D01*
X69223000Y-63670184D01*
X69255703Y-63505772D01*
X69319853Y-63350900D01*
X69412985Y-63211519D01*
X69531519Y-63092985D01*
X69670900Y-62999853D01*
X69825772Y-62935703D01*
X69990184Y-62903000D01*
X70157816Y-62903000D01*
X70322228Y-62935703D01*
G37*
G36*
X78037000Y-64605000D02*
G01*
X76335000Y-64605000D01*
X76335000Y-62903000D01*
X78037000Y-62903000D01*
X78037000Y-64605000D01*
G37*
G36*
X52155000Y-63077000D02*
G01*
X49953000Y-63077000D01*
X49953000Y-60875000D01*
X52155000Y-60875000D01*
X52155000Y-63077000D01*
G37*
G36*
X118348017Y-60693358D02*
G01*
X118422270Y-60724115D01*
X118496521Y-60754870D01*
X118496522Y-60754871D01*
X118630167Y-60844169D01*
X118743831Y-60957833D01*
X118810805Y-61058067D01*
X118833130Y-61091479D01*
X118894642Y-61239983D01*
X118926000Y-61397630D01*
X118926000Y-61558370D01*
X118894642Y-61716017D01*
X118833130Y-61864521D01*
X118833129Y-61864522D01*
X118743831Y-61998167D01*
X118630167Y-62111831D01*
X118529933Y-62178804D01*
X118496521Y-62201130D01*
X118348017Y-62262642D01*
X118190370Y-62294000D01*
X118029630Y-62294000D01*
X117871983Y-62262642D01*
X117797730Y-62231885D01*
X117723479Y-62201130D01*
X117690067Y-62178805D01*
X117589833Y-62111831D01*
X117476169Y-61998167D01*
X117386871Y-61864522D01*
X117386870Y-61864521D01*
X117325358Y-61716017D01*
X117294000Y-61558370D01*
X117294000Y-61397630D01*
X117325358Y-61239983D01*
X117386870Y-61091479D01*
X117409195Y-61058067D01*
X117476169Y-60957833D01*
X117589833Y-60844169D01*
X117723478Y-60754871D01*
X117723479Y-60754870D01*
X117797730Y-60724115D01*
X117871983Y-60693358D01*
X118029630Y-60662000D01*
X118190370Y-60662000D01*
X118348017Y-60693358D01*
G37*
G36*
X92948017Y-60693358D02*
G01*
X93022270Y-60724115D01*
X93096521Y-60754870D01*
X93096522Y-60754871D01*
X93230167Y-60844169D01*
X93343831Y-60957833D01*
X93410805Y-61058067D01*
X93433130Y-61091479D01*
X93494642Y-61239983D01*
X93526000Y-61397630D01*
X93526000Y-61558370D01*
X93494642Y-61716017D01*
X93433130Y-61864521D01*
X93433129Y-61864522D01*
X93343831Y-61998167D01*
X93230167Y-62111831D01*
X93129933Y-62178804D01*
X93096521Y-62201130D01*
X93022270Y-62231885D01*
X92948017Y-62262642D01*
X92790370Y-62294000D01*
X92629630Y-62294000D01*
X92471983Y-62262642D01*
X92397730Y-62231885D01*
X92323479Y-62201130D01*
X92290067Y-62178805D01*
X92189833Y-62111831D01*
X92076169Y-61998167D01*
X91986871Y-61864522D01*
X91986870Y-61864521D01*
X91956115Y-61790270D01*
X91925358Y-61716017D01*
X91894000Y-61558370D01*
X91894000Y-61397630D01*
X91925358Y-61239983D01*
X91986870Y-61091479D01*
X92009195Y-61058067D01*
X92076169Y-60957833D01*
X92189833Y-60844169D01*
X92323478Y-60754871D01*
X92323479Y-60754870D01*
X92397730Y-60724115D01*
X92471983Y-60693358D01*
X92629630Y-60662000D01*
X92790370Y-60662000D01*
X92948017Y-60693358D01*
G37*
G36*
X118348017Y-58153358D02*
G01*
X118422270Y-58184115D01*
X118496521Y-58214870D01*
X118496522Y-58214871D01*
X118630167Y-58304169D01*
X118743831Y-58417833D01*
X118810804Y-58518067D01*
X118833130Y-58551479D01*
X118863885Y-58625730D01*
X118894642Y-58699983D01*
X118926000Y-58857630D01*
X118926000Y-59018370D01*
X118894642Y-59176017D01*
X118833130Y-59324521D01*
X118833129Y-59324522D01*
X118743831Y-59458167D01*
X118630167Y-59571831D01*
X118529933Y-59638804D01*
X118496521Y-59661130D01*
X118422270Y-59691885D01*
X118348017Y-59722642D01*
X118190370Y-59754000D01*
X118029630Y-59754000D01*
X117871983Y-59722642D01*
X117797730Y-59691885D01*
X117723479Y-59661130D01*
X117690067Y-59638805D01*
X117589833Y-59571831D01*
X117476169Y-59458167D01*
X117386871Y-59324522D01*
X117386870Y-59324521D01*
X117356115Y-59250270D01*
X117325358Y-59176017D01*
X117294000Y-59018370D01*
X117294000Y-58857630D01*
X117325358Y-58699983D01*
X117386870Y-58551479D01*
X117409196Y-58518067D01*
X117476169Y-58417833D01*
X117589833Y-58304169D01*
X117723478Y-58214871D01*
X117723479Y-58214870D01*
X117797730Y-58184115D01*
X117871983Y-58153358D01*
X118029630Y-58122000D01*
X118190370Y-58122000D01*
X118348017Y-58153358D01*
G37*
G36*
X92948017Y-58153358D02*
G01*
X93022270Y-58184115D01*
X93096521Y-58214870D01*
X93096522Y-58214871D01*
X93230167Y-58304169D01*
X93343831Y-58417833D01*
X93410804Y-58518067D01*
X93433130Y-58551479D01*
X93463885Y-58625730D01*
X93494642Y-58699983D01*
X93526000Y-58857630D01*
X93526000Y-59018370D01*
X93494642Y-59176017D01*
X93463885Y-59250270D01*
X93433130Y-59324521D01*
X93433129Y-59324522D01*
X93343831Y-59458167D01*
X93230167Y-59571831D01*
X93129933Y-59638804D01*
X93096521Y-59661130D01*
X93022270Y-59691885D01*
X92948017Y-59722642D01*
X92790370Y-59754000D01*
X92629630Y-59754000D01*
X92471983Y-59722642D01*
X92397730Y-59691885D01*
X92323479Y-59661130D01*
X92290067Y-59638805D01*
X92189833Y-59571831D01*
X92076169Y-59458167D01*
X91986871Y-59324522D01*
X91986870Y-59324521D01*
X91956115Y-59250270D01*
X91925358Y-59176017D01*
X91894000Y-59018370D01*
X91894000Y-58857630D01*
X91925358Y-58699983D01*
X91956115Y-58625730D01*
X91986870Y-58551479D01*
X92009196Y-58518067D01*
X92076169Y-58417833D01*
X92189833Y-58304169D01*
X92323478Y-58214871D01*
X92323479Y-58214870D01*
X92397730Y-58184115D01*
X92471983Y-58153358D01*
X92629630Y-58122000D01*
X92790370Y-58122000D01*
X92948017Y-58153358D01*
G37*
G36*
X60192228Y-56585703D02*
G01*
X60347100Y-56649853D01*
X60486481Y-56742985D01*
X60605015Y-56861519D01*
X60698147Y-57000900D01*
X60762297Y-57155772D01*
X60795000Y-57320184D01*
X60795000Y-57487816D01*
X60762297Y-57652228D01*
X60698147Y-57807100D01*
X60605015Y-57946481D01*
X60486481Y-58065015D01*
X60347100Y-58158147D01*
X60192228Y-58222297D01*
X60027816Y-58255000D01*
X59860184Y-58255000D01*
X59695772Y-58222297D01*
X59540900Y-58158147D01*
X59401519Y-58065015D01*
X59282985Y-57946481D01*
X59189853Y-57807100D01*
X59125703Y-57652228D01*
X59093000Y-57487816D01*
X59093000Y-57320184D01*
X59125703Y-57155772D01*
X59189853Y-57000900D01*
X59282985Y-56861519D01*
X59401519Y-56742985D01*
X59540900Y-56649853D01*
X59695772Y-56585703D01*
X59860184Y-56553000D01*
X60027816Y-56553000D01*
X60192228Y-56585703D01*
G37*
G36*
X85084228Y-56585703D02*
G01*
X85239100Y-56649853D01*
X85378481Y-56742985D01*
X85497015Y-56861519D01*
X85590147Y-57000900D01*
X85654297Y-57155772D01*
X85687000Y-57320184D01*
X85687000Y-57487816D01*
X85654297Y-57652228D01*
X85590147Y-57807100D01*
X85497015Y-57946481D01*
X85378481Y-58065015D01*
X85239100Y-58158147D01*
X85084228Y-58222297D01*
X84919816Y-58255000D01*
X84752184Y-58255000D01*
X84587772Y-58222297D01*
X84432900Y-58158147D01*
X84293519Y-58065015D01*
X84174985Y-57946481D01*
X84081853Y-57807100D01*
X84017703Y-57652228D01*
X83985000Y-57487816D01*
X83985000Y-57320184D01*
X84017703Y-57155772D01*
X84081853Y-57000900D01*
X84174985Y-56861519D01*
X84293519Y-56742985D01*
X84432900Y-56649853D01*
X84587772Y-56585703D01*
X84752184Y-56553000D01*
X84919816Y-56553000D01*
X85084228Y-56585703D01*
G37*
G36*
X74924228Y-56585703D02*
G01*
X75079100Y-56649853D01*
X75218481Y-56742985D01*
X75337015Y-56861519D01*
X75430147Y-57000900D01*
X75494297Y-57155772D01*
X75527000Y-57320184D01*
X75527000Y-57487816D01*
X75494297Y-57652228D01*
X75430147Y-57807100D01*
X75337015Y-57946481D01*
X75218481Y-58065015D01*
X75079100Y-58158147D01*
X74924228Y-58222297D01*
X74759816Y-58255000D01*
X74592184Y-58255000D01*
X74427772Y-58222297D01*
X74272900Y-58158147D01*
X74133519Y-58065015D01*
X74014985Y-57946481D01*
X73921853Y-57807100D01*
X73857703Y-57652228D01*
X73825000Y-57487816D01*
X73825000Y-57320184D01*
X73857703Y-57155772D01*
X73921853Y-57000900D01*
X74014985Y-56861519D01*
X74133519Y-56742985D01*
X74272900Y-56649853D01*
X74427772Y-56585703D01*
X74592184Y-56553000D01*
X74759816Y-56553000D01*
X74924228Y-56585703D01*
G37*
G36*
X70352228Y-56585703D02*
G01*
X70507100Y-56649853D01*
X70646481Y-56742985D01*
X70765015Y-56861519D01*
X70858147Y-57000900D01*
X70922297Y-57155772D01*
X70955000Y-57320184D01*
X70955000Y-57487816D01*
X70922297Y-57652228D01*
X70858147Y-57807100D01*
X70765015Y-57946481D01*
X70646481Y-58065015D01*
X70507100Y-58158147D01*
X70352228Y-58222297D01*
X70187816Y-58255000D01*
X70020184Y-58255000D01*
X69855772Y-58222297D01*
X69700900Y-58158147D01*
X69561519Y-58065015D01*
X69442985Y-57946481D01*
X69349853Y-57807100D01*
X69285703Y-57652228D01*
X69253000Y-57487816D01*
X69253000Y-57320184D01*
X69285703Y-57155772D01*
X69349853Y-57000900D01*
X69442985Y-56861519D01*
X69561519Y-56742985D01*
X69700900Y-56649853D01*
X69855772Y-56585703D01*
X70020184Y-56553000D01*
X70187816Y-56553000D01*
X70352228Y-56585703D01*
G37*
G36*
X51268795Y-55896156D02*
G01*
X51375150Y-55917311D01*
X51475334Y-55958809D01*
X51575520Y-56000307D01*
X51755844Y-56120795D01*
X51909205Y-56274156D01*
X52029693Y-56454480D01*
X52070501Y-56553000D01*
X52110619Y-56649852D01*
X52112689Y-56654851D01*
X52153799Y-56861520D01*
X52155000Y-56867561D01*
X52155000Y-57084439D01*
X52112689Y-57297150D01*
X52071191Y-57397334D01*
X52029693Y-57497520D01*
X51909205Y-57677844D01*
X51755844Y-57831205D01*
X51575520Y-57951693D01*
X51375150Y-58034689D01*
X51268795Y-58055844D01*
X51162440Y-58077000D01*
X50945560Y-58077000D01*
X50839205Y-58055844D01*
X50732850Y-58034689D01*
X50532480Y-57951693D01*
X50352156Y-57831205D01*
X50198795Y-57677844D01*
X50078307Y-57497520D01*
X50036809Y-57397334D01*
X49995311Y-57297150D01*
X49953000Y-57084439D01*
X49953000Y-56867561D01*
X49954202Y-56861520D01*
X49995311Y-56654851D01*
X49997382Y-56649852D01*
X50037499Y-56553000D01*
X50078307Y-56454480D01*
X50198795Y-56274156D01*
X50352156Y-56120795D01*
X50532480Y-56000307D01*
X50632666Y-55958809D01*
X50732850Y-55917311D01*
X50839205Y-55896156D01*
X50945560Y-55875000D01*
X51162440Y-55875000D01*
X51268795Y-55896156D01*
G37*
G36*
X118348017Y-55613358D02*
G01*
X118422270Y-55644115D01*
X118496521Y-55674870D01*
X118496522Y-55674871D01*
X118630167Y-55764169D01*
X118743831Y-55877833D01*
X118770209Y-55917311D01*
X118833130Y-56011479D01*
X118863885Y-56085730D01*
X118894642Y-56159983D01*
X118926000Y-56317630D01*
X118926000Y-56478370D01*
X118894642Y-56636017D01*
X118833130Y-56784521D01*
X118833129Y-56784522D01*
X118743831Y-56918167D01*
X118630167Y-57031831D01*
X118551433Y-57084439D01*
X118496521Y-57121130D01*
X118422270Y-57151885D01*
X118348017Y-57182642D01*
X118190370Y-57214000D01*
X118029630Y-57214000D01*
X117871983Y-57182642D01*
X117797730Y-57151885D01*
X117723479Y-57121130D01*
X117668567Y-57084439D01*
X117589833Y-57031831D01*
X117476169Y-56918167D01*
X117386871Y-56784522D01*
X117386870Y-56784521D01*
X117325358Y-56636017D01*
X117294000Y-56478370D01*
X117294000Y-56317630D01*
X117325358Y-56159983D01*
X117356115Y-56085730D01*
X117386870Y-56011479D01*
X117449791Y-55917311D01*
X117476169Y-55877833D01*
X117589833Y-55764169D01*
X117723478Y-55674871D01*
X117723479Y-55674870D01*
X117797730Y-55644115D01*
X117871983Y-55613358D01*
X118029630Y-55582000D01*
X118190370Y-55582000D01*
X118348017Y-55613358D01*
G37*
G36*
X92948017Y-55613358D02*
G01*
X93022270Y-55644115D01*
X93096521Y-55674870D01*
X93096522Y-55674871D01*
X93230167Y-55764169D01*
X93343831Y-55877833D01*
X93370209Y-55917311D01*
X93433130Y-56011479D01*
X93463885Y-56085730D01*
X93494642Y-56159983D01*
X93526000Y-56317630D01*
X93526000Y-56478370D01*
X93494642Y-56636017D01*
X93433130Y-56784521D01*
X93433129Y-56784522D01*
X93343831Y-56918167D01*
X93230167Y-57031831D01*
X93151433Y-57084439D01*
X93096521Y-57121130D01*
X93022270Y-57151885D01*
X92948017Y-57182642D01*
X92790370Y-57214000D01*
X92629630Y-57214000D01*
X92471983Y-57182642D01*
X92397730Y-57151885D01*
X92323479Y-57121130D01*
X92268567Y-57084439D01*
X92189833Y-57031831D01*
X92076169Y-56918167D01*
X91986871Y-56784522D01*
X91986870Y-56784521D01*
X91925358Y-56636017D01*
X91894000Y-56478370D01*
X91894000Y-56317630D01*
X91925358Y-56159983D01*
X91956115Y-56085730D01*
X91986870Y-56011479D01*
X92049791Y-55917311D01*
X92076169Y-55877833D01*
X92189833Y-55764169D01*
X92323478Y-55674871D01*
X92323479Y-55674870D01*
X92397730Y-55644115D01*
X92471983Y-55613358D01*
X92629630Y-55582000D01*
X92790370Y-55582000D01*
X92948017Y-55613358D01*
G37*
G36*
X118348017Y-53073358D02*
G01*
X118422270Y-53104115D01*
X118496521Y-53134870D01*
X118496522Y-53134871D01*
X118630167Y-53224169D01*
X118743831Y-53337833D01*
X118810805Y-53438067D01*
X118833130Y-53471479D01*
X118863885Y-53545730D01*
X118894642Y-53619983D01*
X118926000Y-53777630D01*
X118926000Y-53938370D01*
X118894642Y-54096017D01*
X118863885Y-54170270D01*
X118833130Y-54244521D01*
X118833129Y-54244522D01*
X118743831Y-54378167D01*
X118630167Y-54491831D01*
X118529933Y-54558804D01*
X118496521Y-54581130D01*
X118422270Y-54611885D01*
X118348017Y-54642642D01*
X118190370Y-54674000D01*
X118029630Y-54674000D01*
X117871983Y-54642642D01*
X117797730Y-54611885D01*
X117723479Y-54581130D01*
X117690067Y-54558804D01*
X117589833Y-54491831D01*
X117476169Y-54378167D01*
X117386871Y-54244522D01*
X117386870Y-54244521D01*
X117356115Y-54170270D01*
X117325358Y-54096017D01*
X117294000Y-53938370D01*
X117294000Y-53777630D01*
X117325358Y-53619983D01*
X117356115Y-53545730D01*
X117386870Y-53471479D01*
X117409195Y-53438067D01*
X117476169Y-53337833D01*
X117589833Y-53224169D01*
X117723478Y-53134871D01*
X117723479Y-53134870D01*
X117871983Y-53073358D01*
X118029630Y-53042000D01*
X118190370Y-53042000D01*
X118348017Y-53073358D01*
G37*
G36*
X92948017Y-53073358D02*
G01*
X93022270Y-53104115D01*
X93096521Y-53134870D01*
X93096522Y-53134871D01*
X93230167Y-53224169D01*
X93343831Y-53337833D01*
X93410805Y-53438067D01*
X93433130Y-53471479D01*
X93463885Y-53545730D01*
X93494642Y-53619983D01*
X93526000Y-53777630D01*
X93526000Y-53938370D01*
X93494642Y-54096017D01*
X93463885Y-54170270D01*
X93433130Y-54244521D01*
X93433129Y-54244522D01*
X93343831Y-54378167D01*
X93230167Y-54491831D01*
X93129933Y-54558804D01*
X93096521Y-54581130D01*
X93022270Y-54611885D01*
X92948017Y-54642642D01*
X92790370Y-54674000D01*
X92629630Y-54674000D01*
X92471983Y-54642642D01*
X92397730Y-54611885D01*
X92323479Y-54581130D01*
X92290067Y-54558804D01*
X92189833Y-54491831D01*
X92076169Y-54378167D01*
X91986871Y-54244522D01*
X91986870Y-54244521D01*
X91956115Y-54170270D01*
X91925358Y-54096017D01*
X91894000Y-53938370D01*
X91894000Y-53777630D01*
X91925358Y-53619983D01*
X91956115Y-53545730D01*
X91986870Y-53471479D01*
X92009195Y-53438067D01*
X92076169Y-53337833D01*
X92189833Y-53224169D01*
X92323478Y-53134871D01*
X92323479Y-53134870D01*
X92471983Y-53073358D01*
X92629630Y-53042000D01*
X92790370Y-53042000D01*
X92948017Y-53073358D01*
G37*
G36*
X51268795Y-50896156D02*
G01*
X51375150Y-50917311D01*
X51409354Y-50931479D01*
X51575520Y-51000307D01*
X51755844Y-51120795D01*
X51909205Y-51274156D01*
X52029693Y-51454480D01*
X52029693Y-51454481D01*
X52088512Y-51596481D01*
X52112689Y-51654851D01*
X52155000Y-51867560D01*
X52155000Y-52084440D01*
X52112689Y-52297149D01*
X52029693Y-52497520D01*
X51909205Y-52677844D01*
X51755844Y-52831205D01*
X51575520Y-52951693D01*
X51475334Y-52993191D01*
X51375150Y-53034689D01*
X51338395Y-53042000D01*
X51162440Y-53077000D01*
X50945560Y-53077000D01*
X50769605Y-53042000D01*
X50732850Y-53034689D01*
X50632666Y-52993191D01*
X50532480Y-52951693D01*
X50352156Y-52831205D01*
X50198795Y-52677844D01*
X50078307Y-52497520D01*
X49995311Y-52297149D01*
X49953000Y-52084440D01*
X49953000Y-51867560D01*
X49995311Y-51654851D01*
X50019489Y-51596481D01*
X50078307Y-51454481D01*
X50078307Y-51454480D01*
X50198795Y-51274156D01*
X50352156Y-51120795D01*
X50532480Y-51000307D01*
X50698646Y-50931479D01*
X50732850Y-50917311D01*
X50839205Y-50896156D01*
X50945560Y-50875000D01*
X51162440Y-50875000D01*
X51268795Y-50896156D01*
G37*
G36*
X118348017Y-50533358D02*
G01*
X118422270Y-50564115D01*
X118496521Y-50594870D01*
X118496522Y-50594871D01*
X118630167Y-50684169D01*
X118743831Y-50797833D01*
X118795392Y-50875000D01*
X118833130Y-50931479D01*
X118849162Y-50970184D01*
X118894642Y-51079983D01*
X118926000Y-51237630D01*
X118926000Y-51398370D01*
X118894642Y-51556017D01*
X118877881Y-51596481D01*
X118833130Y-51704521D01*
X118833129Y-51704522D01*
X118743831Y-51838167D01*
X118630167Y-51951831D01*
X118529933Y-52018804D01*
X118496521Y-52041130D01*
X118422270Y-52071885D01*
X118348017Y-52102642D01*
X118190370Y-52134000D01*
X118029630Y-52134000D01*
X117871983Y-52102642D01*
X117797730Y-52071885D01*
X117723479Y-52041130D01*
X117690067Y-52018805D01*
X117589833Y-51951831D01*
X117476169Y-51838167D01*
X117386871Y-51704522D01*
X117386870Y-51704521D01*
X117342119Y-51596481D01*
X117325358Y-51556017D01*
X117294000Y-51398370D01*
X117294000Y-51237630D01*
X117325358Y-51079983D01*
X117370838Y-50970184D01*
X117386870Y-50931479D01*
X117424608Y-50875000D01*
X117476169Y-50797833D01*
X117589833Y-50684169D01*
X117723478Y-50594871D01*
X117723479Y-50594870D01*
X117797730Y-50564115D01*
X117871983Y-50533358D01*
X118029630Y-50502000D01*
X118190370Y-50502000D01*
X118348017Y-50533358D01*
G37*
G36*
X93526000Y-52134000D02*
G01*
X91894000Y-52134000D01*
X91894000Y-50502000D01*
X93526000Y-50502000D01*
X93526000Y-52134000D01*
G37*
G36*
X85054228Y-50235703D02*
G01*
X85209100Y-50299853D01*
X85348481Y-50392985D01*
X85467015Y-50511519D01*
X85560147Y-50650900D01*
X85624297Y-50805772D01*
X85657000Y-50970184D01*
X85657000Y-51137816D01*
X85624297Y-51302228D01*
X85560147Y-51457100D01*
X85467015Y-51596481D01*
X85348481Y-51715015D01*
X85209100Y-51808147D01*
X85054228Y-51872297D01*
X84889816Y-51905000D01*
X84722184Y-51905000D01*
X84557772Y-51872297D01*
X84402900Y-51808147D01*
X84263519Y-51715015D01*
X84144985Y-51596481D01*
X84051853Y-51457100D01*
X83987703Y-51302228D01*
X83955000Y-51137816D01*
X83955000Y-50970184D01*
X83987703Y-50805772D01*
X84051853Y-50650900D01*
X84144985Y-50511519D01*
X84263519Y-50392985D01*
X84402900Y-50299853D01*
X84557772Y-50235703D01*
X84722184Y-50203000D01*
X84889816Y-50203000D01*
X85054228Y-50235703D01*
G37*
G36*
X77434228Y-50235703D02*
G01*
X77589100Y-50299853D01*
X77728481Y-50392985D01*
X77847015Y-50511519D01*
X77940147Y-50650900D01*
X78004297Y-50805772D01*
X78037000Y-50970184D01*
X78037000Y-51137816D01*
X78004297Y-51302228D01*
X77940147Y-51457100D01*
X77847015Y-51596481D01*
X77728481Y-51715015D01*
X77589100Y-51808147D01*
X77434228Y-51872297D01*
X77269816Y-51905000D01*
X77102184Y-51905000D01*
X76937772Y-51872297D01*
X76782900Y-51808147D01*
X76643519Y-51715015D01*
X76524985Y-51596481D01*
X76431853Y-51457100D01*
X76367703Y-51302228D01*
X76335000Y-51137816D01*
X76335000Y-50970184D01*
X76367703Y-50805772D01*
X76431853Y-50650900D01*
X76524985Y-50511519D01*
X76643519Y-50392985D01*
X76782900Y-50299853D01*
X76937772Y-50235703D01*
X77102184Y-50203000D01*
X77269816Y-50203000D01*
X77434228Y-50235703D01*
G37*
G36*
X70322228Y-50235703D02*
G01*
X70477100Y-50299853D01*
X70616481Y-50392985D01*
X70735015Y-50511519D01*
X70828147Y-50650900D01*
X70892297Y-50805772D01*
X70925000Y-50970184D01*
X70925000Y-51137816D01*
X70892297Y-51302228D01*
X70828147Y-51457100D01*
X70735015Y-51596481D01*
X70616481Y-51715015D01*
X70477100Y-51808147D01*
X70322228Y-51872297D01*
X70157816Y-51905000D01*
X69990184Y-51905000D01*
X69825772Y-51872297D01*
X69670900Y-51808147D01*
X69531519Y-51715015D01*
X69412985Y-51596481D01*
X69319853Y-51457100D01*
X69255703Y-51302228D01*
X69223000Y-51137816D01*
X69223000Y-50970184D01*
X69255703Y-50805772D01*
X69319853Y-50650900D01*
X69412985Y-50511519D01*
X69531519Y-50392985D01*
X69670900Y-50299853D01*
X69825772Y-50235703D01*
X69990184Y-50203000D01*
X70157816Y-50203000D01*
X70322228Y-50235703D01*
G37*
G36*
X62702228Y-50235703D02*
G01*
X62857100Y-50299853D01*
X62996481Y-50392985D01*
X63115015Y-50511519D01*
X63208147Y-50650900D01*
X63272297Y-50805772D01*
X63305000Y-50970184D01*
X63305000Y-51137816D01*
X63272297Y-51302228D01*
X63208147Y-51457100D01*
X63115015Y-51596481D01*
X62996481Y-51715015D01*
X62857100Y-51808147D01*
X62702228Y-51872297D01*
X62537816Y-51905000D01*
X62370184Y-51905000D01*
X62205772Y-51872297D01*
X62050900Y-51808147D01*
X61911519Y-51715015D01*
X61792985Y-51596481D01*
X61699853Y-51457100D01*
X61635703Y-51302228D01*
X61603000Y-51137816D01*
X61603000Y-50970184D01*
X61635703Y-50805772D01*
X61699853Y-50650900D01*
X61792985Y-50511519D01*
X61911519Y-50392985D01*
X62050900Y-50299853D01*
X62205772Y-50235703D01*
X62370184Y-50203000D01*
X62537816Y-50203000D01*
X62702228Y-50235703D01*
G37*
G36*
X78037000Y-49365000D02*
G01*
X76335000Y-49365000D01*
X76335000Y-47663000D01*
X78037000Y-47663000D01*
X78037000Y-49365000D01*
G37*
G36*
X85054228Y-47695703D02*
G01*
X85209100Y-47759853D01*
X85348481Y-47852985D01*
X85467015Y-47971519D01*
X85560147Y-48110900D01*
X85624297Y-48265772D01*
X85657000Y-48430184D01*
X85657000Y-48597816D01*
X85624297Y-48762228D01*
X85560147Y-48917100D01*
X85467015Y-49056481D01*
X85348481Y-49175015D01*
X85209100Y-49268147D01*
X85054228Y-49332297D01*
X84889816Y-49365000D01*
X84722184Y-49365000D01*
X84557772Y-49332297D01*
X84402900Y-49268147D01*
X84263519Y-49175015D01*
X84144985Y-49056481D01*
X84051853Y-48917100D01*
X83987703Y-48762228D01*
X83955000Y-48597816D01*
X83955000Y-48430184D01*
X83987703Y-48265772D01*
X84051853Y-48110900D01*
X84144985Y-47971519D01*
X84263519Y-47852985D01*
X84402900Y-47759853D01*
X84557772Y-47695703D01*
X84722184Y-47663000D01*
X84889816Y-47663000D01*
X85054228Y-47695703D01*
G37*
G36*
X70322228Y-47695703D02*
G01*
X70477100Y-47759853D01*
X70616481Y-47852985D01*
X70735015Y-47971519D01*
X70828147Y-48110900D01*
X70892297Y-48265772D01*
X70925000Y-48430184D01*
X70925000Y-48597816D01*
X70892297Y-48762228D01*
X70828147Y-48917100D01*
X70735015Y-49056481D01*
X70616481Y-49175015D01*
X70477100Y-49268147D01*
X70322228Y-49332297D01*
X70157816Y-49365000D01*
X69990184Y-49365000D01*
X69825772Y-49332297D01*
X69670900Y-49268147D01*
X69531519Y-49175015D01*
X69412985Y-49056481D01*
X69319853Y-48917100D01*
X69255703Y-48762228D01*
X69223000Y-48597816D01*
X69223000Y-48430184D01*
X69255703Y-48265772D01*
X69319853Y-48110900D01*
X69412985Y-47971519D01*
X69531519Y-47852985D01*
X69670900Y-47759853D01*
X69825772Y-47695703D01*
X69990184Y-47663000D01*
X70157816Y-47663000D01*
X70322228Y-47695703D01*
G37*
G36*
X63305000Y-49365000D02*
G01*
X61603000Y-49365000D01*
X61603000Y-47663000D01*
X63305000Y-47663000D01*
X63305000Y-49365000D01*
G37*
G36*
X122222585Y-45722802D02*
G01*
X122372410Y-45752604D01*
X122654674Y-45869521D01*
X122908705Y-46039259D01*
X123124741Y-46255295D01*
X123294479Y-46509326D01*
X123411396Y-46791590D01*
X123441198Y-46941415D01*
X123469648Y-47084440D01*
X123471000Y-47091240D01*
X123471000Y-47396760D01*
X123411396Y-47696410D01*
X123294479Y-47978674D01*
X123124741Y-48232705D01*
X122908705Y-48448741D01*
X122654674Y-48618479D01*
X122372410Y-48735396D01*
X122237516Y-48762228D01*
X122072761Y-48795000D01*
X121767239Y-48795000D01*
X121602484Y-48762228D01*
X121467590Y-48735396D01*
X121185326Y-48618479D01*
X120931295Y-48448741D01*
X120715259Y-48232705D01*
X120545521Y-47978674D01*
X120428604Y-47696410D01*
X120369000Y-47396760D01*
X120369000Y-47091240D01*
X120370353Y-47084440D01*
X120398802Y-46941415D01*
X120428604Y-46791590D01*
X120545521Y-46509326D01*
X120715259Y-46255295D01*
X120931295Y-46039259D01*
X121185326Y-45869521D01*
X121467590Y-45752604D01*
X121617415Y-45722802D01*
X121767239Y-45693000D01*
X122072761Y-45693000D01*
X122222585Y-45722802D01*
G37*
G36*
X51268795Y-45896156D02*
G01*
X51375150Y-45917311D01*
X51475334Y-45958809D01*
X51575520Y-46000307D01*
X51755844Y-46120795D01*
X51909205Y-46274156D01*
X52029693Y-46454480D01*
X52112689Y-46654851D01*
X52155000Y-46867560D01*
X52155000Y-47084440D01*
X52112689Y-47297149D01*
X52029693Y-47497520D01*
X51909205Y-47677844D01*
X51755844Y-47831205D01*
X51575520Y-47951693D01*
X51475334Y-47993191D01*
X51375150Y-48034689D01*
X51268795Y-48055844D01*
X51162440Y-48077000D01*
X50945560Y-48077000D01*
X50839205Y-48055844D01*
X50732850Y-48034689D01*
X50532480Y-47951693D01*
X50352156Y-47831205D01*
X50198795Y-47677844D01*
X50078307Y-47497520D01*
X49995311Y-47297149D01*
X49953000Y-47084440D01*
X49953000Y-46867560D01*
X49995311Y-46654851D01*
X50078307Y-46454480D01*
X50198795Y-46274156D01*
X50352156Y-46120795D01*
X50532480Y-46000307D01*
X50732850Y-45917311D01*
X50839206Y-45896155D01*
X50945560Y-45875000D01*
X51162440Y-45875000D01*
X51268795Y-45896156D01*
G37*
M02*
