  0
SECTION
  2
HEADER
  9
$ACADVER
  1
AC1009
  9
$INSBASE
 10
0.0
 20
0.0
 30
0.0
  9
$EXTMIN
 10
0.0
 20
0.0
 30
0.0
  9
$EXTMAX
 10
0.0
 20
0.0
 30
0.0
  0
ENDSEC
  0
SECTION
  2
TABLES
  0
TABLE
  2
VPORT
 70
0
  0
ENDTAB
  0
TABLE
  2
LTYPE
 70
1
  0
LTYPE
  2
CONTINUOUS
 70
0
  3
Solid line
 72
65
 73
0
 40
0.0
  0
ENDTAB
  0
TABLE
  2
LAYER
 70
1
  0
LAYER
  2
0
 70
64
 62
7
  6
continuous
  0
ENDTAB
  0
TABLE
  2
STYLE
 70
1
  0
STYLE
  2
STANDARD
 70
0
 40
0
 41
1.0
 50
0.0
 71
0
 42
1
 3
ARIAL.TTF
 4

  0
ENDTAB
  0
TABLE
  2
VIEW
 70
0
  0
ENDTAB
  0
ENDSEC
  0
SECTION
  2
BLOCKS
  0
ENDSEC
  0
SECTION
  2
ENTITIES
  0
POLYLINE
  8
0
 62
0
 70
64
 66
1
 10
0.0
 20
0.0
 30
0.0
 71
602
 72
1212
  0
VERTEX
  8
0
 10
26.645945902807334
 20
79.86361303402718
 30
0.0
 70
192
  0
VERTEX
  8
0
 10
25.825793454723318
 20
79.96584493006665
 30
0.0
 70
192
  0
VERTEX
  8
0
 10
26.645945902807334
 20
79.86361303402718
 30
3.0
 70
192
  0
VERTEX
  8
0
 10
25.825793454723318
 20
79.96584493006665
 30
3.0
 70
192
  0
VERTEX
  8
0
 10
25.0
 20
79.99999999999996
 30
0.0
 70
192
  0
VERTEX
  8
0
 10
25.0
 20
79.99999999999996
 30
3.0
 70
192
  0
VERTEX
  8
0
 10
35.0
 20
69.99999999999996
 30
0.0
 70
192
  0
VERTEX
  8
0
 10
34.965844930066694
 20
70.82579345472328
 30
0.0
 70
192
  0
VERTEX
  8
0
 10
35.0
 20
69.99999999999996
 30
3.0
 70
192
  0
VERTEX
  8
0
 10
34.965844930066694
 20
70.82579345472328
 30
3.0
 70
192
  0
VERTEX
  8
0
 10
34.863613034027225
 20
71.6459459028073
 30
0.0
 70
192
  0
VERTEX
  8
0
 10
34.863613034027225
 20
71.6459459028073
 30
3.0
 70
192
  0
VERTEX
  8
0
 10
34.694002659393306
 20
72.45485487140795
 30
0.0
 70
192
  0
VERTEX
  8
0
 10
34.694002659393306
 20
72.45485487140795
 30
3.0
 70
192
  0
VERTEX
  8
0
 10
34.458172417006345
 20
73.2469946920468
 30
0.0
 70
192
  0
VERTEX
  8
0
 10
34.458172417006345
 20
73.2469946920468
 30
3.0
 70
192
  0
VERTEX
  8
0
 10
34.15773326655057
 20
74.01695424652965
 30
0.0
 70
192
  0
VERTEX
  8
0
 10
34.15773326655057
 20
74.01695424652965
 30
3.0
 70
192
  0
VERTEX
  8
0
 10
33.79473751206489
 20
74.75947393037069
 30
0.0
 70
192
  0
VERTEX
  8
0
 10
33.79473751206489
 20
74.75947393037069
 30
3.0
 70
192
  0
VERTEX
  8
0
 10
33.37166478262529
 20
75.46948158122423
 30
0.0
 70
192
  0
VERTEX
  8
0
 10
33.37166478262529
 20
75.46948158122423
 30
3.0
 70
192
  0
VERTEX
  8
0
 10
32.89140509396393
 20
76.14212712689664
 30
0.0
 70
192
  0
VERTEX
  8
0
 10
32.89140509396393
 20
76.14212712689664
 30
3.0
 70
192
  0
VERTEX
  8
0
 10
32.35723910673131
 20
76.77281571625737
 30
0.0
 70
192
  0
VERTEX
  8
0
 10
32.35723910673131
 20
76.77281571625737
 30
3.0
 70
192
  0
VERTEX
  8
0
 10
31.772815716257412
 20
77.35723910673127
 30
0.0
 70
192
  0
VERTEX
  8
0
 10
31.772815716257412
 20
77.35723910673127
 30
3.0
 70
192
  0
VERTEX
  8
0
 10
31.142127126896675
 20
77.8914050939639
 30
0.0
 70
192
  0
VERTEX
  8
0
 10
31.142127126896675
 20
77.8914050939639
 30
3.0
 70
192
  0
VERTEX
  8
0
 10
30.469481581224265
 20
78.37166478262525
 30
0.0
 70
192
  0
VERTEX
  8
0
 10
30.469481581224265
 20
78.37166478262525
 30
3.0
 70
192
  0
VERTEX
  8
0
 10
29.75947393037073
 20
78.79473751206484
 30
0.0
 70
192
  0
VERTEX
  8
0
 10
29.75947393037073
 20
78.79473751206484
 30
3.0
 70
192
  0
VERTEX
  8
0
 10
29.016954246529693
 20
79.15773326655054
 30
0.0
 70
192
  0
VERTEX
  8
0
 10
29.016954246529693
 20
79.15773326655054
 30
3.0
 70
192
  0
VERTEX
  8
0
 10
28.246994692046833
 20
79.45817241700631
 30
0.0
 70
192
  0
VERTEX
  8
0
 10
28.246994692046833
 20
79.45817241700631
 30
3.0
 70
192
  0
VERTEX
  8
0
 10
27.45485487140799
 20
79.69400265939326
 30
0.0
 70
192
  0
VERTEX
  8
0
 10
27.45485487140799
 20
79.69400265939326
 30
3.0
 70
192
  0
VERTEX
  8
0
 10
-25.0
 20
79.99999999999996
 30
0.0
 70
192
  0
VERTEX
  8
0
 10
-25.0
 20
79.99999999999996
 30
3.0
 70
192
  0
VERTEX
  8
0
 10
-34.863613034027225
 20
71.64594590280727
 30
0.0
 70
192
  0
VERTEX
  8
0
 10
-34.9658449300667
 20
70.82579345472325
 30
0.0
 70
192
  0
VERTEX
  8
0
 10
-34.863613034027225
 20
71.64594590280727
 30
3.0
 70
192
  0
VERTEX
  8
0
 10
-34.9658449300667
 20
70.82579345472325
 30
3.0
 70
192
  0
VERTEX
  8
0
 10
-35.0
 20
69.99999999999996
 30
0.0
 70
192
  0
VERTEX
  8
0
 10
-35.0
 20
69.99999999999996
 30
3.0
 70
192
  0
VERTEX
  8
0
 10
-25.82579345472333
 20
79.96584493006665
 30
0.0
 70
192
  0
VERTEX
  8
0
 10
-25.82579345472333
 20
79.96584493006665
 30
3.0
 70
192
  0
VERTEX
  8
0
 10
-26.64594590280734
 20
79.86361303402718
 30
0.0
 70
192
  0
VERTEX
  8
0
 10
-26.64594590280734
 20
79.86361303402718
 30
3.0
 70
192
  0
VERTEX
  8
0
 10
-27.454854871407996
 20
79.69400265939326
 30
0.0
 70
192
  0
VERTEX
  8
0
 10
-27.454854871407996
 20
79.69400265939326
 30
3.0
 70
192
  0
VERTEX
  8
0
 10
-28.24699469204684
 20
79.4581724170063
 30
0.0
 70
192
  0
VERTEX
  8
0
 10
-28.24699469204684
 20
79.4581724170063
 30
3.0
 70
192
  0
VERTEX
  8
0
 10
-29.0169542465297
 20
79.15773326655054
 30
0.0
 70
192
  0
VERTEX
  8
0
 10
-29.0169542465297
 20
79.15773326655054
 30
3.0
 70
192
  0
VERTEX
  8
0
 10
-29.75947393037074
 20
78.79473751206484
 30
0.0
 70
192
  0
VERTEX
  8
0
 10
-29.75947393037074
 20
78.79473751206484
 30
3.0
 70
192
  0
VERTEX
  8
0
 10
-30.469481581224276
 20
78.37166478262525
 30
0.0
 70
192
  0
VERTEX
  8
0
 10
-30.469481581224276
 20
78.37166478262525
 30
3.0
 70
192
  0
VERTEX
  8
0
 10
-31.142127126896685
 20
77.89140509396388
 30
0.0
 70
192
  0
VERTEX
  8
0
 10
-31.142127126896685
 20
77.89140509396388
 30
3.0
 70
192
  0
VERTEX
  8
0
 10
-31.77281571625742
 20
77.35723910673127
 30
0.0
 70
192
  0
VERTEX
  8
0
 10
-31.77281571625742
 20
77.35723910673127
 30
3.0
 70
192
  0
VERTEX
  8
0
 10
-32.35723910673133
 20
76.77281571625736
 30
0.0
 70
192
  0
VERTEX
  8
0
 10
-32.35723910673133
 20
76.77281571625736
 30
3.0
 70
192
  0
VERTEX
  8
0
 10
-32.89140509396395
 20
76.14212712689663
 30
0.0
 70
192
  0
VERTEX
  8
0
 10
-32.89140509396395
 20
76.14212712689663
 30
3.0
 70
192
  0
VERTEX
  8
0
 10
-33.371664782625295
 20
75.46948158122422
 30
0.0
 70
192
  0
VERTEX
  8
0
 10
-33.371664782625295
 20
75.46948158122422
 30
3.0
 70
192
  0
VERTEX
  8
0
 10
-33.7947375120649
 20
74.75947393037067
 30
0.0
 70
192
  0
VERTEX
  8
0
 10
-33.7947375120649
 20
74.75947393037067
 30
3.0
 70
192
  0
VERTEX
  8
0
 10
-34.157733266550586
 20
74.01695424652964
 30
0.0
 70
192
  0
VERTEX
  8
0
 10
-34.157733266550586
 20
74.01695424652964
 30
3.0
 70
192
  0
VERTEX
  8
0
 10
-34.45817241700635
 20
73.24699469204677
 30
0.0
 70
192
  0
VERTEX
  8
0
 10
-34.45817241700635
 20
73.24699469204677
 30
3.0
 70
192
  0
VERTEX
  8
0
 10
-34.69400265939331
 20
72.45485487140792
 30
0.0
 70
192
  0
VERTEX
  8
0
 10
-34.69400265939331
 20
72.45485487140792
 30
3.0
 70
192
  0
VERTEX
  8
0
 10
-35.0
 20
59.999999999999964
 30
3.0
 70
192
  0
VERTEX
  8
0
 10
-35.0
 20
59.999999999999964
 30
0.0
 70
192
  0
VERTEX
  8
0
 10
-34.9679286907743
 20
59.199751528812115
 30
0.0
 70
192
  0
VERTEX
  8
0
 10
-34.9679286907743
 20
59.199751528812115
 30
3.0
 70
192
  0
VERTEX
  8
0
 10
-34.8719204768723
 20
58.40463606085964
 30
0.0
 70
192
  0
VERTEX
  8
0
 10
-34.8719204768723
 20
58.40463606085964
 30
3.0
 70
192
  0
VERTEX
  8
0
 10
-34.71259118011724
 20
57.619753674951106
 30
0.0
 70
192
  0
VERTEX
  8
0
 10
-34.71259118011724
 20
57.619753674951106
 30
3.0
 70
192
  0
VERTEX
  8
0
 10
-19.4251823602345
 20
-4.760492650097711
 30
3.0
 70
192
  0
VERTEX
  8
0
 10
-19.4251823602345
 20
-4.760492650097711
 30
0.0
 70
192
  0
VERTEX
  8
0
 10
0.8581009008780254
 20
-19.981583091534873
 30
3.0
 70
192
  0
VERTEX
  8
0
 10
2.5679841868641424
 20
-19.834451270857375
 30
0.0
 70
192
  0
VERTEX
  8
0
 10
2.5679841868641424
 20
-19.834451270857375
 30
3.0
 70
192
  0
VERTEX
  8
0
 10
4.258958451119923
 20
-19.54127101576646
 30
0.0
 70
192
  0
VERTEX
  8
0
 10
4.258958451119923
 20
-19.54127101576646
 30
3.0
 70
192
  0
VERTEX
  8
0
 10
5.918572421837775
 20
-19.104201121414665
 30
0.0
 70
192
  0
VERTEX
  8
0
 10
5.918572421837775
 20
-19.104201121414665
 30
3.0
 70
192
  0
VERTEX
  8
0
 10
-18.94554280318209
 20
-6.408307724570922
 30
0.0
 70
192
  0
VERTEX
  8
0
 10
-18.94554280318209
 20
-6.408307724570922
 30
3.0
 70
192
  0
VERTEX
  8
0
 10
7.534605744703677
 20
-18.526459895832186
 30
0.0
 70
192
  0
VERTEX
  8
0
 10
7.534605744703677
 20
-18.526459895832186
 30
3.0
 70
192
  0
VERTEX
  8
0
 10
-18.32640017504736
 20
-8.008936048191673
 30
0.0
 70
192
  0
VERTEX
  8
0
 10
-18.32640017504736
 20
-8.008936048191673
 30
3.0
 70
192
  0
VERTEX
  8
0
 10
9.095158965906613
 20
-17.812301462329017
 30
0.0
 70
192
  0
VERTEX
  8
0
 10
9.095158965906613
 20
-17.812301462329017
 30
3.0
 70
192
  0
VERTEX
  8
0
 10
-17.572313453050448
 20
-9.550591599882294
 30
0.0
 70
192
  0
VERTEX
  8
0
 10
-17.572313453050448
 20
-9.550591599882294
 30
3.0
 70
192
  0
VERTEX
  8
0
 10
10.588741152238343
 20
-16.96698443480438
 30
0.0
 70
192
  0
VERTEX
  8
0
 10
10.588741152238343
 20
-16.96698443480438
 30
3.0
 70
192
  0
VERTEX
  8
0
 10
-16.688835257914537
 20
-11.021922596996793
 30
0.0
 70
192
  0
VERTEX
  8
0
 10
-16.688835257914537
 20
-11.021922596996793
 30
3.0
 70
192
  0
VERTEX
  8
0
 10
12.0043545031042
 20
-15.996733196618676
 30
0.0
 70
192
  0
VERTEX
  8
0
 10
12.0043545031042
 20
-15.996733196618676
 30
3.0
 70
192
  0
VERTEX
  8
0
 10
-15.68247096785635
 20
-12.412095082714389
 30
0.0
 70
192
  0
VERTEX
  8
0
 10
-15.68247096785635
 20
-12.412095082714389
 30
3.0
 70
192
  0
VERTEX
  8
0
 10
13.33157533141522
 20
-14.90869206814606
 30
0.0
 70
192
  0
VERTEX
  8
0
 10
13.33157533141522
 20
-14.90869206814606
 30
3.0
 70
192
  0
VERTEX
  8
0
 10
-14.560630817069178
 20
-13.71087270048903
 30
0.0
 70
192
  0
VERTEX
  8
0
 10
-14.560630817069178
 20
-13.71087270048903
 30
3.0
 70
192
  0
VERTEX
  8
0
 10
14.560630817069216
 20
-13.71087270048899
 30
0.0
 70
192
  0
VERTEX
  8
0
 10
14.560630817069216
 20
-13.71087270048899
 30
3.0
 70
192
  0
VERTEX
  8
0
 10
15.682470967856384
 20
-12.412095082714345
 30
0.0
 70
192
  0
VERTEX
  8
0
 10
15.682470967856384
 20
-12.412095082714345
 30
3.0
 70
192
  0
VERTEX
  8
0
 10
-13.33157533141518
 20
-14.908692068146095
 30
0.0
 70
192
  0
VERTEX
  8
0
 10
-13.33157533141518
 20
-14.908692068146095
 30
3.0
 70
192
  0
VERTEX
  8
0
 10
-12.004354503104162
 20
-15.996733196618703
 30
0.0
 70
192
  0
VERTEX
  8
0
 10
16.68883525791457
 20
-11.021922596996749
 30
0.0
 70
192
  0
VERTEX
  8
0
 10
16.68883525791457
 20
-11.021922596996749
 30
3.0
 70
192
  0
VERTEX
  8
0
 10
-12.004354503104162
 20
-15.996733196618703
 30
3.0
 70
192
  0
VERTEX
  8
0
 10
17.572313453050473
 20
-9.550591599882246
 30
0.0
 70
192
  0
VERTEX
  8
0
 10
17.572313453050473
 20
-9.550591599882246
 30
3.0
 70
192
  0
VERTEX
  8
0
 10
-10.588741152238303
 20
-16.966984434804406
 30
0.0
 70
192
  0
VERTEX
  8
0
 10
-10.588741152238303
 20
-16.966984434804406
 30
3.0
 70
192
  0
VERTEX
  8
0
 10
18.326400175047382
 20
-8.008936048191623
 30
0.0
 70
192
  0
VERTEX
  8
0
 10
18.326400175047382
 20
-8.008936048191623
 30
3.0
 70
192
  0
VERTEX
  8
0
 10
-9.095158965906572
 20
-17.812301462329042
 30
0.0
 70
192
  0
VERTEX
  8
0
 10
-9.095158965906572
 20
-17.812301462329042
 30
3.0
 70
192
  0
VERTEX
  8
0
 10
18.945542803182107
 20
-6.408307724570871
 30
0.0
 70
192
  0
VERTEX
  8
0
 10
18.945542803182107
 20
-6.408307724570871
 30
3.0
 70
192
  0
VERTEX
  8
0
 10
-7.534605744703635
 20
-18.526459895832204
 30
0.0
 70
192
  0
VERTEX
  8
0
 10
19.4251823602345
 20
-4.760492650097718
 30
0.0
 70
192
  0
VERTEX
  8
0
 10
19.4251823602345
 20
-4.760492650097718
 30
3.0
 70
192
  0
VERTEX
  8
0
 10
-7.534605744703635
 20
-18.526459895832204
 30
3.0
 70
192
  0
VERTEX
  8
0
 10
-5.91857242183773
 20
-19.10420112141468
 30
0.0
 70
192
  0
VERTEX
  8
0
 10
-5.91857242183773
 20
-19.10420112141468
 30
3.0
 70
192
  0
VERTEX
  8
0
 10
-4.258958451119879
 20
-19.541271015766466
 30
0.0
 70
192
  0
VERTEX
  8
0
 10
-4.258958451119879
 20
-19.541271015766466
 30
3.0
 70
192
  0
VERTEX
  8
0
 10
-2.5679841868640967
 20
-19.83445127085738
 30
0.0
 70
192
  0
VERTEX
  8
0
 10
-2.5679841868640967
 20
-19.83445127085738
 30
3.0
 70
192
  0
VERTEX
  8
0
 10
-0.8581009008779794
 20
-19.981583091534876
 30
0.0
 70
192
  0
VERTEX
  8
0
 10
-0.8581009008779794
 20
-19.981583091534876
 30
3.0
 70
192
  0
VERTEX
  8
0
 10
0.8581009008780254
 20
-19.981583091534873
 30
0.0
 70
192
  0
VERTEX
  8
0
 10
34.71259118011724
 20
57.619753674951106
 30
0.0
 70
192
  0
VERTEX
  8
0
 10
34.71259118011724
 20
57.619753674951106
 30
3.0
 70
192
  0
VERTEX
  8
0
 10
34.8719204768723
 20
58.404636060859644
 30
0.0
 70
192
  0
VERTEX
  8
0
 10
34.8719204768723
 20
58.404636060859644
 30
3.0
 70
192
  0
VERTEX
  8
0
 10
34.9679286907743
 20
59.19975152881212
 30
0.0
 70
192
  0
VERTEX
  8
0
 10
34.9679286907743
 20
59.19975152881212
 30
3.0
 70
192
  0
VERTEX
  8
0
 10
35.0
 20
59.999999999999964
 30
0.0
 70
192
  0
VERTEX
  8
0
 10
35.0
 20
59.999999999999964
 30
3.0
 70
192
  0
VERTEX
  8
0
 10
10.9581416790092
 20
0.9587131702242399
 30
0.0
 70
192
  0
VERTEX
  8
0
 10
11.0
 20
0.0
 30
0.0
 70
192
  0
VERTEX
  8
0
 10
11.0
 20
0.0
 30
3.0
 70
192
  0
VERTEX
  8
0
 10
10.9581416790092
 20
0.9587131702242399
 30
3.0
 70
192
  0
VERTEX
  8
0
 10
10.832885283134289
 20
1.9101299543362336
 30
0.0
 70
192
  0
VERTEX
  8
0
 10
10.832885283134289
 20
1.9101299543362336
 30
3.0
 70
192
  0
VERTEX
  8
0
 10
10.62518408917975
 20
2.847009496127728
 30
0.0
 70
192
  0
VERTEX
  8
0
 10
10.62518408917975
 20
2.847009496127728
 30
3.0
 70
192
  0
VERTEX
  8
0
 10
10.336618828644992
 20
3.762221576582356
 30
0.0
 70
192
  0
VERTEX
  8
0
 10
10.336618828644992
 20
3.762221576582356
 30
3.0
 70
192
  0
VERTEX
  8
0
 10
9.96938565740315
 20
4.648800879147694
 30
0.0
 70
192
  0
VERTEX
  8
0
 10
9.96938565740315
 20
4.648800879147694
 30
3.0
 70
192
  0
VERTEX
  8
0
 10
9.526279441628827
 20
5.499999999999999
 30
0.0
 70
192
  0
VERTEX
  8
0
 10
9.526279441628827
 20
5.499999999999999
 30
3.0
 70
192
  0
VERTEX
  8
0
 10
9.01067248717891
 20
6.3093407998615065
 30
0.0
 70
192
  0
VERTEX
  8
0
 10
9.01067248717891
 20
6.3093407998615065
 30
3.0
 70
192
  0
VERTEX
  8
0
 10
8.426488874308758
 20
7.070663706551931
 30
0.0
 70
192
  0
VERTEX
  8
0
 10
8.426488874308758
 20
7.070663706551931
 30
3.0
 70
192
  0
VERTEX
  8
0
 10
7.778174593052023
 20
7.778174593052022
 30
0.0
 70
192
  0
VERTEX
  8
0
 10
7.778174593052023
 20
7.778174593052022
 30
3.0
 70
192
  0
VERTEX
  8
0
 10
7.070663706551933
 20
8.426488874308758
 30
0.0
 70
192
  0
VERTEX
  8
0
 10
7.070663706551933
 20
8.426488874308758
 30
3.0
 70
192
  0
VERTEX
  8
0
 10
6.309340799861507
 20
9.01067248717891
 30
0.0
 70
192
  0
VERTEX
  8
0
 10
6.309340799861507
 20
9.01067248717891
 30
3.0
 70
192
  0
VERTEX
  8
0
 10
5.500000000000001
 20
9.526279441628825
 30
0.0
 70
192
  0
VERTEX
  8
0
 10
5.500000000000001
 20
9.526279441628825
 30
3.0
 70
192
  0
VERTEX
  8
0
 10
4.648800879147696
 20
9.969385657403148
 30
0.0
 70
192
  0
VERTEX
  8
0
 10
4.648800879147696
 20
9.969385657403148
 30
3.0
 70
192
  0
VERTEX
  8
0
 10
3.7622215765823595
 20
10.336618828644992
 30
0.0
 70
192
  0
VERTEX
  8
0
 10
3.7622215765823595
 20
10.336618828644992
 30
3.0
 70
192
  0
VERTEX
  8
0
 10
2.847009496127733
 20
10.62518408917975
 30
0.0
 70
192
  0
VERTEX
  8
0
 10
2.847009496127733
 20
10.62518408917975
 30
3.0
 70
192
  0
VERTEX
  8
0
 10
1.9101299543362393
 20
10.832885283134289
 30
0.0
 70
192
  0
VERTEX
  8
0
 10
1.9101299543362393
 20
10.832885283134289
 30
3.0
 70
192
  0
VERTEX
  8
0
 10
0.9587131702242467
 20
10.9581416790092
 30
0.0
 70
192
  0
VERTEX
  8
0
 10
0.9587131702242467
 20
10.9581416790092
 30
3.0
 70
192
  0
VERTEX
  8
0
 10
8.001027702057078e-15
 20
11.0
 30
0.0
 70
192
  0
VERTEX
  8
0
 10
8.001027702057078e-15
 20
11.0
 30
3.0
 70
192
  0
VERTEX
  8
0
 10
-0.9587131702242309
 20
10.958141679009202
 30
0.0
 70
192
  0
VERTEX
  8
0
 10
-0.9587131702242309
 20
10.958141679009202
 30
3.0
 70
192
  0
VERTEX
  8
0
 10
-1.9101299543362238
 20
10.83288528313429
 30
0.0
 70
192
  0
VERTEX
  8
0
 10
-1.9101299543362238
 20
10.83288528313429
 30
3.0
 70
192
  0
VERTEX
  8
0
 10
-2.847009496127717
 20
10.625184089179754
 30
0.0
 70
192
  0
VERTEX
  8
0
 10
-2.847009496127717
 20
10.625184089179754
 30
3.0
 70
192
  0
VERTEX
  8
0
 10
-3.7622215765823444
 20
10.336618828644996
 30
0.0
 70
192
  0
VERTEX
  8
0
 10
-3.7622215765823444
 20
10.336618828644996
 30
3.0
 70
192
  0
VERTEX
  8
0
 10
-4.648800879147683
 20
9.969385657403155
 30
0.0
 70
192
  0
VERTEX
  8
0
 10
-4.648800879147683
 20
9.969385657403155
 30
3.0
 70
192
  0
VERTEX
  8
0
 10
-5.499999999999989
 20
9.52627944162883
 30
0.0
 70
192
  0
VERTEX
  8
0
 10
-5.499999999999989
 20
9.52627944162883
 30
3.0
 70
192
  0
VERTEX
  8
0
 10
-6.309340799861496
 20
9.010672487178917
 30
0.0
 70
192
  0
VERTEX
  8
0
 10
-6.309340799861496
 20
9.010672487178917
 30
3.0
 70
192
  0
VERTEX
  8
0
 10
-7.0706637065519224
 20
8.426488874308768
 30
0.0
 70
192
  0
VERTEX
  8
0
 10
-7.0706637065519224
 20
8.426488874308768
 30
3.0
 70
192
  0
VERTEX
  8
0
 10
-7.778174593052011
 20
7.778174593052034
 30
0.0
 70
192
  0
VERTEX
  8
0
 10
-7.778174593052011
 20
7.778174593052034
 30
3.0
 70
192
  0
VERTEX
  8
0
 10
-8.426488874308747
 20
7.0706637065519455
 30
0.0
 70
192
  0
VERTEX
  8
0
 10
-8.426488874308747
 20
7.0706637065519455
 30
3.0
 70
192
  0
VERTEX
  8
0
 10
-9.0106724871789
 20
6.309340799861522
 30
0.0
 70
192
  0
VERTEX
  8
0
 10
-9.0106724871789
 20
6.309340799861522
 30
3.0
 70
192
  0
VERTEX
  8
0
 10
-9.526279441628816
 20
5.500000000000016
 30
0.0
 70
192
  0
VERTEX
  8
0
 10
-9.526279441628816
 20
5.500000000000016
 30
3.0
 70
192
  0
VERTEX
  8
0
 10
-9.96938565740314
 20
4.6488008791477125
 30
0.0
 70
192
  0
VERTEX
  8
0
 10
-9.96938565740314
 20
4.6488008791477125
 30
3.0
 70
192
  0
VERTEX
  8
0
 10
-10.336618828644985
 20
3.762221576582376
 30
0.0
 70
192
  0
VERTEX
  8
0
 10
-10.336618828644985
 20
3.762221576582376
 30
3.0
 70
192
  0
VERTEX
  8
0
 10
-10.625184089179745
 20
2.8470094961277503
 30
0.0
 70
192
  0
VERTEX
  8
0
 10
-10.625184089179745
 20
2.8470094961277503
 30
3.0
 70
192
  0
VERTEX
  8
0
 10
-10.832885283134285
 20
1.910129954336257
 30
0.0
 70
192
  0
VERTEX
  8
0
 10
-10.832885283134285
 20
1.910129954336257
 30
3.0
 70
192
  0
VERTEX
  8
0
 10
-10.958141679009199
 20
0.9587131702242644
 30
0.0
 70
192
  0
VERTEX
  8
0
 10
-10.958141679009199
 20
0.9587131702242644
 30
3.0
 70
192
  0
VERTEX
  8
0
 10
-11.0
 20
2.577201802081553e-14
 30
0.0
 70
192
  0
VERTEX
  8
0
 10
-11.0
 20
2.577201802081553e-14
 30
3.0
 70
192
  0
VERTEX
  8
0
 10
-10.958141679009204
 20
-0.9587131702242131
 30
0.0
 70
192
  0
VERTEX
  8
0
 10
-10.958141679009204
 20
-0.9587131702242131
 30
3.0
 70
192
  0
VERTEX
  8
0
 10
-10.832885283134294
 20
-1.9101299543362062
 30
0.0
 70
192
  0
VERTEX
  8
0
 10
-10.832885283134294
 20
-1.9101299543362062
 30
3.0
 70
192
  0
VERTEX
  8
0
 10
-10.62518408917976
 20
-2.8470094961277
 30
0.0
 70
192
  0
VERTEX
  8
0
 10
-10.62518408917976
 20
-2.8470094961277
 30
3.0
 70
192
  0
VERTEX
  8
0
 10
-10.336618828645003
 20
-3.762221576582328
 30
0.0
 70
192
  0
VERTEX
  8
0
 10
-10.336618828645003
 20
-3.762221576582328
 30
3.0
 70
192
  0
VERTEX
  8
0
 10
-9.969385657403162
 20
-4.648800879147665
 30
0.0
 70
192
  0
VERTEX
  8
0
 10
-9.969385657403162
 20
-4.648800879147665
 30
3.0
 70
192
  0
VERTEX
  8
0
 10
-9.52627944162884
 20
-5.499999999999972
 30
0.0
 70
192
  0
VERTEX
  8
0
 10
-9.52627944162884
 20
-5.499999999999972
 30
3.0
 70
192
  0
VERTEX
  8
0
 10
-9.01067248717893
 20
-6.30934079986148
 30
0.0
 70
192
  0
VERTEX
  8
0
 10
-9.01067248717893
 20
-6.30934079986148
 30
3.0
 70
192
  0
VERTEX
  8
0
 10
-8.426488874308781
 20
-7.0706637065519065
 30
0.0
 70
192
  0
VERTEX
  8
0
 10
-8.426488874308781
 20
-7.0706637065519065
 30
3.0
 70
192
  0
VERTEX
  8
0
 10
-7.778174593052047
 20
-7.778174593051998
 30
0.0
 70
192
  0
VERTEX
  8
0
 10
-7.778174593052047
 20
-7.778174593051998
 30
3.0
 70
192
  0
VERTEX
  8
0
 10
-7.070663706551957
 20
-8.426488874308738
 30
0.0
 70
192
  0
VERTEX
  8
0
 10
-7.070663706551957
 20
-8.426488874308738
 30
3.0
 70
192
  0
VERTEX
  8
0
 10
-6.309340799861535
 20
-9.01067248717889
 30
0.0
 70
192
  0
VERTEX
  8
0
 10
-6.309340799861535
 20
-9.01067248717889
 30
3.0
 70
192
  0
VERTEX
  8
0
 10
-5.500000000000029
 20
-9.526279441628807
 30
0.0
 70
192
  0
VERTEX
  8
0
 10
-5.500000000000029
 20
-9.526279441628807
 30
3.0
 70
192
  0
VERTEX
  8
0
 10
-4.648800879147727
 20
-9.969385657403135
 30
0.0
 70
192
  0
VERTEX
  8
0
 10
-4.648800879147727
 20
-9.969385657403135
 30
3.0
 70
192
  0
VERTEX
  8
0
 10
-3.7622215765823905
 20
-10.33661882864498
 30
0.0
 70
192
  0
VERTEX
  8
0
 10
-3.7622215765823905
 20
-10.33661882864498
 30
3.0
 70
192
  0
VERTEX
  8
0
 10
-2.8470094961277645
 20
-10.625184089179742
 30
0.0
 70
192
  0
VERTEX
  8
0
 10
-2.8470094961277645
 20
-10.625184089179742
 30
3.0
 70
192
  0
VERTEX
  8
0
 10
-1.9101299543362722
 20
-10.832885283134281
 30
0.0
 70
192
  0
VERTEX
  8
0
 10
-1.9101299543362722
 20
-10.832885283134281
 30
3.0
 70
192
  0
VERTEX
  8
0
 10
-0.9587131702242797
 20
-10.958141679009197
 30
0.0
 70
192
  0
VERTEX
  8
0
 10
-0.9587131702242797
 20
-10.958141679009197
 30
3.0
 70
192
  0
VERTEX
  8
0
 10
-4.110051768539864e-14
 20
-11.0
 30
0.0
 70
192
  0
VERTEX
  8
0
 10
-4.110051768539864e-14
 20
-11.0
 30
3.0
 70
192
  0
VERTEX
  8
0
 10
0.9587131702241979
 20
-10.958141679009204
 30
0.0
 70
192
  0
VERTEX
  8
0
 10
0.9587131702241979
 20
-10.958141679009204
 30
3.0
 70
192
  0
VERTEX
  8
0
 10
1.9101299543361911
 20
-10.832885283134297
 30
0.0
 70
192
  0
VERTEX
  8
0
 10
1.9101299543361911
 20
-10.832885283134297
 30
3.0
 70
192
  0
VERTEX
  8
0
 10
2.8470094961276855
 20
-10.625184089179763
 30
0.0
 70
192
  0
VERTEX
  8
0
 10
2.8470094961276855
 20
-10.625184089179763
 30
3.0
 70
192
  0
VERTEX
  8
0
 10
3.7622215765823133
 20
-10.336618828645008
 30
0.0
 70
192
  0
VERTEX
  8
0
 10
3.7622215765823133
 20
-10.336618828645008
 30
3.0
 70
192
  0
VERTEX
  8
0
 10
4.648800879147652
 20
-9.96938565740317
 30
0.0
 70
192
  0
VERTEX
  8
0
 10
4.648800879147652
 20
-9.96938565740317
 30
3.0
 70
192
  0
VERTEX
  8
0
 10
5.499999999999958
 20
-9.52627944162885
 30
0.0
 70
192
  0
VERTEX
  8
0
 10
5.499999999999958
 20
-9.52627944162885
 30
3.0
 70
192
  0
VERTEX
  8
0
 10
6.3093407998614675
 20
-9.010672487178939
 30
0.0
 70
192
  0
VERTEX
  8
0
 10
6.3093407998614675
 20
-9.010672487178939
 30
3.0
 70
192
  0
VERTEX
  8
0
 10
7.070663706551894
 20
-8.426488874308792
 30
0.0
 70
192
  0
VERTEX
  8
0
 10
7.070663706551894
 20
-8.426488874308792
 30
3.0
 70
192
  0
VERTEX
  8
0
 10
7.778174593051987
 20
-7.778174593052059
 30
0.0
 70
192
  0
VERTEX
  8
0
 10
7.778174593051987
 20
-7.778174593052059
 30
3.0
 70
192
  0
VERTEX
  8
0
 10
8.426488874308726
 20
-7.070663706551972
 30
0.0
 70
192
  0
VERTEX
  8
0
 10
8.426488874308726
 20
-7.070663706551972
 30
3.0
 70
192
  0
VERTEX
  8
0
 10
9.01067248717888
 20
-6.30934079986155
 30
0.0
 70
192
  0
VERTEX
  8
0
 10
9.01067248717888
 20
-6.30934079986155
 30
3.0
 70
192
  0
VERTEX
  8
0
 10
9.526279441628798
 20
-5.500000000000048
 30
0.0
 70
192
  0
VERTEX
  8
0
 10
9.526279441628798
 20
-5.500000000000048
 30
3.0
 70
192
  0
VERTEX
  8
0
 10
9.969385657403127
 20
-4.648800879147744
 30
0.0
 70
192
  0
VERTEX
  8
0
 10
9.969385657403127
 20
-4.648800879147744
 30
3.0
 70
192
  0
VERTEX
  8
0
 10
10.336618828644973
 20
-3.7622215765824096
 30
0.0
 70
192
  0
VERTEX
  8
0
 10
10.336618828644973
 20
-3.7622215765824096
 30
3.0
 70
192
  0
VERTEX
  8
0
 10
10.625184089179736
 20
-2.847009496127784
 30
0.0
 70
192
  0
VERTEX
  8
0
 10
10.625184089179736
 20
-2.847009496127784
 30
3.0
 70
192
  0
VERTEX
  8
0
 10
10.832885283134278
 20
-1.910129954336292
 30
0.0
 70
192
  0
VERTEX
  8
0
 10
10.832885283134278
 20
-1.910129954336292
 30
3.0
 70
192
  0
VERTEX
  8
0
 10
10.958141679009197
 20
-0.9587131702242998
 30
0.0
 70
192
  0
VERTEX
  8
0
 10
10.958141679009197
 20
-0.9587131702242998
 30
3.0
 70
192
  0
VERTEX
  8
0
 10
-29.099999999999994
 20
59.99999999999996
 30
3.0
 70
192
  0
VERTEX
  8
0
 10
-29.1
 20
69.99999999999996
 30
0.0
 70
192
  0
VERTEX
  8
0
 10
-29.1
 20
69.99999999999996
 30
3.0
 70
192
  0
VERTEX
  8
0
 10
-29.099999999999994
 20
59.99999999999996
 30
0.0
 70
192
  0
VERTEX
  8
0
 10
-29.08522970302436
 20
70.34770429034954
 30
0.0
 70
192
  0
VERTEX
  8
0
 10
-29.041025232425607
 20
70.69290336331953
 30
3.0
 70
192
  0
VERTEX
  8
0
 10
-29.08522970302436
 20
70.34770429034954
 30
3.0
 70
192
  0
VERTEX
  8
0
 10
-24.4792269390378
 20
74.06679178456135
 30
0.0
 70
192
  0
VERTEX
  8
0
 10
-24.136214993017525
 20
74.00797647968547
 30
0.0
 70
192
  0
VERTEX
  8
0
 10
-24.136214993017525
 20
74.00797647968547
 30
3.0
 70
192
  0
VERTEX
  8
0
 10
-24.4792269390378
 20
74.06679178456135
 30
3.0
 70
192
  0
VERTEX
  8
0
 10
-24.825991066895796
 20
74.09630576143915
 30
0.0
 70
192
  0
VERTEX
  8
0
 10
-24.825991066895796
 20
74.09630576143915
 30
3.0
 70
192
  0
VERTEX
  8
0
 10
-25.17400893310421
 20
74.09630576143915
 30
0.0
 70
192
  0
VERTEX
  8
0
 10
-25.17400893310421
 20
74.09630576143915
 30
3.0
 70
192
  0
VERTEX
  8
0
 10
-20.91477029697564
 20
70.34770429034954
 30
0.0
 70
192
  0
VERTEX
  8
0
 10
-20.9
 20
69.99999999999996
 30
0.0
 70
192
  0
VERTEX
  8
0
 10
-20.9
 20
69.99999999999996
 30
3.0
 70
192
  0
VERTEX
  8
0
 10
-20.91477029697564
 20
70.34770429034954
 30
3.0
 70
192
  0
VERTEX
  8
0
 10
-25.520773060962206
 20
74.06679178456135
 30
0.0
 70
192
  0
VERTEX
  8
0
 10
-25.520773060962206
 20
74.06679178456135
 30
3.0
 70
192
  0
VERTEX
  8
0
 10
-20.958974767574396
 20
70.69290336331954
 30
0.0
 70
192
  0
VERTEX
  8
0
 10
-20.958974767574396
 20
70.69290336331954
 30
3.0
 70
192
  0
VERTEX
  8
0
 10
-25.86378500698248
 20
74.00797647968547
 30
0.0
 70
192
  0
VERTEX
  8
0
 10
-25.86378500698248
 20
74.00797647968547
 30
3.0
 70
192
  0
VERTEX
  8
0
 10
-21.032294917572656
 20
71.03311005167897
 30
0.0
 70
192
  0
VERTEX
  8
0
 10
-21.032294917572656
 20
71.03311005167897
 30
3.0
 70
192
  0
VERTEX
  8
0
 10
-26.200573362233857
 20
73.92028361243088
 30
0.0
 70
192
  0
VERTEX
  8
0
 10
-26.200573362233857
 20
73.92028361243088
 30
3.0
 70
192
  0
VERTEX
  8
0
 10
-21.134202473609555
 20
71.3658731584424
 30
0.0
 70
192
  0
VERTEX
  8
0
 10
-21.134202473609555
 20
71.3658731584424
 30
3.0
 70
192
  0
VERTEX
  8
0
 10
-26.528711558899268
 20
73.80434501191564
 30
0.0
 70
192
  0
VERTEX
  8
0
 10
-26.528711558899268
 20
73.80434501191564
 30
3.0
 70
192
  0
VERTEX
  8
0
 10
-21.263963189408646
 20
71.68879511780032
 30
0.0
 70
192
  0
VERTEX
  8
0
 10
-26.845835353752463
 20
73.66099601841319
 30
0.0
 70
192
  0
VERTEX
  8
0
 10
-26.845835353752463
 20
73.66099601841319
 30
3.0
 70
192
  0
VERTEX
  8
0
 10
-21.263963189408646
 20
71.68879511780032
 30
3.0
 70
192
  0
VERTEX
  8
0
 10
-27.149659862584652
 20
73.49126946470653
 30
0.0
 70
192
  0
VERTEX
  8
0
 10
-27.149659862584652
 20
73.49126946470653
 30
3.0
 70
192
  0
VERTEX
  8
0
 10
-21.42064213603913
 20
71.99954926963586
 30
0.0
 70
192
  0
VERTEX
  8
0
 10
-21.42064213603913
 20
71.99954926963586
 30
3.0
 70
192
  0
VERTEX
  8
0
 10
-27.437996022847578
 20
73.2963882345044
 30
0.0
 70
192
  0
VERTEX
  8
0
 10
-27.437996022847578
 20
73.2963882345044
 30
3.0
 70
192
  0
VERTEX
  8
0
 10
-21.60311043810025
 20
72.2958966231641
 30
0.0
 70
192
  0
VERTEX
  8
0
 10
-21.60311043810025
 20
72.2958966231641
 30
3.0
 70
192
  0
VERTEX
  8
0
 10
-27.708766365899336
 20
73.07775645153612
 30
0.0
 70
192
  0
VERTEX
  8
0
 10
-27.708766365899336
 20
73.07775645153612
 30
3.0
 70
192
  0
VERTEX
  8
0
 10
-21.8100534072944
 20
72.57570198891209
 30
0.0
 70
192
  0
VERTEX
  8
0
 10
-21.8100534072944
 20
72.57570198891209
 30
3.0
 70
192
  0
VERTEX
  8
0
 10
-27.960019985213552
 20
72.8369493628079
 30
0.0
 70
192
  0
VERTEX
  8
0
 10
-27.960019985213552
 20
72.8369493628079
 30
3.0
 70
192
  0
VERTEX
  8
0
 10
-22.03998001478645
 20
72.8369493628079
 30
0.0
 70
192
  0
VERTEX
  8
0
 10
-22.03998001478645
 20
72.8369493628079
 30
3.0
 70
192
  0
VERTEX
  8
0
 10
-28.189946592705606
 20
72.57570198891209
 30
0.0
 70
192
  0
VERTEX
  8
0
 10
-28.189946592705606
 20
72.57570198891209
 30
3.0
 70
192
  0
VERTEX
  8
0
 10
-22.291233634100667
 20
73.07775645153613
 30
0.0
 70
192
  0
VERTEX
  8
0
 10
-22.291233634100667
 20
73.07775645153613
 30
3.0
 70
192
  0
VERTEX
  8
0
 10
-28.396889561899755
 20
72.2958966231641
 30
0.0
 70
192
  0
VERTEX
  8
0
 10
-28.396889561899755
 20
72.2958966231641
 30
3.0
 70
192
  0
VERTEX
  8
0
 10
-22.56200397715243
 20
73.29638823450442
 30
0.0
 70
192
  0
VERTEX
  8
0
 10
-22.56200397715243
 20
73.29638823450442
 30
3.0
 70
192
  0
VERTEX
  8
0
 10
-28.579357863960876
 20
71.99954926963585
 30
0.0
 70
192
  0
VERTEX
  8
0
 10
-22.85034013741535
 20
73.49126946470653
 30
0.0
 70
192
  0
VERTEX
  8
0
 10
-28.579357863960876
 20
71.99954926963585
 30
3.0
 70
192
  0
VERTEX
  8
0
 10
-22.85034013741535
 20
73.49126946470653
 30
3.0
 70
192
  0
VERTEX
  8
0
 10
-28.736036810591358
 20
71.68879511780032
 30
0.0
 70
192
  0
VERTEX
  8
0
 10
-23.15416464624754
 20
73.66099601841319
 30
0.0
 70
192
  0
VERTEX
  8
0
 10
-28.736036810591358
 20
71.68879511780032
 30
3.0
 70
192
  0
VERTEX
  8
0
 10
-23.15416464624754
 20
73.66099601841319
 30
3.0
 70
192
  0
VERTEX
  8
0
 10
-28.86579752639045
 20
71.36587315844238
 30
0.0
 70
192
  0
VERTEX
  8
0
 10
-23.471288441100736
 20
73.80434501191564
 30
0.0
 70
192
  0
VERTEX
  8
0
 10
-28.86579752639045
 20
71.36587315844238
 30
3.0
 70
192
  0
VERTEX
  8
0
 10
-23.471288441100736
 20
73.80434501191564
 30
3.0
 70
192
  0
VERTEX
  8
0
 10
-28.967705082427347
 20
71.03311005167896
 30
0.0
 70
192
  0
VERTEX
  8
0
 10
-23.799426637766146
 20
73.9202836124309
 30
0.0
 70
192
  0
VERTEX
  8
0
 10
-28.967705082427347
 20
71.03311005167896
 30
3.0
 70
192
  0
VERTEX
  8
0
 10
-23.799426637766146
 20
73.9202836124309
 30
3.0
 70
192
  0
VERTEX
  8
0
 10
-29.041025232425607
 20
70.69290336331953
 30
0.0
 70
192
  0
VERTEX
  8
0
 10
-20.9
 20
59.999999999999964
 30
3.0
 70
192
  0
VERTEX
  8
0
 10
-20.9
 20
59.999999999999964
 30
0.0
 70
192
  0
VERTEX
  8
0
 10
-25.3573385452654
 20
55.91560173782381
 30
0.0
 70
192
  0
VERTEX
  8
0
 10
-25.711957528434414
 20
55.962288212649916
 30
0.0
 70
192
  0
VERTEX
  8
0
 10
-25.711957528434414
 20
55.962288212649916
 30
3.0
 70
192
  0
VERTEX
  8
0
 10
-25.3573385452654
 20
55.91560173782381
 30
3.0
 70
192
  0
VERTEX
  8
0
 10
-25.0
 20
55.89999999999997
 30
0.0
 70
192
  0
VERTEX
  8
0
 10
-25.0
 20
55.89999999999997
 30
3.0
 70
192
  0
VERTEX
  8
0
 10
-24.642661454734604
 20
55.91560173782381
 30
0.0
 70
192
  0
VERTEX
  8
0
 10
-24.642661454734604
 20
55.91560173782381
 30
3.0
 70
192
  0
VERTEX
  8
0
 10
-29.08439826217615
 20
59.642661454734565
 30
0.0
 70
192
  0
VERTEX
  8
0
 10
-29.08439826217615
 20
59.642661454734565
 30
3.0
 70
192
  0
VERTEX
  8
0
 10
-24.28804247156559
 20
55.962288212649916
 30
0.0
 70
192
  0
VERTEX
  8
0
 10
-24.28804247156559
 20
55.962288212649916
 30
3.0
 70
192
  0
VERTEX
  8
0
 10
-23.938841915079667
 20
56.039704112214785
 30
0.0
 70
192
  0
VERTEX
  8
0
 10
-23.938841915079667
 20
56.039704112214785
 30
3.0
 70
192
  0
VERTEX
  8
0
 10
-29.037711787350048
 20
59.28804247156555
 30
0.0
 70
192
  0
VERTEX
  8
0
 10
-29.037711787350048
 20
59.28804247156555
 30
3.0
 70
192
  0
VERTEX
  8
0
 10
-28.960295887785172
 20
58.93884191507963
 30
0.0
 70
192
  0
VERTEX
  8
0
 10
-28.960295887785172
 20
58.93884191507963
 30
3.0
 70
192
  0
VERTEX
  8
0
 10
-23.597717412364762
 20
56.14726025477774
 30
0.0
 70
192
  0
VERTEX
  8
0
 10
-23.597717412364762
 20
56.14726025477774
 30
3.0
 70
192
  0
VERTEX
  8
0
 10
-28.852739745222216
 20
58.59771741236472
 30
0.0
 70
192
  0
VERTEX
  8
0
 10
-28.852739745222216
 20
58.59771741236472
 30
3.0
 70
192
  0
VERTEX
  8
0
 10
-23.267265126863137
 20
56.2841380731497
 30
0.0
 70
192
  0
VERTEX
  8
0
 10
-23.267265126863137
 20
56.2841380731497
 30
3.0
 70
192
  0
VERTEX
  8
0
 10
-22.950000000000003
 20
56.449295844483764
 30
0.0
 70
192
  0
VERTEX
  8
0
 10
-22.950000000000003
 20
56.449295844483764
 30
3.0
 70
192
  0
VERTEX
  8
0
 10
-28.71586192685026
 20
58.267265126863094
 30
0.0
 70
192
  0
VERTEX
  8
0
 10
-28.71586192685026
 20
58.267265126863094
 30
3.0
 70
192
  0
VERTEX
  8
0
 10
-22.648336610960715
 20
56.6414766184151
 30
0.0
 70
192
  0
VERTEX
  8
0
 10
-22.648336610960715
 20
56.6414766184151
 30
3.0
 70
192
  0
VERTEX
  8
0
 10
-28.550704155516193
 20
57.94999999999997
 30
0.0
 70
192
  0
VERTEX
  8
0
 10
-28.550704155516193
 20
57.94999999999997
 30
3.0
 70
192
  0
VERTEX
  8
0
 10
-22.364570800285193
 20
56.85921778321215
 30
0.0
 70
192
  0
VERTEX
  8
0
 10
-22.364570800285193
 20
56.85921778321215
 30
3.0
 70
192
  0
VERTEX
  8
0
 10
-28.35852338158486
 20
57.648336610960676
 30
0.0
 70
192
  0
VERTEX
  8
0
 10
-28.35852338158486
 20
57.648336610960676
 30
3.0
 70
192
  0
VERTEX
  8
0
 10
-22.10086219713516
 20
57.100862197135115
 30
0.0
 70
192
  0
VERTEX
  8
0
 10
-22.10086219713516
 20
57.100862197135115
 30
3.0
 70
192
  0
VERTEX
  8
0
 10
-28.140782216787805
 20
57.36457080028516
 30
0.0
 70
192
  0
VERTEX
  8
0
 10
-28.140782216787805
 20
57.36457080028516
 30
3.0
 70
192
  0
VERTEX
  8
0
 10
-21.859217783212195
 20
57.36457080028515
 30
0.0
 70
192
  0
VERTEX
  8
0
 10
-21.859217783212195
 20
57.36457080028515
 30
3.0
 70
192
  0
VERTEX
  8
0
 10
-27.89913780286484
 20
57.10086219713512
 30
0.0
 70
192
  0
VERTEX
  8
0
 10
-27.89913780286484
 20
57.10086219713512
 30
3.0
 70
192
  0
VERTEX
  8
0
 10
-21.641476618415137
 20
57.64833661096067
 30
0.0
 70
192
  0
VERTEX
  8
0
 10
-21.641476618415137
 20
57.64833661096067
 30
3.0
 70
192
  0
VERTEX
  8
0
 10
-27.635429199714807
 20
56.85921778321216
 30
0.0
 70
192
  0
VERTEX
  8
0
 10
-27.635429199714807
 20
56.85921778321216
 30
3.0
 70
192
  0
VERTEX
  8
0
 10
-21.449295844483807
 20
57.94999999999996
 30
0.0
 70
192
  0
VERTEX
  8
0
 10
-21.449295844483807
 20
57.94999999999996
 30
3.0
 70
192
  0
VERTEX
  8
0
 10
-27.351663389039285
 20
56.6414766184151
 30
0.0
 70
192
  0
VERTEX
  8
0
 10
-27.351663389039285
 20
56.6414766184151
 30
3.0
 70
192
  0
VERTEX
  8
0
 10
-21.284138073149737
 20
58.26726512686309
 30
0.0
 70
192
  0
VERTEX
  8
0
 10
-21.284138073149737
 20
58.26726512686309
 30
3.0
 70
192
  0
VERTEX
  8
0
 10
-27.049999999999997
 20
56.44929584448377
 30
0.0
 70
192
  0
VERTEX
  8
0
 10
-27.049999999999997
 20
56.44929584448377
 30
3.0
 70
192
  0
VERTEX
  8
0
 10
-21.147260254777777
 20
58.597717412364716
 30
0.0
 70
192
  0
VERTEX
  8
0
 10
-21.147260254777777
 20
58.597717412364716
 30
3.0
 70
192
  0
VERTEX
  8
0
 10
-26.732734873136867
 20
56.284138073149705
 30
0.0
 70
192
  0
VERTEX
  8
0
 10
-26.732734873136867
 20
56.284138073149705
 30
3.0
 70
192
  0
VERTEX
  8
0
 10
-21.03970411221482
 20
58.93884191507962
 30
0.0
 70
192
  0
VERTEX
  8
0
 10
-21.03970411221482
 20
58.93884191507962
 30
3.0
 70
192
  0
VERTEX
  8
0
 10
-26.40228258763524
 20
56.14726025477774
 30
0.0
 70
192
  0
VERTEX
  8
0
 10
-26.40228258763524
 20
56.14726025477774
 30
3.0
 70
192
  0
VERTEX
  8
0
 10
-20.96228821264995
 20
59.28804247156554
 30
0.0
 70
192
  0
VERTEX
  8
0
 10
-20.96228821264995
 20
59.28804247156554
 30
3.0
 70
192
  0
VERTEX
  8
0
 10
-20.91560173782384
 20
59.64266145473456
 30
0.0
 70
192
  0
VERTEX
  8
0
 10
-26.061158084920333
 20
56.039704112214785
 30
0.0
 70
192
  0
VERTEX
  8
0
 10
-20.91560173782384
 20
59.64266145473456
 30
3.0
 70
192
  0
VERTEX
  8
0
 10
-26.061158084920333
 20
56.039704112214785
 30
3.0
 70
192
  0
VERTEX
  8
0
 10
20.9
 20
59.999999999999964
 30
3.0
 70
192
  0
VERTEX
  8
0
 10
20.9
 20
69.99999999999996
 30
0.0
 70
192
  0
VERTEX
  8
0
 10
20.9
 20
69.99999999999996
 30
3.0
 70
192
  0
VERTEX
  8
0
 10
20.9
 20
59.999999999999964
 30
0.0
 70
192
  0
VERTEX
  8
0
 10
25.3573385452654
 20
74.08439826217611
 30
0.0
 70
192
  0
VERTEX
  8
0
 10
25.711957528434418
 20
74.03771178735
 30
0.0
 70
192
  0
VERTEX
  8
0
 10
25.711957528434418
 20
74.03771178735
 30
3.0
 70
192
  0
VERTEX
  8
0
 10
25.3573385452654
 20
74.08439826217611
 30
3.0
 70
192
  0
VERTEX
  8
0
 10
25.000000000000004
 20
74.09999999999995
 30
0.0
 70
192
  0
VERTEX
  8
0
 10
25.000000000000004
 20
74.09999999999995
 30
3.0
 70
192
  0
VERTEX
  8
0
 10
24.642661454734604
 20
74.08439826217611
 30
0.0
 70
192
  0
VERTEX
  8
0
 10
24.642661454734604
 20
74.08439826217611
 30
3.0
 70
192
  0
VERTEX
  8
0
 10
29.08439826217616
 20
70.35733854526535
 30
0.0
 70
192
  0
VERTEX
  8
0
 10
29.1
 20
69.99999999999996
 30
0.0
 70
192
  0
VERTEX
  8
0
 10
29.1
 20
69.99999999999996
 30
3.0
 70
192
  0
VERTEX
  8
0
 10
29.08439826217616
 20
70.35733854526535
 30
3.0
 70
192
  0
VERTEX
  8
0
 10
24.28804247156559
 20
74.03771178735
 30
0.0
 70
192
  0
VERTEX
  8
0
 10
24.28804247156559
 20
74.03771178735
 30
3.0
 70
192
  0
VERTEX
  8
0
 10
23.93884191507967
 20
73.96029588778514
 30
0.0
 70
192
  0
VERTEX
  8
0
 10
23.93884191507967
 20
73.96029588778514
 30
3.0
 70
192
  0
VERTEX
  8
0
 10
29.03771178735005
 20
70.71195752843437
 30
0.0
 70
192
  0
VERTEX
  8
0
 10
29.03771178735005
 20
70.71195752843437
 30
3.0
 70
192
  0
VERTEX
  8
0
 10
23.597717412364762
 20
73.85273974522218
 30
0.0
 70
192
  0
VERTEX
  8
0
 10
23.597717412364762
 20
73.85273974522218
 30
3.0
 70
192
  0
VERTEX
  8
0
 10
28.96029588778518
 20
71.0611580849203
 30
0.0
 70
192
  0
VERTEX
  8
0
 10
28.96029588778518
 20
71.0611580849203
 30
3.0
 70
192
  0
VERTEX
  8
0
 10
28.852739745222223
 20
71.4022825876352
 30
0.0
 70
192
  0
VERTEX
  8
0
 10
28.852739745222223
 20
71.4022825876352
 30
3.0
 70
192
  0
VERTEX
  8
0
 10
23.267265126863137
 20
73.71586192685022
 30
0.0
 70
192
  0
VERTEX
  8
0
 10
23.267265126863137
 20
73.71586192685022
 30
3.0
 70
192
  0
VERTEX
  8
0
 10
22.950000000000003
 20
73.55070415551616
 30
0.0
 70
192
  0
VERTEX
  8
0
 10
22.950000000000003
 20
73.55070415551616
 30
3.0
 70
192
  0
VERTEX
  8
0
 10
28.715861926850266
 20
71.73273487313682
 30
0.0
 70
192
  0
VERTEX
  8
0
 10
28.715861926850266
 20
71.73273487313682
 30
3.0
 70
192
  0
VERTEX
  8
0
 10
22.648336610960715
 20
73.35852338158483
 30
0.0
 70
192
  0
VERTEX
  8
0
 10
22.648336610960715
 20
73.35852338158483
 30
3.0
 70
192
  0
VERTEX
  8
0
 10
28.550704155516197
 20
72.04999999999995
 30
0.0
 70
192
  0
VERTEX
  8
0
 10
28.550704155516197
 20
72.04999999999995
 30
3.0
 70
192
  0
VERTEX
  8
0
 10
22.364570800285193
 20
73.14078221678777
 30
0.0
 70
192
  0
VERTEX
  8
0
 10
22.364570800285193
 20
73.14078221678777
 30
3.0
 70
192
  0
VERTEX
  8
0
 10
28.358523381584867
 20
72.35166338903925
 30
0.0
 70
192
  0
VERTEX
  8
0
 10
28.358523381584867
 20
72.35166338903925
 30
3.0
 70
192
  0
VERTEX
  8
0
 10
22.10086219713516
 20
72.8991378028648
 30
0.0
 70
192
  0
VERTEX
  8
0
 10
22.10086219713516
 20
72.8991378028648
 30
3.0
 70
192
  0
VERTEX
  8
0
 10
28.14078221678781
 20
72.63542919971476
 30
0.0
 70
192
  0
VERTEX
  8
0
 10
28.14078221678781
 20
72.63542919971476
 30
3.0
 70
192
  0
VERTEX
  8
0
 10
21.859217783212195
 20
72.63542919971478
 30
0.0
 70
192
  0
VERTEX
  8
0
 10
21.859217783212195
 20
72.63542919971478
 30
3.0
 70
192
  0
VERTEX
  8
0
 10
27.899137802864846
 20
72.8991378028648
 30
0.0
 70
192
  0
VERTEX
  8
0
 10
27.899137802864846
 20
72.8991378028648
 30
3.0
 70
192
  0
VERTEX
  8
0
 10
21.641476618415137
 20
72.35166338903925
 30
0.0
 70
192
  0
VERTEX
  8
0
 10
21.641476618415137
 20
72.35166338903925
 30
3.0
 70
192
  0
VERTEX
  8
0
 10
27.63542919971481
 20
73.14078221678777
 30
0.0
 70
192
  0
VERTEX
  8
0
 10
27.63542919971481
 20
73.14078221678777
 30
3.0
 70
192
  0
VERTEX
  8
0
 10
21.449295844483807
 20
72.04999999999997
 30
0.0
 70
192
  0
VERTEX
  8
0
 10
21.449295844483807
 20
72.04999999999997
 30
3.0
 70
192
  0
VERTEX
  8
0
 10
27.351663389039288
 20
73.35852338158482
 30
0.0
 70
192
  0
VERTEX
  8
0
 10
27.351663389039288
 20
73.35852338158482
 30
3.0
 70
192
  0
VERTEX
  8
0
 10
21.284138073149737
 20
71.73273487313683
 30
0.0
 70
192
  0
VERTEX
  8
0
 10
21.284138073149737
 20
71.73273487313683
 30
3.0
 70
192
  0
VERTEX
  8
0
 10
27.05
 20
73.55070415551616
 30
0.0
 70
192
  0
VERTEX
  8
0
 10
27.05
 20
73.55070415551616
 30
3.0
 70
192
  0
VERTEX
  8
0
 10
21.147260254777777
 20
71.40228258763521
 30
0.0
 70
192
  0
VERTEX
  8
0
 10
21.147260254777777
 20
71.40228258763521
 30
3.0
 70
192
  0
VERTEX
  8
0
 10
26.732734873136867
 20
73.71586192685022
 30
0.0
 70
192
  0
VERTEX
  8
0
 10
26.732734873136867
 20
73.71586192685022
 30
3.0
 70
192
  0
VERTEX
  8
0
 10
21.03970411221482
 20
71.0611580849203
 30
0.0
 70
192
  0
VERTEX
  8
0
 10
21.03970411221482
 20
71.0611580849203
 30
3.0
 70
192
  0
VERTEX
  8
0
 10
26.40228258763524
 20
73.85273974522218
 30
0.0
 70
192
  0
VERTEX
  8
0
 10
26.40228258763524
 20
73.85273974522218
 30
3.0
 70
192
  0
VERTEX
  8
0
 10
20.96228821264995
 20
70.71195752843438
 30
0.0
 70
192
  0
VERTEX
  8
0
 10
20.96228821264995
 20
70.71195752843438
 30
3.0
 70
192
  0
VERTEX
  8
0
 10
26.061158084920336
 20
73.96029588778514
 30
0.0
 70
192
  0
VERTEX
  8
0
 10
20.915601737823845
 20
70.35733854526536
 30
0.0
 70
192
  0
VERTEX
  8
0
 10
26.061158084920336
 20
73.96029588778514
 30
3.0
 70
192
  0
VERTEX
  8
0
 10
20.915601737823845
 20
70.35733854526536
 30
3.0
 70
192
  0
VERTEX
  8
0
 10
29.099999999999994
 20
59.99999999999996
 30
3.0
 70
192
  0
VERTEX
  8
0
 10
29.099999999999994
 20
59.99999999999996
 30
0.0
 70
192
  0
VERTEX
  8
0
 10
24.64266145473459
 20
55.91560173782381
 30
0.0
 70
192
  0
VERTEX
  8
0
 10
24.288042471565575
 20
55.962288212649916
 30
0.0
 70
192
  0
VERTEX
  8
0
 10
24.288042471565575
 20
55.962288212649916
 30
3.0
 70
192
  0
VERTEX
  8
0
 10
24.64266145473459
 20
55.91560173782381
 30
3.0
 70
192
  0
VERTEX
  8
0
 10
24.99999999999999
 20
55.89999999999997
 30
0.0
 70
192
  0
VERTEX
  8
0
 10
24.99999999999999
 20
55.89999999999997
 30
3.0
 70
192
  0
VERTEX
  8
0
 10
25.357338545265385
 20
55.915601737823806
 30
0.0
 70
192
  0
VERTEX
  8
0
 10
25.357338545265385
 20
55.915601737823806
 30
3.0
 70
192
  0
VERTEX
  8
0
 10
20.91560173782384
 20
59.642661454734565
 30
0.0
 70
192
  0
VERTEX
  8
0
 10
20.91560173782384
 20
59.642661454734565
 30
3.0
 70
192
  0
VERTEX
  8
0
 10
25.7119575284344
 20
55.96228821264991
 30
0.0
 70
192
  0
VERTEX
  8
0
 10
25.7119575284344
 20
55.96228821264991
 30
3.0
 70
192
  0
VERTEX
  8
0
 10
20.962288212649945
 20
59.288042471565554
 30
0.0
 70
192
  0
VERTEX
  8
0
 10
20.962288212649945
 20
59.288042471565554
 30
3.0
 70
192
  0
VERTEX
  8
0
 10
26.061158084920322
 20
56.039704112214785
 30
0.0
 70
192
  0
VERTEX
  8
0
 10
26.061158084920322
 20
56.039704112214785
 30
3.0
 70
192
  0
VERTEX
  8
0
 10
26.402282587635227
 20
56.14726025477774
 30
0.0
 70
192
  0
VERTEX
  8
0
 10
26.402282587635227
 20
56.14726025477774
 30
3.0
 70
192
  0
VERTEX
  8
0
 10
21.039704112214817
 20
58.938841915079635
 30
0.0
 70
192
  0
VERTEX
  8
0
 10
21.039704112214817
 20
58.938841915079635
 30
3.0
 70
192
  0
VERTEX
  8
0
 10
21.147260254777773
 20
58.59771741236472
 30
0.0
 70
192
  0
VERTEX
  8
0
 10
21.147260254777773
 20
58.59771741236472
 30
3.0
 70
192
  0
VERTEX
  8
0
 10
26.732734873136852
 20
56.2841380731497
 30
0.0
 70
192
  0
VERTEX
  8
0
 10
26.732734873136852
 20
56.2841380731497
 30
3.0
 70
192
  0
VERTEX
  8
0
 10
27.049999999999986
 20
56.449295844483764
 30
0.0
 70
192
  0
VERTEX
  8
0
 10
27.049999999999986
 20
56.449295844483764
 30
3.0
 70
192
  0
VERTEX
  8
0
 10
21.284138073149734
 20
58.2672651268631
 30
0.0
 70
192
  0
VERTEX
  8
0
 10
21.284138073149734
 20
58.2672651268631
 30
3.0
 70
192
  0
VERTEX
  8
0
 10
27.351663389039274
 20
56.6414766184151
 30
0.0
 70
192
  0
VERTEX
  8
0
 10
27.351663389039274
 20
56.6414766184151
 30
3.0
 70
192
  0
VERTEX
  8
0
 10
21.4492958444838
 20
57.94999999999997
 30
0.0
 70
192
  0
VERTEX
  8
0
 10
21.4492958444838
 20
57.94999999999997
 30
3.0
 70
192
  0
VERTEX
  8
0
 10
27.635429199714796
 20
56.85921778321215
 30
0.0
 70
192
  0
VERTEX
  8
0
 10
27.635429199714796
 20
56.85921778321215
 30
3.0
 70
192
  0
VERTEX
  8
0
 10
21.64147661841513
 20
57.64833661096068
 30
0.0
 70
192
  0
VERTEX
  8
0
 10
21.64147661841513
 20
57.64833661096068
 30
3.0
 70
192
  0
VERTEX
  8
0
 10
27.899137802864832
 20
57.100862197135115
 30
0.0
 70
192
  0
VERTEX
  8
0
 10
27.899137802864832
 20
57.100862197135115
 30
3.0
 70
192
  0
VERTEX
  8
0
 10
21.859217783212188
 20
57.36457080028516
 30
0.0
 70
192
  0
VERTEX
  8
0
 10
21.859217783212188
 20
57.36457080028516
 30
3.0
 70
192
  0
VERTEX
  8
0
 10
28.140782216787798
 20
57.36457080028514
 30
0.0
 70
192
  0
VERTEX
  8
0
 10
28.140782216787798
 20
57.36457080028514
 30
3.0
 70
192
  0
VERTEX
  8
0
 10
22.10086219713515
 20
57.10086219713512
 30
0.0
 70
192
  0
VERTEX
  8
0
 10
22.10086219713515
 20
57.10086219713512
 30
3.0
 70
192
  0
VERTEX
  8
0
 10
28.358523381584853
 20
57.64833661096067
 30
0.0
 70
192
  0
VERTEX
  8
0
 10
28.358523381584853
 20
57.64833661096067
 30
3.0
 70
192
  0
VERTEX
  8
0
 10
22.364570800285183
 20
56.85921778321216
 30
0.0
 70
192
  0
VERTEX
  8
0
 10
22.364570800285183
 20
56.85921778321216
 30
3.0
 70
192
  0
VERTEX
  8
0
 10
28.550704155516186
 20
57.94999999999995
 30
0.0
 70
192
  0
VERTEX
  8
0
 10
28.550704155516186
 20
57.94999999999995
 30
3.0
 70
192
  0
VERTEX
  8
0
 10
22.648336610960705
 20
56.641476618415105
 30
0.0
 70
192
  0
VERTEX
  8
0
 10
22.648336610960705
 20
56.641476618415105
 30
3.0
 70
192
  0
VERTEX
  8
0
 10
28.715861926850252
 20
58.26726512686309
 30
0.0
 70
192
  0
VERTEX
  8
0
 10
28.715861926850252
 20
58.26726512686309
 30
3.0
 70
192
  0
VERTEX
  8
0
 10
22.949999999999992
 20
56.44929584448377
 30
0.0
 70
192
  0
VERTEX
  8
0
 10
22.949999999999992
 20
56.44929584448377
 30
3.0
 70
192
  0
VERTEX
  8
0
 10
28.852739745222213
 20
58.59771741236471
 30
0.0
 70
192
  0
VERTEX
  8
0
 10
28.852739745222213
 20
58.59771741236471
 30
3.0
 70
192
  0
VERTEX
  8
0
 10
23.267265126863123
 20
56.284138073149705
 30
0.0
 70
192
  0
VERTEX
  8
0
 10
23.267265126863123
 20
56.284138073149705
 30
3.0
 70
192
  0
VERTEX
  8
0
 10
28.960295887785172
 20
58.938841915079614
 30
0.0
 70
192
  0
VERTEX
  8
0
 10
28.960295887785172
 20
58.938841915079614
 30
3.0
 70
192
  0
VERTEX
  8
0
 10
23.597717412364748
 20
56.14726025477775
 30
0.0
 70
192
  0
VERTEX
  8
0
 10
23.597717412364748
 20
56.14726025477775
 30
3.0
 70
192
  0
VERTEX
  8
0
 10
29.037711787350045
 20
59.28804247156554
 30
0.0
 70
192
  0
VERTEX
  8
0
 10
29.037711787350045
 20
59.28804247156554
 30
3.0
 70
192
  0
VERTEX
  8
0
 10
29.084398262176148
 20
59.64266145473455
 30
0.0
 70
192
  0
VERTEX
  8
0
 10
23.938841915079657
 20
56.03970411221479
 30
0.0
 70
192
  0
VERTEX
  8
0
 10
23.938841915079657
 20
56.03970411221479
 30
3.0
 70
192
  0
VERTEX
  8
0
 10
29.084398262176148
 20
59.64266145473455
 30
3.0
 70
192
  0
VERTEX
  8
0
 10
0.0
 20
0.0
 30
0.0
 70
128
 71
1
 72
2
 73
3
  0
VERTEX
  8
0
 10
0.0
 20
0.0
 30
0.0
 70
128
 71
3
 72
2
 73
4
  0
VERTEX
  8
0
 10
0.0
 20
0.0
 30
0.0
 70
128
 71
2
 72
5
 73
4
  0
VERTEX
  8
0
 10
0.0
 20
0.0
 30
0.0
 70
128
 71
4
 72
5
 73
6
  0
VERTEX
  8
0
 10
0.0
 20
0.0
 30
0.0
 70
128
 71
7
 72
8
 73
9
  0
VERTEX
  8
0
 10
0.0
 20
0.0
 30
0.0
 70
128
 71
9
 72
8
 73
10
  0
VERTEX
  8
0
 10
0.0
 20
0.0
 30
0.0
 70
128
 71
10
 72
11
 73
12
  0
VERTEX
  8
0
 10
0.0
 20
0.0
 30
0.0
 70
128
 71
8
 72
11
 73
10
  0
VERTEX
  8
0
 10
0.0
 20
0.0
 30
0.0
 70
128
 71
12
 72
13
 73
14
  0
VERTEX
  8
0
 10
0.0
 20
0.0
 30
0.0
 70
128
 71
11
 72
13
 73
12
  0
VERTEX
  8
0
 10
0.0
 20
0.0
 30
0.0
 70
128
 71
14
 72
15
 73
16
  0
VERTEX
  8
0
 10
0.0
 20
0.0
 30
0.0
 70
128
 71
13
 72
15
 73
14
  0
VERTEX
  8
0
 10
0.0
 20
0.0
 30
0.0
 70
128
 71
16
 72
17
 73
18
  0
VERTEX
  8
0
 10
0.0
 20
0.0
 30
0.0
 70
128
 71
15
 72
17
 73
16
  0
VERTEX
  8
0
 10
0.0
 20
0.0
 30
0.0
 70
128
 71
18
 72
19
 73
20
  0
VERTEX
  8
0
 10
0.0
 20
0.0
 30
0.0
 70
128
 71
17
 72
19
 73
18
  0
VERTEX
  8
0
 10
0.0
 20
0.0
 30
0.0
 70
128
 71
20
 72
21
 73
22
  0
VERTEX
  8
0
 10
0.0
 20
0.0
 30
0.0
 70
128
 71
19
 72
21
 73
20
  0
VERTEX
  8
0
 10
0.0
 20
0.0
 30
0.0
 70
128
 71
22
 72
23
 73
24
  0
VERTEX
  8
0
 10
0.0
 20
0.0
 30
0.0
 70
128
 71
21
 72
23
 73
22
  0
VERTEX
  8
0
 10
0.0
 20
0.0
 30
0.0
 70
128
 71
24
 72
25
 73
26
  0
VERTEX
  8
0
 10
0.0
 20
0.0
 30
0.0
 70
128
 71
23
 72
25
 73
24
  0
VERTEX
  8
0
 10
0.0
 20
0.0
 30
0.0
 70
128
 71
26
 72
27
 73
28
  0
VERTEX
  8
0
 10
0.0
 20
0.0
 30
0.0
 70
128
 71
25
 72
27
 73
26
  0
VERTEX
  8
0
 10
0.0
 20
0.0
 30
0.0
 70
128
 71
28
 72
29
 73
30
  0
VERTEX
  8
0
 10
0.0
 20
0.0
 30
0.0
 70
128
 71
27
 72
29
 73
28
  0
VERTEX
  8
0
 10
0.0
 20
0.0
 30
0.0
 70
128
 71
30
 72
31
 73
32
  0
VERTEX
  8
0
 10
0.0
 20
0.0
 30
0.0
 70
128
 71
29
 72
31
 73
30
  0
VERTEX
  8
0
 10
0.0
 20
0.0
 30
0.0
 70
128
 71
32
 72
33
 73
34
  0
VERTEX
  8
0
 10
0.0
 20
0.0
 30
0.0
 70
128
 71
31
 72
33
 73
32
  0
VERTEX
  8
0
 10
0.0
 20
0.0
 30
0.0
 70
128
 71
33
 72
35
 73
34
  0
VERTEX
  8
0
 10
0.0
 20
0.0
 30
0.0
 70
128
 71
34
 72
35
 73
36
  0
VERTEX
  8
0
 10
0.0
 20
0.0
 30
0.0
 70
128
 71
35
 72
37
 73
36
  0
VERTEX
  8
0
 10
0.0
 20
0.0
 30
0.0
 70
128
 71
36
 72
37
 73
38
  0
VERTEX
  8
0
 10
0.0
 20
0.0
 30
0.0
 70
128
 71
37
 72
39
 73
38
  0
VERTEX
  8
0
 10
0.0
 20
0.0
 30
0.0
 70
128
 71
38
 72
39
 73
40
  0
VERTEX
  8
0
 10
0.0
 20
0.0
 30
0.0
 70
128
 71
39
 72
1
 73
40
  0
VERTEX
  8
0
 10
0.0
 20
0.0
 30
0.0
 70
128
 71
40
 72
1
 73
3
  0
VERTEX
  8
0
 10
0.0
 20
0.0
 30
0.0
 70
128
 71
5
 72
41
 73
6
  0
VERTEX
  8
0
 10
0.0
 20
0.0
 30
0.0
 70
128
 71
6
 72
41
 73
42
  0
VERTEX
  8
0
 10
0.0
 20
0.0
 30
0.0
 70
128
 71
43
 72
44
 73
45
  0
VERTEX
  8
0
 10
0.0
 20
0.0
 30
0.0
 70
128
 71
45
 72
44
 73
46
  0
VERTEX
  8
0
 10
0.0
 20
0.0
 30
0.0
 70
128
 71
44
 72
47
 73
46
  0
VERTEX
  8
0
 10
0.0
 20
0.0
 30
0.0
 70
128
 71
46
 72
47
 73
48
  0
VERTEX
  8
0
 10
0.0
 20
0.0
 30
0.0
 70
128
 71
41
 72
49
 73
42
  0
VERTEX
  8
0
 10
0.0
 20
0.0
 30
0.0
 70
128
 71
42
 72
49
 73
50
  0
VERTEX
  8
0
 10
0.0
 20
0.0
 30
0.0
 70
128
 71
50
 72
51
 73
52
  0
VERTEX
  8
0
 10
0.0
 20
0.0
 30
0.0
 70
128
 71
49
 72
51
 73
50
  0
VERTEX
  8
0
 10
0.0
 20
0.0
 30
0.0
 70
128
 71
52
 72
53
 73
54
  0
VERTEX
  8
0
 10
0.0
 20
0.0
 30
0.0
 70
128
 71
51
 72
53
 73
52
  0
VERTEX
  8
0
 10
0.0
 20
0.0
 30
0.0
 70
128
 71
54
 72
55
 73
56
  0
VERTEX
  8
0
 10
0.0
 20
0.0
 30
0.0
 70
128
 71
53
 72
55
 73
54
  0
VERTEX
  8
0
 10
0.0
 20
0.0
 30
0.0
 70
128
 71
56
 72
57
 73
58
  0
VERTEX
  8
0
 10
0.0
 20
0.0
 30
0.0
 70
128
 71
55
 72
57
 73
56
  0
VERTEX
  8
0
 10
0.0
 20
0.0
 30
0.0
 70
128
 71
58
 72
59
 73
60
  0
VERTEX
  8
0
 10
0.0
 20
0.0
 30
0.0
 70
128
 71
57
 72
59
 73
58
  0
VERTEX
  8
0
 10
0.0
 20
0.0
 30
0.0
 70
128
 71
60
 72
61
 73
62
  0
VERTEX
  8
0
 10
0.0
 20
0.0
 30
0.0
 70
128
 71
59
 72
61
 73
60
  0
VERTEX
  8
0
 10
0.0
 20
0.0
 30
0.0
 70
128
 71
62
 72
63
 73
64
  0
VERTEX
  8
0
 10
0.0
 20
0.0
 30
0.0
 70
128
 71
61
 72
63
 73
62
  0
VERTEX
  8
0
 10
0.0
 20
0.0
 30
0.0
 70
128
 71
64
 72
65
 73
66
  0
VERTEX
  8
0
 10
0.0
 20
0.0
 30
0.0
 70
128
 71
63
 72
65
 73
64
  0
VERTEX
  8
0
 10
0.0
 20
0.0
 30
0.0
 70
128
 71
66
 72
67
 73
68
  0
VERTEX
  8
0
 10
0.0
 20
0.0
 30
0.0
 70
128
 71
65
 72
67
 73
66
  0
VERTEX
  8
0
 10
0.0
 20
0.0
 30
0.0
 70
128
 71
68
 72
69
 73
70
  0
VERTEX
  8
0
 10
0.0
 20
0.0
 30
0.0
 70
128
 71
67
 72
69
 73
68
  0
VERTEX
  8
0
 10
0.0
 20
0.0
 30
0.0
 70
128
 71
70
 72
71
 73
72
  0
VERTEX
  8
0
 10
0.0
 20
0.0
 30
0.0
 70
128
 71
69
 72
71
 73
70
  0
VERTEX
  8
0
 10
0.0
 20
0.0
 30
0.0
 70
128
 71
72
 72
73
 73
74
  0
VERTEX
  8
0
 10
0.0
 20
0.0
 30
0.0
 70
128
 71
71
 72
73
 73
72
  0
VERTEX
  8
0
 10
0.0
 20
0.0
 30
0.0
 70
128
 71
73
 72
75
 73
74
  0
VERTEX
  8
0
 10
0.0
 20
0.0
 30
0.0
 70
128
 71
74
 72
75
 73
76
  0
VERTEX
  8
0
 10
0.0
 20
0.0
 30
0.0
 70
128
 71
75
 72
77
 73
76
  0
VERTEX
  8
0
 10
0.0
 20
0.0
 30
0.0
 70
128
 71
76
 72
77
 73
78
  0
VERTEX
  8
0
 10
0.0
 20
0.0
 30
0.0
 70
128
 71
77
 72
79
 73
78
  0
VERTEX
  8
0
 10
0.0
 20
0.0
 30
0.0
 70
128
 71
78
 72
79
 73
80
  0
VERTEX
  8
0
 10
0.0
 20
0.0
 30
0.0
 70
128
 71
79
 72
43
 73
80
  0
VERTEX
  8
0
 10
0.0
 20
0.0
 30
0.0
 70
128
 71
80
 72
43
 73
45
  0
VERTEX
  8
0
 10
0.0
 20
0.0
 30
0.0
 70
128
 71
47
 72
81
 73
48
  0
VERTEX
  8
0
 10
0.0
 20
0.0
 30
0.0
 70
128
 71
47
 72
82
 73
81
  0
VERTEX
  8
0
 10
0.0
 20
0.0
 30
0.0
 70
128
 71
82
 72
83
 73
81
  0
VERTEX
  8
0
 10
0.0
 20
0.0
 30
0.0
 70
128
 71
81
 72
83
 73
84
  0
VERTEX
  8
0
 10
0.0
 20
0.0
 30
0.0
 70
128
 71
84
 72
85
 73
86
  0
VERTEX
  8
0
 10
0.0
 20
0.0
 30
0.0
 70
128
 71
83
 72
85
 73
84
  0
VERTEX
  8
0
 10
0.0
 20
0.0
 30
0.0
 70
128
 71
86
 72
87
 73
88
  0
VERTEX
  8
0
 10
0.0
 20
0.0
 30
0.0
 70
128
 71
85
 72
87
 73
86
  0
VERTEX
  8
0
 10
0.0
 20
0.0
 30
0.0
 70
128
 71
87
 72
89
 73
88
  0
VERTEX
  8
0
 10
0.0
 20
0.0
 30
0.0
 70
128
 71
87
 72
90
 73
89
  0
VERTEX
  8
0
 10
0.0
 20
0.0
 30
0.0
 70
128
 71
91
 72
92
 73
93
  0
VERTEX
  8
0
 10
0.0
 20
0.0
 30
0.0
 70
128
 71
92
 72
94
 73
93
  0
VERTEX
  8
0
 10
0.0
 20
0.0
 30
0.0
 70
128
 71
93
 72
94
 73
95
  0
VERTEX
  8
0
 10
0.0
 20
0.0
 30
0.0
 70
128
 71
94
 72
96
 73
95
  0
VERTEX
  8
0
 10
0.0
 20
0.0
 30
0.0
 70
128
 71
95
 72
96
 73
97
  0
VERTEX
  8
0
 10
0.0
 20
0.0
 30
0.0
 70
128
 71
90
 72
98
 73
89
  0
VERTEX
  8
0
 10
0.0
 20
0.0
 30
0.0
 70
128
 71
89
 72
98
 73
99
  0
VERTEX
  8
0
 10
0.0
 20
0.0
 30
0.0
 70
128
 71
96
 72
100
 73
97
  0
VERTEX
  8
0
 10
0.0
 20
0.0
 30
0.0
 70
128
 71
97
 72
100
 73
101
  0
VERTEX
  8
0
 10
0.0
 20
0.0
 30
0.0
 70
128
 71
99
 72
102
 73
103
  0
VERTEX
  8
0
 10
0.0
 20
0.0
 30
0.0
 70
128
 71
101
 72
104
 73
105
  0
VERTEX
  8
0
 10
0.0
 20
0.0
 30
0.0
 70
128
 71
98
 72
102
 73
99
  0
VERTEX
  8
0
 10
0.0
 20
0.0
 30
0.0
 70
128
 71
100
 72
104
 73
101
  0
VERTEX
  8
0
 10
0.0
 20
0.0
 30
0.0
 70
128
 71
103
 72
106
 73
107
  0
VERTEX
  8
0
 10
0.0
 20
0.0
 30
0.0
 70
128
 71
105
 72
108
 73
109
  0
VERTEX
  8
0
 10
0.0
 20
0.0
 30
0.0
 70
128
 71
104
 72
108
 73
105
  0
VERTEX
  8
0
 10
0.0
 20
0.0
 30
0.0
 70
128
 71
102
 72
106
 73
103
  0
VERTEX
  8
0
 10
0.0
 20
0.0
 30
0.0
 70
128
 71
107
 72
110
 73
111
  0
VERTEX
  8
0
 10
0.0
 20
0.0
 30
0.0
 70
128
 71
109
 72
112
 73
113
  0
VERTEX
  8
0
 10
0.0
 20
0.0
 30
0.0
 70
128
 71
106
 72
110
 73
107
  0
VERTEX
  8
0
 10
0.0
 20
0.0
 30
0.0
 70
128
 71
108
 72
112
 73
109
  0
VERTEX
  8
0
 10
0.0
 20
0.0
 30
0.0
 70
128
 71
111
 72
114
 73
115
  0
VERTEX
  8
0
 10
0.0
 20
0.0
 30
0.0
 70
128
 71
113
 72
116
 73
117
  0
VERTEX
  8
0
 10
0.0
 20
0.0
 30
0.0
 70
128
 71
110
 72
114
 73
111
  0
VERTEX
  8
0
 10
0.0
 20
0.0
 30
0.0
 70
128
 71
112
 72
116
 73
113
  0
VERTEX
  8
0
 10
0.0
 20
0.0
 30
0.0
 70
128
 71
115
 72
118
 73
119
  0
VERTEX
  8
0
 10
0.0
 20
0.0
 30
0.0
 70
128
 71
117
 72
120
 73
121
  0
VERTEX
  8
0
 10
0.0
 20
0.0
 30
0.0
 70
128
 71
114
 72
118
 73
115
  0
VERTEX
  8
0
 10
0.0
 20
0.0
 30
0.0
 70
128
 71
116
 72
120
 73
117
  0
VERTEX
  8
0
 10
0.0
 20
0.0
 30
0.0
 70
128
 71
121
 72
122
 73
123
  0
VERTEX
  8
0
 10
0.0
 20
0.0
 30
0.0
 70
128
 71
119
 72
124
 73
125
  0
VERTEX
  8
0
 10
0.0
 20
0.0
 30
0.0
 70
128
 71
118
 72
124
 73
119
  0
VERTEX
  8
0
 10
0.0
 20
0.0
 30
0.0
 70
128
 71
120
 72
122
 73
121
  0
VERTEX
  8
0
 10
0.0
 20
0.0
 30
0.0
 70
128
 71
124
 72
126
 73
125
  0
VERTEX
  8
0
 10
0.0
 20
0.0
 30
0.0
 70
128
 71
123
 72
127
 73
128
  0
VERTEX
  8
0
 10
0.0
 20
0.0
 30
0.0
 70
128
 71
125
 72
126
 73
129
  0
VERTEX
  8
0
 10
0.0
 20
0.0
 30
0.0
 70
128
 71
122
 72
127
 73
123
  0
VERTEX
  8
0
 10
0.0
 20
0.0
 30
0.0
 70
128
 71
128
 72
130
 73
131
  0
VERTEX
  8
0
 10
0.0
 20
0.0
 30
0.0
 70
128
 71
126
 72
132
 73
129
  0
VERTEX
  8
0
 10
0.0
 20
0.0
 30
0.0
 70
128
 71
129
 72
132
 73
133
  0
VERTEX
  8
0
 10
0.0
 20
0.0
 30
0.0
 70
128
 71
127
 72
130
 73
128
  0
VERTEX
  8
0
 10
0.0
 20
0.0
 30
0.0
 70
128
 71
131
 72
134
 73
135
  0
VERTEX
  8
0
 10
0.0
 20
0.0
 30
0.0
 70
128
 71
132
 72
136
 73
133
  0
VERTEX
  8
0
 10
0.0
 20
0.0
 30
0.0
 70
128
 71
133
 72
136
 73
137
  0
VERTEX
  8
0
 10
0.0
 20
0.0
 30
0.0
 70
128
 71
130
 72
134
 73
131
  0
VERTEX
  8
0
 10
0.0
 20
0.0
 30
0.0
 70
128
 71
135
 72
138
 73
139
  0
VERTEX
  8
0
 10
0.0
 20
0.0
 30
0.0
 70
128
 71
134
 72
138
 73
135
  0
VERTEX
  8
0
 10
0.0
 20
0.0
 30
0.0
 70
128
 71
136
 72
140
 73
137
  0
VERTEX
  8
0
 10
0.0
 20
0.0
 30
0.0
 70
128
 71
139
 72
141
 73
142
  0
VERTEX
  8
0
 10
0.0
 20
0.0
 30
0.0
 70
128
 71
137
 72
140
 73
143
  0
VERTEX
  8
0
 10
0.0
 20
0.0
 30
0.0
 70
128
 71
138
 72
141
 73
139
  0
VERTEX
  8
0
 10
0.0
 20
0.0
 30
0.0
 70
128
 71
140
 72
144
 73
143
  0
VERTEX
  8
0
 10
0.0
 20
0.0
 30
0.0
 70
128
 71
143
 72
144
 73
145
  0
VERTEX
  8
0
 10
0.0
 20
0.0
 30
0.0
 70
128
 71
144
 72
146
 73
145
  0
VERTEX
  8
0
 10
0.0
 20
0.0
 30
0.0
 70
128
 71
145
 72
146
 73
147
  0
VERTEX
  8
0
 10
0.0
 20
0.0
 30
0.0
 70
128
 71
146
 72
148
 73
147
  0
VERTEX
  8
0
 10
0.0
 20
0.0
 30
0.0
 70
128
 71
147
 72
148
 73
149
  0
VERTEX
  8
0
 10
0.0
 20
0.0
 30
0.0
 70
128
 71
148
 72
150
 73
149
  0
VERTEX
  8
0
 10
0.0
 20
0.0
 30
0.0
 70
128
 71
149
 72
150
 73
151
  0
VERTEX
  8
0
 10
0.0
 20
0.0
 30
0.0
 70
128
 71
150
 72
152
 73
151
  0
VERTEX
  8
0
 10
0.0
 20
0.0
 30
0.0
 70
128
 71
151
 72
152
 73
91
  0
VERTEX
  8
0
 10
0.0
 20
0.0
 30
0.0
 70
128
 71
152
 72
92
 73
91
  0
VERTEX
  8
0
 10
0.0
 20
0.0
 30
0.0
 70
128
 71
142
 72
153
 73
154
  0
VERTEX
  8
0
 10
0.0
 20
0.0
 30
0.0
 70
128
 71
141
 72
153
 73
142
  0
VERTEX
  8
0
 10
0.0
 20
0.0
 30
0.0
 70
128
 71
153
 72
155
 73
154
  0
VERTEX
  8
0
 10
0.0
 20
0.0
 30
0.0
 70
128
 71
154
 72
155
 73
156
  0
VERTEX
  8
0
 10
0.0
 20
0.0
 30
0.0
 70
128
 71
156
 72
157
 73
158
  0
VERTEX
  8
0
 10
0.0
 20
0.0
 30
0.0
 70
128
 71
155
 72
157
 73
156
  0
VERTEX
  8
0
 10
0.0
 20
0.0
 30
0.0
 70
128
 71
158
 72
159
 73
160
  0
VERTEX
  8
0
 10
0.0
 20
0.0
 30
0.0
 70
128
 71
157
 72
159
 73
158
  0
VERTEX
  8
0
 10
0.0
 20
0.0
 30
0.0
 70
128
 71
160
 72
7
 73
9
  0
VERTEX
  8
0
 10
0.0
 20
0.0
 30
0.0
 70
128
 71
159
 72
7
 73
160
  0
VERTEX
  8
0
 10
0.0
 20
0.0
 30
0.0
 70
128
 71
161
 72
162
 73
163
  0
VERTEX
  8
0
 10
0.0
 20
0.0
 30
0.0
 70
128
 71
161
 72
163
 73
164
  0
VERTEX
  8
0
 10
0.0
 20
0.0
 30
0.0
 70
128
 71
165
 72
161
 73
164
  0
VERTEX
  8
0
 10
0.0
 20
0.0
 30
0.0
 70
128
 71
165
 72
164
 73
166
  0
VERTEX
  8
0
 10
0.0
 20
0.0
 30
0.0
 70
128
 71
167
 72
165
 73
166
  0
VERTEX
  8
0
 10
0.0
 20
0.0
 30
0.0
 70
128
 71
167
 72
166
 73
168
  0
VERTEX
  8
0
 10
0.0
 20
0.0
 30
0.0
 70
128
 71
169
 72
167
 73
168
  0
VERTEX
  8
0
 10
0.0
 20
0.0
 30
0.0
 70
128
 71
169
 72
168
 73
170
  0
VERTEX
  8
0
 10
0.0
 20
0.0
 30
0.0
 70
128
 71
171
 72
169
 73
170
  0
VERTEX
  8
0
 10
0.0
 20
0.0
 30
0.0
 70
128
 71
171
 72
170
 73
172
  0
VERTEX
  8
0
 10
0.0
 20
0.0
 30
0.0
 70
128
 71
173
 72
171
 73
172
  0
VERTEX
  8
0
 10
0.0
 20
0.0
 30
0.0
 70
128
 71
173
 72
172
 73
174
  0
VERTEX
  8
0
 10
0.0
 20
0.0
 30
0.0
 70
128
 71
175
 72
173
 73
174
  0
VERTEX
  8
0
 10
0.0
 20
0.0
 30
0.0
 70
128
 71
175
 72
174
 73
176
  0
VERTEX
  8
0
 10
0.0
 20
0.0
 30
0.0
 70
128
 71
177
 72
175
 73
176
  0
VERTEX
  8
0
 10
0.0
 20
0.0
 30
0.0
 70
128
 71
177
 72
176
 73
178
  0
VERTEX
  8
0
 10
0.0
 20
0.0
 30
0.0
 70
128
 71
179
 72
178
 73
180
  0
VERTEX
  8
0
 10
0.0
 20
0.0
 30
0.0
 70
128
 71
179
 72
177
 73
178
  0
VERTEX
  8
0
 10
0.0
 20
0.0
 30
0.0
 70
128
 71
181
 72
180
 73
182
  0
VERTEX
  8
0
 10
0.0
 20
0.0
 30
0.0
 70
128
 71
181
 72
179
 73
180
  0
VERTEX
  8
0
 10
0.0
 20
0.0
 30
0.0
 70
128
 71
183
 72
182
 73
184
  0
VERTEX
  8
0
 10
0.0
 20
0.0
 30
0.0
 70
128
 71
183
 72
181
 73
182
  0
VERTEX
  8
0
 10
0.0
 20
0.0
 30
0.0
 70
128
 71
185
 72
184
 73
186
  0
VERTEX
  8
0
 10
0.0
 20
0.0
 30
0.0
 70
128
 71
185
 72
183
 73
184
  0
VERTEX
  8
0
 10
0.0
 20
0.0
 30
0.0
 70
128
 71
187
 72
185
 73
186
  0
VERTEX
  8
0
 10
0.0
 20
0.0
 30
0.0
 70
128
 71
187
 72
186
 73
188
  0
VERTEX
  8
0
 10
0.0
 20
0.0
 30
0.0
 70
128
 71
189
 72
187
 73
188
  0
VERTEX
  8
0
 10
0.0
 20
0.0
 30
0.0
 70
128
 71
189
 72
188
 73
190
  0
VERTEX
  8
0
 10
0.0
 20
0.0
 30
0.0
 70
128
 71
191
 72
189
 73
190
  0
VERTEX
  8
0
 10
0.0
 20
0.0
 30
0.0
 70
128
 71
191
 72
190
 73
192
  0
VERTEX
  8
0
 10
0.0
 20
0.0
 30
0.0
 70
128
 71
193
 72
191
 73
192
  0
VERTEX
  8
0
 10
0.0
 20
0.0
 30
0.0
 70
128
 71
193
 72
192
 73
194
  0
VERTEX
  8
0
 10
0.0
 20
0.0
 30
0.0
 70
128
 71
195
 72
193
 73
194
  0
VERTEX
  8
0
 10
0.0
 20
0.0
 30
0.0
 70
128
 71
195
 72
194
 73
196
  0
VERTEX
  8
0
 10
0.0
 20
0.0
 30
0.0
 70
128
 71
197
 72
195
 73
196
  0
VERTEX
  8
0
 10
0.0
 20
0.0
 30
0.0
 70
128
 71
197
 72
196
 73
198
  0
VERTEX
  8
0
 10
0.0
 20
0.0
 30
0.0
 70
128
 71
199
 72
197
 73
198
  0
VERTEX
  8
0
 10
0.0
 20
0.0
 30
0.0
 70
128
 71
199
 72
198
 73
200
  0
VERTEX
  8
0
 10
0.0
 20
0.0
 30
0.0
 70
128
 71
201
 72
199
 73
200
  0
VERTEX
  8
0
 10
0.0
 20
0.0
 30
0.0
 70
128
 71
201
 72
200
 73
202
  0
VERTEX
  8
0
 10
0.0
 20
0.0
 30
0.0
 70
128
 71
203
 72
201
 73
202
  0
VERTEX
  8
0
 10
0.0
 20
0.0
 30
0.0
 70
128
 71
203
 72
202
 73
204
  0
VERTEX
  8
0
 10
0.0
 20
0.0
 30
0.0
 70
128
 71
205
 72
203
 73
204
  0
VERTEX
  8
0
 10
0.0
 20
0.0
 30
0.0
 70
128
 71
205
 72
204
 73
206
  0
VERTEX
  8
0
 10
0.0
 20
0.0
 30
0.0
 70
128
 71
207
 72
205
 73
206
  0
VERTEX
  8
0
 10
0.0
 20
0.0
 30
0.0
 70
128
 71
207
 72
206
 73
208
  0
VERTEX
  8
0
 10
0.0
 20
0.0
 30
0.0
 70
128
 71
209
 72
207
 73
208
  0
VERTEX
  8
0
 10
0.0
 20
0.0
 30
0.0
 70
128
 71
209
 72
208
 73
210
  0
VERTEX
  8
0
 10
0.0
 20
0.0
 30
0.0
 70
128
 71
211
 72
209
 73
210
  0
VERTEX
  8
0
 10
0.0
 20
0.0
 30
0.0
 70
128
 71
211
 72
210
 73
212
  0
VERTEX
  8
0
 10
0.0
 20
0.0
 30
0.0
 70
128
 71
213
 72
211
 73
212
  0
VERTEX
  8
0
 10
0.0
 20
0.0
 30
0.0
 70
128
 71
213
 72
212
 73
214
  0
VERTEX
  8
0
 10
0.0
 20
0.0
 30
0.0
 70
128
 71
215
 72
214
 73
216
  0
VERTEX
  8
0
 10
0.0
 20
0.0
 30
0.0
 70
128
 71
215
 72
213
 73
214
  0
VERTEX
  8
0
 10
0.0
 20
0.0
 30
0.0
 70
128
 71
217
 72
216
 73
218
  0
VERTEX
  8
0
 10
0.0
 20
0.0
 30
0.0
 70
128
 71
217
 72
215
 73
216
  0
VERTEX
  8
0
 10
0.0
 20
0.0
 30
0.0
 70
128
 71
219
 72
218
 73
220
  0
VERTEX
  8
0
 10
0.0
 20
0.0
 30
0.0
 70
128
 71
219
 72
217
 73
218
  0
VERTEX
  8
0
 10
0.0
 20
0.0
 30
0.0
 70
128
 71
221
 72
220
 73
222
  0
VERTEX
  8
0
 10
0.0
 20
0.0
 30
0.0
 70
128
 71
221
 72
219
 73
220
  0
VERTEX
  8
0
 10
0.0
 20
0.0
 30
0.0
 70
128
 71
223
 72
222
 73
224
  0
VERTEX
  8
0
 10
0.0
 20
0.0
 30
0.0
 70
128
 71
223
 72
221
 73
222
  0
VERTEX
  8
0
 10
0.0
 20
0.0
 30
0.0
 70
128
 71
225
 72
224
 73
226
  0
VERTEX
  8
0
 10
0.0
 20
0.0
 30
0.0
 70
128
 71
225
 72
223
 73
224
  0
VERTEX
  8
0
 10
0.0
 20
0.0
 30
0.0
 70
128
 71
227
 72
226
 73
228
  0
VERTEX
  8
0
 10
0.0
 20
0.0
 30
0.0
 70
128
 71
227
 72
225
 73
226
  0
VERTEX
  8
0
 10
0.0
 20
0.0
 30
0.0
 70
128
 71
229
 72
228
 73
230
  0
VERTEX
  8
0
 10
0.0
 20
0.0
 30
0.0
 70
128
 71
229
 72
227
 73
228
  0
VERTEX
  8
0
 10
0.0
 20
0.0
 30
0.0
 70
128
 71
231
 72
230
 73
232
  0
VERTEX
  8
0
 10
0.0
 20
0.0
 30
0.0
 70
128
 71
231
 72
229
 73
230
  0
VERTEX
  8
0
 10
0.0
 20
0.0
 30
0.0
 70
128
 71
233
 72
232
 73
234
  0
VERTEX
  8
0
 10
0.0
 20
0.0
 30
0.0
 70
128
 71
233
 72
231
 73
232
  0
VERTEX
  8
0
 10
0.0
 20
0.0
 30
0.0
 70
128
 71
235
 72
234
 73
236
  0
VERTEX
  8
0
 10
0.0
 20
0.0
 30
0.0
 70
128
 71
235
 72
233
 73
234
  0
VERTEX
  8
0
 10
0.0
 20
0.0
 30
0.0
 70
128
 71
237
 72
235
 73
236
  0
VERTEX
  8
0
 10
0.0
 20
0.0
 30
0.0
 70
128
 71
237
 72
236
 73
238
  0
VERTEX
  8
0
 10
0.0
 20
0.0
 30
0.0
 70
128
 71
239
 72
237
 73
238
  0
VERTEX
  8
0
 10
0.0
 20
0.0
 30
0.0
 70
128
 71
239
 72
238
 73
240
  0
VERTEX
  8
0
 10
0.0
 20
0.0
 30
0.0
 70
128
 71
241
 72
239
 73
240
  0
VERTEX
  8
0
 10
0.0
 20
0.0
 30
0.0
 70
128
 71
241
 72
240
 73
242
  0
VERTEX
  8
0
 10
0.0
 20
0.0
 30
0.0
 70
128
 71
243
 72
241
 73
242
  0
VERTEX
  8
0
 10
0.0
 20
0.0
 30
0.0
 70
128
 71
243
 72
242
 73
244
  0
VERTEX
  8
0
 10
0.0
 20
0.0
 30
0.0
 70
128
 71
245
 72
244
 73
246
  0
VERTEX
  8
0
 10
0.0
 20
0.0
 30
0.0
 70
128
 71
245
 72
243
 73
244
  0
VERTEX
  8
0
 10
0.0
 20
0.0
 30
0.0
 70
128
 71
247
 72
245
 73
246
  0
VERTEX
  8
0
 10
0.0
 20
0.0
 30
0.0
 70
128
 71
247
 72
246
 73
248
  0
VERTEX
  8
0
 10
0.0
 20
0.0
 30
0.0
 70
128
 71
249
 72
248
 73
250
  0
VERTEX
  8
0
 10
0.0
 20
0.0
 30
0.0
 70
128
 71
249
 72
247
 73
248
  0
VERTEX
  8
0
 10
0.0
 20
0.0
 30
0.0
 70
128
 71
251
 72
250
 73
252
  0
VERTEX
  8
0
 10
0.0
 20
0.0
 30
0.0
 70
128
 71
251
 72
249
 73
250
  0
VERTEX
  8
0
 10
0.0
 20
0.0
 30
0.0
 70
128
 71
253
 72
252
 73
254
  0
VERTEX
  8
0
 10
0.0
 20
0.0
 30
0.0
 70
128
 71
253
 72
251
 73
252
  0
VERTEX
  8
0
 10
0.0
 20
0.0
 30
0.0
 70
128
 71
255
 72
254
 73
256
  0
VERTEX
  8
0
 10
0.0
 20
0.0
 30
0.0
 70
128
 71
255
 72
253
 73
254
  0
VERTEX
  8
0
 10
0.0
 20
0.0
 30
0.0
 70
128
 71
257
 72
256
 73
258
  0
VERTEX
  8
0
 10
0.0
 20
0.0
 30
0.0
 70
128
 71
257
 72
255
 73
256
  0
VERTEX
  8
0
 10
0.0
 20
0.0
 30
0.0
 70
128
 71
259
 72
258
 73
260
  0
VERTEX
  8
0
 10
0.0
 20
0.0
 30
0.0
 70
128
 71
259
 72
257
 73
258
  0
VERTEX
  8
0
 10
0.0
 20
0.0
 30
0.0
 70
128
 71
261
 72
260
 73
262
  0
VERTEX
  8
0
 10
0.0
 20
0.0
 30
0.0
 70
128
 71
261
 72
259
 73
260
  0
VERTEX
  8
0
 10
0.0
 20
0.0
 30
0.0
 70
128
 71
263
 72
262
 73
264
  0
VERTEX
  8
0
 10
0.0
 20
0.0
 30
0.0
 70
128
 71
263
 72
261
 73
262
  0
VERTEX
  8
0
 10
0.0
 20
0.0
 30
0.0
 70
128
 71
265
 72
264
 73
266
  0
VERTEX
  8
0
 10
0.0
 20
0.0
 30
0.0
 70
128
 71
265
 72
263
 73
264
  0
VERTEX
  8
0
 10
0.0
 20
0.0
 30
0.0
 70
128
 71
267
 72
266
 73
268
  0
VERTEX
  8
0
 10
0.0
 20
0.0
 30
0.0
 70
128
 71
267
 72
265
 73
266
  0
VERTEX
  8
0
 10
0.0
 20
0.0
 30
0.0
 70
128
 71
269
 72
268
 73
270
  0
VERTEX
  8
0
 10
0.0
 20
0.0
 30
0.0
 70
128
 71
269
 72
267
 73
268
  0
VERTEX
  8
0
 10
0.0
 20
0.0
 30
0.0
 70
128
 71
271
 72
270
 73
272
  0
VERTEX
  8
0
 10
0.0
 20
0.0
 30
0.0
 70
128
 71
271
 72
269
 73
270
  0
VERTEX
  8
0
 10
0.0
 20
0.0
 30
0.0
 70
128
 71
273
 72
272
 73
274
  0
VERTEX
  8
0
 10
0.0
 20
0.0
 30
0.0
 70
128
 71
273
 72
271
 73
272
  0
VERTEX
  8
0
 10
0.0
 20
0.0
 30
0.0
 70
128
 71
275
 72
274
 73
276
  0
VERTEX
  8
0
 10
0.0
 20
0.0
 30
0.0
 70
128
 71
275
 72
273
 73
274
  0
VERTEX
  8
0
 10
0.0
 20
0.0
 30
0.0
 70
128
 71
277
 72
276
 73
278
  0
VERTEX
  8
0
 10
0.0
 20
0.0
 30
0.0
 70
128
 71
277
 72
275
 73
276
  0
VERTEX
  8
0
 10
0.0
 20
0.0
 30
0.0
 70
128
 71
279
 72
278
 73
280
  0
VERTEX
  8
0
 10
0.0
 20
0.0
 30
0.0
 70
128
 71
279
 72
277
 73
278
  0
VERTEX
  8
0
 10
0.0
 20
0.0
 30
0.0
 70
128
 71
281
 72
280
 73
282
  0
VERTEX
  8
0
 10
0.0
 20
0.0
 30
0.0
 70
128
 71
281
 72
279
 73
280
  0
VERTEX
  8
0
 10
0.0
 20
0.0
 30
0.0
 70
128
 71
283
 72
282
 73
284
  0
VERTEX
  8
0
 10
0.0
 20
0.0
 30
0.0
 70
128
 71
283
 72
281
 73
282
  0
VERTEX
  8
0
 10
0.0
 20
0.0
 30
0.0
 70
128
 71
285
 72
284
 73
286
  0
VERTEX
  8
0
 10
0.0
 20
0.0
 30
0.0
 70
128
 71
285
 72
283
 73
284
  0
VERTEX
  8
0
 10
0.0
 20
0.0
 30
0.0
 70
128
 71
287
 72
286
 73
288
  0
VERTEX
  8
0
 10
0.0
 20
0.0
 30
0.0
 70
128
 71
287
 72
285
 73
286
  0
VERTEX
  8
0
 10
0.0
 20
0.0
 30
0.0
 70
128
 71
289
 72
287
 73
288
  0
VERTEX
  8
0
 10
0.0
 20
0.0
 30
0.0
 70
128
 71
289
 72
288
 73
290
  0
VERTEX
  8
0
 10
0.0
 20
0.0
 30
0.0
 70
128
 71
291
 72
289
 73
290
  0
VERTEX
  8
0
 10
0.0
 20
0.0
 30
0.0
 70
128
 71
291
 72
290
 73
292
  0
VERTEX
  8
0
 10
0.0
 20
0.0
 30
0.0
 70
128
 71
293
 72
291
 73
292
  0
VERTEX
  8
0
 10
0.0
 20
0.0
 30
0.0
 70
128
 71
293
 72
292
 73
294
  0
VERTEX
  8
0
 10
0.0
 20
0.0
 30
0.0
 70
128
 71
295
 72
293
 73
294
  0
VERTEX
  8
0
 10
0.0
 20
0.0
 30
0.0
 70
128
 71
295
 72
294
 73
296
  0
VERTEX
  8
0
 10
0.0
 20
0.0
 30
0.0
 70
128
 71
297
 72
295
 73
296
  0
VERTEX
  8
0
 10
0.0
 20
0.0
 30
0.0
 70
128
 71
297
 72
296
 73
298
  0
VERTEX
  8
0
 10
0.0
 20
0.0
 30
0.0
 70
128
 71
299
 72
297
 73
298
  0
VERTEX
  8
0
 10
0.0
 20
0.0
 30
0.0
 70
128
 71
299
 72
298
 73
300
  0
VERTEX
  8
0
 10
0.0
 20
0.0
 30
0.0
 70
128
 71
301
 72
299
 73
300
  0
VERTEX
  8
0
 10
0.0
 20
0.0
 30
0.0
 70
128
 71
301
 72
300
 73
302
  0
VERTEX
  8
0
 10
0.0
 20
0.0
 30
0.0
 70
128
 71
303
 72
301
 73
302
  0
VERTEX
  8
0
 10
0.0
 20
0.0
 30
0.0
 70
128
 71
303
 72
302
 73
304
  0
VERTEX
  8
0
 10
0.0
 20
0.0
 30
0.0
 70
128
 71
162
 72
303
 73
304
  0
VERTEX
  8
0
 10
0.0
 20
0.0
 30
0.0
 70
128
 71
162
 72
304
 73
163
  0
VERTEX
  8
0
 10
0.0
 20
0.0
 30
0.0
 70
128
 71
305
 72
306
 73
307
  0
VERTEX
  8
0
 10
0.0
 20
0.0
 30
0.0
 70
128
 71
308
 72
306
 73
305
  0
VERTEX
  8
0
 10
0.0
 20
0.0
 30
0.0
 70
128
 71
309
 72
310
 73
311
  0
VERTEX
  8
0
 10
0.0
 20
0.0
 30
0.0
 70
128
 71
312
 72
313
 73
314
  0
VERTEX
  8
0
 10
0.0
 20
0.0
 30
0.0
 70
128
 71
312
 72
314
 73
315
  0
VERTEX
  8
0
 10
0.0
 20
0.0
 30
0.0
 70
128
 71
306
 72
309
 73
311
  0
VERTEX
  8
0
 10
0.0
 20
0.0
 30
0.0
 70
128
 71
306
 72
311
 73
307
  0
VERTEX
  8
0
 10
0.0
 20
0.0
 30
0.0
 70
128
 71
316
 72
312
 73
315
  0
VERTEX
  8
0
 10
0.0
 20
0.0
 30
0.0
 70
128
 71
316
 72
315
 73
317
  0
VERTEX
  8
0
 10
0.0
 20
0.0
 30
0.0
 70
128
 71
318
 72
317
 73
319
  0
VERTEX
  8
0
 10
0.0
 20
0.0
 30
0.0
 70
128
 71
318
 72
316
 73
317
  0
VERTEX
  8
0
 10
0.0
 20
0.0
 30
0.0
 70
128
 71
320
 72
321
 73
322
  0
VERTEX
  8
0
 10
0.0
 20
0.0
 30
0.0
 70
128
 71
320
 72
322
 73
323
  0
VERTEX
  8
0
 10
0.0
 20
0.0
 30
0.0
 70
128
 71
324
 72
319
 73
325
  0
VERTEX
  8
0
 10
0.0
 20
0.0
 30
0.0
 70
128
 71
324
 72
318
 73
319
  0
VERTEX
  8
0
 10
0.0
 20
0.0
 30
0.0
 70
128
 71
326
 72
323
 73
327
  0
VERTEX
  8
0
 10
0.0
 20
0.0
 30
0.0
 70
128
 71
326
 72
320
 73
323
  0
VERTEX
  8
0
 10
0.0
 20
0.0
 30
0.0
 70
128
 71
328
 72
324
 73
325
  0
VERTEX
  8
0
 10
0.0
 20
0.0
 30
0.0
 70
128
 71
328
 72
325
 73
329
  0
VERTEX
  8
0
 10
0.0
 20
0.0
 30
0.0
 70
128
 71
330
 72
327
 73
331
  0
VERTEX
  8
0
 10
0.0
 20
0.0
 30
0.0
 70
128
 71
330
 72
326
 73
327
  0
VERTEX
  8
0
 10
0.0
 20
0.0
 30
0.0
 70
128
 71
332
 72
329
 73
333
  0
VERTEX
  8
0
 10
0.0
 20
0.0
 30
0.0
 70
128
 71
332
 72
328
 73
329
  0
VERTEX
  8
0
 10
0.0
 20
0.0
 30
0.0
 70
128
 71
334
 72
331
 73
335
  0
VERTEX
  8
0
 10
0.0
 20
0.0
 30
0.0
 70
128
 71
336
 72
333
 73
337
  0
VERTEX
  8
0
 10
0.0
 20
0.0
 30
0.0
 70
128
 71
334
 72
330
 73
331
  0
VERTEX
  8
0
 10
0.0
 20
0.0
 30
0.0
 70
128
 71
336
 72
332
 73
333
  0
VERTEX
  8
0
 10
0.0
 20
0.0
 30
0.0
 70
128
 71
338
 72
334
 73
335
  0
VERTEX
  8
0
 10
0.0
 20
0.0
 30
0.0
 70
128
 71
339
 72
337
 73
340
  0
VERTEX
  8
0
 10
0.0
 20
0.0
 30
0.0
 70
128
 71
338
 72
335
 73
341
  0
VERTEX
  8
0
 10
0.0
 20
0.0
 30
0.0
 70
128
 71
339
 72
336
 73
337
  0
VERTEX
  8
0
 10
0.0
 20
0.0
 30
0.0
 70
128
 71
342
 72
340
 73
343
  0
VERTEX
  8
0
 10
0.0
 20
0.0
 30
0.0
 70
128
 71
344
 72
338
 73
341
  0
VERTEX
  8
0
 10
0.0
 20
0.0
 30
0.0
 70
128
 71
344
 72
341
 73
345
  0
VERTEX
  8
0
 10
0.0
 20
0.0
 30
0.0
 70
128
 71
342
 72
339
 73
340
  0
VERTEX
  8
0
 10
0.0
 20
0.0
 30
0.0
 70
128
 71
346
 72
343
 73
347
  0
VERTEX
  8
0
 10
0.0
 20
0.0
 30
0.0
 70
128
 71
348
 72
344
 73
345
  0
VERTEX
  8
0
 10
0.0
 20
0.0
 30
0.0
 70
128
 71
348
 72
345
 73
349
  0
VERTEX
  8
0
 10
0.0
 20
0.0
 30
0.0
 70
128
 71
346
 72
342
 73
343
  0
VERTEX
  8
0
 10
0.0
 20
0.0
 30
0.0
 70
128
 71
350
 72
347
 73
351
  0
VERTEX
  8
0
 10
0.0
 20
0.0
 30
0.0
 70
128
 71
352
 72
348
 73
349
  0
VERTEX
  8
0
 10
0.0
 20
0.0
 30
0.0
 70
128
 71
352
 72
349
 73
353
  0
VERTEX
  8
0
 10
0.0
 20
0.0
 30
0.0
 70
128
 71
350
 72
346
 73
347
  0
VERTEX
  8
0
 10
0.0
 20
0.0
 30
0.0
 70
128
 71
354
 72
351
 73
355
  0
VERTEX
  8
0
 10
0.0
 20
0.0
 30
0.0
 70
128
 71
356
 72
352
 73
353
  0
VERTEX
  8
0
 10
0.0
 20
0.0
 30
0.0
 70
128
 71
356
 72
353
 73
357
  0
VERTEX
  8
0
 10
0.0
 20
0.0
 30
0.0
 70
128
 71
354
 72
350
 73
351
  0
VERTEX
  8
0
 10
0.0
 20
0.0
 30
0.0
 70
128
 71
358
 72
355
 73
359
  0
VERTEX
  8
0
 10
0.0
 20
0.0
 30
0.0
 70
128
 71
360
 72
356
 73
357
  0
VERTEX
  8
0
 10
0.0
 20
0.0
 30
0.0
 70
128
 71
360
 72
357
 73
361
  0
VERTEX
  8
0
 10
0.0
 20
0.0
 30
0.0
 70
128
 71
358
 72
354
 73
355
  0
VERTEX
  8
0
 10
0.0
 20
0.0
 30
0.0
 70
128
 71
362
 72
359
 73
363
  0
VERTEX
  8
0
 10
0.0
 20
0.0
 30
0.0
 70
128
 71
364
 72
360
 73
361
  0
VERTEX
  8
0
 10
0.0
 20
0.0
 30
0.0
 70
128
 71
364
 72
361
 73
365
  0
VERTEX
  8
0
 10
0.0
 20
0.0
 30
0.0
 70
128
 71
362
 72
358
 73
359
  0
VERTEX
  8
0
 10
0.0
 20
0.0
 30
0.0
 70
128
 71
366
 72
362
 73
363
  0
VERTEX
  8
0
 10
0.0
 20
0.0
 30
0.0
 70
128
 71
367
 72
364
 73
365
  0
VERTEX
  8
0
 10
0.0
 20
0.0
 30
0.0
 70
128
 71
366
 72
363
 73
368
  0
VERTEX
  8
0
 10
0.0
 20
0.0
 30
0.0
 70
128
 71
367
 72
365
 73
369
  0
VERTEX
  8
0
 10
0.0
 20
0.0
 30
0.0
 70
128
 71
370
 72
366
 73
368
  0
VERTEX
  8
0
 10
0.0
 20
0.0
 30
0.0
 70
128
 71
371
 72
367
 73
369
  0
VERTEX
  8
0
 10
0.0
 20
0.0
 30
0.0
 70
128
 71
370
 72
368
 73
372
  0
VERTEX
  8
0
 10
0.0
 20
0.0
 30
0.0
 70
128
 71
371
 72
369
 73
373
  0
VERTEX
  8
0
 10
0.0
 20
0.0
 30
0.0
 70
128
 71
374
 72
370
 73
372
  0
VERTEX
  8
0
 10
0.0
 20
0.0
 30
0.0
 70
128
 71
375
 72
371
 73
373
  0
VERTEX
  8
0
 10
0.0
 20
0.0
 30
0.0
 70
128
 71
374
 72
372
 73
376
  0
VERTEX
  8
0
 10
0.0
 20
0.0
 30
0.0
 70
128
 71
375
 72
373
 73
377
  0
VERTEX
  8
0
 10
0.0
 20
0.0
 30
0.0
 70
128
 71
378
 72
374
 73
376
  0
VERTEX
  8
0
 10
0.0
 20
0.0
 30
0.0
 70
128
 71
379
 72
375
 73
377
  0
VERTEX
  8
0
 10
0.0
 20
0.0
 30
0.0
 70
128
 71
378
 72
376
 73
380
  0
VERTEX
  8
0
 10
0.0
 20
0.0
 30
0.0
 70
128
 71
379
 72
377
 73
381
  0
VERTEX
  8
0
 10
0.0
 20
0.0
 30
0.0
 70
128
 71
382
 72
378
 73
380
  0
VERTEX
  8
0
 10
0.0
 20
0.0
 30
0.0
 70
128
 71
313
 72
379
 73
381
  0
VERTEX
  8
0
 10
0.0
 20
0.0
 30
0.0
 70
128
 71
382
 72
380
 73
310
  0
VERTEX
  8
0
 10
0.0
 20
0.0
 30
0.0
 70
128
 71
313
 72
381
 73
314
  0
VERTEX
  8
0
 10
0.0
 20
0.0
 30
0.0
 70
128
 71
309
 72
382
 73
310
  0
VERTEX
  8
0
 10
0.0
 20
0.0
 30
0.0
 70
128
 71
321
 72
383
 73
322
  0
VERTEX
  8
0
 10
0.0
 20
0.0
 30
0.0
 70
128
 71
321
 72
384
 73
383
  0
VERTEX
  8
0
 10
0.0
 20
0.0
 30
0.0
 70
128
 71
385
 72
386
 73
387
  0
VERTEX
  8
0
 10
0.0
 20
0.0
 30
0.0
 70
128
 71
385
 72
387
 73
388
  0
VERTEX
  8
0
 10
0.0
 20
0.0
 30
0.0
 70
128
 71
389
 72
385
 73
388
  0
VERTEX
  8
0
 10
0.0
 20
0.0
 30
0.0
 70
128
 71
389
 72
388
 73
390
  0
VERTEX
  8
0
 10
0.0
 20
0.0
 30
0.0
 70
128
 71
391
 72
389
 73
390
  0
VERTEX
  8
0
 10
0.0
 20
0.0
 30
0.0
 70
128
 71
391
 72
390
 73
392
  0
VERTEX
  8
0
 10
0.0
 20
0.0
 30
0.0
 70
128
 71
393
 72
308
 73
305
  0
VERTEX
  8
0
 10
0.0
 20
0.0
 30
0.0
 70
128
 71
393
 72
305
 73
394
  0
VERTEX
  8
0
 10
0.0
 20
0.0
 30
0.0
 70
128
 71
395
 72
391
 73
392
  0
VERTEX
  8
0
 10
0.0
 20
0.0
 30
0.0
 70
128
 71
395
 72
392
 73
396
  0
VERTEX
  8
0
 10
0.0
 20
0.0
 30
0.0
 70
128
 71
397
 72
396
 73
398
  0
VERTEX
  8
0
 10
0.0
 20
0.0
 30
0.0
 70
128
 71
399
 72
394
 73
400
  0
VERTEX
  8
0
 10
0.0
 20
0.0
 30
0.0
 70
128
 71
397
 72
395
 73
396
  0
VERTEX
  8
0
 10
0.0
 20
0.0
 30
0.0
 70
128
 71
399
 72
393
 73
394
  0
VERTEX
  8
0
 10
0.0
 20
0.0
 30
0.0
 70
128
 71
401
 72
400
 73
402
  0
VERTEX
  8
0
 10
0.0
 20
0.0
 30
0.0
 70
128
 71
403
 72
398
 73
404
  0
VERTEX
  8
0
 10
0.0
 20
0.0
 30
0.0
 70
128
 71
401
 72
399
 73
400
  0
VERTEX
  8
0
 10
0.0
 20
0.0
 30
0.0
 70
128
 71
403
 72
397
 73
398
  0
VERTEX
  8
0
 10
0.0
 20
0.0
 30
0.0
 70
128
 71
405
 72
402
 73
406
  0
VERTEX
  8
0
 10
0.0
 20
0.0
 30
0.0
 70
128
 71
407
 72
404
 73
408
  0
VERTEX
  8
0
 10
0.0
 20
0.0
 30
0.0
 70
128
 71
405
 72
401
 73
402
  0
VERTEX
  8
0
 10
0.0
 20
0.0
 30
0.0
 70
128
 71
407
 72
403
 73
404
  0
VERTEX
  8
0
 10
0.0
 20
0.0
 30
0.0
 70
128
 71
409
 72
408
 73
410
  0
VERTEX
  8
0
 10
0.0
 20
0.0
 30
0.0
 70
128
 71
411
 72
406
 73
412
  0
VERTEX
  8
0
 10
0.0
 20
0.0
 30
0.0
 70
128
 71
409
 72
407
 73
408
  0
VERTEX
  8
0
 10
0.0
 20
0.0
 30
0.0
 70
128
 71
411
 72
405
 73
406
  0
VERTEX
  8
0
 10
0.0
 20
0.0
 30
0.0
 70
128
 71
413
 72
410
 73
414
  0
VERTEX
  8
0
 10
0.0
 20
0.0
 30
0.0
 70
128
 71
415
 72
412
 73
416
  0
VERTEX
  8
0
 10
0.0
 20
0.0
 30
0.0
 70
128
 71
413
 72
409
 73
410
  0
VERTEX
  8
0
 10
0.0
 20
0.0
 30
0.0
 70
128
 71
415
 72
411
 73
412
  0
VERTEX
  8
0
 10
0.0
 20
0.0
 30
0.0
 70
128
 71
417
 72
414
 73
418
  0
VERTEX
  8
0
 10
0.0
 20
0.0
 30
0.0
 70
128
 71
419
 72
415
 73
416
  0
VERTEX
  8
0
 10
0.0
 20
0.0
 30
0.0
 70
128
 71
417
 72
413
 73
414
  0
VERTEX
  8
0
 10
0.0
 20
0.0
 30
0.0
 70
128
 71
419
 72
416
 73
420
  0
VERTEX
  8
0
 10
0.0
 20
0.0
 30
0.0
 70
128
 71
421
 72
418
 73
422
  0
VERTEX
  8
0
 10
0.0
 20
0.0
 30
0.0
 70
128
 71
423
 72
419
 73
420
  0
VERTEX
  8
0
 10
0.0
 20
0.0
 30
0.0
 70
128
 71
421
 72
417
 73
418
  0
VERTEX
  8
0
 10
0.0
 20
0.0
 30
0.0
 70
128
 71
423
 72
420
 73
424
  0
VERTEX
  8
0
 10
0.0
 20
0.0
 30
0.0
 70
128
 71
425
 72
422
 73
426
  0
VERTEX
  8
0
 10
0.0
 20
0.0
 30
0.0
 70
128
 71
427
 72
423
 73
424
  0
VERTEX
  8
0
 10
0.0
 20
0.0
 30
0.0
 70
128
 71
425
 72
421
 73
422
  0
VERTEX
  8
0
 10
0.0
 20
0.0
 30
0.0
 70
128
 71
427
 72
424
 73
428
  0
VERTEX
  8
0
 10
0.0
 20
0.0
 30
0.0
 70
128
 71
429
 72
426
 73
430
  0
VERTEX
  8
0
 10
0.0
 20
0.0
 30
0.0
 70
128
 71
429
 72
425
 73
426
  0
VERTEX
  8
0
 10
0.0
 20
0.0
 30
0.0
 70
128
 71
431
 72
427
 73
428
  0
VERTEX
  8
0
 10
0.0
 20
0.0
 30
0.0
 70
128
 71
431
 72
428
 73
432
  0
VERTEX
  8
0
 10
0.0
 20
0.0
 30
0.0
 70
128
 71
433
 72
429
 73
430
  0
VERTEX
  8
0
 10
0.0
 20
0.0
 30
0.0
 70
128
 71
433
 72
430
 73
434
  0
VERTEX
  8
0
 10
0.0
 20
0.0
 30
0.0
 70
128
 71
435
 72
431
 73
432
  0
VERTEX
  8
0
 10
0.0
 20
0.0
 30
0.0
 70
128
 71
435
 72
432
 73
436
  0
VERTEX
  8
0
 10
0.0
 20
0.0
 30
0.0
 70
128
 71
437
 72
433
 73
434
  0
VERTEX
  8
0
 10
0.0
 20
0.0
 30
0.0
 70
128
 71
437
 72
434
 73
438
  0
VERTEX
  8
0
 10
0.0
 20
0.0
 30
0.0
 70
128
 71
439
 72
435
 73
436
  0
VERTEX
  8
0
 10
0.0
 20
0.0
 30
0.0
 70
128
 71
439
 72
436
 73
440
  0
VERTEX
  8
0
 10
0.0
 20
0.0
 30
0.0
 70
128
 71
441
 72
437
 73
438
  0
VERTEX
  8
0
 10
0.0
 20
0.0
 30
0.0
 70
128
 71
441
 72
438
 73
442
  0
VERTEX
  8
0
 10
0.0
 20
0.0
 30
0.0
 70
128
 71
443
 72
439
 73
440
  0
VERTEX
  8
0
 10
0.0
 20
0.0
 30
0.0
 70
128
 71
443
 72
440
 73
444
  0
VERTEX
  8
0
 10
0.0
 20
0.0
 30
0.0
 70
128
 71
445
 72
441
 73
442
  0
VERTEX
  8
0
 10
0.0
 20
0.0
 30
0.0
 70
128
 71
445
 72
442
 73
446
  0
VERTEX
  8
0
 10
0.0
 20
0.0
 30
0.0
 70
128
 71
447
 72
443
 73
444
  0
VERTEX
  8
0
 10
0.0
 20
0.0
 30
0.0
 70
128
 71
447
 72
444
 73
448
  0
VERTEX
  8
0
 10
0.0
 20
0.0
 30
0.0
 70
128
 71
449
 72
446
 73
450
  0
VERTEX
  8
0
 10
0.0
 20
0.0
 30
0.0
 70
128
 71
449
 72
445
 73
446
  0
VERTEX
  8
0
 10
0.0
 20
0.0
 30
0.0
 70
128
 71
451
 72
449
 73
450
  0
VERTEX
  8
0
 10
0.0
 20
0.0
 30
0.0
 70
128
 71
452
 72
447
 73
448
  0
VERTEX
  8
0
 10
0.0
 20
0.0
 30
0.0
 70
128
 71
451
 72
450
 73
453
  0
VERTEX
  8
0
 10
0.0
 20
0.0
 30
0.0
 70
128
 71
452
 72
448
 73
454
  0
VERTEX
  8
0
 10
0.0
 20
0.0
 30
0.0
 70
128
 71
384
 72
451
 73
453
  0
VERTEX
  8
0
 10
0.0
 20
0.0
 30
0.0
 70
128
 71
384
 72
453
 73
383
  0
VERTEX
  8
0
 10
0.0
 20
0.0
 30
0.0
 70
128
 71
386
 72
452
 73
454
  0
VERTEX
  8
0
 10
0.0
 20
0.0
 30
0.0
 70
128
 71
386
 72
454
 73
387
  0
VERTEX
  8
0
 10
0.0
 20
0.0
 30
0.0
 70
128
 71
455
 72
456
 73
457
  0
VERTEX
  8
0
 10
0.0
 20
0.0
 30
0.0
 70
128
 71
458
 72
456
 73
455
  0
VERTEX
  8
0
 10
0.0
 20
0.0
 30
0.0
 70
128
 71
459
 72
460
 73
461
  0
VERTEX
  8
0
 10
0.0
 20
0.0
 30
0.0
 70
128
 71
459
 72
461
 73
462
  0
VERTEX
  8
0
 10
0.0
 20
0.0
 30
0.0
 70
128
 71
463
 72
459
 73
462
  0
VERTEX
  8
0
 10
0.0
 20
0.0
 30
0.0
 70
128
 71
463
 72
462
 73
464
  0
VERTEX
  8
0
 10
0.0
 20
0.0
 30
0.0
 70
128
 71
465
 72
463
 73
464
  0
VERTEX
  8
0
 10
0.0
 20
0.0
 30
0.0
 70
128
 71
465
 72
464
 73
466
  0
VERTEX
  8
0
 10
0.0
 20
0.0
 30
0.0
 70
128
 71
467
 72
468
 73
469
  0
VERTEX
  8
0
 10
0.0
 20
0.0
 30
0.0
 70
128
 71
467
 72
469
 73
470
  0
VERTEX
  8
0
 10
0.0
 20
0.0
 30
0.0
 70
128
 71
471
 72
465
 73
466
  0
VERTEX
  8
0
 10
0.0
 20
0.0
 30
0.0
 70
128
 71
471
 72
466
 73
472
  0
VERTEX
  8
0
 10
0.0
 20
0.0
 30
0.0
 70
128
 71
473
 72
472
 73
474
  0
VERTEX
  8
0
 10
0.0
 20
0.0
 30
0.0
 70
128
 71
475
 72
470
 73
476
  0
VERTEX
  8
0
 10
0.0
 20
0.0
 30
0.0
 70
128
 71
473
 72
471
 73
472
  0
VERTEX
  8
0
 10
0.0
 20
0.0
 30
0.0
 70
128
 71
475
 72
467
 73
470
  0
VERTEX
  8
0
 10
0.0
 20
0.0
 30
0.0
 70
128
 71
477
 72
474
 73
478
  0
VERTEX
  8
0
 10
0.0
 20
0.0
 30
0.0
 70
128
 71
479
 72
476
 73
480
  0
VERTEX
  8
0
 10
0.0
 20
0.0
 30
0.0
 70
128
 71
477
 72
473
 73
474
  0
VERTEX
  8
0
 10
0.0
 20
0.0
 30
0.0
 70
128
 71
479
 72
475
 73
476
  0
VERTEX
  8
0
 10
0.0
 20
0.0
 30
0.0
 70
128
 71
481
 72
480
 73
482
  0
VERTEX
  8
0
 10
0.0
 20
0.0
 30
0.0
 70
128
 71
483
 72
478
 73
484
  0
VERTEX
  8
0
 10
0.0
 20
0.0
 30
0.0
 70
128
 71
481
 72
479
 73
480
  0
VERTEX
  8
0
 10
0.0
 20
0.0
 30
0.0
 70
128
 71
483
 72
477
 73
478
  0
VERTEX
  8
0
 10
0.0
 20
0.0
 30
0.0
 70
128
 71
485
 72
484
 73
486
  0
VERTEX
  8
0
 10
0.0
 20
0.0
 30
0.0
 70
128
 71
487
 72
482
 73
488
  0
VERTEX
  8
0
 10
0.0
 20
0.0
 30
0.0
 70
128
 71
485
 72
483
 73
484
  0
VERTEX
  8
0
 10
0.0
 20
0.0
 30
0.0
 70
128
 71
487
 72
481
 73
482
  0
VERTEX
  8
0
 10
0.0
 20
0.0
 30
0.0
 70
128
 71
489
 72
486
 73
490
  0
VERTEX
  8
0
 10
0.0
 20
0.0
 30
0.0
 70
128
 71
491
 72
488
 73
492
  0
VERTEX
  8
0
 10
0.0
 20
0.0
 30
0.0
 70
128
 71
489
 72
485
 73
486
  0
VERTEX
  8
0
 10
0.0
 20
0.0
 30
0.0
 70
128
 71
491
 72
487
 73
488
  0
VERTEX
  8
0
 10
0.0
 20
0.0
 30
0.0
 70
128
 71
493
 72
490
 73
494
  0
VERTEX
  8
0
 10
0.0
 20
0.0
 30
0.0
 70
128
 71
495
 72
491
 73
492
  0
VERTEX
  8
0
 10
0.0
 20
0.0
 30
0.0
 70
128
 71
493
 72
489
 73
490
  0
VERTEX
  8
0
 10
0.0
 20
0.0
 30
0.0
 70
128
 71
495
 72
492
 73
496
  0
VERTEX
  8
0
 10
0.0
 20
0.0
 30
0.0
 70
128
 71
497
 72
494
 73
498
  0
VERTEX
  8
0
 10
0.0
 20
0.0
 30
0.0
 70
128
 71
499
 72
495
 73
496
  0
VERTEX
  8
0
 10
0.0
 20
0.0
 30
0.0
 70
128
 71
497
 72
493
 73
494
  0
VERTEX
  8
0
 10
0.0
 20
0.0
 30
0.0
 70
128
 71
499
 72
496
 73
500
  0
VERTEX
  8
0
 10
0.0
 20
0.0
 30
0.0
 70
128
 71
501
 72
498
 73
502
  0
VERTEX
  8
0
 10
0.0
 20
0.0
 30
0.0
 70
128
 71
503
 72
499
 73
500
  0
VERTEX
  8
0
 10
0.0
 20
0.0
 30
0.0
 70
128
 71
501
 72
497
 73
498
  0
VERTEX
  8
0
 10
0.0
 20
0.0
 30
0.0
 70
128
 71
503
 72
500
 73
504
  0
VERTEX
  8
0
 10
0.0
 20
0.0
 30
0.0
 70
128
 71
505
 72
502
 73
506
  0
VERTEX
  8
0
 10
0.0
 20
0.0
 30
0.0
 70
128
 71
507
 72
503
 73
504
  0
VERTEX
  8
0
 10
0.0
 20
0.0
 30
0.0
 70
128
 71
505
 72
501
 73
502
  0
VERTEX
  8
0
 10
0.0
 20
0.0
 30
0.0
 70
128
 71
507
 72
504
 73
508
  0
VERTEX
  8
0
 10
0.0
 20
0.0
 30
0.0
 70
128
 71
509
 72
506
 73
510
  0
VERTEX
  8
0
 10
0.0
 20
0.0
 30
0.0
 70
128
 71
509
 72
505
 73
506
  0
VERTEX
  8
0
 10
0.0
 20
0.0
 30
0.0
 70
128
 71
511
 72
507
 73
508
  0
VERTEX
  8
0
 10
0.0
 20
0.0
 30
0.0
 70
128
 71
511
 72
508
 73
512
  0
VERTEX
  8
0
 10
0.0
 20
0.0
 30
0.0
 70
128
 71
513
 72
509
 73
510
  0
VERTEX
  8
0
 10
0.0
 20
0.0
 30
0.0
 70
128
 71
513
 72
510
 73
514
  0
VERTEX
  8
0
 10
0.0
 20
0.0
 30
0.0
 70
128
 71
515
 72
511
 73
512
  0
VERTEX
  8
0
 10
0.0
 20
0.0
 30
0.0
 70
128
 71
515
 72
512
 73
516
  0
VERTEX
  8
0
 10
0.0
 20
0.0
 30
0.0
 70
128
 71
517
 72
513
 73
514
  0
VERTEX
  8
0
 10
0.0
 20
0.0
 30
0.0
 70
128
 71
517
 72
514
 73
518
  0
VERTEX
  8
0
 10
0.0
 20
0.0
 30
0.0
 70
128
 71
519
 72
515
 73
516
  0
VERTEX
  8
0
 10
0.0
 20
0.0
 30
0.0
 70
128
 71
519
 72
516
 73
520
  0
VERTEX
  8
0
 10
0.0
 20
0.0
 30
0.0
 70
128
 71
521
 72
517
 73
518
  0
VERTEX
  8
0
 10
0.0
 20
0.0
 30
0.0
 70
128
 71
521
 72
518
 73
522
  0
VERTEX
  8
0
 10
0.0
 20
0.0
 30
0.0
 70
128
 71
523
 72
519
 73
520
  0
VERTEX
  8
0
 10
0.0
 20
0.0
 30
0.0
 70
128
 71
523
 72
520
 73
524
  0
VERTEX
  8
0
 10
0.0
 20
0.0
 30
0.0
 70
128
 71
525
 72
521
 73
522
  0
VERTEX
  8
0
 10
0.0
 20
0.0
 30
0.0
 70
128
 71
525
 72
522
 73
526
  0
VERTEX
  8
0
 10
0.0
 20
0.0
 30
0.0
 70
128
 71
527
 72
523
 73
524
  0
VERTEX
  8
0
 10
0.0
 20
0.0
 30
0.0
 70
128
 71
528
 72
525
 73
526
  0
VERTEX
  8
0
 10
0.0
 20
0.0
 30
0.0
 70
128
 71
527
 72
524
 73
529
  0
VERTEX
  8
0
 10
0.0
 20
0.0
 30
0.0
 70
128
 71
528
 72
526
 73
530
  0
VERTEX
  8
0
 10
0.0
 20
0.0
 30
0.0
 70
128
 71
456
 72
528
 73
530
  0
VERTEX
  8
0
 10
0.0
 20
0.0
 30
0.0
 70
128
 71
456
 72
530
 73
457
  0
VERTEX
  8
0
 10
0.0
 20
0.0
 30
0.0
 70
128
 71
460
 72
527
 73
529
  0
VERTEX
  8
0
 10
0.0
 20
0.0
 30
0.0
 70
128
 71
460
 72
529
 73
461
  0
VERTEX
  8
0
 10
0.0
 20
0.0
 30
0.0
 70
128
 71
468
 72
531
 73
469
  0
VERTEX
  8
0
 10
0.0
 20
0.0
 30
0.0
 70
128
 71
468
 72
532
 73
531
  0
VERTEX
  8
0
 10
0.0
 20
0.0
 30
0.0
 70
128
 71
533
 72
534
 73
535
  0
VERTEX
  8
0
 10
0.0
 20
0.0
 30
0.0
 70
128
 71
533
 72
535
 73
536
  0
VERTEX
  8
0
 10
0.0
 20
0.0
 30
0.0
 70
128
 71
537
 72
533
 73
536
  0
VERTEX
  8
0
 10
0.0
 20
0.0
 30
0.0
 70
128
 71
537
 72
536
 73
538
  0
VERTEX
  8
0
 10
0.0
 20
0.0
 30
0.0
 70
128
 71
539
 72
537
 73
538
  0
VERTEX
  8
0
 10
0.0
 20
0.0
 30
0.0
 70
128
 71
539
 72
538
 73
540
  0
VERTEX
  8
0
 10
0.0
 20
0.0
 30
0.0
 70
128
 71
541
 72
458
 73
455
  0
VERTEX
  8
0
 10
0.0
 20
0.0
 30
0.0
 70
128
 71
541
 72
455
 73
542
  0
VERTEX
  8
0
 10
0.0
 20
0.0
 30
0.0
 70
128
 71
543
 72
539
 73
540
  0
VERTEX
  8
0
 10
0.0
 20
0.0
 30
0.0
 70
128
 71
543
 72
540
 73
544
  0
VERTEX
  8
0
 10
0.0
 20
0.0
 30
0.0
 70
128
 71
545
 72
542
 73
546
  0
VERTEX
  8
0
 10
0.0
 20
0.0
 30
0.0
 70
128
 71
545
 72
541
 73
542
  0
VERTEX
  8
0
 10
0.0
 20
0.0
 30
0.0
 70
128
 71
547
 72
544
 73
548
  0
VERTEX
  8
0
 10
0.0
 20
0.0
 30
0.0
 70
128
 71
547
 72
543
 73
544
  0
VERTEX
  8
0
 10
0.0
 20
0.0
 30
0.0
 70
128
 71
549
 72
548
 73
550
  0
VERTEX
  8
0
 10
0.0
 20
0.0
 30
0.0
 70
128
 71
551
 72
546
 73
552
  0
VERTEX
  8
0
 10
0.0
 20
0.0
 30
0.0
 70
128
 71
549
 72
547
 73
548
  0
VERTEX
  8
0
 10
0.0
 20
0.0
 30
0.0
 70
128
 71
551
 72
545
 73
546
  0
VERTEX
  8
0
 10
0.0
 20
0.0
 30
0.0
 70
128
 71
553
 72
552
 73
554
  0
VERTEX
  8
0
 10
0.0
 20
0.0
 30
0.0
 70
128
 71
555
 72
550
 73
556
  0
VERTEX
  8
0
 10
0.0
 20
0.0
 30
0.0
 70
128
 71
553
 72
551
 73
552
  0
VERTEX
  8
0
 10
0.0
 20
0.0
 30
0.0
 70
128
 71
555
 72
549
 73
550
  0
VERTEX
  8
0
 10
0.0
 20
0.0
 30
0.0
 70
128
 71
557
 72
556
 73
558
  0
VERTEX
  8
0
 10
0.0
 20
0.0
 30
0.0
 70
128
 71
559
 72
554
 73
560
  0
VERTEX
  8
0
 10
0.0
 20
0.0
 30
0.0
 70
128
 71
557
 72
555
 73
556
  0
VERTEX
  8
0
 10
0.0
 20
0.0
 30
0.0
 70
128
 71
559
 72
553
 73
554
  0
VERTEX
  8
0
 10
0.0
 20
0.0
 30
0.0
 70
128
 71
561
 72
558
 73
562
  0
VERTEX
  8
0
 10
0.0
 20
0.0
 30
0.0
 70
128
 71
563
 72
560
 73
564
  0
VERTEX
  8
0
 10
0.0
 20
0.0
 30
0.0
 70
128
 71
561
 72
557
 73
558
  0
VERTEX
  8
0
 10
0.0
 20
0.0
 30
0.0
 70
128
 71
563
 72
559
 73
560
  0
VERTEX
  8
0
 10
0.0
 20
0.0
 30
0.0
 70
128
 71
565
 72
562
 73
566
  0
VERTEX
  8
0
 10
0.0
 20
0.0
 30
0.0
 70
128
 71
567
 72
563
 73
564
  0
VERTEX
  8
0
 10
0.0
 20
0.0
 30
0.0
 70
128
 71
565
 72
561
 73
562
  0
VERTEX
  8
0
 10
0.0
 20
0.0
 30
0.0
 70
128
 71
567
 72
564
 73
568
  0
VERTEX
  8
0
 10
0.0
 20
0.0
 30
0.0
 70
128
 71
569
 72
566
 73
570
  0
VERTEX
  8
0
 10
0.0
 20
0.0
 30
0.0
 70
128
 71
571
 72
567
 73
568
  0
VERTEX
  8
0
 10
0.0
 20
0.0
 30
0.0
 70
128
 71
569
 72
565
 73
566
  0
VERTEX
  8
0
 10
0.0
 20
0.0
 30
0.0
 70
128
 71
571
 72
568
 73
572
  0
VERTEX
  8
0
 10
0.0
 20
0.0
 30
0.0
 70
128
 71
573
 72
570
 73
574
  0
VERTEX
  8
0
 10
0.0
 20
0.0
 30
0.0
 70
128
 71
575
 72
571
 73
572
  0
VERTEX
  8
0
 10
0.0
 20
0.0
 30
0.0
 70
128
 71
573
 72
569
 73
570
  0
VERTEX
  8
0
 10
0.0
 20
0.0
 30
0.0
 70
128
 71
575
 72
572
 73
576
  0
VERTEX
  8
0
 10
0.0
 20
0.0
 30
0.0
 70
128
 71
577
 72
574
 73
578
  0
VERTEX
  8
0
 10
0.0
 20
0.0
 30
0.0
 70
128
 71
579
 72
575
 73
576
  0
VERTEX
  8
0
 10
0.0
 20
0.0
 30
0.0
 70
128
 71
577
 72
573
 73
574
  0
VERTEX
  8
0
 10
0.0
 20
0.0
 30
0.0
 70
128
 71
579
 72
576
 73
580
  0
VERTEX
  8
0
 10
0.0
 20
0.0
 30
0.0
 70
128
 71
581
 72
578
 73
582
  0
VERTEX
  8
0
 10
0.0
 20
0.0
 30
0.0
 70
128
 71
583
 72
579
 73
580
  0
VERTEX
  8
0
 10
0.0
 20
0.0
 30
0.0
 70
128
 71
583
 72
580
 73
584
  0
VERTEX
  8
0
 10
0.0
 20
0.0
 30
0.0
 70
128
 71
581
 72
577
 73
578
  0
VERTEX
  8
0
 10
0.0
 20
0.0
 30
0.0
 70
128
 71
585
 72
581
 73
582
  0
VERTEX
  8
0
 10
0.0
 20
0.0
 30
0.0
 70
128
 71
585
 72
582
 73
586
  0
VERTEX
  8
0
 10
0.0
 20
0.0
 30
0.0
 70
128
 71
587
 72
583
 73
584
  0
VERTEX
  8
0
 10
0.0
 20
0.0
 30
0.0
 70
128
 71
587
 72
584
 73
588
  0
VERTEX
  8
0
 10
0.0
 20
0.0
 30
0.0
 70
128
 71
589
 72
585
 73
586
  0
VERTEX
  8
0
 10
0.0
 20
0.0
 30
0.0
 70
128
 71
589
 72
586
 73
590
  0
VERTEX
  8
0
 10
0.0
 20
0.0
 30
0.0
 70
128
 71
591
 72
587
 73
588
  0
VERTEX
  8
0
 10
0.0
 20
0.0
 30
0.0
 70
128
 71
591
 72
588
 73
592
  0
VERTEX
  8
0
 10
0.0
 20
0.0
 30
0.0
 70
128
 71
593
 72
589
 73
590
  0
VERTEX
  8
0
 10
0.0
 20
0.0
 30
0.0
 70
128
 71
593
 72
590
 73
594
  0
VERTEX
  8
0
 10
0.0
 20
0.0
 30
0.0
 70
128
 71
595
 72
591
 73
592
  0
VERTEX
  8
0
 10
0.0
 20
0.0
 30
0.0
 70
128
 71
595
 72
592
 73
596
  0
VERTEX
  8
0
 10
0.0
 20
0.0
 30
0.0
 70
128
 71
597
 72
593
 73
594
  0
VERTEX
  8
0
 10
0.0
 20
0.0
 30
0.0
 70
128
 71
597
 72
594
 73
598
  0
VERTEX
  8
0
 10
0.0
 20
0.0
 30
0.0
 70
128
 71
599
 72
597
 73
598
  0
VERTEX
  8
0
 10
0.0
 20
0.0
 30
0.0
 70
128
 71
600
 72
595
 73
596
  0
VERTEX
  8
0
 10
0.0
 20
0.0
 30
0.0
 70
128
 71
600
 72
596
 73
601
  0
VERTEX
  8
0
 10
0.0
 20
0.0
 30
0.0
 70
128
 71
599
 72
598
 73
602
  0
VERTEX
  8
0
 10
0.0
 20
0.0
 30
0.0
 70
128
 71
532
 72
599
 73
602
  0
VERTEX
  8
0
 10
0.0
 20
0.0
 30
0.0
 70
128
 71
532
 72
602
 73
531
  0
VERTEX
  8
0
 10
0.0
 20
0.0
 30
0.0
 70
128
 71
534
 72
600
 73
601
  0
VERTEX
  8
0
 10
0.0
 20
0.0
 30
0.0
 70
128
 71
534
 72
601
 73
535
  0
VERTEX
  8
0
 10
0.0
 20
0.0
 30
0.0
 70
128
 71
215
 72
389
 73
213
  0
VERTEX
  8
0
 10
0.0
 20
0.0
 30
0.0
 70
128
 71
385
 72
389
 73
215
  0
VERTEX
  8
0
 10
0.0
 20
0.0
 30
0.0
 70
128
 71
185
 72
534
 73
183
  0
VERTEX
  8
0
 10
0.0
 20
0.0
 30
0.0
 70
128
 71
534
 72
533
 73
183
  0
VERTEX
  8
0
 10
0.0
 20
0.0
 30
0.0
 70
128
 71
183
 72
533
 73
181
  0
VERTEX
  8
0
 10
0.0
 20
0.0
 30
0.0
 70
128
 71
213
 72
391
 73
211
  0
VERTEX
  8
0
 10
0.0
 20
0.0
 30
0.0
 70
128
 71
451
 72
541
 73
449
  0
VERTEX
  8
0
 10
0.0
 20
0.0
 30
0.0
 70
128
 71
449
 72
541
 73
545
  0
VERTEX
  8
0
 10
0.0
 20
0.0
 30
0.0
 70
128
 71
389
 72
391
 73
213
  0
VERTEX
  8
0
 10
0.0
 20
0.0
 30
0.0
 70
128
 71
533
 72
537
 73
181
  0
VERTEX
  8
0
 10
0.0
 20
0.0
 30
0.0
 70
128
 71
211
 72
395
 73
209
  0
VERTEX
  8
0
 10
0.0
 20
0.0
 30
0.0
 70
128
 71
181
 72
537
 73
179
  0
VERTEX
  8
0
 10
0.0
 20
0.0
 30
0.0
 70
128
 71
384
 72
458
 73
451
  0
VERTEX
  8
0
 10
0.0
 20
0.0
 30
0.0
 70
128
 71
451
 72
458
 73
541
  0
VERTEX
  8
0
 10
0.0
 20
0.0
 30
0.0
 70
128
 71
391
 72
395
 73
211
  0
VERTEX
  8
0
 10
0.0
 20
0.0
 30
0.0
 70
128
 71
321
 72
458
 73
384
  0
VERTEX
  8
0
 10
0.0
 20
0.0
 30
0.0
 70
128
 71
209
 72
397
 73
207
  0
VERTEX
  8
0
 10
0.0
 20
0.0
 30
0.0
 70
128
 71
537
 72
539
 73
179
  0
VERTEX
  8
0
 10
0.0
 20
0.0
 30
0.0
 70
128
 71
395
 72
397
 73
209
  0
VERTEX
  8
0
 10
0.0
 20
0.0
 30
0.0
 70
128
 71
539
 72
543
 73
179
  0
VERTEX
  8
0
 10
0.0
 20
0.0
 30
0.0
 70
128
 71
179
 72
543
 73
177
  0
VERTEX
  8
0
 10
0.0
 20
0.0
 30
0.0
 70
128
 71
543
 72
547
 73
177
  0
VERTEX
  8
0
 10
0.0
 20
0.0
 30
0.0
 70
128
 71
397
 72
403
 73
207
  0
VERTEX
  8
0
 10
0.0
 20
0.0
 30
0.0
 70
128
 71
177
 72
547
 73
175
  0
VERTEX
  8
0
 10
0.0
 20
0.0
 30
0.0
 70
128
 71
547
 72
549
 73
175
  0
VERTEX
  8
0
 10
0.0
 20
0.0
 30
0.0
 70
128
 71
207
 72
407
 73
205
  0
VERTEX
  8
0
 10
0.0
 20
0.0
 30
0.0
 70
128
 71
118
 72
251
 73
124
  0
VERTEX
  8
0
 10
0.0
 20
0.0
 30
0.0
 70
128
 71
403
 72
407
 73
207
  0
VERTEX
  8
0
 10
0.0
 20
0.0
 30
0.0
 70
128
 71
251
 72
253
 73
124
  0
VERTEX
  8
0
 10
0.0
 20
0.0
 30
0.0
 70
128
 71
124
 72
253
 73
126
  0
VERTEX
  8
0
 10
0.0
 20
0.0
 30
0.0
 70
128
 71
205
 72
409
 73
203
  0
VERTEX
  8
0
 10
0.0
 20
0.0
 30
0.0
 70
128
 71
407
 72
409
 73
205
  0
VERTEX
  8
0
 10
0.0
 20
0.0
 30
0.0
 70
128
 71
118
 72
249
 73
251
  0
VERTEX
  8
0
 10
0.0
 20
0.0
 30
0.0
 70
128
 71
114
 72
249
 73
118
  0
VERTEX
  8
0
 10
0.0
 20
0.0
 30
0.0
 70
128
 71
203
 72
413
 73
201
  0
VERTEX
  8
0
 10
0.0
 20
0.0
 30
0.0
 70
128
 71
253
 72
255
 73
126
  0
VERTEX
  8
0
 10
0.0
 20
0.0
 30
0.0
 70
128
 71
126
 72
255
 73
132
  0
VERTEX
  8
0
 10
0.0
 20
0.0
 30
0.0
 70
128
 71
409
 72
413
 73
203
  0
VERTEX
  8
0
 10
0.0
 20
0.0
 30
0.0
 70
128
 71
114
 72
247
 73
249
  0
VERTEX
  8
0
 10
0.0
 20
0.0
 30
0.0
 70
128
 71
110
 72
247
 73
114
  0
VERTEX
  8
0
 10
0.0
 20
0.0
 30
0.0
 70
128
 71
413
 72
417
 73
201
  0
VERTEX
  8
0
 10
0.0
 20
0.0
 30
0.0
 70
128
 71
255
 72
257
 73
132
  0
VERTEX
  8
0
 10
0.0
 20
0.0
 30
0.0
 70
128
 71
132
 72
257
 73
136
  0
VERTEX
  8
0
 10
0.0
 20
0.0
 30
0.0
 70
128
 71
201
 72
417
 73
199
  0
VERTEX
  8
0
 10
0.0
 20
0.0
 30
0.0
 70
128
 71
417
 72
421
 73
199
  0
VERTEX
  8
0
 10
0.0
 20
0.0
 30
0.0
 70
128
 71
106
 72
245
 73
110
  0
VERTEX
  8
0
 10
0.0
 20
0.0
 30
0.0
 70
128
 71
110
 72
245
 73
247
  0
VERTEX
  8
0
 10
0.0
 20
0.0
 30
0.0
 70
128
 71
257
 72
259
 73
136
  0
VERTEX
  8
0
 10
0.0
 20
0.0
 30
0.0
 70
128
 71
320
 72
456
 73
321
  0
VERTEX
  8
0
 10
0.0
 20
0.0
 30
0.0
 70
128
 71
199
 72
421
 73
197
  0
VERTEX
  8
0
 10
0.0
 20
0.0
 30
0.0
 70
128
 71
136
 72
259
 73
140
  0
VERTEX
  8
0
 10
0.0
 20
0.0
 30
0.0
 70
128
 71
421
 72
425
 73
197
  0
VERTEX
  8
0
 10
0.0
 20
0.0
 30
0.0
 70
128
 71
321
 72
456
 73
458
  0
VERTEX
  8
0
 10
0.0
 20
0.0
 30
0.0
 70
128
 71
320
 72
528
 73
456
  0
VERTEX
  8
0
 10
0.0
 20
0.0
 30
0.0
 70
128
 71
326
 72
528
 73
320
  0
VERTEX
  8
0
 10
0.0
 20
0.0
 30
0.0
 70
128
 71
102
 72
243
 73
106
  0
VERTEX
  8
0
 10
0.0
 20
0.0
 30
0.0
 70
128
 71
106
 72
243
 73
245
  0
VERTEX
  8
0
 10
0.0
 20
0.0
 30
0.0
 70
128
 71
259
 72
261
 73
140
  0
VERTEX
  8
0
 10
0.0
 20
0.0
 30
0.0
 70
128
 71
330
 72
525
 73
326
  0
VERTEX
  8
0
 10
0.0
 20
0.0
 30
0.0
 70
128
 71
140
 72
261
 73
144
  0
VERTEX
  8
0
 10
0.0
 20
0.0
 30
0.0
 70
128
 71
326
 72
525
 73
528
  0
VERTEX
  8
0
 10
0.0
 20
0.0
 30
0.0
 70
128
 71
330
 72
521
 73
525
  0
VERTEX
  8
0
 10
0.0
 20
0.0
 30
0.0
 70
128
 71
334
 72
521
 73
330
  0
VERTEX
  8
0
 10
0.0
 20
0.0
 30
0.0
 70
128
 71
98
 72
241
 73
102
  0
VERTEX
  8
0
 10
0.0
 20
0.0
 30
0.0
 70
128
 71
102
 72
241
 73
243
  0
VERTEX
  8
0
 10
0.0
 20
0.0
 30
0.0
 70
128
 71
261
 72
263
 73
144
  0
VERTEX
  8
0
 10
0.0
 20
0.0
 30
0.0
 70
128
 71
549
 72
153
 73
175
  0
VERTEX
  8
0
 10
0.0
 20
0.0
 30
0.0
 70
128
 71
555
 72
153
 73
549
  0
VERTEX
  8
0
 10
0.0
 20
0.0
 30
0.0
 70
128
 71
175
 72
153
 73
173
  0
VERTEX
  8
0
 10
0.0
 20
0.0
 30
0.0
 70
128
 71
557
 72
153
 73
555
  0
VERTEX
  8
0
 10
0.0
 20
0.0
 30
0.0
 70
128
 71
144
 72
263
 73
146
  0
VERTEX
  8
0
 10
0.0
 20
0.0
 30
0.0
 70
128
 71
561
 72
153
 73
557
  0
VERTEX
  8
0
 10
0.0
 20
0.0
 30
0.0
 70
128
 71
565
 72
153
 73
561
  0
VERTEX
  8
0
 10
0.0
 20
0.0
 30
0.0
 70
128
 71
569
 72
153
 73
565
  0
VERTEX
  8
0
 10
0.0
 20
0.0
 30
0.0
 70
128
 71
573
 72
153
 73
569
  0
VERTEX
  8
0
 10
0.0
 20
0.0
 30
0.0
 70
128
 71
577
 72
153
 73
573
  0
VERTEX
  8
0
 10
0.0
 20
0.0
 30
0.0
 70
128
 71
173
 72
153
 73
141
  0
VERTEX
  8
0
 10
0.0
 20
0.0
 30
0.0
 70
128
 71
581
 72
153
 73
577
  0
VERTEX
  8
0
 10
0.0
 20
0.0
 30
0.0
 70
128
 71
585
 72
153
 73
581
  0
VERTEX
  8
0
 10
0.0
 20
0.0
 30
0.0
 70
128
 71
589
 72
153
 73
585
  0
VERTEX
  8
0
 10
0.0
 20
0.0
 30
0.0
 70
128
 71
90
 72
239
 73
98
  0
VERTEX
  8
0
 10
0.0
 20
0.0
 30
0.0
 70
128
 71
593
 72
153
 73
589
  0
VERTEX
  8
0
 10
0.0
 20
0.0
 30
0.0
 70
128
 71
98
 72
239
 73
241
  0
VERTEX
  8
0
 10
0.0
 20
0.0
 30
0.0
 70
128
 71
597
 72
153
 73
593
  0
VERTEX
  8
0
 10
0.0
 20
0.0
 30
0.0
 70
128
 71
334
 72
517
 73
521
  0
VERTEX
  8
0
 10
0.0
 20
0.0
 30
0.0
 70
128
 71
338
 72
517
 73
334
  0
VERTEX
  8
0
 10
0.0
 20
0.0
 30
0.0
 70
128
 71
263
 72
265
 73
146
  0
VERTEX
  8
0
 10
0.0
 20
0.0
 30
0.0
 70
128
 71
146
 72
265
 73
148
  0
VERTEX
  8
0
 10
0.0
 20
0.0
 30
0.0
 70
128
 71
344
 72
513
 73
338
  0
VERTEX
  8
0
 10
0.0
 20
0.0
 30
0.0
 70
128
 71
90
 72
237
 73
239
  0
VERTEX
  8
0
 10
0.0
 20
0.0
 30
0.0
 70
128
 71
338
 72
513
 73
517
  0
VERTEX
  8
0
 10
0.0
 20
0.0
 30
0.0
 70
128
 71
148
 72
267
 73
150
  0
VERTEX
  8
0
 10
0.0
 20
0.0
 30
0.0
 70
128
 71
597
 72
155
 73
153
  0
VERTEX
  8
0
 10
0.0
 20
0.0
 30
0.0
 70
128
 71
599
 72
155
 73
597
  0
VERTEX
  8
0
 10
0.0
 20
0.0
 30
0.0
 70
128
 71
344
 72
509
 73
513
  0
VERTEX
  8
0
 10
0.0
 20
0.0
 30
0.0
 70
128
 71
265
 72
267
 73
148
  0
VERTEX
  8
0
 10
0.0
 20
0.0
 30
0.0
 70
128
 71
348
 72
509
 73
344
  0
VERTEX
  8
0
 10
0.0
 20
0.0
 30
0.0
 70
128
 71
90
 72
235
 73
237
  0
VERTEX
  8
0
 10
0.0
 20
0.0
 30
0.0
 70
128
 71
267
 72
269
 73
150
  0
VERTEX
  8
0
 10
0.0
 20
0.0
 30
0.0
 70
128
 71
150
 72
269
 73
152
  0
VERTEX
  8
0
 10
0.0
 20
0.0
 30
0.0
 70
128
 71
348
 72
505
 73
509
  0
VERTEX
  8
0
 10
0.0
 20
0.0
 30
0.0
 70
128
 71
90
 72
233
 73
235
  0
VERTEX
  8
0
 10
0.0
 20
0.0
 30
0.0
 70
128
 71
599
 72
157
 73
155
  0
VERTEX
  8
0
 10
0.0
 20
0.0
 30
0.0
 70
128
 71
532
 72
157
 73
599
  0
VERTEX
  8
0
 10
0.0
 20
0.0
 30
0.0
 70
128
 71
269
 72
271
 73
152
  0
VERTEX
  8
0
 10
0.0
 20
0.0
 30
0.0
 70
128
 71
152
 72
271
 73
92
  0
VERTEX
  8
0
 10
0.0
 20
0.0
 30
0.0
 70
128
 71
90
 72
231
 73
233
  0
VERTEX
  8
0
 10
0.0
 20
0.0
 30
0.0
 70
128
 71
92
 72
273
 73
94
  0
VERTEX
  8
0
 10
0.0
 20
0.0
 30
0.0
 70
128
 71
271
 72
273
 73
92
  0
VERTEX
  8
0
 10
0.0
 20
0.0
 30
0.0
 70
128
 71
532
 72
159
 73
157
  0
VERTEX
  8
0
 10
0.0
 20
0.0
 30
0.0
 70
128
 71
90
 72
229
 73
231
  0
VERTEX
  8
0
 10
0.0
 20
0.0
 30
0.0
 70
128
 71
273
 72
275
 73
94
  0
VERTEX
  8
0
 10
0.0
 20
0.0
 30
0.0
 70
128
 71
94
 72
275
 73
96
  0
VERTEX
  8
0
 10
0.0
 20
0.0
 30
0.0
 70
128
 71
44
 72
306
 73
47
  0
VERTEX
  8
0
 10
0.0
 20
0.0
 30
0.0
 70
128
 71
47
 72
306
 73
82
  0
VERTEX
  8
0
 10
0.0
 20
0.0
 30
0.0
 70
128
 71
82
 72
306
 73
308
  0
VERTEX
  8
0
 10
0.0
 20
0.0
 30
0.0
 70
128
 71
90
 72
227
 73
229
  0
VERTEX
  8
0
 10
0.0
 20
0.0
 30
0.0
 70
128
 71
96
 72
277
 73
100
  0
VERTEX
  8
0
 10
0.0
 20
0.0
 30
0.0
 70
128
 71
275
 72
277
 73
96
  0
VERTEX
  8
0
 10
0.0
 20
0.0
 30
0.0
 70
128
 71
43
 72
309
 73
44
  0
VERTEX
  8
0
 10
0.0
 20
0.0
 30
0.0
 70
128
 71
44
 72
309
 73
306
  0
VERTEX
  8
0
 10
0.0
 20
0.0
 30
0.0
 70
128
 71
90
 72
225
 73
227
  0
VERTEX
  8
0
 10
0.0
 20
0.0
 30
0.0
 70
128
 71
79
 72
382
 73
43
  0
VERTEX
  8
0
 10
0.0
 20
0.0
 30
0.0
 70
128
 71
43
 72
382
 73
309
  0
VERTEX
  8
0
 10
0.0
 20
0.0
 30
0.0
 70
128
 71
100
 72
279
 73
104
  0
VERTEX
  8
0
 10
0.0
 20
0.0
 30
0.0
 70
128
 71
77
 72
378
 73
79
  0
VERTEX
  8
0
 10
0.0
 20
0.0
 30
0.0
 70
128
 71
277
 72
279
 73
100
  0
VERTEX
  8
0
 10
0.0
 20
0.0
 30
0.0
 70
128
 71
79
 72
378
 73
382
  0
VERTEX
  8
0
 10
0.0
 20
0.0
 30
0.0
 70
128
 71
90
 72
223
 73
225
  0
VERTEX
  8
0
 10
0.0
 20
0.0
 30
0.0
 70
128
 71
279
 72
281
 73
104
  0
VERTEX
  8
0
 10
0.0
 20
0.0
 30
0.0
 70
128
 71
532
 72
468
 73
159
  0
VERTEX
  8
0
 10
0.0
 20
0.0
 30
0.0
 70
128
 71
75
 72
374
 73
77
  0
VERTEX
  8
0
 10
0.0
 20
0.0
 30
0.0
 70
128
 71
104
 72
281
 73
108
  0
VERTEX
  8
0
 10
0.0
 20
0.0
 30
0.0
 70
128
 71
77
 72
374
 73
378
  0
VERTEX
  8
0
 10
0.0
 20
0.0
 30
0.0
 70
128
 71
90
 72
221
 73
223
  0
VERTEX
  8
0
 10
0.0
 20
0.0
 30
0.0
 70
128
 71
75
 72
370
 73
374
  0
VERTEX
  8
0
 10
0.0
 20
0.0
 30
0.0
 70
128
 71
73
 72
370
 73
75
  0
VERTEX
  8
0
 10
0.0
 20
0.0
 30
0.0
 70
128
 71
73
 72
366
 73
370
  0
VERTEX
  8
0
 10
0.0
 20
0.0
 30
0.0
 70
128
 71
108
 72
283
 73
112
  0
VERTEX
  8
0
 10
0.0
 20
0.0
 30
0.0
 70
128
 71
281
 72
283
 73
108
  0
VERTEX
  8
0
 10
0.0
 20
0.0
 30
0.0
 70
128
 71
71
 72
366
 73
73
  0
VERTEX
  8
0
 10
0.0
 20
0.0
 30
0.0
 70
128
 71
71
 72
362
 73
366
  0
VERTEX
  8
0
 10
0.0
 20
0.0
 30
0.0
 70
128
 71
69
 72
362
 73
71
  0
VERTEX
  8
0
 10
0.0
 20
0.0
 30
0.0
 70
128
 71
283
 72
285
 73
112
  0
VERTEX
  8
0
 10
0.0
 20
0.0
 30
0.0
 70
128
 71
112
 72
285
 73
116
  0
VERTEX
  8
0
 10
0.0
 20
0.0
 30
0.0
 70
128
 71
69
 72
358
 73
362
  0
VERTEX
  8
0
 10
0.0
 20
0.0
 30
0.0
 70
128
 71
69
 72
67
 73
358
  0
VERTEX
  8
0
 10
0.0
 20
0.0
 30
0.0
 70
128
 71
67
 72
354
 73
358
  0
VERTEX
  8
0
 10
0.0
 20
0.0
 30
0.0
 70
128
 71
285
 72
287
 73
116
  0
VERTEX
  8
0
 10
0.0
 20
0.0
 30
0.0
 70
128
 71
287
 72
120
 73
116
  0
VERTEX
  8
0
 10
0.0
 20
0.0
 30
0.0
 70
128
 71
67
 72
65
 73
354
  0
VERTEX
  8
0
 10
0.0
 20
0.0
 30
0.0
 70
128
 71
354
 72
65
 73
350
  0
VERTEX
  8
0
 10
0.0
 20
0.0
 30
0.0
 70
128
 71
287
 72
289
 73
120
  0
VERTEX
  8
0
 10
0.0
 20
0.0
 30
0.0
 70
128
 71
65
 72
63
 73
350
  0
VERTEX
  8
0
 10
0.0
 20
0.0
 30
0.0
 70
128
 71
350
 72
63
 73
346
  0
VERTEX
  8
0
 10
0.0
 20
0.0
 30
0.0
 70
128
 71
289
 72
122
 73
120
  0
VERTEX
  8
0
 10
0.0
 20
0.0
 30
0.0
 70
128
 71
291
 72
122
 73
289
  0
VERTEX
  8
0
 10
0.0
 20
0.0
 30
0.0
 70
128
 71
63
 72
61
 73
346
  0
VERTEX
  8
0
 10
0.0
 20
0.0
 30
0.0
 70
128
 71
346
 72
61
 73
342
  0
VERTEX
  8
0
 10
0.0
 20
0.0
 30
0.0
 70
128
 71
291
 72
127
 73
122
  0
VERTEX
  8
0
 10
0.0
 20
0.0
 30
0.0
 70
128
 71
293
 72
127
 73
291
  0
VERTEX
  8
0
 10
0.0
 20
0.0
 30
0.0
 70
128
 71
465
 72
5
 73
463
  0
VERTEX
  8
0
 10
0.0
 20
0.0
 30
0.0
 70
128
 71
471
 72
5
 73
465
  0
VERTEX
  8
0
 10
0.0
 20
0.0
 30
0.0
 70
128
 71
473
 72
5
 73
471
  0
VERTEX
  8
0
 10
0.0
 20
0.0
 30
0.0
 70
128
 71
477
 72
5
 73
473
  0
VERTEX
  8
0
 10
0.0
 20
0.0
 30
0.0
 70
128
 71
483
 72
5
 73
477
  0
VERTEX
  8
0
 10
0.0
 20
0.0
 30
0.0
 70
128
 71
485
 72
5
 73
483
  0
VERTEX
  8
0
 10
0.0
 20
0.0
 30
0.0
 70
128
 71
489
 72
5
 73
485
  0
VERTEX
  8
0
 10
0.0
 20
0.0
 30
0.0
 70
128
 71
61
 72
59
 73
342
  0
VERTEX
  8
0
 10
0.0
 20
0.0
 30
0.0
 70
128
 71
493
 72
5
 73
489
  0
VERTEX
  8
0
 10
0.0
 20
0.0
 30
0.0
 70
128
 71
497
 72
5
 73
493
  0
VERTEX
  8
0
 10
0.0
 20
0.0
 30
0.0
 70
128
 71
501
 72
5
 73
497
  0
VERTEX
  8
0
 10
0.0
 20
0.0
 30
0.0
 70
128
 71
505
 72
5
 73
501
  0
VERTEX
  8
0
 10
0.0
 20
0.0
 30
0.0
 70
128
 71
41
 72
5
 73
348
  0
VERTEX
  8
0
 10
0.0
 20
0.0
 30
0.0
 70
128
 71
348
 72
5
 73
505
  0
VERTEX
  8
0
 10
0.0
 20
0.0
 30
0.0
 70
128
 71
342
 72
59
 73
339
  0
VERTEX
  8
0
 10
0.0
 20
0.0
 30
0.0
 70
128
 71
468
 72
7
 73
159
  0
VERTEX
  8
0
 10
0.0
 20
0.0
 30
0.0
 70
128
 71
295
 72
130
 73
293
  0
VERTEX
  8
0
 10
0.0
 20
0.0
 30
0.0
 70
128
 71
293
 72
130
 73
127
  0
VERTEX
  8
0
 10
0.0
 20
0.0
 30
0.0
 70
128
 71
5
 72
2
 73
463
  0
VERTEX
  8
0
 10
0.0
 20
0.0
 30
0.0
 70
128
 71
463
 72
2
 73
459
  0
VERTEX
  8
0
 10
0.0
 20
0.0
 30
0.0
 70
128
 71
467
 72
8
 73
468
  0
VERTEX
  8
0
 10
0.0
 20
0.0
 30
0.0
 70
128
 71
295
 72
134
 73
130
  0
VERTEX
  8
0
 10
0.0
 20
0.0
 30
0.0
 70
128
 71
297
 72
134
 73
295
  0
VERTEX
  8
0
 10
0.0
 20
0.0
 30
0.0
 70
128
 71
468
 72
8
 73
7
  0
VERTEX
  8
0
 10
0.0
 20
0.0
 30
0.0
 70
128
 71
475
 72
11
 73
467
  0
VERTEX
  8
0
 10
0.0
 20
0.0
 30
0.0
 70
128
 71
467
 72
11
 73
8
  0
VERTEX
  8
0
 10
0.0
 20
0.0
 30
0.0
 70
128
 71
2
 72
1
 73
459
  0
VERTEX
  8
0
 10
0.0
 20
0.0
 30
0.0
 70
128
 71
299
 72
138
 73
297
  0
VERTEX
  8
0
 10
0.0
 20
0.0
 30
0.0
 70
128
 71
459
 72
1
 73
460
  0
VERTEX
  8
0
 10
0.0
 20
0.0
 30
0.0
 70
128
 71
59
 72
57
 73
339
  0
VERTEX
  8
0
 10
0.0
 20
0.0
 30
0.0
 70
128
 71
297
 72
138
 73
134
  0
VERTEX
  8
0
 10
0.0
 20
0.0
 30
0.0
 70
128
 71
1
 72
39
 73
460
  0
VERTEX
  8
0
 10
0.0
 20
0.0
 30
0.0
 70
128
 71
460
 72
39
 73
527
  0
VERTEX
  8
0
 10
0.0
 20
0.0
 30
0.0
 70
128
 71
339
 72
57
 73
336
  0
VERTEX
  8
0
 10
0.0
 20
0.0
 30
0.0
 70
128
 71
479
 72
13
 73
475
  0
VERTEX
  8
0
 10
0.0
 20
0.0
 30
0.0
 70
128
 71
475
 72
13
 73
11
  0
VERTEX
  8
0
 10
0.0
 20
0.0
 30
0.0
 70
128
 71
39
 72
37
 73
527
  0
VERTEX
  8
0
 10
0.0
 20
0.0
 30
0.0
 70
128
 71
527
 72
37
 73
523
  0
VERTEX
  8
0
 10
0.0
 20
0.0
 30
0.0
 70
128
 71
481
 72
15
 73
479
  0
VERTEX
  8
0
 10
0.0
 20
0.0
 30
0.0
 70
128
 71
479
 72
15
 73
13
  0
VERTEX
  8
0
 10
0.0
 20
0.0
 30
0.0
 70
128
 71
487
 72
17
 73
481
  0
VERTEX
  8
0
 10
0.0
 20
0.0
 30
0.0
 70
128
 71
301
 72
141
 73
299
  0
VERTEX
  8
0
 10
0.0
 20
0.0
 30
0.0
 70
128
 71
303
 72
141
 73
301
  0
VERTEX
  8
0
 10
0.0
 20
0.0
 30
0.0
 70
128
 71
162
 72
141
 73
303
  0
VERTEX
  8
0
 10
0.0
 20
0.0
 30
0.0
 70
128
 71
299
 72
141
 73
138
  0
VERTEX
  8
0
 10
0.0
 20
0.0
 30
0.0
 70
128
 71
161
 72
141
 73
162
  0
VERTEX
  8
0
 10
0.0
 20
0.0
 30
0.0
 70
128
 71
165
 72
141
 73
161
  0
VERTEX
  8
0
 10
0.0
 20
0.0
 30
0.0
 70
128
 71
481
 72
17
 73
15
  0
VERTEX
  8
0
 10
0.0
 20
0.0
 30
0.0
 70
128
 71
167
 72
141
 73
165
  0
VERTEX
  8
0
 10
0.0
 20
0.0
 30
0.0
 70
128
 71
169
 72
141
 73
167
  0
VERTEX
  8
0
 10
0.0
 20
0.0
 30
0.0
 70
128
 71
37
 72
35
 73
523
  0
VERTEX
  8
0
 10
0.0
 20
0.0
 30
0.0
 70
128
 71
171
 72
141
 73
169
  0
VERTEX
  8
0
 10
0.0
 20
0.0
 30
0.0
 70
128
 71
523
 72
35
 73
519
  0
VERTEX
  8
0
 10
0.0
 20
0.0
 30
0.0
 70
128
 71
171
 72
173
 73
141
  0
VERTEX
  8
0
 10
0.0
 20
0.0
 30
0.0
 70
128
 71
35
 72
33
 73
519
  0
VERTEX
  8
0
 10
0.0
 20
0.0
 30
0.0
 70
128
 71
519
 72
33
 73
515
  0
VERTEX
  8
0
 10
0.0
 20
0.0
 30
0.0
 70
128
 71
487
 72
19
 73
17
  0
VERTEX
  8
0
 10
0.0
 20
0.0
 30
0.0
 70
128
 71
491
 72
19
 73
487
  0
VERTEX
  8
0
 10
0.0
 20
0.0
 30
0.0
 70
128
 71
495
 72
21
 73
491
  0
VERTEX
  8
0
 10
0.0
 20
0.0
 30
0.0
 70
128
 71
491
 72
21
 73
19
  0
VERTEX
  8
0
 10
0.0
 20
0.0
 30
0.0
 70
128
 71
515
 72
31
 73
511
  0
VERTEX
  8
0
 10
0.0
 20
0.0
 30
0.0
 70
128
 71
33
 72
31
 73
515
  0
VERTEX
  8
0
 10
0.0
 20
0.0
 30
0.0
 70
128
 71
57
 72
55
 73
336
  0
VERTEX
  8
0
 10
0.0
 20
0.0
 30
0.0
 70
128
 71
336
 72
55
 73
332
  0
VERTEX
  8
0
 10
0.0
 20
0.0
 30
0.0
 70
128
 71
499
 72
23
 73
495
  0
VERTEX
  8
0
 10
0.0
 20
0.0
 30
0.0
 70
128
 71
221
 72
87
 73
219
  0
VERTEX
  8
0
 10
0.0
 20
0.0
 30
0.0
 70
128
 71
495
 72
23
 73
21
  0
VERTEX
  8
0
 10
0.0
 20
0.0
 30
0.0
 70
128
 71
511
 72
29
 73
507
  0
VERTEX
  8
0
 10
0.0
 20
0.0
 30
0.0
 70
128
 71
31
 72
29
 73
511
  0
VERTEX
  8
0
 10
0.0
 20
0.0
 30
0.0
 70
128
 71
90
 72
87
 73
221
  0
VERTEX
  8
0
 10
0.0
 20
0.0
 30
0.0
 70
128
 71
503
 72
25
 73
499
  0
VERTEX
  8
0
 10
0.0
 20
0.0
 30
0.0
 70
128
 71
499
 72
25
 73
23
  0
VERTEX
  8
0
 10
0.0
 20
0.0
 30
0.0
 70
128
 71
332
 72
53
 73
328
  0
VERTEX
  8
0
 10
0.0
 20
0.0
 30
0.0
 70
128
 71
55
 72
53
 73
332
  0
VERTEX
  8
0
 10
0.0
 20
0.0
 30
0.0
 70
128
 71
507
 72
27
 73
503
  0
VERTEX
  8
0
 10
0.0
 20
0.0
 30
0.0
 70
128
 71
29
 72
27
 73
507
  0
VERTEX
  8
0
 10
0.0
 20
0.0
 30
0.0
 70
128
 71
503
 72
27
 73
25
  0
VERTEX
  8
0
 10
0.0
 20
0.0
 30
0.0
 70
128
 71
328
 72
51
 73
324
  0
VERTEX
  8
0
 10
0.0
 20
0.0
 30
0.0
 70
128
 71
53
 72
51
 73
328
  0
VERTEX
  8
0
 10
0.0
 20
0.0
 30
0.0
 70
128
 71
324
 72
49
 73
318
  0
VERTEX
  8
0
 10
0.0
 20
0.0
 30
0.0
 70
128
 71
51
 72
49
 73
324
  0
VERTEX
  8
0
 10
0.0
 20
0.0
 30
0.0
 70
128
 71
49
 72
41
 73
318
  0
VERTEX
  8
0
 10
0.0
 20
0.0
 30
0.0
 70
128
 71
352
 72
41
 73
348
  0
VERTEX
  8
0
 10
0.0
 20
0.0
 30
0.0
 70
128
 71
356
 72
41
 73
352
  0
VERTEX
  8
0
 10
0.0
 20
0.0
 30
0.0
 70
128
 71
360
 72
41
 73
356
  0
VERTEX
  8
0
 10
0.0
 20
0.0
 30
0.0
 70
128
 71
364
 72
41
 73
360
  0
VERTEX
  8
0
 10
0.0
 20
0.0
 30
0.0
 70
128
 71
367
 72
41
 73
364
  0
VERTEX
  8
0
 10
0.0
 20
0.0
 30
0.0
 70
128
 71
371
 72
41
 73
367
  0
VERTEX
  8
0
 10
0.0
 20
0.0
 30
0.0
 70
128
 71
375
 72
41
 73
371
  0
VERTEX
  8
0
 10
0.0
 20
0.0
 30
0.0
 70
128
 71
379
 72
41
 73
375
  0
VERTEX
  8
0
 10
0.0
 20
0.0
 30
0.0
 70
128
 71
313
 72
41
 73
379
  0
VERTEX
  8
0
 10
0.0
 20
0.0
 30
0.0
 70
128
 71
312
 72
41
 73
313
  0
VERTEX
  8
0
 10
0.0
 20
0.0
 30
0.0
 70
128
 71
316
 72
41
 73
312
  0
VERTEX
  8
0
 10
0.0
 20
0.0
 30
0.0
 70
128
 71
87
 72
423
 73
427
  0
VERTEX
  8
0
 10
0.0
 20
0.0
 30
0.0
 70
128
 71
318
 72
41
 73
316
  0
VERTEX
  8
0
 10
0.0
 20
0.0
 30
0.0
 70
128
 71
427
 72
431
 73
87
  0
VERTEX
  8
0
 10
0.0
 20
0.0
 30
0.0
 70
128
 71
197
 72
575
 73
195
  0
VERTEX
  8
0
 10
0.0
 20
0.0
 30
0.0
 70
128
 71
197
 72
571
 73
575
  0
VERTEX
  8
0
 10
0.0
 20
0.0
 30
0.0
 70
128
 71
431
 72
435
 73
87
  0
VERTEX
  8
0
 10
0.0
 20
0.0
 30
0.0
 70
128
 71
425
 72
571
 73
197
  0
VERTEX
  8
0
 10
0.0
 20
0.0
 30
0.0
 70
128
 71
87
 72
419
 73
423
  0
VERTEX
  8
0
 10
0.0
 20
0.0
 30
0.0
 70
128
 71
575
 72
579
 73
195
  0
VERTEX
  8
0
 10
0.0
 20
0.0
 30
0.0
 70
128
 71
87
 72
415
 73
419
  0
VERTEX
  8
0
 10
0.0
 20
0.0
 30
0.0
 70
128
 71
195
 72
579
 73
193
  0
VERTEX
  8
0
 10
0.0
 20
0.0
 30
0.0
 70
128
 71
429
 72
567
 73
425
  0
VERTEX
  8
0
 10
0.0
 20
0.0
 30
0.0
 70
128
 71
435
 72
439
 73
87
  0
VERTEX
  8
0
 10
0.0
 20
0.0
 30
0.0
 70
128
 71
425
 72
567
 73
571
  0
VERTEX
  8
0
 10
0.0
 20
0.0
 30
0.0
 70
128
 71
579
 72
583
 73
193
  0
VERTEX
  8
0
 10
0.0
 20
0.0
 30
0.0
 70
128
 71
87
 72
411
 73
415
  0
VERTEX
  8
0
 10
0.0
 20
0.0
 30
0.0
 70
128
 71
439
 72
443
 73
87
  0
VERTEX
  8
0
 10
0.0
 20
0.0
 30
0.0
 70
128
 71
193
 72
583
 73
191
  0
VERTEX
  8
0
 10
0.0
 20
0.0
 30
0.0
 70
128
 71
433
 72
563
 73
429
  0
VERTEX
  8
0
 10
0.0
 20
0.0
 30
0.0
 70
128
 71
87
 72
405
 73
411
  0
VERTEX
  8
0
 10
0.0
 20
0.0
 30
0.0
 70
128
 71
429
 72
563
 73
567
  0
VERTEX
  8
0
 10
0.0
 20
0.0
 30
0.0
 70
128
 71
583
 72
587
 73
191
  0
VERTEX
  8
0
 10
0.0
 20
0.0
 30
0.0
 70
128
 71
191
 72
587
 73
189
  0
VERTEX
  8
0
 10
0.0
 20
0.0
 30
0.0
 70
128
 71
87
 72
447
 73
219
  0
VERTEX
  8
0
 10
0.0
 20
0.0
 30
0.0
 70
128
 71
587
 72
591
 73
189
  0
VERTEX
  8
0
 10
0.0
 20
0.0
 30
0.0
 70
128
 71
443
 72
447
 73
87
  0
VERTEX
  8
0
 10
0.0
 20
0.0
 30
0.0
 70
128
 71
189
 72
591
 73
187
  0
VERTEX
  8
0
 10
0.0
 20
0.0
 30
0.0
 70
128
 71
433
 72
559
 73
563
  0
VERTEX
  8
0
 10
0.0
 20
0.0
 30
0.0
 70
128
 71
87
 72
401
 73
405
  0
VERTEX
  8
0
 10
0.0
 20
0.0
 30
0.0
 70
128
 71
437
 72
559
 73
433
  0
VERTEX
  8
0
 10
0.0
 20
0.0
 30
0.0
 70
128
 71
441
 72
559
 73
437
  0
VERTEX
  8
0
 10
0.0
 20
0.0
 30
0.0
 70
128
 71
219
 72
452
 73
217
  0
VERTEX
  8
0
 10
0.0
 20
0.0
 30
0.0
 70
128
 71
447
 72
452
 73
219
  0
VERTEX
  8
0
 10
0.0
 20
0.0
 30
0.0
 70
128
 71
441
 72
553
 73
559
  0
VERTEX
  8
0
 10
0.0
 20
0.0
 30
0.0
 70
128
 71
217
 72
386
 73
215
  0
VERTEX
  8
0
 10
0.0
 20
0.0
 30
0.0
 70
128
 71
591
 72
595
 73
187
  0
VERTEX
  8
0
 10
0.0
 20
0.0
 30
0.0
 70
128
 71
452
 72
386
 73
217
  0
VERTEX
  8
0
 10
0.0
 20
0.0
 30
0.0
 70
128
 71
445
 72
551
 73
441
  0
VERTEX
  8
0
 10
0.0
 20
0.0
 30
0.0
 70
128
 71
87
 72
399
 73
401
  0
VERTEX
  8
0
 10
0.0
 20
0.0
 30
0.0
 70
128
 71
85
 72
399
 73
87
  0
VERTEX
  8
0
 10
0.0
 20
0.0
 30
0.0
 70
128
 71
441
 72
551
 73
553
  0
VERTEX
  8
0
 10
0.0
 20
0.0
 30
0.0
 70
128
 71
386
 72
385
 73
215
  0
VERTEX
  8
0
 10
0.0
 20
0.0
 30
0.0
 70
128
 71
595
 72
600
 73
187
  0
VERTEX
  8
0
 10
0.0
 20
0.0
 30
0.0
 70
128
 71
187
 72
600
 73
185
  0
VERTEX
  8
0
 10
0.0
 20
0.0
 30
0.0
 70
128
 71
449
 72
545
 73
445
  0
VERTEX
  8
0
 10
0.0
 20
0.0
 30
0.0
 70
128
 71
83
 72
393
 73
85
  0
VERTEX
  8
0
 10
0.0
 20
0.0
 30
0.0
 70
128
 71
85
 72
393
 73
399
  0
VERTEX
  8
0
 10
0.0
 20
0.0
 30
0.0
 70
128
 71
82
 72
308
 73
83
  0
VERTEX
  8
0
 10
0.0
 20
0.0
 30
0.0
 70
128
 71
445
 72
545
 73
551
  0
VERTEX
  8
0
 10
0.0
 20
0.0
 30
0.0
 70
128
 71
83
 72
308
 73
393
  0
VERTEX
  8
0
 10
0.0
 20
0.0
 30
0.0
 70
128
 71
600
 72
534
 73
185
  0
VERTEX
  8
0
 10
0.0
 20
0.0
 30
0.0
 70
128
 71
390
 72
216
 73
214
  0
VERTEX
  8
0
 10
0.0
 20
0.0
 30
0.0
 70
128
 71
390
 72
388
 73
216
  0
VERTEX
  8
0
 10
0.0
 20
0.0
 30
0.0
 70
128
 71
535
 72
186
 73
184
  0
VERTEX
  8
0
 10
0.0
 20
0.0
 30
0.0
 70
128
 71
536
 72
535
 73
184
  0
VERTEX
  8
0
 10
0.0
 20
0.0
 30
0.0
 70
128
 71
536
 72
184
 73
182
  0
VERTEX
  8
0
 10
0.0
 20
0.0
 30
0.0
 70
128
 71
392
 72
214
 73
212
  0
VERTEX
  8
0
 10
0.0
 20
0.0
 30
0.0
 70
128
 71
542
 72
453
 73
450
  0
VERTEX
  8
0
 10
0.0
 20
0.0
 30
0.0
 70
128
 71
542
 72
450
 73
546
  0
VERTEX
  8
0
 10
0.0
 20
0.0
 30
0.0
 70
128
 71
392
 72
390
 73
214
  0
VERTEX
  8
0
 10
0.0
 20
0.0
 30
0.0
 70
128
 71
538
 72
536
 73
182
  0
VERTEX
  8
0
 10
0.0
 20
0.0
 30
0.0
 70
128
 71
396
 72
212
 73
210
  0
VERTEX
  8
0
 10
0.0
 20
0.0
 30
0.0
 70
128
 71
538
 72
182
 73
180
  0
VERTEX
  8
0
 10
0.0
 20
0.0
 30
0.0
 70
128
 71
455
 72
383
 73
453
  0
VERTEX
  8
0
 10
0.0
 20
0.0
 30
0.0
 70
128
 71
455
 72
453
 73
542
  0
VERTEX
  8
0
 10
0.0
 20
0.0
 30
0.0
 70
128
 71
396
 72
392
 73
212
  0
VERTEX
  8
0
 10
0.0
 20
0.0
 30
0.0
 70
128
 71
455
 72
322
 73
383
  0
VERTEX
  8
0
 10
0.0
 20
0.0
 30
0.0
 70
128
 71
398
 72
210
 73
208
  0
VERTEX
  8
0
 10
0.0
 20
0.0
 30
0.0
 70
128
 71
540
 72
538
 73
180
  0
VERTEX
  8
0
 10
0.0
 20
0.0
 30
0.0
 70
128
 71
398
 72
396
 73
210
  0
VERTEX
  8
0
 10
0.0
 20
0.0
 30
0.0
 70
128
 71
544
 72
540
 73
180
  0
VERTEX
  8
0
 10
0.0
 20
0.0
 30
0.0
 70
128
 71
544
 72
180
 73
178
  0
VERTEX
  8
0
 10
0.0
 20
0.0
 30
0.0
 70
128
 71
548
 72
544
 73
178
  0
VERTEX
  8
0
 10
0.0
 20
0.0
 30
0.0
 70
128
 71
404
 72
398
 73
208
  0
VERTEX
  8
0
 10
0.0
 20
0.0
 30
0.0
 70
128
 71
548
 72
178
 73
176
  0
VERTEX
  8
0
 10
0.0
 20
0.0
 30
0.0
 70
128
 71
550
 72
548
 73
176
  0
VERTEX
  8
0
 10
0.0
 20
0.0
 30
0.0
 70
128
 71
408
 72
208
 73
206
  0
VERTEX
  8
0
 10
0.0
 20
0.0
 30
0.0
 70
128
 71
252
 72
119
 73
125
  0
VERTEX
  8
0
 10
0.0
 20
0.0
 30
0.0
 70
128
 71
408
 72
404
 73
208
  0
VERTEX
  8
0
 10
0.0
 20
0.0
 30
0.0
 70
128
 71
254
 72
252
 73
125
  0
VERTEX
  8
0
 10
0.0
 20
0.0
 30
0.0
 70
128
 71
254
 72
125
 73
129
  0
VERTEX
  8
0
 10
0.0
 20
0.0
 30
0.0
 70
128
 71
410
 72
206
 73
204
  0
VERTEX
  8
0
 10
0.0
 20
0.0
 30
0.0
 70
128
 71
410
 72
408
 73
206
  0
VERTEX
  8
0
 10
0.0
 20
0.0
 30
0.0
 70
128
 71
250
 72
119
 73
252
  0
VERTEX
  8
0
 10
0.0
 20
0.0
 30
0.0
 70
128
 71
250
 72
115
 73
119
  0
VERTEX
  8
0
 10
0.0
 20
0.0
 30
0.0
 70
128
 71
414
 72
204
 73
202
  0
VERTEX
  8
0
 10
0.0
 20
0.0
 30
0.0
 70
128
 71
256
 72
254
 73
129
  0
VERTEX
  8
0
 10
0.0
 20
0.0
 30
0.0
 70
128
 71
256
 72
129
 73
133
  0
VERTEX
  8
0
 10
0.0
 20
0.0
 30
0.0
 70
128
 71
414
 72
410
 73
204
  0
VERTEX
  8
0
 10
0.0
 20
0.0
 30
0.0
 70
128
 71
248
 72
115
 73
250
  0
VERTEX
  8
0
 10
0.0
 20
0.0
 30
0.0
 70
128
 71
248
 72
111
 73
115
  0
VERTEX
  8
0
 10
0.0
 20
0.0
 30
0.0
 70
128
 71
418
 72
414
 73
202
  0
VERTEX
  8
0
 10
0.0
 20
0.0
 30
0.0
 70
128
 71
258
 72
256
 73
133
  0
VERTEX
  8
0
 10
0.0
 20
0.0
 30
0.0
 70
128
 71
258
 72
133
 73
137
  0
VERTEX
  8
0
 10
0.0
 20
0.0
 30
0.0
 70
128
 71
418
 72
202
 73
200
  0
VERTEX
  8
0
 10
0.0
 20
0.0
 30
0.0
 70
128
 71
422
 72
418
 73
200
  0
VERTEX
  8
0
 10
0.0
 20
0.0
 30
0.0
 70
128
 71
246
 72
107
 73
111
  0
VERTEX
  8
0
 10
0.0
 20
0.0
 30
0.0
 70
128
 71
246
 72
111
 73
248
  0
VERTEX
  8
0
 10
0.0
 20
0.0
 30
0.0
 70
128
 71
260
 72
258
 73
137
  0
VERTEX
  8
0
 10
0.0
 20
0.0
 30
0.0
 70
128
 71
457
 72
323
 73
322
  0
VERTEX
  8
0
 10
0.0
 20
0.0
 30
0.0
 70
128
 71
422
 72
200
 73
198
  0
VERTEX
  8
0
 10
0.0
 20
0.0
 30
0.0
 70
128
 71
260
 72
137
 73
143
  0
VERTEX
  8
0
 10
0.0
 20
0.0
 30
0.0
 70
128
 71
426
 72
422
 73
198
  0
VERTEX
  8
0
 10
0.0
 20
0.0
 30
0.0
 70
128
 71
457
 72
322
 73
455
  0
VERTEX
  8
0
 10
0.0
 20
0.0
 30
0.0
 70
128
 71
530
 72
323
 73
457
  0
VERTEX
  8
0
 10
0.0
 20
0.0
 30
0.0
 70
128
 71
530
 72
327
 73
323
  0
VERTEX
  8
0
 10
0.0
 20
0.0
 30
0.0
 70
128
 71
244
 72
103
 73
107
  0
VERTEX
  8
0
 10
0.0
 20
0.0
 30
0.0
 70
128
 71
244
 72
107
 73
246
  0
VERTEX
  8
0
 10
0.0
 20
0.0
 30
0.0
 70
128
 71
262
 72
260
 73
143
  0
VERTEX
  8
0
 10
0.0
 20
0.0
 30
0.0
 70
128
 71
526
 72
331
 73
327
  0
VERTEX
  8
0
 10
0.0
 20
0.0
 30
0.0
 70
128
 71
262
 72
143
 73
145
  0
VERTEX
  8
0
 10
0.0
 20
0.0
 30
0.0
 70
128
 71
526
 72
327
 73
530
  0
VERTEX
  8
0
 10
0.0
 20
0.0
 30
0.0
 70
128
 71
522
 72
331
 73
526
  0
VERTEX
  8
0
 10
0.0
 20
0.0
 30
0.0
 70
128
 71
522
 72
335
 73
331
  0
VERTEX
  8
0
 10
0.0
 20
0.0
 30
0.0
 70
128
 71
242
 72
99
 73
103
  0
VERTEX
  8
0
 10
0.0
 20
0.0
 30
0.0
 70
128
 71
242
 72
103
 73
244
  0
VERTEX
  8
0
 10
0.0
 20
0.0
 30
0.0
 70
128
 71
264
 72
262
 73
145
  0
VERTEX
  8
0
 10
0.0
 20
0.0
 30
0.0
 70
128
 71
154
 72
550
 73
176
  0
VERTEX
  8
0
 10
0.0
 20
0.0
 30
0.0
 70
128
 71
154
 72
556
 73
550
  0
VERTEX
  8
0
 10
0.0
 20
0.0
 30
0.0
 70
128
 71
154
 72
176
 73
174
  0
VERTEX
  8
0
 10
0.0
 20
0.0
 30
0.0
 70
128
 71
154
 72
558
 73
556
  0
VERTEX
  8
0
 10
0.0
 20
0.0
 30
0.0
 70
128
 71
264
 72
145
 73
147
  0
VERTEX
  8
0
 10
0.0
 20
0.0
 30
0.0
 70
128
 71
154
 72
562
 73
558
  0
VERTEX
  8
0
 10
0.0
 20
0.0
 30
0.0
 70
128
 71
154
 72
566
 73
562
  0
VERTEX
  8
0
 10
0.0
 20
0.0
 30
0.0
 70
128
 71
154
 72
570
 73
566
  0
VERTEX
  8
0
 10
0.0
 20
0.0
 30
0.0
 70
128
 71
154
 72
574
 73
570
  0
VERTEX
  8
0
 10
0.0
 20
0.0
 30
0.0
 70
128
 71
154
 72
578
 73
574
  0
VERTEX
  8
0
 10
0.0
 20
0.0
 30
0.0
 70
128
 71
154
 72
174
 73
142
  0
VERTEX
  8
0
 10
0.0
 20
0.0
 30
0.0
 70
128
 71
154
 72
582
 73
578
  0
VERTEX
  8
0
 10
0.0
 20
0.0
 30
0.0
 70
128
 71
154
 72
586
 73
582
  0
VERTEX
  8
0
 10
0.0
 20
0.0
 30
0.0
 70
128
 71
154
 72
590
 73
586
  0
VERTEX
  8
0
 10
0.0
 20
0.0
 30
0.0
 70
128
 71
240
 72
89
 73
99
  0
VERTEX
  8
0
 10
0.0
 20
0.0
 30
0.0
 70
128
 71
154
 72
594
 73
590
  0
VERTEX
  8
0
 10
0.0
 20
0.0
 30
0.0
 70
128
 71
240
 72
99
 73
242
  0
VERTEX
  8
0
 10
0.0
 20
0.0
 30
0.0
 70
128
 71
154
 72
598
 73
594
  0
VERTEX
  8
0
 10
0.0
 20
0.0
 30
0.0
 70
128
 71
518
 72
335
 73
522
  0
VERTEX
  8
0
 10
0.0
 20
0.0
 30
0.0
 70
128
 71
518
 72
341
 73
335
  0
VERTEX
  8
0
 10
0.0
 20
0.0
 30
0.0
 70
128
 71
266
 72
264
 73
147
  0
VERTEX
  8
0
 10
0.0
 20
0.0
 30
0.0
 70
128
 71
266
 72
147
 73
149
  0
VERTEX
  8
0
 10
0.0
 20
0.0
 30
0.0
 70
128
 71
514
 72
345
 73
341
  0
VERTEX
  8
0
 10
0.0
 20
0.0
 30
0.0
 70
128
 71
238
 72
89
 73
240
  0
VERTEX
  8
0
 10
0.0
 20
0.0
 30
0.0
 70
128
 71
514
 72
341
 73
518
  0
VERTEX
  8
0
 10
0.0
 20
0.0
 30
0.0
 70
128
 71
268
 72
149
 73
151
  0
VERTEX
  8
0
 10
0.0
 20
0.0
 30
0.0
 70
128
 71
156
 72
598
 73
154
  0
VERTEX
  8
0
 10
0.0
 20
0.0
 30
0.0
 70
128
 71
156
 72
602
 73
598
  0
VERTEX
  8
0
 10
0.0
 20
0.0
 30
0.0
 70
128
 71
510
 72
345
 73
514
  0
VERTEX
  8
0
 10
0.0
 20
0.0
 30
0.0
 70
128
 71
268
 72
266
 73
149
  0
VERTEX
  8
0
 10
0.0
 20
0.0
 30
0.0
 70
128
 71
510
 72
349
 73
345
  0
VERTEX
  8
0
 10
0.0
 20
0.0
 30
0.0
 70
128
 71
236
 72
89
 73
238
  0
VERTEX
  8
0
 10
0.0
 20
0.0
 30
0.0
 70
128
 71
270
 72
268
 73
151
  0
VERTEX
  8
0
 10
0.0
 20
0.0
 30
0.0
 70
128
 71
270
 72
151
 73
91
  0
VERTEX
  8
0
 10
0.0
 20
0.0
 30
0.0
 70
128
 71
506
 72
349
 73
510
  0
VERTEX
  8
0
 10
0.0
 20
0.0
 30
0.0
 70
128
 71
234
 72
89
 73
236
  0
VERTEX
  8
0
 10
0.0
 20
0.0
 30
0.0
 70
128
 71
158
 72
602
 73
156
  0
VERTEX
  8
0
 10
0.0
 20
0.0
 30
0.0
 70
128
 71
158
 72
531
 73
602
  0
VERTEX
  8
0
 10
0.0
 20
0.0
 30
0.0
 70
128
 71
272
 72
270
 73
91
  0
VERTEX
  8
0
 10
0.0
 20
0.0
 30
0.0
 70
128
 71
272
 72
91
 73
93
  0
VERTEX
  8
0
 10
0.0
 20
0.0
 30
0.0
 70
128
 71
232
 72
89
 73
234
  0
VERTEX
  8
0
 10
0.0
 20
0.0
 30
0.0
 70
128
 71
274
 72
93
 73
95
  0
VERTEX
  8
0
 10
0.0
 20
0.0
 30
0.0
 70
128
 71
274
 72
272
 73
93
  0
VERTEX
  8
0
 10
0.0
 20
0.0
 30
0.0
 70
128
 71
160
 72
531
 73
158
  0
VERTEX
  8
0
 10
0.0
 20
0.0
 30
0.0
 70
128
 71
230
 72
89
 73
232
  0
VERTEX
  8
0
 10
0.0
 20
0.0
 30
0.0
 70
128
 71
276
 72
274
 73
95
  0
VERTEX
  8
0
 10
0.0
 20
0.0
 30
0.0
 70
128
 71
276
 72
95
 73
97
  0
VERTEX
  8
0
 10
0.0
 20
0.0
 30
0.0
 70
128
 71
307
 72
46
 73
48
  0
VERTEX
  8
0
 10
0.0
 20
0.0
 30
0.0
 70
128
 71
307
 72
48
 73
81
  0
VERTEX
  8
0
 10
0.0
 20
0.0
 30
0.0
 70
128
 71
307
 72
81
 73
305
  0
VERTEX
  8
0
 10
0.0
 20
0.0
 30
0.0
 70
128
 71
228
 72
89
 73
230
  0
VERTEX
  8
0
 10
0.0
 20
0.0
 30
0.0
 70
128
 71
278
 72
97
 73
101
  0
VERTEX
  8
0
 10
0.0
 20
0.0
 30
0.0
 70
128
 71
278
 72
276
 73
97
  0
VERTEX
  8
0
 10
0.0
 20
0.0
 30
0.0
 70
128
 71
311
 72
45
 73
46
  0
VERTEX
  8
0
 10
0.0
 20
0.0
 30
0.0
 70
128
 71
311
 72
46
 73
307
  0
VERTEX
  8
0
 10
0.0
 20
0.0
 30
0.0
 70
128
 71
226
 72
89
 73
228
  0
VERTEX
  8
0
 10
0.0
 20
0.0
 30
0.0
 70
128
 71
310
 72
80
 73
45
  0
VERTEX
  8
0
 10
0.0
 20
0.0
 30
0.0
 70
128
 71
310
 72
45
 73
311
  0
VERTEX
  8
0
 10
0.0
 20
0.0
 30
0.0
 70
128
 71
280
 72
101
 73
105
  0
VERTEX
  8
0
 10
0.0
 20
0.0
 30
0.0
 70
128
 71
380
 72
78
 73
80
  0
VERTEX
  8
0
 10
0.0
 20
0.0
 30
0.0
 70
128
 71
280
 72
278
 73
101
  0
VERTEX
  8
0
 10
0.0
 20
0.0
 30
0.0
 70
128
 71
380
 72
80
 73
310
  0
VERTEX
  8
0
 10
0.0
 20
0.0
 30
0.0
 70
128
 71
224
 72
89
 73
226
  0
VERTEX
  8
0
 10
0.0
 20
0.0
 30
0.0
 70
128
 71
282
 72
280
 73
105
  0
VERTEX
  8
0
 10
0.0
 20
0.0
 30
0.0
 70
128
 71
469
 72
531
 73
160
  0
VERTEX
  8
0
 10
0.0
 20
0.0
 30
0.0
 70
128
 71
376
 72
76
 73
78
  0
VERTEX
  8
0
 10
0.0
 20
0.0
 30
0.0
 70
128
 71
282
 72
105
 73
109
  0
VERTEX
  8
0
 10
0.0
 20
0.0
 30
0.0
 70
128
 71
376
 72
78
 73
380
  0
VERTEX
  8
0
 10
0.0
 20
0.0
 30
0.0
 70
128
 71
222
 72
89
 73
224
  0
VERTEX
  8
0
 10
0.0
 20
0.0
 30
0.0
 70
128
 71
372
 72
76
 73
376
  0
VERTEX
  8
0
 10
0.0
 20
0.0
 30
0.0
 70
128
 71
372
 72
74
 73
76
  0
VERTEX
  8
0
 10
0.0
 20
0.0
 30
0.0
 70
128
 71
368
 72
74
 73
372
  0
VERTEX
  8
0
 10
0.0
 20
0.0
 30
0.0
 70
128
 71
284
 72
109
 73
113
  0
VERTEX
  8
0
 10
0.0
 20
0.0
 30
0.0
 70
128
 71
284
 72
282
 73
109
  0
VERTEX
  8
0
 10
0.0
 20
0.0
 30
0.0
 70
128
 71
368
 72
72
 73
74
  0
VERTEX
  8
0
 10
0.0
 20
0.0
 30
0.0
 70
128
 71
363
 72
72
 73
368
  0
VERTEX
  8
0
 10
0.0
 20
0.0
 30
0.0
 70
128
 71
363
 72
70
 73
72
  0
VERTEX
  8
0
 10
0.0
 20
0.0
 30
0.0
 70
128
 71
286
 72
284
 73
113
  0
VERTEX
  8
0
 10
0.0
 20
0.0
 30
0.0
 70
128
 71
286
 72
113
 73
117
  0
VERTEX
  8
0
 10
0.0
 20
0.0
 30
0.0
 70
128
 71
359
 72
70
 73
363
  0
VERTEX
  8
0
 10
0.0
 20
0.0
 30
0.0
 70
128
 71
68
 72
70
 73
359
  0
VERTEX
  8
0
 10
0.0
 20
0.0
 30
0.0
 70
128
 71
355
 72
68
 73
359
  0
VERTEX
  8
0
 10
0.0
 20
0.0
 30
0.0
 70
128
 71
288
 72
286
 73
117
  0
VERTEX
  8
0
 10
0.0
 20
0.0
 30
0.0
 70
128
 71
121
 72
288
 73
117
  0
VERTEX
  8
0
 10
0.0
 20
0.0
 30
0.0
 70
128
 71
66
 72
68
 73
355
  0
VERTEX
  8
0
 10
0.0
 20
0.0
 30
0.0
 70
128
 71
66
 72
355
 73
351
  0
VERTEX
  8
0
 10
0.0
 20
0.0
 30
0.0
 70
128
 71
290
 72
288
 73
121
  0
VERTEX
  8
0
 10
0.0
 20
0.0
 30
0.0
 70
128
 71
64
 72
66
 73
351
  0
VERTEX
  8
0
 10
0.0
 20
0.0
 30
0.0
 70
128
 71
64
 72
351
 73
347
  0
VERTEX
  8
0
 10
0.0
 20
0.0
 30
0.0
 70
128
 71
123
 72
290
 73
121
  0
VERTEX
  8
0
 10
0.0
 20
0.0
 30
0.0
 70
128
 71
123
 72
292
 73
290
  0
VERTEX
  8
0
 10
0.0
 20
0.0
 30
0.0
 70
128
 71
62
 72
64
 73
347
  0
VERTEX
  8
0
 10
0.0
 20
0.0
 30
0.0
 70
128
 71
62
 72
347
 73
343
  0
VERTEX
  8
0
 10
0.0
 20
0.0
 30
0.0
 70
128
 71
128
 72
292
 73
123
  0
VERTEX
  8
0
 10
0.0
 20
0.0
 30
0.0
 70
128
 71
128
 72
294
 73
292
  0
VERTEX
  8
0
 10
0.0
 20
0.0
 30
0.0
 70
128
 71
6
 72
466
 73
464
  0
VERTEX
  8
0
 10
0.0
 20
0.0
 30
0.0
 70
128
 71
6
 72
472
 73
466
  0
VERTEX
  8
0
 10
0.0
 20
0.0
 30
0.0
 70
128
 71
6
 72
474
 73
472
  0
VERTEX
  8
0
 10
0.0
 20
0.0
 30
0.0
 70
128
 71
6
 72
478
 73
474
  0
VERTEX
  8
0
 10
0.0
 20
0.0
 30
0.0
 70
128
 71
6
 72
484
 73
478
  0
VERTEX
  8
0
 10
0.0
 20
0.0
 30
0.0
 70
128
 71
6
 72
486
 73
484
  0
VERTEX
  8
0
 10
0.0
 20
0.0
 30
0.0
 70
128
 71
6
 72
490
 73
486
  0
VERTEX
  8
0
 10
0.0
 20
0.0
 30
0.0
 70
128
 71
60
 72
62
 73
343
  0
VERTEX
  8
0
 10
0.0
 20
0.0
 30
0.0
 70
128
 71
6
 72
494
 73
490
  0
VERTEX
  8
0
 10
0.0
 20
0.0
 30
0.0
 70
128
 71
6
 72
498
 73
494
  0
VERTEX
  8
0
 10
0.0
 20
0.0
 30
0.0
 70
128
 71
6
 72
502
 73
498
  0
VERTEX
  8
0
 10
0.0
 20
0.0
 30
0.0
 70
128
 71
6
 72
506
 73
502
  0
VERTEX
  8
0
 10
0.0
 20
0.0
 30
0.0
 70
128
 71
6
 72
42
 73
349
  0
VERTEX
  8
0
 10
0.0
 20
0.0
 30
0.0
 70
128
 71
6
 72
349
 73
506
  0
VERTEX
  8
0
 10
0.0
 20
0.0
 30
0.0
 70
128
 71
60
 72
343
 73
340
  0
VERTEX
  8
0
 10
0.0
 20
0.0
 30
0.0
 70
128
 71
9
 72
469
 73
160
  0
VERTEX
  8
0
 10
0.0
 20
0.0
 30
0.0
 70
128
 71
131
 72
296
 73
294
  0
VERTEX
  8
0
 10
0.0
 20
0.0
 30
0.0
 70
128
 71
131
 72
294
 73
128
  0
VERTEX
  8
0
 10
0.0
 20
0.0
 30
0.0
 70
128
 71
4
 72
6
 73
464
  0
VERTEX
  8
0
 10
0.0
 20
0.0
 30
0.0
 70
128
 71
4
 72
464
 73
462
  0
VERTEX
  8
0
 10
0.0
 20
0.0
 30
0.0
 70
128
 71
10
 72
470
 73
469
  0
VERTEX
  8
0
 10
0.0
 20
0.0
 30
0.0
 70
128
 71
135
 72
296
 73
131
  0
VERTEX
  8
0
 10
0.0
 20
0.0
 30
0.0
 70
128
 71
135
 72
298
 73
296
  0
VERTEX
  8
0
 10
0.0
 20
0.0
 30
0.0
 70
128
 71
10
 72
469
 73
9
  0
VERTEX
  8
0
 10
0.0
 20
0.0
 30
0.0
 70
128
 71
12
 72
476
 73
470
  0
VERTEX
  8
0
 10
0.0
 20
0.0
 30
0.0
 70
128
 71
12
 72
470
 73
10
  0
VERTEX
  8
0
 10
0.0
 20
0.0
 30
0.0
 70
128
 71
3
 72
4
 73
462
  0
VERTEX
  8
0
 10
0.0
 20
0.0
 30
0.0
 70
128
 71
139
 72
300
 73
298
  0
VERTEX
  8
0
 10
0.0
 20
0.0
 30
0.0
 70
128
 71
3
 72
462
 73
461
  0
VERTEX
  8
0
 10
0.0
 20
0.0
 30
0.0
 70
128
 71
58
 72
60
 73
340
  0
VERTEX
  8
0
 10
0.0
 20
0.0
 30
0.0
 70
128
 71
139
 72
298
 73
135
  0
VERTEX
  8
0
 10
0.0
 20
0.0
 30
0.0
 70
128
 71
40
 72
3
 73
461
  0
VERTEX
  8
0
 10
0.0
 20
0.0
 30
0.0
 70
128
 71
40
 72
461
 73
529
  0
VERTEX
  8
0
 10
0.0
 20
0.0
 30
0.0
 70
128
 71
58
 72
340
 73
337
  0
VERTEX
  8
0
 10
0.0
 20
0.0
 30
0.0
 70
128
 71
14
 72
480
 73
476
  0
VERTEX
  8
0
 10
0.0
 20
0.0
 30
0.0
 70
128
 71
14
 72
476
 73
12
  0
VERTEX
  8
0
 10
0.0
 20
0.0
 30
0.0
 70
128
 71
38
 72
40
 73
529
  0
VERTEX
  8
0
 10
0.0
 20
0.0
 30
0.0
 70
128
 71
38
 72
529
 73
524
  0
VERTEX
  8
0
 10
0.0
 20
0.0
 30
0.0
 70
128
 71
16
 72
482
 73
480
  0
VERTEX
  8
0
 10
0.0
 20
0.0
 30
0.0
 70
128
 71
16
 72
480
 73
14
  0
VERTEX
  8
0
 10
0.0
 20
0.0
 30
0.0
 70
128
 71
18
 72
488
 73
482
  0
VERTEX
  8
0
 10
0.0
 20
0.0
 30
0.0
 70
128
 71
142
 72
302
 73
300
  0
VERTEX
  8
0
 10
0.0
 20
0.0
 30
0.0
 70
128
 71
142
 72
304
 73
302
  0
VERTEX
  8
0
 10
0.0
 20
0.0
 30
0.0
 70
128
 71
142
 72
163
 73
304
  0
VERTEX
  8
0
 10
0.0
 20
0.0
 30
0.0
 70
128
 71
142
 72
300
 73
139
  0
VERTEX
  8
0
 10
0.0
 20
0.0
 30
0.0
 70
128
 71
142
 72
164
 73
163
  0
VERTEX
  8
0
 10
0.0
 20
0.0
 30
0.0
 70
128
 71
142
 72
166
 73
164
  0
VERTEX
  8
0
 10
0.0
 20
0.0
 30
0.0
 70
128
 71
18
 72
482
 73
16
  0
VERTEX
  8
0
 10
0.0
 20
0.0
 30
0.0
 70
128
 71
142
 72
168
 73
166
  0
VERTEX
  8
0
 10
0.0
 20
0.0
 30
0.0
 70
128
 71
142
 72
170
 73
168
  0
VERTEX
  8
0
 10
0.0
 20
0.0
 30
0.0
 70
128
 71
36
 72
38
 73
524
  0
VERTEX
  8
0
 10
0.0
 20
0.0
 30
0.0
 70
128
 71
142
 72
172
 73
170
  0
VERTEX
  8
0
 10
0.0
 20
0.0
 30
0.0
 70
128
 71
36
 72
524
 73
520
  0
VERTEX
  8
0
 10
0.0
 20
0.0
 30
0.0
 70
128
 71
174
 72
172
 73
142
  0
VERTEX
  8
0
 10
0.0
 20
0.0
 30
0.0
 70
128
 71
34
 72
36
 73
520
  0
VERTEX
  8
0
 10
0.0
 20
0.0
 30
0.0
 70
128
 71
34
 72
520
 73
516
  0
VERTEX
  8
0
 10
0.0
 20
0.0
 30
0.0
 70
128
 71
20
 72
488
 73
18
  0
VERTEX
  8
0
 10
0.0
 20
0.0
 30
0.0
 70
128
 71
20
 72
492
 73
488
  0
VERTEX
  8
0
 10
0.0
 20
0.0
 30
0.0
 70
128
 71
22
 72
496
 73
492
  0
VERTEX
  8
0
 10
0.0
 20
0.0
 30
0.0
 70
128
 71
22
 72
492
 73
20
  0
VERTEX
  8
0
 10
0.0
 20
0.0
 30
0.0
 70
128
 71
32
 72
516
 73
512
  0
VERTEX
  8
0
 10
0.0
 20
0.0
 30
0.0
 70
128
 71
32
 72
34
 73
516
  0
VERTEX
  8
0
 10
0.0
 20
0.0
 30
0.0
 70
128
 71
56
 72
58
 73
337
  0
VERTEX
  8
0
 10
0.0
 20
0.0
 30
0.0
 70
128
 71
56
 72
337
 73
333
  0
VERTEX
  8
0
 10
0.0
 20
0.0
 30
0.0
 70
128
 71
24
 72
500
 73
496
  0
VERTEX
  8
0
 10
0.0
 20
0.0
 30
0.0
 70
128
 71
88
 72
222
 73
220
  0
VERTEX
  8
0
 10
0.0
 20
0.0
 30
0.0
 70
128
 71
24
 72
496
 73
22
  0
VERTEX
  8
0
 10
0.0
 20
0.0
 30
0.0
 70
128
 71
30
 72
512
 73
508
  0
VERTEX
  8
0
 10
0.0
 20
0.0
 30
0.0
 70
128
 71
30
 72
32
 73
512
  0
VERTEX
  8
0
 10
0.0
 20
0.0
 30
0.0
 70
128
 71
88
 72
89
 73
222
  0
VERTEX
  8
0
 10
0.0
 20
0.0
 30
0.0
 70
128
 71
26
 72
504
 73
500
  0
VERTEX
  8
0
 10
0.0
 20
0.0
 30
0.0
 70
128
 71
26
 72
500
 73
24
  0
VERTEX
  8
0
 10
0.0
 20
0.0
 30
0.0
 70
128
 71
54
 72
333
 73
329
  0
VERTEX
  8
0
 10
0.0
 20
0.0
 30
0.0
 70
128
 71
54
 72
56
 73
333
  0
VERTEX
  8
0
 10
0.0
 20
0.0
 30
0.0
 70
128
 71
28
 72
508
 73
504
  0
VERTEX
  8
0
 10
0.0
 20
0.0
 30
0.0
 70
128
 71
28
 72
30
 73
508
  0
VERTEX
  8
0
 10
0.0
 20
0.0
 30
0.0
 70
128
 71
28
 72
504
 73
26
  0
VERTEX
  8
0
 10
0.0
 20
0.0
 30
0.0
 70
128
 71
52
 72
329
 73
325
  0
VERTEX
  8
0
 10
0.0
 20
0.0
 30
0.0
 70
128
 71
52
 72
54
 73
329
  0
VERTEX
  8
0
 10
0.0
 20
0.0
 30
0.0
 70
128
 71
50
 72
325
 73
319
  0
VERTEX
  8
0
 10
0.0
 20
0.0
 30
0.0
 70
128
 71
50
 72
52
 73
325
  0
VERTEX
  8
0
 10
0.0
 20
0.0
 30
0.0
 70
128
 71
42
 72
50
 73
319
  0
VERTEX
  8
0
 10
0.0
 20
0.0
 30
0.0
 70
128
 71
42
 72
353
 73
349
  0
VERTEX
  8
0
 10
0.0
 20
0.0
 30
0.0
 70
128
 71
42
 72
357
 73
353
  0
VERTEX
  8
0
 10
0.0
 20
0.0
 30
0.0
 70
128
 71
42
 72
361
 73
357
  0
VERTEX
  8
0
 10
0.0
 20
0.0
 30
0.0
 70
128
 71
42
 72
365
 73
361
  0
VERTEX
  8
0
 10
0.0
 20
0.0
 30
0.0
 70
128
 71
42
 72
369
 73
365
  0
VERTEX
  8
0
 10
0.0
 20
0.0
 30
0.0
 70
128
 71
42
 72
373
 73
369
  0
VERTEX
  8
0
 10
0.0
 20
0.0
 30
0.0
 70
128
 71
42
 72
377
 73
373
  0
VERTEX
  8
0
 10
0.0
 20
0.0
 30
0.0
 70
128
 71
42
 72
381
 73
377
  0
VERTEX
  8
0
 10
0.0
 20
0.0
 30
0.0
 70
128
 71
42
 72
314
 73
381
  0
VERTEX
  8
0
 10
0.0
 20
0.0
 30
0.0
 70
128
 71
42
 72
315
 73
314
  0
VERTEX
  8
0
 10
0.0
 20
0.0
 30
0.0
 70
128
 71
42
 72
317
 73
315
  0
VERTEX
  8
0
 10
0.0
 20
0.0
 30
0.0
 70
128
 71
424
 72
88
 73
428
  0
VERTEX
  8
0
 10
0.0
 20
0.0
 30
0.0
 70
128
 71
42
 72
319
 73
317
  0
VERTEX
  8
0
 10
0.0
 20
0.0
 30
0.0
 70
128
 71
432
 72
428
 73
88
  0
VERTEX
  8
0
 10
0.0
 20
0.0
 30
0.0
 70
128
 71
576
 72
198
 73
196
  0
VERTEX
  8
0
 10
0.0
 20
0.0
 30
0.0
 70
128
 71
572
 72
198
 73
576
  0
VERTEX
  8
0
 10
0.0
 20
0.0
 30
0.0
 70
128
 71
436
 72
432
 73
88
  0
VERTEX
  8
0
 10
0.0
 20
0.0
 30
0.0
 70
128
 71
572
 72
426
 73
198
  0
VERTEX
  8
0
 10
0.0
 20
0.0
 30
0.0
 70
128
 71
420
 72
88
 73
424
  0
VERTEX
  8
0
 10
0.0
 20
0.0
 30
0.0
 70
128
 71
580
 72
576
 73
196
  0
VERTEX
  8
0
 10
0.0
 20
0.0
 30
0.0
 70
128
 71
416
 72
88
 73
420
  0
VERTEX
  8
0
 10
0.0
 20
0.0
 30
0.0
 70
128
 71
580
 72
196
 73
194
  0
VERTEX
  8
0
 10
0.0
 20
0.0
 30
0.0
 70
128
 71
568
 72
430
 73
426
  0
VERTEX
  8
0
 10
0.0
 20
0.0
 30
0.0
 70
128
 71
440
 72
436
 73
88
  0
VERTEX
  8
0
 10
0.0
 20
0.0
 30
0.0
 70
128
 71
568
 72
426
 73
572
  0
VERTEX
  8
0
 10
0.0
 20
0.0
 30
0.0
 70
128
 71
584
 72
580
 73
194
  0
VERTEX
  8
0
 10
0.0
 20
0.0
 30
0.0
 70
128
 71
412
 72
88
 73
416
  0
VERTEX
  8
0
 10
0.0
 20
0.0
 30
0.0
 70
128
 71
444
 72
440
 73
88
  0
VERTEX
  8
0
 10
0.0
 20
0.0
 30
0.0
 70
128
 71
584
 72
194
 73
192
  0
VERTEX
  8
0
 10
0.0
 20
0.0
 30
0.0
 70
128
 71
564
 72
434
 73
430
  0
VERTEX
  8
0
 10
0.0
 20
0.0
 30
0.0
 70
128
 71
406
 72
88
 73
412
  0
VERTEX
  8
0
 10
0.0
 20
0.0
 30
0.0
 70
128
 71
564
 72
430
 73
568
  0
VERTEX
  8
0
 10
0.0
 20
0.0
 30
0.0
 70
128
 71
588
 72
584
 73
192
  0
VERTEX
  8
0
 10
0.0
 20
0.0
 30
0.0
 70
128
 71
588
 72
192
 73
190
  0
VERTEX
  8
0
 10
0.0
 20
0.0
 30
0.0
 70
128
 71
448
 72
88
 73
220
  0
VERTEX
  8
0
 10
0.0
 20
0.0
 30
0.0
 70
128
 71
592
 72
588
 73
190
  0
VERTEX
  8
0
 10
0.0
 20
0.0
 30
0.0
 70
128
 71
448
 72
444
 73
88
  0
VERTEX
  8
0
 10
0.0
 20
0.0
 30
0.0
 70
128
 71
592
 72
190
 73
188
  0
VERTEX
  8
0
 10
0.0
 20
0.0
 30
0.0
 70
128
 71
560
 72
434
 73
564
  0
VERTEX
  8
0
 10
0.0
 20
0.0
 30
0.0
 70
128
 71
402
 72
88
 73
406
  0
VERTEX
  8
0
 10
0.0
 20
0.0
 30
0.0
 70
128
 71
560
 72
438
 73
434
  0
VERTEX
  8
0
 10
0.0
 20
0.0
 30
0.0
 70
128
 71
560
 72
442
 73
438
  0
VERTEX
  8
0
 10
0.0
 20
0.0
 30
0.0
 70
128
 71
454
 72
220
 73
218
  0
VERTEX
  8
0
 10
0.0
 20
0.0
 30
0.0
 70
128
 71
454
 72
448
 73
220
  0
VERTEX
  8
0
 10
0.0
 20
0.0
 30
0.0
 70
128
 71
554
 72
442
 73
560
  0
VERTEX
  8
0
 10
0.0
 20
0.0
 30
0.0
 70
128
 71
387
 72
218
 73
216
  0
VERTEX
  8
0
 10
0.0
 20
0.0
 30
0.0
 70
128
 71
596
 72
592
 73
188
  0
VERTEX
  8
0
 10
0.0
 20
0.0
 30
0.0
 70
128
 71
387
 72
454
 73
218
  0
VERTEX
  8
0
 10
0.0
 20
0.0
 30
0.0
 70
128
 71
552
 72
446
 73
442
  0
VERTEX
  8
0
 10
0.0
 20
0.0
 30
0.0
 70
128
 71
400
 72
88
 73
402
  0
VERTEX
  8
0
 10
0.0
 20
0.0
 30
0.0
 70
128
 71
400
 72
86
 73
88
  0
VERTEX
  8
0
 10
0.0
 20
0.0
 30
0.0
 70
128
 71
552
 72
442
 73
554
  0
VERTEX
  8
0
 10
0.0
 20
0.0
 30
0.0
 70
128
 71
388
 72
387
 73
216
  0
VERTEX
  8
0
 10
0.0
 20
0.0
 30
0.0
 70
128
 71
601
 72
596
 73
188
  0
VERTEX
  8
0
 10
0.0
 20
0.0
 30
0.0
 70
128
 71
601
 72
188
 73
186
  0
VERTEX
  8
0
 10
0.0
 20
0.0
 30
0.0
 70
128
 71
546
 72
450
 73
446
  0
VERTEX
  8
0
 10
0.0
 20
0.0
 30
0.0
 70
128
 71
394
 72
84
 73
86
  0
VERTEX
  8
0
 10
0.0
 20
0.0
 30
0.0
 70
128
 71
394
 72
86
 73
400
  0
VERTEX
  8
0
 10
0.0
 20
0.0
 30
0.0
 70
128
 71
305
 72
81
 73
84
  0
VERTEX
  8
0
 10
0.0
 20
0.0
 30
0.0
 70
128
 71
546
 72
446
 73
552
  0
VERTEX
  8
0
 10
0.0
 20
0.0
 30
0.0
 70
128
 71
305
 72
84
 73
394
  0
VERTEX
  8
0
 10
0.0
 20
0.0
 30
0.0
 70
128
 71
535
 72
601
 73
186
  0
SEQEND
  8
0
  0
ENDSEC
  0
EOF
